<svg xmlns="http://www.w3.org/2000/svg" xmlns:xlink="http://www.w3.org/1999/xlink" width="512" zoomAndPan="magnify" viewBox="0 0 384 383.999986" height="512" preserveAspectRatio="xMidYMid meet" version="1.0"><defs><clipPath id="id1"><path d="M 15 26.183594 L 384 26.183594 L 384 323 L 15 323 Z M 15 26.183594 " clip-rule="nonzero"/></clipPath></defs><g clip-path="url(#id1)"><path fill="#ffb347" d="M 382.050781 258.722656 C 380.625 241.355469 379.007812 221.675781 382.847656 207.734375 C 383.171875 206.546875 382.757812 205.277344 381.792969 204.515625 C 380.824219 203.75 379.492188 203.644531 378.414062 204.230469 C 374.441406 206.410156 369.207031 209.277344 364.828125 211.660156 C 370.074219 200.046875 371.242188 190.757812 371.179688 184.601562 C 371.113281 178.394531 370.253906 172.75 369.421875 167.292969 C 367.785156 156.578125 366.371094 147.324219 370.957031 135.957031 C 371.429688 134.792969 371.136719 133.457031 370.226562 132.589844 C 369.316406 131.722656 367.964844 131.503906 366.824219 132.027344 L 351.226562 139.242188 C 369.007812 109.816406 374.070312 73.75 366.722656 29.394531 C 366.503906 28.070312 365.453125 27.046875 364.128906 26.859375 C 362.808594 26.679688 361.507812 27.363281 360.929688 28.570312 C 352.367188 46.460938 341.476562 48.691406 327.679688 51.515625 C 321.148438 52.851562 313.75 54.367188 306.074219 57.785156 C 297.5625 61.585938 287.414062 68.996094 278.996094 75.828125 C 281.414062 69.296875 282.667969 62.050781 282.667969 54.085938 C 282.667969 52.816406 281.882812 51.679688 280.699219 51.222656 C 279.515625 50.769531 278.171875 51.085938 277.320312 52.03125 C 262.265625 68.726562 243.53125 71.765625 225.414062 74.699219 C 214.867188 76.40625 204.90625 78.019531 196.0625 82.214844 C 184.882812 87.492188 174.703125 95.703125 166.996094 102.980469 C 168.777344 95.738281 168.550781 88.492188 166.175781 81.296875 C 165.808594 80.1875 164.839844 79.382812 163.679688 79.222656 C 162.523438 79.066406 161.375 79.574219 160.71875 80.542969 C 147.546875 100.039062 130.40625 109.632812 110.558594 120.746094 C 93.707031 130.179688 74.605469 140.871094 55.71875 159.546875 C 15.070312 199.75 15.804688 255.703125 15.855469 258.066406 C 15.894531 259.738281 17.261719 261.066406 18.925781 261.066406 C 18.945312 261.066406 18.96875 261.066406 18.988281 261.066406 C 20.679688 261.027344 22.023438 259.625 21.992188 257.933594 C 21.980469 257.382812 21.304688 202.207031 60.03125 163.910156 C 78.328125 145.816406 96.234375 135.792969 113.554688 126.097656 C 131.410156 116.101562 148.363281 106.609375 161.800781 89.472656 C 163.089844 99.03125 160.054688 108.554688 152.621094 118.40625 C 152.621094 118.410156 152.621094 118.410156 152.617188 118.410156 C 152.402344 118.679688 152.289062 118.847656 152.289062 118.847656 L 152.382812 118.90625 C 151.734375 120.203125 152.027344 121.796875 153.222656 122.699219 C 154.554688 123.703125 156.421875 123.445312 157.457031 122.15625 L 157.46875 122.167969 C 159.425781 119.714844 177.214844 97.898438 198.679688 87.769531 C 206.742188 83.941406 216.285156 82.394531 226.386719 80.757812 C 242.589844 78.128906 260.703125 75.199219 276.101562 61.816406 C 274.765625 73.296875 270.316406 82.59375 262.613281 90.089844 C 262.605469 90.097656 262.605469 90.105469 262.59375 90.117188 C 262.433594 90.226562 262.324219 90.3125 262.164062 90.519531 C 262.128906 90.550781 261.972656 90.703125 261.941406 90.734375 C 260.761719 91.910156 260.804688 93.753906 261.957031 94.960938 C 263.109375 96.164062 265.078125 96.167969 266.304688 95.039062 C 266.359375 94.996094 266.433594 94.917969 266.519531 94.832031 C 266.632812 94.738281 266.742188 94.632812 266.851562 94.519531 C 271.09375 90.535156 293.035156 70.320312 308.574219 63.382812 C 315.632812 60.238281 322.382812 58.855469 328.910156 57.519531 C 341.085938 55.027344 352.683594 52.652344 361.964844 39.101562 C 367.628906 82.367188 360.472656 117 340.175781 144.773438 C 339.351562 145.898438 339.394531 147.441406 340.28125 148.523438 C 341.167969 149.605469 342.671875 149.945312 343.941406 149.363281 L 363.0625 140.519531 C 360.65625 150.566406 362.023438 159.511719 363.355469 168.21875 C 364.15625 173.460938 364.984375 178.882812 365.042969 184.660156 C 365.113281 191.4375 363.484375 202.507812 355.324219 216.757812 C 354.75 217.765625 354.035156 219.015625 354.933594 220.5625 C 355.480469 221.507812 356.496094 222.09375 357.589844 222.09375 C 358.496094 222.09375 358.578125 222.09375 375.496094 212.824219 C 373.269531 226.828125 374.671875 243.902344 375.933594 259.226562 C 376.890625 270.878906 377.796875 281.886719 376.84375 289.148438 C 374.558594 306.644531 365.105469 316.996094 365.015625 317.09375 C 363.855469 318.328125 363.917969 320.269531 365.152344 321.429688 C 365.746094 321.984375 366.496094 322.261719 367.25 322.261719 C 368.070312 322.261719 368.886719 321.933594 369.488281 321.292969 C 369.929688 320.820312 380.375 309.492188 382.925781 289.945312 C 383.964844 282.035156 383.035156 270.714844 382.050781 258.722656 Z M 382.050781 258.722656 " fill-opacity="1" fill-rule="nonzero"/></g><path fill="#6fceae" d="M 167.863281 317.9375 C 157.097656 317.9375 148.355469 326.675781 148.355469 337.4375 C 148.355469 348.199219 157.097656 356.90625 167.863281 356.90625 C 172.953125 356.90625 177.617188 354.941406 181.082031 351.722656 L 367.253906 337.4375 L 181.082031 323.117188 C 177.617188 319.898438 172.953125 317.9375 167.863281 317.9375 Z M 167.863281 317.9375 " fill-opacity="1" fill-rule="nonzero"/><path fill="#6fceae" d="M 235.308594 272.53125 C 235.308594 272.53125 226.351562 225.410156 167.863281 225.410156 C 109.34375 225.410156 100.386719 272.53125 100.386719 272.53125 C 100.386719 272.53125 123.082031 240.984375 167.863281 240.984375 C 212.609375 240.984375 235.308594 272.53125 235.308594 272.53125 Z M 235.308594 272.53125 " fill-opacity="1" fill-rule="nonzero"/><path fill="#6fceae" d="M 220.246094 290.40625 C 219.820312 288.289062 211.9375 254.566406 167.863281 254.566406 C 123.757812 254.566406 115.875 288.289062 115.445312 290.40625 C 116.550781 288.902344 132.007812 268.363281 167.863281 268.363281 C 203.6875 268.363281 219.144531 288.902344 220.246094 290.40625 Z M 220.246094 290.40625 " fill-opacity="1" fill-rule="nonzero"/><path fill="#6fceae" d="M 205.769531 313.308594 C 205.464844 311.773438 199.117188 283.691406 167.863281 283.691406 C 136.578125 283.691406 130.230469 311.773438 129.921875 313.308594 C 130.8125 312.355469 145.136719 296.964844 167.863281 296.964844 C 190.558594 296.964844 204.882812 312.355469 205.769531 313.308594 Z M 205.769531 313.308594 " fill-opacity="1" fill-rule="nonzero"/><path fill="#6fceae" d="M 329.804688 319.195312 L 367.253906 319.195312 C 366.273438 310.703125 364.707031 302.363281 362.652344 294.269531 L 326.953125 308.339844 C 328.085938 311.929688 329.039062 315.578125 329.804688 319.195312 Z M 329.804688 319.195312 " fill-opacity="1" fill-rule="nonzero"/><path fill="#6fceae" d="M 323.085938 297.824219 L 359.492188 283.476562 C 356.917969 275.445312 353.757812 267.65625 350.109375 260.144531 L 316.09375 283.476562 C 318.730469 288.167969 321.0625 292.980469 323.085938 297.824219 Z M 323.085938 297.824219 " fill-opacity="1" fill-rule="nonzero"/><path fill="#6fceae" d="M 310.023438 273.664062 L 344.710938 249.90625 C 339.21875 240.214844 332.839844 231.109375 325.695312 222.679688 C 325.695312 222.710938 294.347656 253.984375 294.347656 253.984375 C 300.207031 260.238281 305.453125 266.828125 310.023438 273.664062 Z M 310.023438 273.664062 " fill-opacity="1" fill-rule="nonzero"/><path fill="#6fceae" d="M 285.515625 245.246094 L 317.320312 213.480469 C 309.222656 205.144531 300.269531 197.601562 290.636719 190.976562 L 263.21875 227.921875 C 271.253906 233.164062 278.707031 238.960938 285.515625 245.246094 Z M 285.515625 245.246094 " fill-opacity="1" fill-rule="nonzero"/><path fill="#6fceae" d="M 251.960938 221.175781 L 279.597656 183.957031 C 263.09375 174.332031 244.875 167.25 225.429688 163.203125 L 205.617188 203.824219 C 222.332031 207.472656 237.851562 213.453125 251.960938 221.175781 Z M 251.960938 221.175781 " fill-opacity="1" fill-rule="nonzero"/><path fill="#6fceae" d="M 190.527344 201.21875 L 210.28125 160.6875 C 202.796875 159.765625 195.128906 159.308594 187.339844 159.308594 C 116.609375 159.308594 50.484375 198.644531 18.925781 258 C 8.433594 277.710938 1.75 299.664062 0 323.117188 C 28.585938 254.625 83.332031 199.777344 167.863281 199.777344 C 175.589844 199.777344 183.136719 200.269531 190.527344 201.21875 Z M 190.527344 201.21875 " fill-opacity="1" fill-rule="nonzero"/><path fill="#e15c63" d="M 367.253906 337.4375 L 181.082031 351.722656 C 184.945312 348.167969 187.339844 343.078125 187.339844 337.4375 C 187.339844 331.796875 184.945312 326.707031 181.082031 323.117188 Z M 367.253906 337.4375 " fill-opacity="1" fill-rule="nonzero"/><path fill="#20bab6" d="M 181.082031 323.117188 C 184.945312 326.707031 187.339844 331.796875 187.339844 337.4375 C 187.339844 343.078125 184.945312 348.167969 181.082031 351.722656 C 177.617188 354.941406 172.953125 356.90625 167.863281 356.90625 C 157.097656 356.90625 148.355469 348.199219 148.355469 337.4375 C 148.355469 326.675781 157.097656 317.9375 167.863281 317.9375 C 172.953125 317.9375 177.617188 319.898438 181.082031 323.117188 Z M 181.082031 323.117188 " fill-opacity="1" fill-rule="nonzero"/><path fill="#0d87a3" d="M 167.863281 225.410156 C 226.351562 225.410156 235.308594 272.53125 235.308594 272.53125 C 235.308594 272.53125 212.609375 240.984375 167.863281 240.984375 C 123.082031 240.984375 100.386719 272.53125 100.386719 272.53125 C 100.386719 272.53125 109.34375 225.410156 167.863281 225.410156 Z M 167.863281 225.410156 " fill-opacity="1" fill-rule="nonzero"/><path fill="#1498b7" d="M 167.863281 254.566406 C 211.9375 254.566406 219.820312 288.289062 220.246094 290.40625 C 219.144531 288.902344 203.6875 268.363281 167.863281 268.363281 C 132.007812 268.363281 116.550781 288.902344 115.445312 290.40625 C 115.875 288.289062 123.757812 254.566406 167.863281 254.566406 Z M 167.863281 254.566406 " fill-opacity="1" fill-rule="nonzero"/><path fill="#1ea6bc" d="M 167.863281 283.691406 C 199.117188 283.691406 205.464844 311.773438 205.769531 313.308594 C 204.882812 312.355469 190.558594 296.964844 167.863281 296.964844 C 145.136719 296.964844 130.8125 312.355469 129.921875 313.308594 C 130.230469 311.773438 136.578125 283.691406 167.863281 283.691406 Z M 167.863281 283.691406 " fill-opacity="1" fill-rule="nonzero"/><path fill="#d14b62" d="M 367.253906 319.195312 L 329.804688 319.195312 C 329.039062 315.578125 328.085938 311.929688 326.953125 308.339844 L 362.652344 294.269531 C 364.707031 302.363281 366.273438 310.703125 367.253906 319.195312 Z M 367.253906 319.195312 " fill-opacity="1" fill-rule="nonzero"/><path fill="#e15c63" d="M 359.492188 283.476562 L 323.085938 297.824219 C 321.0625 292.980469 318.730469 288.167969 316.09375 283.476562 L 350.109375 260.144531 C 353.757812 267.65625 356.917969 275.445312 359.492188 283.476562 Z M 359.492188 283.476562 " fill-opacity="1" fill-rule="nonzero"/><path fill="#ef9d26" d="M 344.710938 249.90625 L 310.023438 273.664062 C 305.453125 266.828125 300.207031 260.238281 294.347656 253.984375 C 294.347656 253.984375 325.695312 222.710938 325.695312 222.679688 C 332.839844 231.109375 339.21875 240.214844 344.710938 249.90625 Z M 344.710938 249.90625 " fill-opacity="1" fill-rule="nonzero"/><path fill="#ffc05a" d="M 317.320312 213.480469 L 285.515625 245.246094 C 278.707031 238.960938 271.253906 233.164062 263.21875 227.921875 L 290.636719 190.976562 C 300.269531 197.601562 309.222656 205.144531 317.320312 213.480469 Z M 317.320312 213.480469 " fill-opacity="1" fill-rule="nonzero"/><path fill="#4aaf8f" d="M 279.597656 183.957031 L 251.960938 221.175781 C 237.851562 213.453125 222.332031 207.472656 205.617188 203.824219 L 225.429688 163.203125 C 244.875 167.25 263.09375 174.332031 279.597656 183.957031 Z M 279.597656 183.957031 " fill-opacity="1" fill-rule="nonzero"/></svg>