<svg xmlns="http://www.w3.org/2000/svg" xmlns:xlink="http://www.w3.org/1999/xlink" width="1000" zoomAndPan="magnify" viewBox="0 0 750 749.999995" height="1000" preserveAspectRatio="xMidYMid meet" version="1.0"><defs><clipPath id="id1"><path d="M 287 0.234375 L 401 0.234375 L 401 114 L 287 114 Z M 287 0.234375 " clip-rule="nonzero"/></clipPath><clipPath id="id2"><path d="M 468 0.234375 L 750 0.234375 L 750 19 L 468 19 Z M 468 0.234375 " clip-rule="nonzero"/></clipPath></defs><path fill="#fda4ff" d="M 256.664062 130.851562 C 245.9375 133.996094 234.71875 127.855469 231.605469 117.148438 C 228.488281 106.429688 234.65625 95.199219 245.378906 92.058594 C 256.101562 88.917969 267.320312 95.050781 270.433594 105.765625 C 273.550781 116.480469 267.386719 127.710938 256.664062 130.851562 Z M 295.332031 106.820312 L 290.855469 91.4375 L 281.261719 94.246094 C 279.40625 90.972656 277.054688 88.078125 274.335938 85.628906 L 279.152344 76.859375 L 265.101562 69.171875 L 260.285156 77.941406 C 256.753906 76.972656 253.042969 76.550781 249.28125 76.753906 L 246.492188 67.164062 L 231.09375 71.675781 L 233.882812 81.261719 C 230.601562 83.128906 227.703125 85.484375 225.246094 88.207031 L 216.484375 83.417969 L 208.761719 97.484375 L 217.519531 102.273438 C 216.542969 105.808594 216.113281 109.515625 216.304688 113.28125 L 206.53125 116.59375 L 211.183594 131.476562 L 220.777344 128.660156 C 222.632812 131.9375 224.984375 134.832031 227.703125 137.28125 L 222.890625 146.050781 L 236.941406 153.742188 L 241.757812 144.96875 C 245.285156 145.941406 248.996094 146.359375 252.757812 146.160156 L 255.550781 155.75 L 270.945312 151.234375 L 268.15625 141.648438 C 271.4375 139.785156 274.339844 137.429688 276.796875 134.703125 L 285.554688 139.5 L 293.277344 125.429688 L 284.515625 120.636719 C 285.5 117.101562 285.925781 113.390625 285.738281 109.632812 L 295.332031 106.820312 " fill-opacity="1" fill-rule="nonzero"/><g clip-path="url(#id1)"><path fill="#fda4ff" d="M 350.890625 81.363281 C 337.246094 85.359375 322.972656 77.546875 319.011719 63.917969 C 315.042969 50.289062 322.886719 36.003906 336.535156 32 C 350.175781 28.003906 364.453125 35.8125 368.417969 49.441406 C 372.382812 63.074219 364.535156 77.363281 350.890625 81.363281 Z M 400.09375 50.777344 L 394.398438 31.210938 L 382.1875 34.785156 C 379.828125 30.617188 376.839844 26.933594 373.378906 23.820312 L 379.503906 12.664062 L 361.625 2.878906 L 355.5 14.039062 C 351.011719 12.804688 346.289062 12.269531 341.5 12.527344 L 337.949219 0.328125 L 318.359375 6.070312 L 321.910156 18.269531 C 317.734375 20.636719 314.042969 23.636719 310.921875 27.101562 L 299.769531 21.007812 L 289.945312 38.902344 L 301.089844 45.003906 C 299.84375 49.496094 299.300781 54.214844 299.542969 59.003906 L 287.109375 63.222656 L 293.027344 82.152344 L 305.234375 78.578125 C 307.59375 82.738281 310.589844 86.425781 314.046875 89.539062 L 307.917969 100.703125 L 325.796875 110.484375 L 331.921875 99.320312 C 336.417969 100.554688 341.136719 101.085938 345.925781 100.832031 L 349.472656 113.035156 L 369.0625 107.292969 L 365.515625 95.09375 C 369.691406 92.722656 373.378906 89.722656 376.507812 86.257812 L 387.65625 92.359375 L 397.480469 74.457031 L 386.332031 68.359375 C 387.582031 63.871094 388.128906 59.144531 387.878906 54.359375 L 400.09375 50.777344 " fill-opacity="1" fill-rule="nonzero"/></g><g clip-path="url(#id2)"><path fill="#000000" d="M 470.535156 16.824219 L 748.082031 16.824219 L 748.082031 2.046875 L 470.535156 2.046875 Z M 748.988281 18.636719 L 469.628906 18.636719 C 469.132812 18.636719 468.722656 18.230469 468.722656 17.734375 L 468.722656 1.140625 C 468.722656 0.640625 469.132812 0.238281 469.628906 0.238281 L 748.988281 0.238281 C 749.484375 0.238281 749.890625 0.640625 749.890625 1.140625 L 749.890625 17.734375 C 749.890625 18.230469 749.484375 18.636719 748.988281 18.636719 " fill-opacity="1" fill-rule="nonzero"/></g><path fill="#000000" d="M 470.535156 191.359375 L 748.082031 191.359375 L 748.082031 18.636719 L 470.535156 18.636719 Z M 748.988281 193.167969 L 469.628906 193.167969 C 469.132812 193.167969 468.722656 192.765625 468.722656 192.261719 L 468.722656 17.734375 C 468.722656 17.234375 469.132812 16.824219 469.628906 16.824219 L 748.988281 16.824219 C 749.484375 16.824219 749.890625 17.234375 749.890625 17.734375 L 749.890625 192.261719 C 749.890625 192.765625 749.484375 193.167969 748.988281 193.167969 " fill-opacity="1" fill-rule="nonzero"/><path fill="#000000" d="M 479.265625 6.507812 C 477.507812 6.507812 476.085938 7.90625 476.085938 9.621094 C 476.085938 11.339844 477.507812 12.734375 479.265625 12.734375 C 481.019531 12.734375 482.449219 11.339844 482.449219 9.621094 C 482.449219 7.90625 481.019531 6.507812 479.265625 6.507812 Z M 479.265625 14.542969 C 476.511719 14.542969 474.277344 12.335938 474.277344 9.621094 C 474.277344 6.90625 476.511719 4.699219 479.265625 4.699219 C 482.015625 4.699219 484.257812 6.90625 484.257812 9.621094 C 484.257812 12.335938 482.015625 14.542969 479.265625 14.542969 " fill-opacity="1" fill-rule="nonzero"/><path fill="#000000" d="M 493.464844 6.507812 C 491.710938 6.507812 490.28125 7.90625 490.28125 9.621094 C 490.28125 11.339844 491.710938 12.734375 493.464844 12.734375 C 495.214844 12.734375 496.648438 11.339844 496.648438 9.621094 C 496.648438 7.90625 495.214844 6.507812 493.464844 6.507812 Z M 493.464844 14.542969 C 490.710938 14.542969 488.472656 12.335938 488.472656 9.621094 C 488.472656 6.90625 490.710938 4.699219 493.464844 4.699219 C 496.214844 4.699219 498.449219 6.90625 498.449219 9.621094 C 498.449219 12.335938 496.214844 14.542969 493.464844 14.542969 " fill-opacity="1" fill-rule="nonzero"/><path fill="#000000" d="M 507.65625 6.507812 C 505.902344 6.507812 504.476562 7.90625 504.476562 9.621094 C 504.476562 11.339844 505.902344 12.734375 507.65625 12.734375 C 509.410156 12.734375 510.839844 11.339844 510.839844 9.621094 C 510.839844 7.90625 509.410156 6.507812 507.65625 6.507812 Z M 507.65625 14.542969 C 504.90625 14.542969 502.671875 12.335938 502.671875 9.621094 C 502.671875 6.90625 504.90625 4.699219 507.65625 4.699219 C 510.414062 4.699219 512.648438 6.90625 512.648438 9.621094 C 512.648438 12.335938 510.414062 14.542969 507.65625 14.542969 " fill-opacity="1" fill-rule="nonzero"/><path fill="#fed101" d="M 630.503906 152.324219 L 641.496094 191.421875 L 710.109375 191.4375 L 701.867188 164.136719 L 701.878906 164.136719 L 682.453125 128.960938 L 630.503906 152.324219 " fill-opacity="1" fill-rule="nonzero"/><path fill="#000000" d="M 710.109375 193.164062 C 709.71875 193.164062 709.351562 192.910156 709.238281 192.507812 C 709.171875 192.261719 702.117188 167.539062 699.601562 161.871094 C 695.898438 153.519531 681.820312 129.660156 681.675781 129.421875 C 681.425781 128.988281 681.566406 128.429688 681.996094 128.183594 C 682.429688 127.925781 682.980469 128.066406 683.234375 128.5 C 683.8125 129.484375 697.511719 152.691406 701.253906 161.140625 C 703.816406 166.921875 710.6875 190.992188 710.980469 192.011719 C 711.117188 192.492188 710.835938 193 710.359375 193.132812 C 710.28125 193.15625 710.191406 193.164062 710.109375 193.164062 " fill-opacity="1" fill-rule="nonzero"/><path fill="#fed101" d="M 681.175781 191.433594 L 662.667969 138.804688 L 610.589844 159.191406 L 610.789062 191.433594 L 681.175781 191.433594 " fill-opacity="1" fill-rule="nonzero"/><path fill="#020202" d="M 610.589844 175.144531 L 693.605469 148.398438 L 682.886719 129.488281 L 605.921875 160.734375 L 610.589844 175.144531 " fill-opacity="1" fill-rule="nonzero"/><path fill="#8c7bff" d="M 705.863281 44.257812 L 493.433594 45.242188 C 481.519531 45.296875 471.894531 55.007812 471.945312 66.933594 C 471.996094 78.855469 481.695312 88.476562 493.613281 88.421875 L 548.542969 88.167969 L 602.753906 172.996094 L 690.914062 136.191406 L 662.96875 87.632812 L 706.042969 87.433594 C 717.957031 87.378906 727.582031 77.667969 727.53125 65.742188 C 727.480469 53.820312 717.78125 44.203125 705.863281 44.257812 " fill-opacity="1" fill-rule="nonzero"/><path fill="#000000" d="M 554.800781 115.816406 L 569.015625 115.816406 L 569.015625 37.265625 L 557.636719 25.773438 L 554.800781 115.816406 " fill-opacity="1" fill-rule="nonzero"/><path fill="#955b50" d="M 595.476562 52.683594 L 586.121094 68.019531 L 570.191406 43.089844 L 583.785156 34.390625 L 595.476562 52.683594 " fill-opacity="1" fill-rule="nonzero"/><path fill="#000000" d="M 587.078125 39.546875 L 583.785156 34.390625 L 570.191406 43.089844 L 577.460938 54.46875 C 578.847656 53.929688 581.488281 52.675781 583.707031 49.953125 C 587.171875 45.6875 587.136719 40.871094 587.078125 39.546875 " fill-opacity="1" fill-rule="nonzero"/><path fill="#955b50" d="M 584.839844 26.601562 C 589.25 33.5 587.6875 43.65625 580.671875 47.757812 C 574.273438 51.5 565.933594 49 562.40625 41.605469 C 559.125 34.71875 560.578125 26.121094 566.382812 22.128906 C 572.492188 17.929688 580.425781 19.695312 584.839844 26.601562 " fill-opacity="1" fill-rule="nonzero"/><path fill="#ffffff" d="M 580.605469 38.160156 C 580.167969 39.804688 579.226562 41.328125 577.789062 42.46875 C 574.585938 45.003906 570.082031 44.757812 567.171875 42.074219 L 580.605469 38.160156 " fill-opacity="1" fill-rule="nonzero"/><path fill="#000000" d="M 572.023438 23.011719 C 572.023438 23.011719 551.207031 11.777344 560.886719 85.851562 L 565.195312 116.152344 L 535.671875 116.152344 C 535.671875 116.152344 550.964844 50.019531 552.078125 44.515625 C 555.242188 28.902344 556.894531 9.058594 570.929688 12.253906 L 572.023438 23.011719 " fill-opacity="1" fill-rule="nonzero"/><path fill="#000000" d="M 585.347656 116.152344 L 613.835938 116.152344 C 613.835938 116.152344 597.441406 38.074219 596.328125 31.742188 C 595.257812 25.601562 592.105469 19.292969 587.152344 15.261719 C 584.398438 13.023438 577.953125 8.480469 570.925781 12.257812 L 572.015625 23.015625 C 572.015625 23.015625 576.691406 20.160156 581.226562 24.3125 C 586.46875 31.242188 585.71875 41.738281 585.71875 41.738281 L 585.347656 116.152344 " fill-opacity="1" fill-rule="nonzero"/><path fill="#000000" d="M 595.214844 27.375 L 601.988281 44.742188 L 596.886719 44.824219 L 595.214844 27.375 " fill-opacity="1" fill-rule="nonzero"/><path fill="#ffffff" d="M 610.589844 499.542969 L 41.363281 499.542969 L 41.363281 116.152344 L 610.589844 116.152344 L 610.589844 499.542969 " fill-opacity="1" fill-rule="nonzero"/><path fill="#000000" d="M 42.265625 498.636719 L 609.6875 498.636719 L 609.6875 117.058594 L 42.265625 117.058594 Z M 610.589844 500.449219 L 41.359375 500.449219 C 40.863281 500.449219 40.457031 500.042969 40.457031 499.542969 L 40.457031 116.15625 C 40.457031 115.652344 40.863281 115.25 41.359375 115.25 L 610.589844 115.25 C 611.09375 115.25 611.488281 115.652344 611.488281 116.15625 L 611.488281 499.542969 C 611.488281 500.042969 611.09375 500.449219 610.589844 500.449219 " fill-opacity="1" fill-rule="nonzero"/><path fill="#ffffff" d="M 63.367188 138.484375 L 63.367188 477.214844 L 587.675781 477.214844 L 587.675781 138.484375 L 63.367188 138.484375 " fill-opacity="1" fill-rule="nonzero"/><path fill="#000000" d="M 64.273438 476.3125 L 586.777344 476.3125 L 586.777344 139.382812 L 64.273438 139.382812 Z M 587.675781 478.121094 L 63.367188 478.121094 C 62.871094 478.121094 62.464844 477.710938 62.464844 477.214844 L 62.464844 138.480469 C 62.464844 137.980469 62.871094 137.574219 63.367188 137.574219 L 587.675781 137.574219 C 588.179688 137.574219 588.585938 137.980469 588.585938 138.480469 L 588.585938 477.214844 C 588.585938 477.710938 588.179688 478.121094 587.675781 478.121094 " fill-opacity="1" fill-rule="nonzero"/><path fill="#000000" d="M 237.054688 619.640625 L 414.898438 619.640625 L 414.898438 500.449219 L 237.054688 500.449219 Z M 415.800781 621.449219 L 236.148438 621.449219 C 235.648438 621.449219 235.242188 621.042969 235.242188 620.542969 L 235.242188 499.542969 C 235.242188 499.042969 235.648438 498.636719 236.148438 498.636719 L 415.800781 498.636719 C 416.300781 498.636719 416.703125 499.042969 416.703125 499.542969 L 416.703125 620.542969 C 416.703125 621.042969 416.300781 621.449219 415.800781 621.449219 " fill-opacity="1" fill-rule="nonzero"/><path fill="#000000" d="M 125.574219 674.835938 L 526.375 674.835938 L 523.382812 671.613281 C 493.8125 639.730469 451.917969 621.449219 408.449219 621.449219 L 243.5 621.449219 C 200.027344 621.449219 158.136719 639.730469 128.566406 671.613281 Z M 528.449219 676.644531 L 123.5 676.644531 C 123.140625 676.644531 122.816406 676.433594 122.671875 676.105469 C 122.527344 675.769531 122.59375 675.390625 122.835938 675.125 L 127.242188 670.378906 C 157.152344 638.132812 199.527344 619.640625 243.5 619.640625 L 408.449219 619.640625 C 452.421875 619.640625 494.792969 638.132812 524.710938 670.378906 L 529.113281 675.125 C 529.355469 675.390625 529.417969 675.769531 529.277344 676.105469 C 529.132812 676.433594 528.804688 676.644531 528.449219 676.644531 " fill-opacity="1" fill-rule="nonzero"/><path fill="#8c7bff" d="M 383.890625 454.191406 L 383.890625 166.328125 L 83.304688 166.328125 L 83.304688 454.191406 L 383.890625 454.191406 " fill-opacity="1" fill-rule="nonzero"/><path fill="#ffffff" d="M 249.320312 272.425781 L 144.574219 272.425781 L 144.574219 264.824219 L 249.320312 264.824219 L 249.320312 272.425781 " fill-opacity="1" fill-rule="nonzero"/><path fill="#ffffff" d="M 193.089844 228.550781 L 144.574219 228.550781 L 144.574219 220.953125 L 193.089844 220.953125 L 193.089844 228.550781 " fill-opacity="1" fill-rule="nonzero"/><path fill="#ffffff" d="M 232.152344 228.550781 L 203.105469 228.550781 L 203.105469 220.953125 L 232.152344 220.953125 L 232.152344 228.550781 " fill-opacity="1" fill-rule="nonzero"/><path fill="#fed101" d="M 200.808594 360.175781 L 160.515625 360.175781 L 160.515625 352.578125 L 200.808594 352.578125 L 200.808594 360.175781 " fill-opacity="1" fill-rule="nonzero"/><path fill="#fed101" d="M 167.824219 425.988281 L 117.210938 425.988281 L 117.210938 418.390625 L 167.824219 418.390625 L 167.824219 425.988281 " fill-opacity="1" fill-rule="nonzero"/><path fill="#ffffff" d="M 287.640625 425.988281 L 176.347656 425.988281 L 176.347656 418.390625 L 287.640625 418.390625 L 287.640625 425.988281 " fill-opacity="1" fill-rule="nonzero"/><path fill="#fed101" d="M 361.585938 338.238281 L 262.558594 338.238281 L 262.558594 330.640625 L 361.585938 330.640625 L 361.585938 338.238281 " fill-opacity="1" fill-rule="nonzero"/><path fill="#ffffff" d="M 232.152344 338.238281 L 178.644531 338.238281 L 178.644531 330.640625 L 232.152344 330.640625 L 232.152344 338.238281 " fill-opacity="1" fill-rule="nonzero"/><path fill="#fed101" d="M 254.03125 338.238281 L 239.65625 338.238281 L 239.65625 330.640625 L 254.03125 330.640625 L 254.03125 338.238281 " fill-opacity="1" fill-rule="nonzero"/><path fill="#fed101" d="M 182.570312 382.113281 L 141.042969 382.113281 L 141.042969 374.511719 L 182.570312 374.511719 L 182.570312 382.113281 " fill-opacity="1" fill-rule="nonzero"/><path fill="#ffffff" d="M 304.339844 382.113281 L 257.257812 382.113281 L 257.257812 374.511719 L 304.339844 374.511719 L 304.339844 382.113281 " fill-opacity="1" fill-rule="nonzero"/><path fill="#ffffff" d="M 253.035156 382.113281 L 190.441406 382.113281 L 190.441406 374.511719 L 253.035156 374.511719 L 253.035156 382.113281 " fill-opacity="1" fill-rule="nonzero"/><path fill="#ffffff" d="M 326.132812 382.113281 L 311.761719 382.113281 L 311.761719 374.511719 L 326.132812 374.511719 L 326.132812 382.113281 " fill-opacity="1" fill-rule="nonzero"/><path fill="#ffffff" d="M 197.816406 316.226562 L 159.472656 316.226562 L 159.472656 308.628906 L 197.816406 308.628906 L 197.816406 316.226562 " fill-opacity="1" fill-rule="nonzero"/><path fill="#fed101" d="M 251.570312 316.226562 L 204.566406 316.226562 L 204.566406 308.628906 L 251.570312 308.628906 L 251.570312 316.226562 " fill-opacity="1" fill-rule="nonzero"/><path fill="#ffffff" d="M 296.453125 316.226562 L 259.992188 316.226562 L 259.992188 308.628906 L 296.453125 308.628906 L 296.453125 316.226562 " fill-opacity="1" fill-rule="nonzero"/><path fill="#ffffff" d="M 321.144531 316.375 L 306.773438 316.375 L 306.773438 308.773438 L 321.144531 308.773438 L 321.144531 316.375 " fill-opacity="1" fill-rule="nonzero"/><path fill="#fed101" d="M 273.136719 294.363281 L 179.917969 294.363281 L 179.917969 286.761719 L 273.136719 286.761719 L 273.136719 294.363281 " fill-opacity="1" fill-rule="nonzero"/><path fill="#fed101" d="M 216.828125 206.425781 L 124.398438 206.425781 L 124.398438 198.828125 L 216.828125 198.828125 L 216.828125 206.425781 " fill-opacity="1" fill-rule="nonzero"/><path fill="#ffffff" d="M 321.234375 206.804688 L 233.59375 206.804688 L 233.59375 199.203125 L 321.234375 199.203125 L 321.234375 206.804688 " fill-opacity="1" fill-rule="nonzero"/><path fill="#ffffff" d="M 361.585938 206.804688 L 332.9375 206.804688 L 332.9375 199.203125 L 361.585938 199.203125 L 361.585938 206.804688 " fill-opacity="1" fill-rule="nonzero"/><path fill="#ffffff" d="M 357.410156 404.054688 L 266.113281 404.054688 L 266.113281 396.453125 L 357.410156 396.453125 L 357.410156 404.054688 " fill-opacity="1" fill-rule="nonzero"/><path fill="#ffffff" d="M 219.285156 404.054688 L 161.527344 404.054688 L 161.527344 396.453125 L 219.285156 396.453125 L 219.285156 404.054688 " fill-opacity="1" fill-rule="nonzero"/><path fill="#ffffff" d="M 324.117188 250.550781 L 305.839844 250.550781 L 305.839844 242.953125 L 324.117188 242.953125 L 324.117188 250.550781 " fill-opacity="1" fill-rule="nonzero"/><path fill="#fed101" d="M 181.128906 250.421875 L 135.234375 250.421875 L 135.234375 242.824219 L 181.128906 242.824219 L 181.128906 250.421875 " fill-opacity="1" fill-rule="nonzero"/><path fill="#fed101" d="M 296.453125 250.550781 L 193.089844 250.550781 L 193.089844 242.953125 L 296.453125 242.953125 L 296.453125 250.550781 " fill-opacity="1" fill-rule="nonzero"/><path fill="#955b50" d="M 478.832031 188.746094 L 469.941406 190.292969 L 471.902344 208.433594 C 472.195312 211.105469 474.417969 212.921875 476.875 212.492188 C 479.328125 212.070312 481.085938 209.554688 480.792969 206.886719 L 478.832031 188.746094 " fill-opacity="1" fill-rule="nonzero"/><path fill="#955b50" d="M 469.386719 185.441406 L 460.496094 186.992188 L 462.460938 205.128906 C 462.746094 207.796875 464.972656 209.617188 467.429688 209.1875 C 469.882812 208.757812 471.640625 206.25 471.351562 203.578125 L 469.386719 185.441406 " fill-opacity="1" fill-rule="nonzero"/><path fill="#955b50" d="M 460.339844 185.347656 L 452.398438 186.730469 L 454.152344 202.925781 C 454.410156 205.3125 456.394531 206.9375 458.585938 206.554688 C 460.78125 206.171875 462.351562 203.929688 462.09375 201.542969 L 460.339844 185.347656 " fill-opacity="1" fill-rule="nonzero"/><path fill="#955b50" d="M 488.550781 194.664062 L 479.851562 192.75 L 472.097656 227.964844 C 471.570312 230.367188 473.085938 232.746094 475.488281 233.277344 C 477.890625 233.804688 480.269531 232.285156 480.796875 229.878906 L 488.550781 194.664062 " fill-opacity="1" fill-rule="nonzero"/><path fill="#955b50" d="M 496.707031 164.285156 L 484.476562 177.785156 L 500.585938 204.53125 C 501.746094 206.863281 504.457031 207.636719 506.644531 206.269531 C 508.820312 204.890625 509.644531 201.894531 508.476562 199.5625 L 502.148438 186.914062 L 496.707031 164.285156 " fill-opacity="1" fill-rule="nonzero"/><path fill="#955b50" d="M 496.292969 163.628906 L 499.386719 134.15625 L 466.144531 131.175781 L 463.054688 157.351562 L 452.410156 186.683594 L 488.546875 194.664062 L 496.292969 163.628906 " fill-opacity="1" fill-rule="nonzero"/><path fill="#020202" d="M 499.386719 134.15625 L 466.144531 131.175781 L 464.578125 140.828125 L 497.320312 154.515625 L 499.386719 134.15625 " fill-opacity="1" fill-rule="nonzero"/><path fill="#000000" d="M 474.742188 213.234375 C 474.695312 213.234375 474.644531 213.230469 474.597656 213.222656 C 471.464844 212.699219 471.121094 209.554688 471.011719 208.523438 L 469.230469 192.355469 C 469.175781 191.863281 469.539062 191.410156 470.035156 191.359375 C 470.53125 191.304688 470.976562 191.664062 471.027344 192.160156 L 472.8125 208.328125 C 473.078125 210.800781 473.96875 211.28125 474.890625 211.4375 C 475.382812 211.519531 475.71875 211.988281 475.636719 212.476562 C 475.5625 212.917969 475.175781 213.234375 474.742188 213.234375 " fill-opacity="1" fill-rule="nonzero"/><path fill="#000000" d="M 466.714844 210.15625 C 465.636719 210.15625 464.597656 209.808594 463.71875 209.148438 C 462.519531 208.242188 461.730469 206.8125 461.558594 205.226562 L 459.828125 189.066406 C 459.777344 188.570312 460.136719 188.125 460.632812 188.070312 C 461.136719 188.027344 461.574219 188.378906 461.628906 188.875 L 463.355469 205.03125 C 463.476562 206.121094 464.003906 207.097656 464.804688 207.699219 C 465.523438 208.238281 466.394531 208.453125 467.269531 208.296875 C 469.261719 207.949219 470.6875 205.878906 470.449219 203.675781 L 469.226562 192.359375 C 469.171875 191.867188 469.535156 191.417969 470.027344 191.363281 C 470.511719 191.3125 470.972656 191.667969 471.023438 192.167969 L 472.25 203.484375 C 472.585938 206.613281 470.492188 209.574219 467.582031 210.078125 C 467.289062 210.132812 466.996094 210.15625 466.714844 210.15625 " fill-opacity="1" fill-rule="nonzero"/><path fill="#000000" d="M 457.949219 207.511719 C 456.96875 207.511719 456.019531 207.195312 455.21875 206.589844 C 454.128906 205.765625 453.410156 204.46875 453.253906 203.023438 L 451.5 186.824219 C 451.449219 186.324219 451.808594 185.882812 452.304688 185.824219 C 452.789062 185.773438 453.25 186.132812 453.300781 186.632812 L 455.050781 202.828125 C 455.152344 203.777344 455.609375 204.621094 456.308594 205.148438 C 456.921875 205.609375 457.679688 205.792969 458.4375 205.660156 C 460.167969 205.359375 461.402344 203.554688 461.195312 201.640625 L 459.835938 189.0625 C 459.78125 188.570312 460.140625 188.121094 460.636719 188.070312 C 461.121094 188.019531 461.578125 188.375 461.632812 188.871094 L 462.992188 201.445312 C 463.300781 204.292969 461.394531 206.980469 458.742188 207.441406 C 458.480469 207.488281 458.214844 207.511719 457.949219 207.511719 " fill-opacity="1" fill-rule="nonzero"/><path fill="#000000" d="M 476.445312 234.285156 C 476.066406 234.285156 475.679688 234.242188 475.292969 234.15625 C 473.898438 233.855469 472.699219 233.019531 471.933594 231.8125 C 471.164062 230.605469 470.910156 229.171875 471.214844 227.769531 L 478.203125 192.40625 C 478.300781 191.917969 478.777344 191.597656 479.261719 191.695312 C 479.753906 191.792969 480.074219 192.269531 479.976562 192.761719 L 472.984375 228.140625 C 472.777344 229.089844 472.945312 230.039062 473.457031 230.839844 C 473.96875 231.640625 474.757812 232.191406 475.683594 232.390625 C 477.597656 232.804688 479.492188 231.597656 479.917969 229.6875 L 487.664062 194.46875 C 487.769531 193.984375 488.257812 193.671875 488.742188 193.777344 C 489.230469 193.886719 489.542969 194.371094 489.429688 194.855469 L 481.683594 230.078125 C 481.132812 232.574219 478.910156 234.285156 476.445312 234.285156 " fill-opacity="1" fill-rule="nonzero"/><path fill="#000000" d="M 504.359375 207.851562 C 503.90625 207.851562 503.453125 207.789062 503.015625 207.664062 C 501.609375 207.273438 500.460938 206.300781 499.773438 204.9375 L 489.65625 188.132812 C 489.398438 187.703125 489.53125 187.148438 489.960938 186.890625 C 490.382812 186.632812 490.945312 186.769531 491.203125 187.199219 L 501.359375 204.066406 C 501.847656 205.03125 502.589844 205.667969 503.496094 205.925781 C 504.390625 206.171875 505.335938 206.023438 506.160156 205.5 C 507.953125 204.371094 508.632812 201.886719 507.671875 199.96875 L 501.34375 187.316406 C 501.316406 187.257812 501.296875 187.191406 501.277344 187.132812 L 495.414062 163.851562 C 495.386719 163.75 495.382812 163.640625 495.398438 163.53125 L 498.148438 139.128906 C 498.203125 138.632812 498.644531 138.269531 499.144531 138.328125 C 499.644531 138.390625 500.003906 138.835938 499.945312 139.332031 L 497.210938 163.570312 L 503.003906 186.597656 L 509.289062 199.160156 C 510.65625 201.882812 509.683594 205.417969 507.121094 207.03125 C 506.261719 207.574219 505.308594 207.851562 504.359375 207.851562 " fill-opacity="1" fill-rule="nonzero"/><path fill="#000000" d="M 488.542969 195.566406 C 488.464844 195.566406 488.390625 195.558594 488.316406 195.539062 C 487.828125 195.40625 487.542969 194.914062 487.671875 194.429688 L 491.359375 180.699219 C 491.488281 180.21875 491.984375 179.9375 492.472656 180.0625 C 492.949219 180.191406 493.234375 180.6875 493.105469 181.167969 L 489.417969 194.898438 C 489.308594 195.304688 488.945312 195.566406 488.542969 195.566406 " fill-opacity="1" fill-rule="nonzero"/><path fill="#000000" d="M 452.410156 187.589844 C 452.308594 187.589844 452.203125 187.570312 452.101562 187.535156 C 451.632812 187.363281 451.390625 186.847656 451.558594 186.375 L 462.164062 157.140625 L 464.714844 136.171875 C 464.777344 135.675781 465.222656 135.320312 465.722656 135.382812 C 466.21875 135.441406 466.570312 135.894531 466.511719 136.386719 L 463.949219 157.460938 C 463.941406 157.527344 463.921875 157.597656 463.902344 157.664062 L 453.261719 186.996094 C 453.125 187.359375 452.78125 187.589844 452.410156 187.589844 " fill-opacity="1" fill-rule="nonzero"/><path fill="#8c7bff" d="M 459.746094 140.429688 L 501.324219 143.859375 L 509.148438 65.855469 L 472.144531 63.863281 L 459.746094 140.429688 " fill-opacity="1" fill-rule="nonzero"/><path fill="#000000" d="M 501.335938 144.765625 C 501.300781 144.765625 501.273438 144.765625 501.238281 144.757812 C 500.742188 144.707031 500.378906 144.265625 500.433594 143.769531 L 508.25 65.761719 C 508.304688 65.269531 508.742188 64.921875 509.242188 64.957031 C 509.738281 65.007812 510.101562 65.449219 510.054688 65.945312 L 502.230469 143.953125 C 502.1875 144.417969 501.792969 144.765625 501.335938 144.765625 " fill-opacity="1" fill-rule="nonzero"/><path fill="#8c7bff" d="M 717.425781 80.4375 L 649.730469 123.75 L 626.242188 86.988281 L 693.933594 43.675781 L 717.425781 80.4375 " fill-opacity="1" fill-rule="nonzero"/><path fill="#000000" d="M 649.730469 124.65625 C 649.667969 124.65625 649.597656 124.648438 649.539062 124.636719 C 649.304688 124.582031 649.101562 124.4375 648.96875 124.238281 L 625.480469 87.476562 C 625.207031 87.054688 625.328125 86.5 625.753906 86.226562 L 684.824219 48.425781 C 685.25 48.160156 685.804688 48.28125 686.074219 48.707031 C 686.34375 49.125 686.226562 49.683594 685.804688 49.949219 L 627.488281 87.265625 L 650.003906 122.503906 L 673.800781 107.273438 C 674.226562 107.007812 674.785156 107.132812 675.046875 107.550781 C 675.320312 107.972656 675.199219 108.53125 674.777344 108.800781 L 650.214844 124.511719 C 650.066406 124.609375 649.902344 124.65625 649.730469 124.65625 " fill-opacity="1" fill-rule="nonzero"/><path fill="#955b50" d="M 620.167969 99.53125 C 617.25 101.402344 612.976562 98.457031 606.382812 102.675781 L 590.480469 112.847656 C 585.765625 115.867188 582.519531 120.71875 581.527344 126.234375 L 581.003906 129.113281 C 580.605469 131.347656 581.617188 133.558594 583.476562 134.734375 L 583.523438 134.734375 L 582.933594 137.980469 C 582.496094 140.457031 583.785156 142.902344 586.050781 143.945312 L 585.699219 145.882812 C 585.234375 148.457031 586.648438 151.003906 589.078125 151.964844 L 591.199219 152.804688 C 591.125 154.902344 592.367188 156.855469 594.367188 157.648438 C 597.359375 158.839844 600.679688 156.953125 601.203125 153.769531 L 601.78125 150.242188 C 602.058594 148.550781 603.039062 147.066406 604.476562 146.140625 L 621.15625 135.46875 L 629.945312 129.847656 L 646.75 119.09375 L 630.167969 93.136719 L 620.167969 99.53125 " fill-opacity="1" fill-rule="nonzero"/><path fill="#020202" d="M 620.917969 99.054688 L 646.75 119.09375 L 630.167969 93.136719 L 620.917969 99.054688 " fill-opacity="1" fill-rule="nonzero"/><path fill="#000000" d="M 586.046875 144.847656 C 585.921875 144.847656 585.792969 144.824219 585.667969 144.765625 C 583.023438 143.550781 581.527344 140.695312 582.042969 137.820312 L 582.960938 132.726562 C 583.746094 128.390625 586.320312 124.535156 590.03125 122.160156 L 598.183594 116.945312 C 598.605469 116.679688 599.164062 116.800781 599.433594 117.222656 C 599.699219 117.644531 599.574219 118.203125 599.160156 118.472656 L 591.003906 123.683594 C 587.71875 125.789062 585.433594 129.203125 584.742188 133.046875 L 583.828125 138.140625 C 583.453125 140.203125 584.527344 142.25 586.425781 143.121094 C 586.878906 143.328125 587.078125 143.867188 586.871094 144.320312 C 586.71875 144.652344 586.386719 144.847656 586.046875 144.847656 " fill-opacity="1" fill-rule="nonzero"/><path fill="#000000" d="M 591.21875 153.714844 C 591.105469 153.714844 590.992188 153.695312 590.886719 153.652344 L 588.746094 152.804688 C 585.929688 151.683594 584.277344 148.707031 584.816406 145.722656 L 585.910156 139.613281 C 586.574219 135.921875 588.773438 132.636719 591.933594 130.617188 L 602.648438 123.761719 C 603.070312 123.496094 603.625 123.617188 603.898438 124.035156 C 604.167969 124.460938 604.042969 125.015625 603.621094 125.285156 L 592.910156 132.140625 C 590.167969 133.894531 588.265625 136.734375 587.695312 139.933594 L 586.589844 146.042969 C 586.207031 148.183594 587.394531 150.320312 589.414062 151.121094 L 591.550781 151.96875 C 592.015625 152.152344 592.238281 152.675781 592.0625 153.140625 C 591.914062 153.496094 591.578125 153.714844 591.21875 153.714844 " fill-opacity="1" fill-rule="nonzero"/><path fill="#000000" d="M 621.160156 136.375 C 620.855469 136.375 620.570312 136.226562 620.390625 135.957031 C 620.125 135.535156 620.246094 134.976562 620.671875 134.707031 L 645.5 118.820312 L 629.894531 94.386719 L 620.65625 100.296875 C 619.261719 101.191406 617.644531 101.164062 615.941406 101.140625 C 613.429688 101.09375 610.597656 101.050781 606.871094 103.4375 L 590.972656 113.609375 C 586.480469 116.484375 583.363281 121.140625 582.417969 126.394531 L 581.894531 129.273438 C 581.5625 131.125 582.371094 132.964844 583.957031 133.964844 C 584.386719 134.234375 584.507812 134.789062 584.242188 135.214844 C 583.976562 135.640625 583.421875 135.765625 582.996094 135.496094 C 580.785156 134.101562 579.65625 131.535156 580.117188 128.957031 L 580.636719 126.070312 C 581.667969 120.328125 585.078125 115.230469 589.996094 112.085938 L 605.894531 101.914062 C 610.085938 99.234375 613.492188 99.289062 615.972656 99.328125 C 617.523438 99.355469 618.746094 99.371094 619.683594 98.769531 L 630.441406 91.890625 L 648.003906 119.367188 L 621.648438 136.230469 C 621.496094 136.328125 621.324219 136.375 621.160156 136.375 " fill-opacity="1" fill-rule="nonzero"/><path fill="#000000" d="M 596.226562 158.914062 C 595.484375 158.914062 594.742188 158.773438 594.027344 158.492188 C 591.410156 157.449219 589.875 154.683594 590.375 151.90625 L 591.519531 145.535156 C 592.195312 141.78125 594.425781 138.445312 597.636719 136.390625 L 606.554688 130.683594 C 606.980469 130.410156 607.535156 130.535156 607.804688 130.960938 C 608.070312 131.378906 607.953125 131.941406 607.53125 132.207031 L 598.613281 137.917969 C 595.816406 139.699219 593.882812 142.59375 593.296875 145.851562 L 592.152344 152.230469 C 591.796875 154.160156 592.875 156.085938 594.695312 156.8125 C 595.867188 157.273438 597.167969 157.183594 598.265625 156.5625 C 599.359375 155.941406 600.105469 154.871094 600.308594 153.625 L 600.886719 150.09375 C 601.203125 148.15625 602.335938 146.4375 603.988281 145.382812 L 629.457031 129.085938 C 633.640625 126.410156 636.214844 121.847656 636.351562 116.878906 C 636.359375 116.378906 636.792969 115.992188 637.28125 116 C 637.773438 116.011719 638.175781 116.433594 638.160156 116.925781 C 638.007812 122.5 635.117188 127.609375 630.433594 130.605469 L 604.960938 146.90625 C 603.742188 147.6875 602.902344 148.957031 602.671875 150.386719 L 602.09375 153.917969 C 601.804688 155.703125 600.730469 157.246094 599.15625 158.136719 C 598.246094 158.652344 597.238281 158.914062 596.226562 158.914062 " fill-opacity="1" fill-rule="nonzero"/><path fill="#ffffff" d="M 622.53125 578.109375 C 602.058594 571.019531 591.222656 548.707031 598.320312 528.273438 C 605.429688 507.839844 627.785156 497.019531 648.257812 504.109375 C 668.734375 511.199219 679.566406 533.511719 672.46875 553.945312 C 665.359375 574.382812 643.003906 585.195312 622.53125 578.109375 Z M 710.632812 583.601562 L 720.832031 554.257812 L 702.507812 547.914062 C 703.253906 540.652344 702.792969 533.433594 701.238281 526.507812 L 718.699219 518.0625 L 705.121094 490.113281 L 687.667969 498.5625 C 683.179688 493.058594 677.785156 488.222656 671.609375 484.3125 L 677.96875 466.019531 L 648.566406 455.839844 L 642.210938 474.132812 C 634.929688 473.386719 627.699219 473.847656 620.765625 475.394531 L 612.304688 457.972656 L 584.296875 471.519531 L 592.761719 488.941406 C 587.25 493.421875 582.40625 498.804688 578.480469 504.964844 L 559.316406 499.214844 L 549.957031 527.960938 L 568.277344 534.308594 C 567.535156 541.570312 568 548.789062 569.550781 555.710938 L 552.089844 564.160156 L 565.667969 592.105469 L 583.121094 583.660156 C 587.613281 589.160156 593.003906 593.996094 599.175781 597.910156 L 592.820312 616.195312 L 622.222656 626.378906 L 628.578125 608.089844 C 635.855469 608.835938 643.089844 608.375 650.023438 606.824219 L 658.488281 624.25 L 686.492188 610.703125 L 678.027344 593.277344 C 683.542969 588.800781 688.382812 583.417969 692.308594 577.253906 L 710.632812 583.601562 " fill-opacity="1" fill-rule="nonzero"/><path fill="#000000" d="M 635.429688 502.847656 C 619.550781 502.847656 604.667969 512.777344 599.179688 528.570312 C 595.828125 538.207031 596.429688 548.578125 600.882812 557.761719 C 605.347656 566.976562 613.140625 573.898438 622.828125 577.253906 C 642.800781 584.167969 664.683594 573.578125 671.613281 553.652344 C 674.96875 544.011719 674.363281 533.640625 669.910156 524.453125 C 665.441406 515.246094 657.652344 508.320312 647.964844 504.964844 C 643.816406 503.53125 639.585938 502.847656 635.429688 502.847656 Z M 635.363281 581.179688 C 631.003906 581.179688 626.578125 580.464844 622.238281 578.964844 C 612.09375 575.449219 603.929688 568.199219 599.253906 558.554688 C 594.597656 548.929688 593.957031 538.074219 597.472656 527.976562 C 604.722656 507.101562 627.644531 496.015625 648.550781 503.257812 C 658.699219 506.769531 666.859375 514.015625 671.535156 523.667969 C 676.199219 533.285156 676.832031 544.148438 673.320312 554.246094 C 667.570312 570.78125 651.984375 581.179688 635.363281 581.179688 Z M 593.972656 615.636719 L 621.664062 625.230469 L 627.726562 607.796875 C 627.859375 607.398438 628.257812 607.164062 628.664062 607.1875 C 635.746094 607.914062 642.863281 607.492188 649.835938 605.941406 C 650.25 605.855469 650.660156 606.054688 650.84375 606.429688 L 658.910156 623.042969 L 685.285156 610.28125 L 677.21875 593.671875 C 677.03125 593.292969 677.132812 592.839844 677.457031 592.574219 C 682.996094 588.078125 687.734375 582.757812 691.546875 576.769531 C 691.773438 576.414062 692.210938 576.265625 692.605469 576.402344 L 710.074219 582.449219 L 719.679688 554.820312 L 702.210938 548.769531 C 701.816406 548.628906 701.566406 548.238281 701.609375 547.820312 C 702.335938 540.757812 701.914062 533.65625 700.363281 526.703125 C 700.265625 526.292969 700.472656 525.875 700.851562 525.691406 L 717.492188 517.636719 L 704.707031 491.320312 L 688.058594 499.375 C 687.683594 499.558594 687.226562 499.457031 686.96875 499.132812 C 682.464844 493.609375 677.132812 488.878906 671.128906 485.074219 C 670.773438 484.847656 670.621094 484.410156 670.757812 484.011719 L 676.816406 466.582031 L 649.128906 456.992188 L 643.0625 474.425781 C 642.933594 474.824219 642.535156 475.066406 642.121094 475.027344 C 635.039062 474.300781 627.921875 474.722656 620.957031 476.277344 C 620.546875 476.367188 620.132812 476.167969 619.953125 475.789062 L 611.882812 459.175781 L 585.507812 471.9375 L 593.574219 488.546875 C 593.757812 488.925781 593.65625 489.378906 593.332031 489.648438 C 587.800781 494.136719 583.058594 499.457031 579.242188 505.449219 C 579.027344 505.792969 578.605469 505.945312 578.222656 505.832031 L 559.898438 500.335938 L 551.09375 527.398438 L 568.574219 533.449219 C 568.976562 533.589844 569.222656 533.980469 569.183594 534.394531 C 568.457031 541.464844 568.875 548.566406 570.429688 555.515625 C 570.527344 555.925781 570.320312 556.34375 569.941406 556.527344 L 553.296875 564.578125 L 566.085938 590.898438 L 582.726562 582.84375 C 583.105469 582.660156 583.558594 582.761719 583.824219 583.085938 C 588.328125 588.605469 593.65625 593.339844 599.660156 597.148438 C 600.015625 597.371094 600.167969 597.8125 600.035156 598.210938 Z M 622.222656 627.28125 C 622.121094 627.28125 622.023438 627.265625 621.921875 627.234375 L 592.523438 617.054688 C 592.300781 616.976562 592.117188 616.808594 592.003906 616.59375 C 591.902344 616.375 591.886719 616.125 591.964844 615.902344 L 598.09375 598.285156 C 592.367188 594.574219 587.257812 590.035156 582.875 584.78125 L 566.058594 592.921875 C 565.609375 593.132812 565.066406 592.949219 564.851562 592.5 L 551.277344 564.554688 C 551.171875 564.339844 551.152344 564.089844 551.238281 563.863281 C 551.3125 563.632812 551.476562 563.449219 551.695312 563.34375 L 568.511719 555.207031 C 567.089844 548.527344 566.691406 541.710938 567.3125 534.929688 L 549.660156 528.816406 C 549.195312 528.65625 548.941406 528.152344 549.09375 527.679688 L 558.453125 498.933594 C 558.605469 498.46875 559.097656 498.210938 559.574219 498.347656 L 578.089844 503.90625 C 581.808594 498.179688 586.367188 493.070312 591.636719 488.695312 L 583.484375 471.914062 C 583.378906 471.695312 583.363281 471.445312 583.445312 471.222656 C 583.523438 470.996094 583.683594 470.804688 583.90625 470.703125 L 611.902344 457.15625 C 612.359375 456.9375 612.890625 457.125 613.113281 457.574219 L 621.269531 474.359375 C 627.964844 472.941406 634.792969 472.535156 641.589844 473.160156 L 647.714844 455.542969 C 647.878906 455.074219 648.394531 454.824219 648.863281 454.988281 L 678.265625 465.167969 C 678.492188 465.246094 678.675781 465.414062 678.78125 465.625 C 678.886719 465.84375 678.902344 466.09375 678.824219 466.320312 L 672.695312 483.933594 C 678.425781 487.644531 683.535156 492.183594 687.914062 497.4375 L 704.734375 489.296875 C 705.1875 489.082031 705.722656 489.269531 705.941406 489.714844 L 719.511719 517.664062 C 719.621094 517.882812 719.636719 518.132812 719.550781 518.355469 C 719.472656 518.585938 719.3125 518.769531 719.09375 518.871094 L 702.277344 527.011719 C 703.699219 533.691406 704.101562 540.507812 703.480469 547.289062 L 721.128906 553.40625 C 721.355469 553.484375 721.542969 553.648438 721.644531 553.863281 C 721.753906 554.082031 721.765625 554.332031 721.6875 554.558594 L 711.488281 583.898438 C 711.320312 584.367188 710.808594 584.613281 710.339844 584.453125 L 692.683594 578.34375 C 688.964844 584.050781 684.414062 589.15625 679.152344 593.523438 L 687.304688 610.308594 C 687.410156 610.523438 687.425781 610.769531 687.34375 611 C 687.265625 611.226562 687.101562 611.410156 686.886719 611.515625 L 658.886719 625.066406 C 658.4375 625.28125 657.894531 625.09375 657.675781 624.648438 L 649.523438 607.859375 C 642.828125 609.28125 635.992188 609.679688 629.199219 609.0625 L 623.070312 626.675781 C 622.945312 627.050781 622.589844 627.28125 622.222656 627.28125 " fill-opacity="1" fill-rule="nonzero"/><path fill="#fed101" d="M 64.089844 739.992188 L 6.203125 739.992188 L 31.660156 691.019531 L 72.574219 691.019531 L 64.089844 739.992188 " fill-opacity="1" fill-rule="nonzero"/><path fill="#000000" d="M 70.453125 703.269531 L 18.933594 715.507812 L 31.660156 691.019531 L 72.574219 691.019531 L 70.453125 703.269531 " fill-opacity="1" fill-rule="nonzero"/><path fill="#000000" d="M 68.140625 750.234375 L 57.15625 750.234375 L 52.46875 745.394531 L 47.769531 750.234375 L 25.667969 750.234375 L 20.707031 745.394531 L 15.5625 750.234375 L 0.148438 750.234375 L 2.242188 738.902344 L 66.046875 738.902344 L 68.140625 750.234375 " fill-opacity="1" fill-rule="nonzero"/><path fill="#fed101" d="M 210.351562 744.980469 C 210.558594 743.59375 210.667969 742.175781 210.667969 740.734375 C 210.667969 724.894531 197.832031 712.054688 182.007812 712.054688 C 166.179688 712.054688 153.34375 724.894531 153.34375 740.734375 C 153.34375 742.175781 153.457031 743.59375 153.660156 744.980469 L 210.351562 744.980469 " fill-opacity="1" fill-rule="nonzero"/><path fill="#fed101" d="M 205.398438 738.488281 L 144.6875 738.488281 L 152.117188 700.035156 L 183.121094 700.035156 L 205.398438 738.488281 " fill-opacity="1" fill-rule="nonzero"/><path fill="#000000" d="M 184.996094 703.269531 L 149.460938 713.773438 L 152.117188 700.035156 L 183.121094 700.035156 L 184.996094 703.269531 " fill-opacity="1" fill-rule="nonzero"/><path fill="#000000" d="M 196.714844 724.398438 C 196.402344 724.398438 196.097656 724.238281 195.929688 723.949219 L 190.121094 713.921875 C 189.871094 713.488281 190.019531 712.933594 190.453125 712.683594 C 190.882812 712.433594 191.4375 712.582031 191.6875 713.011719 L 197.496094 723.039062 C 197.746094 723.472656 197.597656 724.027344 197.167969 724.277344 C 197.023438 724.363281 196.867188 724.398438 196.714844 724.398438 " fill-opacity="1" fill-rule="nonzero"/><path fill="#000000" d="M 214.023438 749.820312 L 202.328125 749.820312 L 197.332031 744.980469 L 192.324219 749.820312 L 168.785156 749.820312 L 163.5 744.980469 L 158.019531 749.820312 L 141.601562 749.820312 L 143.828125 738.488281 L 211.796875 738.488281 L 214.023438 749.820312 " fill-opacity="1" fill-rule="nonzero"/><path fill="#8c7bff" d="M 207.425781 498.574219 L 196.25 417.265625 L 94.207031 417.265625 L 94.207031 471.964844 L 74.894531 565.378906 L 20.082031 703.269531 L 74.960938 703.269531 L 109.734375 628.914062 C 125.324219 595.574219 135.984375 560.136719 141.367188 523.722656 L 147.414062 482.847656 L 154.847656 563.5625 L 141.371094 703.269531 L 196.25 703.269531 L 206.910156 629.980469 C 213.25 586.417969 213.421875 542.183594 207.425781 498.574219 " fill-opacity="1" fill-rule="nonzero"/><path fill="#6155ff" d="M 165.421875 470.992188 C 156.570312 470.992188 149.398438 463.8125 149.398438 454.957031 L 149.398438 436.289062 L 181.449219 436.289062 L 181.449219 454.957031 C 181.449219 463.8125 174.273438 470.992188 165.421875 470.992188 " fill-opacity="1" fill-rule="nonzero"/><path fill="#000000" d="M 196.25 704.171875 L 141.371094 704.171875 C 141.117188 704.171875 140.875 704.066406 140.703125 703.878906 C 140.53125 703.6875 140.449219 703.433594 140.472656 703.183594 L 153.941406 563.5625 L 146.511719 482.929688 C 146.46875 482.429688 146.832031 481.992188 147.332031 481.945312 C 147.824219 481.902344 148.265625 482.265625 148.3125 482.761719 L 155.75 563.480469 C 155.753906 563.539062 155.753906 563.597656 155.75 563.648438 L 142.367188 702.363281 L 195.46875 702.363281 L 206.015625 629.851562 C 212.34375 586.367188 212.515625 542.238281 206.53125 498.699219 L 195.355469 417.390625 C 195.285156 416.894531 195.632812 416.4375 196.125 416.371094 C 196.621094 416.292969 197.078125 416.648438 197.144531 417.144531 L 208.324219 498.449219 C 214.332031 542.15625 214.15625 586.457031 207.804688 630.109375 L 197.144531 703.402344 C 197.082031 703.84375 196.699219 704.171875 196.25 704.171875 " fill-opacity="1" fill-rule="nonzero"/><path fill="#000000" d="M 161.144531 483.410156 L 126.507812 483.410156 C 126.007812 483.410156 125.605469 483.003906 125.605469 482.503906 C 125.605469 482.003906 126.007812 481.601562 126.507812 481.601562 L 161.144531 481.601562 C 161.644531 481.601562 162.050781 482.003906 162.050781 482.503906 C 162.050781 483.003906 161.644531 483.410156 161.144531 483.410156 " fill-opacity="1" fill-rule="nonzero"/><path fill="#000000" d="M 99.527344 576.570312 C 99.375 576.570312 99.222656 576.53125 99.082031 576.449219 L 74.445312 562.449219 C 74.078125 562.238281 73.90625 561.808594 74.027344 561.40625 C 74.144531 561 74.535156 560.742188 74.945312 560.757812 L 96.070312 562.023438 C 96.566406 562.050781 96.949219 562.480469 96.917969 562.976562 C 96.886719 563.476562 96.460938 563.847656 95.960938 563.824219 L 78.71875 562.796875 L 99.976562 574.878906 C 100.410156 575.125 100.558594 575.675781 100.3125 576.113281 C 100.148438 576.402344 99.84375 576.570312 99.527344 576.570312 " fill-opacity="1" fill-rule="nonzero"/><path fill="#000000" d="M 168.894531 573.28125 C 168.734375 573.28125 168.566406 573.238281 168.417969 573.144531 L 154.367188 564.328125 C 154.027344 564.117188 153.867188 563.703125 153.980469 563.3125 C 154.09375 562.925781 154.445312 562.65625 154.847656 562.65625 L 175.042969 562.65625 C 175.542969 562.65625 175.949219 563.0625 175.949219 563.5625 C 175.949219 564.0625 175.542969 564.46875 175.042969 564.46875 L 157.992188 564.46875 L 169.378906 571.613281 C 169.800781 571.878906 169.929688 572.4375 169.664062 572.855469 C 169.492188 573.132812 169.199219 573.28125 168.894531 573.28125 " fill-opacity="1" fill-rule="nonzero"/><path fill="#000000" d="M 94.207031 453.640625 L 94.207031 417.265625 L 196.195312 417.265625 Z M 94.207031 453.640625 " fill-opacity="1" fill-rule="nonzero"/><path fill="#fda4ff" d="M 229.835938 262.152344 L 222.6875 280.5625 L 221.011719 269.722656 L 222.738281 265.019531 C 223.703125 262.390625 226.601562 261.019531 229.246094 261.945312 L 229.835938 262.152344 " fill-opacity="1" fill-rule="nonzero"/><path fill="#fda4ff" d="M 257.445312 276.304688 L 254.660156 297.347656 L 228.984375 304.859375 L 221.453125 285.253906 C 219.425781 279.980469 219.382812 274.148438 221.332031 268.84375 L 222.523438 265.601562 L 257.445312 276.304688 " fill-opacity="1" fill-rule="nonzero"/><path fill="#ffffff" d="M 212.085938 244.03125 C 212.085938 268.257812 192.457031 287.902344 168.242188 287.902344 C 144.027344 287.902344 124.398438 268.257812 124.398438 244.03125 C 124.398438 219.800781 144.027344 200.15625 168.242188 200.15625 C 192.457031 200.15625 212.085938 219.800781 212.085938 244.03125 " fill-opacity="1" fill-rule="nonzero"/><path fill="#000000" d="M 217.136719 267.835938 L 267.609375 288.445312 L 271.855469 278.03125 L 221.433594 257.449219 Z M 268.105469 290.53125 C 267.992188 290.53125 267.875 290.507812 267.765625 290.464844 L 215.609375 269.167969 C 215.386719 269.078125 215.210938 268.902344 215.121094 268.683594 C 215.023438 268.457031 215.023438 268.207031 215.117188 267.984375 L 220.105469 255.921875 C 220.296875 255.460938 220.820312 255.242188 221.28125 255.429688 L 273.378906 276.699219 C 273.839844 276.890625 274.0625 277.417969 273.871094 277.882812 L 268.945312 289.96875 C 268.855469 290.1875 268.679688 290.367188 268.457031 290.460938 C 268.34375 290.503906 268.226562 290.53125 268.105469 290.53125 " fill-opacity="1" fill-rule="nonzero"/><path fill="#000000" d="M 168.242188 201.054688 C 144.566406 201.054688 125.304688 220.332031 125.304688 244.023438 C 125.304688 267.71875 144.566406 286.992188 168.242188 286.992188 C 191.921875 286.992188 211.183594 267.71875 211.183594 244.023438 C 211.183594 220.332031 191.921875 201.054688 168.242188 201.054688 Z M 168.242188 288.800781 C 143.566406 288.800781 123.496094 268.714844 123.496094 244.023438 C 123.496094 219.335938 143.566406 199.25 168.242188 199.25 C 192.917969 199.25 212.992188 219.335938 212.992188 244.023438 C 212.992188 268.714844 192.917969 288.800781 168.242188 288.800781 " fill-opacity="1" fill-rule="nonzero"/><path fill="#000000" d="M 193.402344 270.105469 C 193.167969 270.105469 192.9375 270.015625 192.761719 269.839844 C 192.40625 269.488281 192.40625 268.914062 192.761719 268.5625 C 198.027344 263.292969 201.402344 256.632812 202.519531 249.304688 C 202.59375 248.808594 203.054688 248.46875 203.550781 248.546875 C 204.042969 248.617188 204.382812 249.082031 204.304688 249.574219 C 203.132812 257.289062 199.582031 264.296875 194.039062 269.839844 C 193.863281 270.015625 193.632812 270.105469 193.402344 270.105469 " fill-opacity="1" fill-rule="nonzero"/><path fill="#000000" d="M 203.414062 239.519531 C 202.972656 239.519531 202.589844 239.199219 202.519531 238.75 C 199.964844 221.976562 185.226562 209.328125 168.242188 209.328125 C 167.746094 209.328125 167.339844 208.925781 167.339844 208.425781 C 167.339844 207.921875 167.746094 207.519531 168.242188 207.519531 C 186.113281 207.519531 201.617188 220.828125 204.308594 238.480469 C 204.382812 238.96875 204.042969 239.433594 203.550781 239.507812 C 203.503906 239.515625 203.457031 239.519531 203.414062 239.519531 " fill-opacity="1" fill-rule="nonzero"/><path fill="#000000" d="M 216.699219 267.460938 C 216.582031 267.460938 216.464844 267.433594 216.355469 267.390625 L 207.777344 263.867188 C 207.316406 263.671875 207.09375 263.144531 207.285156 262.679688 C 207.476562 262.222656 208.003906 262 208.464844 262.191406 L 216.207031 265.375 L 218.960938 258.664062 L 210.65625 255.25 C 210.195312 255.0625 209.972656 254.53125 210.164062 254.070312 C 210.351562 253.609375 210.882812 253.386719 211.34375 253.578125 L 220.484375 257.335938 C 220.707031 257.425781 220.882812 257.601562 220.976562 257.824219 C 221.066406 258.046875 221.070312 258.296875 220.976562 258.515625 L 217.535156 266.898438 C 217.445312 267.121094 217.269531 267.296875 217.050781 267.390625 C 216.9375 267.433594 216.820312 267.460938 216.699219 267.460938 " fill-opacity="1" fill-rule="nonzero"/><path fill="#fda4ff" d="M 238.851562 258.628906 L 230.972656 280.082031 L 223.886719 277.476562 L 231.769531 256.023438 C 232.457031 254.148438 234.539062 253.183594 236.414062 253.875 L 236.703125 253.980469 C 238.578125 254.667969 239.539062 256.75 238.851562 258.628906 " fill-opacity="1" fill-rule="nonzero"/><path fill="#fda4ff" d="M 247.117188 258.007812 L 238.824219 280.589844 L 231.742188 277.984375 L 240.035156 255.40625 C 240.730469 253.519531 242.820312 252.546875 244.710938 253.242188 L 244.957031 253.332031 C 246.84375 254.023438 247.8125 256.121094 247.117188 258.007812 " fill-opacity="1" fill-rule="nonzero"/><path fill="#fda4ff" d="M 261.273438 263.25 L 253.109375 285.46875 L 246.027344 282.859375 L 254.191406 260.644531 C 254.890625 258.738281 257.003906 257.761719 258.90625 258.464844 L 259.089844 258.527344 C 260.996094 259.230469 261.972656 261.34375 261.273438 263.25 " fill-opacity="1" fill-rule="nonzero"/><path fill="#fda4ff" d="M 261.269531 279.609375 L 254.738281 297.183594 L 247.621094 294.570312 L 258.636719 264.785156 L 261.207031 271.453125 C 262.214844 274.074219 262.238281 276.972656 261.269531 279.609375 " fill-opacity="1" fill-rule="nonzero"/><path fill="#fda4ff" d="M 251.128906 257.433594 L 251.515625 257.578125 C 253.367188 258.257812 254.214844 260.570312 253.417969 262.746094 L 245.445312 284.449219 L 238.363281 281.84375 L 246.335938 260.140625 C 247.132812 257.96875 249.28125 256.753906 251.128906 257.433594 " fill-opacity="1" fill-rule="nonzero"/><path fill="#fda4ff" d="M 254.976562 295.496094 L 254.214844 327.308594 L 226.820312 318.550781 L 227.449219 285.371094 L 254.976562 295.496094 " fill-opacity="1" fill-rule="nonzero"/><path fill="#000000" d="M 254.71875 306.339844 L 254.214844 327.308594 L 226.820312 318.550781 L 226.992188 309.371094 L 244 307.507812 L 254.71875 306.339844 " fill-opacity="1" fill-rule="nonzero"/><path fill="#000000" d="M 244.320312 266.535156 C 244.214844 266.535156 244.113281 266.515625 244.007812 266.476562 C 243.539062 266.304688 243.300781 265.789062 243.472656 265.316406 L 246.269531 257.699219 C 246.519531 257.011719 246.492188 256.265625 246.183594 255.605469 C 245.878906 254.941406 245.332031 254.433594 244.644531 254.179688 L 244.398438 254.089844 C 243.710938 253.839844 242.96875 253.871094 242.304688 254.175781 C 241.640625 254.484375 241.136719 255.027344 240.882812 255.71875 L 237.707031 264.367188 C 237.53125 264.839844 237.015625 265.078125 236.542969 264.90625 C 236.078125 264.734375 235.835938 264.214844 236.007812 263.746094 L 239.1875 255.09375 C 240.050781 252.738281 242.671875 251.53125 245.023438 252.394531 L 245.265625 252.484375 C 246.40625 252.902344 247.316406 253.742188 247.824219 254.84375 C 248.335938 255.949219 248.386719 257.179688 247.96875 258.320312 L 245.167969 265.9375 C 245.035156 266.308594 244.6875 266.535156 244.320312 266.535156 " fill-opacity="1" fill-rule="nonzero"/><path fill="#000000" d="M 250.992188 270.253906 C 250.890625 270.253906 250.785156 270.238281 250.679688 270.199219 C 250.210938 270.03125 249.96875 269.507812 250.144531 269.042969 L 252.785156 261.847656 C 253.292969 260.46875 252.582031 258.933594 251.203125 258.425781 L 250.820312 258.285156 C 249.4375 257.773438 247.90625 258.488281 247.398438 259.867188 L 244.851562 266.808594 C 244.679688 267.273438 244.15625 267.519531 243.6875 267.34375 C 243.21875 267.171875 242.980469 266.652344 243.152344 266.179688 L 245.703125 259.242188 C 246.554688 256.925781 249.128906 255.738281 251.441406 256.585938 L 251.828125 256.726562 C 254.140625 257.578125 255.332031 260.15625 254.480469 262.472656 L 251.839844 269.664062 C 251.707031 270.03125 251.359375 270.253906 250.992188 270.253906 " fill-opacity="1" fill-rule="nonzero"/><path fill="#000000" d="M 224.613281 276.402344 C 224.511719 276.402344 224.40625 276.386719 224.304688 276.347656 C 223.835938 276.175781 223.59375 275.65625 223.765625 275.183594 L 230.921875 255.714844 C 231.78125 253.367188 234.382812 252.164062 236.726562 253.023438 L 237.015625 253.132812 C 238.148438 253.550781 239.050781 254.382812 239.558594 255.480469 C 240.066406 256.578125 240.117188 257.808594 239.699219 258.945312 L 237.140625 265.90625 C 236.96875 266.378906 236.453125 266.613281 235.980469 266.445312 C 235.511719 266.269531 235.273438 265.75 235.445312 265.28125 L 238.003906 258.316406 C 238.253906 257.636719 238.222656 256.898438 237.917969 256.238281 C 237.613281 255.582031 237.070312 255.082031 236.390625 254.828125 L 236.101562 254.726562 C 234.699219 254.210938 233.132812 254.929688 232.617188 256.335938 L 225.464844 275.8125 C 225.328125 276.175781 224.984375 276.402344 224.613281 276.402344 " fill-opacity="1" fill-rule="nonzero"/><path fill="#000000" d="M 254.214844 328.210938 C 254.125 328.210938 254.03125 328.199219 253.941406 328.167969 L 226.542969 319.410156 C 226.164062 319.292969 225.90625 318.933594 225.914062 318.53125 L 226.261719 300.300781 L 220.605469 285.578125 C 218.714844 280.644531 218.488281 275.132812 219.976562 270.0625 C 220.121094 269.582031 220.621094 269.304688 221.101562 269.453125 C 221.578125 269.589844 221.855469 270.09375 221.714844 270.570312 C 220.335938 275.261719 220.542969 280.363281 222.296875 284.929688 L 228.011719 299.816406 C 228.054688 299.925781 228.074219 300.042969 228.074219 300.15625 L 227.738281 317.894531 L 253.339844 326.078125 L 254.042969 296.730469 C 254.046875 296.628906 254.066406 296.53125 254.101562 296.4375 L 260.421875 279.296875 C 261.3125 276.867188 261.292969 274.195312 260.363281 271.78125 L 258.898438 267.976562 C 258.820312 267.777344 258.816406 267.558594 258.886719 267.359375 L 260.417969 262.953125 C 260.679688 262.242188 260.648438 261.488281 260.339844 260.820312 C 260.027344 260.148438 259.472656 259.636719 258.78125 259.382812 L 258.589844 259.3125 C 257.160156 258.789062 255.566406 259.527344 255.039062 260.957031 L 251.433594 270.769531 C 251.261719 271.238281 250.742188 271.480469 250.273438 271.308594 C 249.804688 271.136719 249.5625 270.617188 249.738281 270.144531 L 253.339844 260.332031 C 254.210938 257.964844 256.847656 256.738281 259.21875 257.617188 L 259.40625 257.683594 C 260.550781 258.109375 261.464844 258.949219 261.980469 260.058594 C 262.492188 261.167969 262.542969 262.414062 262.121094 263.5625 L 260.703125 267.636719 L 262.046875 271.128906 C 263.136719 273.957031 263.160156 277.078125 262.117188 279.917969 L 255.847656 296.921875 L 255.121094 327.328125 C 255.113281 327.613281 254.972656 327.878906 254.742188 328.046875 C 254.585938 328.15625 254.402344 328.210938 254.214844 328.210938 " fill-opacity="1" fill-rule="nonzero"/><path fill="#fed101" d="M 240.820312 403.996094 C 227.871094 403.769531 217.554688 393.082031 217.773438 380.125 L 218.730469 313.90625 L 265.832031 314 L 264.675781 380.933594 C 264.453125 393.894531 253.773438 404.21875 240.820312 403.996094 " fill-opacity="1" fill-rule="nonzero"/><path fill="#000000" d="M 219.621094 314.8125 L 218.679688 380.140625 C 218.464844 392.578125 228.40625 402.875 240.839844 403.089844 C 240.96875 403.089844 241.101562 403.09375 241.230469 403.09375 C 253.488281 403.09375 263.558594 393.226562 263.773438 380.917969 L 264.910156 314.902344 Z M 241.234375 404.902344 C 241.089844 404.902344 240.949219 404.902344 240.804688 404.898438 C 227.375 404.667969 216.640625 393.546875 216.871094 380.109375 L 217.824219 313.894531 C 217.832031 313.398438 218.234375 313 218.730469 313 L 265.832031 313.09375 C 266.074219 313.097656 266.304688 313.195312 266.476562 313.371094 C 266.644531 313.542969 266.738281 313.773438 266.734375 314.015625 L 265.582031 380.953125 C 265.351562 394.246094 254.46875 404.902344 241.234375 404.902344 " fill-opacity="1" fill-rule="nonzero"/><path fill="#fed101" d="M 258.0625 364.191406 L 216.121094 322.210938 C 199.082031 305.152344 175.972656 295.574219 151.871094 295.574219 L 124.722656 295.574219 C 106.003906 295.574219 88.9375 306.296875 80.808594 323.167969 L 60.144531 366.050781 C 54.449219 377.90625 57.894531 395.34375 69.742188 401.046875 C 77.75 404.898438 84.445312 404.609375 91.878906 401.039062 L 89.148438 431.863281 L 199.964844 417.265625 L 193.730469 371.78125 L 224.894531 397.382812 L 258.0625 364.191406 " fill-opacity="1" fill-rule="nonzero"/><path fill="#000000" d="M 224.894531 398.28125 C 224.691406 398.28125 224.488281 398.21875 224.320312 398.078125 L 174.210938 356.910156 C 173.828125 356.59375 173.769531 356.023438 174.089844 355.640625 C 174.40625 355.253906 174.972656 355.195312 175.359375 355.511719 L 225.464844 396.679688 C 225.851562 396.996094 225.90625 397.570312 225.589844 397.957031 C 225.414062 398.171875 225.152344 398.28125 224.894531 398.28125 " fill-opacity="1" fill-rule="nonzero"/><path fill="#000000" d="M 258.0625 365.097656 C 257.832031 365.097656 257.597656 365.003906 257.421875 364.828125 L 215.484375 322.847656 C 198.246094 305.59375 175.992188 296.476562 151.128906 296.476562 C 150.632812 296.476562 150.226562 296.074219 150.226562 295.574219 C 150.226562 295.074219 150.632812 294.667969 151.128906 294.667969 C 176.484375 294.667969 199.179688 303.972656 216.761719 321.570312 L 258.703125 363.550781 C 259.054688 363.902344 259.054688 364.476562 258.703125 364.828125 C 258.523438 365.003906 258.292969 365.097656 258.0625 365.097656 " fill-opacity="1" fill-rule="nonzero"/><path fill="#000000" d="M 91.996094 401.957031 C 91.96875 401.957031 91.9375 401.953125 91.90625 401.949219 C 91.410156 401.898438 91.046875 401.457031 91.09375 400.960938 L 97.695312 334.171875 C 97.742188 333.675781 98.1875 333.316406 98.683594 333.359375 C 99.179688 333.410156 99.542969 333.855469 99.496094 334.351562 L 92.894531 401.140625 C 92.847656 401.601562 92.457031 401.957031 91.996094 401.957031 " fill-opacity="1" fill-rule="nonzero"/><path fill="#000000" d="M 98.394531 336.277344 L 83.339844 403.671875 C 83.339844 403.671875 85.625 403.480469 88.019531 402.6875 C 89.722656 402.132812 91.878906 401.039062 91.878906 401.039062 L 98.394531 336.277344 " fill-opacity="1" fill-rule="nonzero"/><path fill="#fda4ff" d="M 160.246094 269.671875 C 160.246094 277.996094 160.78125 289.542969 152.460938 289.542969 C 144.140625 289.542969 130.117188 277.996094 130.117188 269.671875 C 130.117188 261.347656 136.863281 254.597656 145.183594 254.597656 C 153.5 254.597656 160.246094 261.347656 160.246094 269.671875 " fill-opacity="1" fill-rule="nonzero"/><path fill="#000000" d="M 165.773438 265.984375 C 163.476562 258.308594 156.367188 252.710938 147.945312 252.710938 C 139.527344 252.710938 132.675781 257.859375 130.574219 265.984375 L 165.773438 265.984375 " fill-opacity="1" fill-rule="nonzero"/><path fill="#fda4ff" d="M 150.582031 295.574219 L 133.15625 295.574219 L 133.15625 269.671875 L 150.582031 269.671875 L 150.582031 295.574219 " fill-opacity="1" fill-rule="nonzero"/><path fill="#000000" d="M 150.582031 296.742188 C 150.082031 296.742188 149.675781 296.335938 149.675781 295.835938 L 149.675781 281.246094 C 149.675781 280.746094 150.082031 280.339844 150.582031 280.339844 C 151.078125 280.339844 151.484375 280.746094 151.484375 281.246094 L 151.484375 295.835938 C 151.484375 296.335938 151.078125 296.742188 150.582031 296.742188 " fill-opacity="1" fill-rule="nonzero"/><path fill="#000000" d="M 640.164062 377.664062 L 444.886719 377.664062 L 444.886719 244.058594 L 640.164062 244.058594 L 640.164062 377.664062 " fill-opacity="1" fill-rule="nonzero"/><path fill="#4ada85" d="M 628.800781 365.914062 L 433.519531 365.914062 L 433.519531 241.695312 L 628.800781 241.695312 L 628.800781 365.914062 " fill-opacity="1" fill-rule="nonzero"/><path fill="#ffffff" d="M 600.902344 276.78125 L 465.257812 276.78125 L 465.257812 266.582031 L 600.902344 266.582031 L 600.902344 276.78125 " fill-opacity="1" fill-rule="nonzero"/><path fill="#ffffff" d="M 600.902344 302.117188 L 465.257812 302.117188 L 465.257812 291.914062 L 600.902344 291.914062 L 600.902344 302.117188 " fill-opacity="1" fill-rule="nonzero"/><path fill="#ffffff" d="M 578.96875 329.648438 L 465.261719 329.648438 L 465.261719 319.445312 L 578.96875 319.445312 L 578.96875 329.648438 " fill-opacity="1" fill-rule="nonzero"/><path fill="#000000" d="M 640.164062 541.210938 L 444.886719 541.210938 L 444.886719 407.605469 L 640.164062 407.605469 L 640.164062 541.210938 " fill-opacity="1" fill-rule="nonzero"/><path fill="#4ada85" d="M 628.800781 529.457031 L 433.519531 529.457031 L 433.519531 405.242188 L 628.800781 405.242188 L 628.800781 529.457031 " fill-opacity="1" fill-rule="nonzero"/><path fill="#ffffff" d="M 600.902344 440.328125 L 465.257812 440.328125 L 465.257812 430.125 L 600.902344 430.125 L 600.902344 440.328125 " fill-opacity="1" fill-rule="nonzero"/><path fill="#ffffff" d="M 600.902344 465.667969 L 465.257812 465.667969 L 465.257812 455.46875 L 600.902344 455.46875 L 600.902344 465.667969 " fill-opacity="1" fill-rule="nonzero"/><path fill="#ffffff" d="M 578.96875 493.195312 L 465.261719 493.195312 L 465.261719 482.992188 L 578.96875 482.992188 L 578.96875 493.195312 " fill-opacity="1" fill-rule="nonzero"/><path fill="#000000" d="M 640.164062 704.703125 L 444.886719 704.703125 L 444.886719 571.097656 L 640.164062 571.097656 L 640.164062 704.703125 " fill-opacity="1" fill-rule="nonzero"/><path fill="#4ada85" d="M 628.800781 692.945312 L 433.519531 692.945312 L 433.519531 568.734375 L 628.800781 568.734375 L 628.800781 692.945312 " fill-opacity="1" fill-rule="nonzero"/><path fill="#ffffff" d="M 600.902344 603.820312 L 465.257812 603.820312 L 465.257812 593.621094 L 600.902344 593.621094 L 600.902344 603.820312 " fill-opacity="1" fill-rule="nonzero"/><path fill="#ffffff" d="M 600.902344 629.160156 L 465.257812 629.160156 L 465.257812 618.957031 L 600.902344 618.957031 L 600.902344 629.160156 " fill-opacity="1" fill-rule="nonzero"/><path fill="#ffffff" d="M 578.96875 656.6875 L 465.261719 656.6875 L 465.261719 646.488281 L 578.96875 646.488281 L 578.96875 656.6875 " fill-opacity="1" fill-rule="nonzero"/></svg>