<svg xmlns="http://www.w3.org/2000/svg" xmlns:xlink="http://www.w3.org/1999/xlink" width="512" zoomAndPan="magnify" viewBox="0 0 384 383.999986" height="512" preserveAspectRatio="xMidYMid meet" version="1.0"><defs><clipPath id="id1"><path d="M 1 0 L 384 0 L 384 382.5 L 1 382.5 Z M 1 0 " clip-rule="nonzero"/></clipPath><clipPath id="id2"><path d="M 208.304688 17.253906 L 213.945312 17.253906 L 213.945312 20.804688 L 208.304688 20.804688 Z M 208.304688 17.253906 " clip-rule="nonzero"/></clipPath><clipPath id="id3"><path d="M 216.0625 17.90625 C 216.0625 17.90625 213.910156 16.988281 211.824219 17.648438 C 209.738281 18.3125 208.511719 20.308594 208.511719 20.308594 C 208.511719 20.308594 210.664062 21.226562 212.75 20.5625 C 214.835938 19.898438 216.0625 17.90625 216.0625 17.90625 Z M 216.0625 17.90625 " clip-rule="nonzero"/></clipPath></defs><g clip-path="url(#id1)"><path fill="#f2e6dc" d="M 384 191.25 C 384 296.804688 298.417969 382.375 192.847656 382.375 C 87.273438 382.375 1.691406 296.804688 1.691406 191.25 C 1.691406 85.695312 87.273438 0.125 192.847656 0.125 C 298.417969 0.125 384 85.695312 384 191.25 " fill-opacity="1" fill-rule="nonzero"/></g><path fill="#ffffff" d="M 56.085938 178.902344 C 69.710938 173.535156 85.378906 179.765625 91.605469 193.015625 C 98.480469 207.652344 91.582031 225.011719 76.53125 230.941406 C 62.90625 236.304688 47.238281 230.078125 41.011719 216.824219 C 34.136719 202.1875 41.035156 184.828125 56.085938 178.902344 Z M 25.828125 230.992188 L 30.125 229.140625 C 31.414062 231.070312 32.839844 232.871094 34.382812 234.535156 L 31.59375 238.285156 L 44.289062 247.738281 L 47.089844 243.980469 C 49.144531 244.992188 51.28125 245.839844 53.472656 246.515625 L 52.925781 251.167969 L 68.652344 253.007812 L 69.195312 248.367188 C 71.460938 248.214844 73.734375 247.886719 75.996094 247.367188 L 77.847656 251.660156 L 92.386719 245.394531 L 90.535156 241.097656 C 92.460938 239.8125 94.261719 238.386719 95.925781 236.839844 L 99.675781 239.632812 L 109.132812 226.933594 L 105.375 224.136719 C 106.382812 222.082031 107.230469 219.945312 107.910156 217.757812 L 112.5625 218.300781 L 114.402344 202.578125 L 109.761719 202.035156 C 109.609375 199.769531 109.28125 197.496094 108.761719 195.234375 L 113.058594 193.382812 L 106.789062 178.847656 L 102.492188 180.699219 C 101.203125 178.773438 99.777344 176.972656 98.234375 175.308594 L 101.027344 171.558594 L 88.328125 162.105469 L 85.527344 165.859375 C 83.46875 164.847656 81.335938 164 79.144531 163.324219 L 79.691406 158.671875 L 63.964844 156.832031 L 63.421875 161.476562 C 61.15625 161.625 58.882812 161.957031 56.621094 162.472656 L 54.769531 158.179688 L 40.230469 164.445312 L 42.082031 168.742188 C 40.15625 170.03125 38.355469 171.457031 36.691406 173 L 32.941406 170.210938 L 23.484375 182.90625 L 27.242188 185.703125 C 26.234375 187.761719 25.382812 189.894531 24.707031 192.085938 L 20.054688 191.539062 L 18.214844 207.261719 L 22.855469 207.808594 C 23.007812 210.074219 23.335938 212.347656 23.855469 214.605469 L 19.558594 216.457031 L 25.828125 230.992188 " fill-opacity="1" fill-rule="nonzero"/><path fill="#f2e6dc" d="M 66.304688 239.761719 C 55.800781 239.761719 45.566406 235.011719 38.816406 226.332031 C 38.746094 226.242188 38.761719 226.113281 38.851562 226.039062 C 38.945312 225.96875 39.074219 225.988281 39.144531 226.078125 C 48.761719 238.441406 65.539062 242.734375 79.941406 236.527344 C 88.382812 232.886719 94.902344 226.175781 98.300781 217.632812 C 101.695312 209.089844 101.558594 199.734375 97.917969 191.292969 C 91.226562 175.773438 73.878906 167.320312 57.5625 171.625 C 57.453125 171.65625 57.335938 171.589844 57.308594 171.476562 C 57.277344 171.367188 57.34375 171.253906 57.457031 171.222656 C 65.4375 169.117188 73.953125 169.9375 81.433594 173.535156 C 88.988281 177.171875 94.976562 183.417969 98.300781 191.125 C 101.988281 199.667969 102.125 209.136719 98.6875 217.785156 C 95.25 226.433594 88.652344 233.222656 80.105469 236.910156 C 75.640625 238.835938 70.945312 239.761719 66.304688 239.761719 " fill-opacity="1" fill-rule="nonzero"/><path fill="#f7f1eb" d="M 315.355469 40.34375 C 324.816406 36.617188 335.703125 40.941406 340.023438 50.144531 C 344.796875 60.308594 340.003906 72.367188 329.554688 76.480469 C 320.09375 80.207031 309.214844 75.882812 304.890625 66.679688 C 300.117188 56.515625 304.90625 44.460938 315.355469 40.34375 Z M 291.121094 78.59375 L 294.445312 77.160156 C 295.445312 78.652344 296.546875 80.046875 297.742188 81.335938 L 295.582031 84.238281 L 305.410156 91.554688 L 307.578125 88.648438 C 309.171875 89.429688 310.824219 90.089844 312.519531 90.613281 L 312.097656 94.210938 L 324.269531 95.636719 L 324.691406 92.042969 C 326.445312 91.925781 328.203125 91.671875 329.953125 91.269531 L 331.390625 94.597656 L 342.644531 89.742188 L 341.210938 86.417969 C 342.703125 85.421875 344.09375 84.316406 345.382812 83.121094 L 348.285156 85.28125 L 355.605469 75.453125 L 352.695312 73.289062 C 353.480469 71.695312 354.136719 70.042969 354.660156 68.347656 L 358.261719 68.769531 L 359.6875 56.597656 L 356.09375 56.175781 C 355.972656 54.425781 355.71875 52.664062 355.316406 50.917969 L 358.648438 49.484375 L 353.792969 38.230469 L 350.464844 39.664062 C 349.46875 38.171875 348.367188 36.777344 347.167969 35.488281 L 349.328125 32.585938 L 339.5 25.269531 L 337.332031 28.175781 C 335.742188 27.394531 334.089844 26.738281 332.394531 26.214844 L 332.816406 22.609375 L 320.644531 21.1875 L 320.222656 24.78125 C 318.46875 24.898438 316.707031 25.152344 314.957031 25.554688 L 313.523438 22.230469 L 302.269531 27.082031 L 303.703125 30.40625 C 302.210938 31.402344 300.820312 32.503906 299.527344 33.703125 L 296.625 31.542969 L 289.308594 41.371094 L 292.214844 43.535156 C 291.433594 45.128906 290.777344 46.78125 290.25 48.476562 L 286.648438 48.054688 L 285.226562 60.226562 L 288.820312 60.644531 C 288.933594 62.402344 289.191406 64.160156 289.59375 65.910156 L 286.269531 67.34375 L 291.121094 78.59375 " fill-opacity="1" fill-rule="nonzero"/><path fill="#ffffff" d="M 322.453125 85.433594 C 314.308594 85.433594 306.371094 81.75 301.136719 75.019531 C 301.0625 74.929688 301.082031 74.796875 301.171875 74.726562 C 301.261719 74.65625 301.394531 74.671875 301.464844 74.765625 C 308.894531 84.3125 321.855469 87.636719 332.988281 82.835938 C 346.457031 77.03125 352.6875 61.347656 346.882812 47.882812 C 341.710938 35.894531 328.304688 29.359375 315.699219 32.683594 C 315.585938 32.71875 315.46875 32.648438 315.441406 32.539062 C 315.410156 32.425781 315.476562 32.3125 315.59375 32.28125 C 321.78125 30.648438 328.382812 31.285156 334.183594 34.078125 C 340.042969 36.898438 344.6875 41.738281 347.265625 47.714844 C 353.164062 61.394531 346.832031 77.324219 333.15625 83.222656 C 329.691406 84.714844 326.050781 85.433594 322.453125 85.433594 " fill-opacity="1" fill-rule="nonzero"/><path fill="#d3bba3" d="M 380.480469 107.933594 L 184.53125 107.933594 L 184.53125 120.28125 L 380.480469 120.28125 L 380.480469 107.933594 " fill-opacity="1" fill-rule="nonzero"/><path fill="#ffffff" d="M 380.480469 247.085938 L 184.53125 247.085938 L 184.53125 107.933594 L 380.480469 107.933594 L 380.480469 247.085938 " fill-opacity="1" fill-rule="nonzero"/><path fill="#d3bba3" d="M 184.738281 246.878906 L 380.265625 246.878906 L 380.265625 108.140625 L 184.738281 108.140625 Z M 380.476562 247.296875 L 184.527344 247.296875 C 184.414062 247.296875 184.320312 247.203125 184.320312 247.085938 L 184.320312 107.933594 C 184.320312 107.816406 184.414062 107.722656 184.527344 107.722656 L 380.476562 107.722656 C 380.59375 107.722656 380.6875 107.816406 380.6875 107.933594 L 380.6875 247.085938 C 380.6875 247.203125 380.59375 247.296875 380.476562 247.296875 " fill-opacity="1" fill-rule="nonzero"/><path fill="#ffffff" d="M 195.550781 114.195312 C 195.550781 115.746094 194.292969 117.003906 192.742188 117.003906 C 191.1875 117.003906 189.929688 115.746094 189.929688 114.195312 C 189.929688 112.644531 191.1875 111.386719 192.742188 111.386719 C 194.292969 111.386719 195.550781 112.644531 195.550781 114.195312 " fill-opacity="1" fill-rule="nonzero"/><path fill="#ffffff" d="M 204.625 114.195312 C 204.625 115.746094 203.371094 117.003906 201.816406 117.003906 C 200.265625 117.003906 199.007812 115.746094 199.007812 114.195312 C 199.007812 112.644531 200.265625 111.386719 201.816406 111.386719 C 203.371094 111.386719 204.625 112.644531 204.625 114.195312 " fill-opacity="1" fill-rule="nonzero"/><path fill="#ffffff" d="M 213.703125 114.195312 C 213.703125 115.746094 212.445312 117.003906 210.894531 117.003906 C 209.34375 117.003906 208.085938 115.746094 208.085938 114.195312 C 208.085938 112.644531 209.34375 111.386719 210.894531 111.386719 C 212.445312 111.386719 213.703125 112.644531 213.703125 114.195312 " fill-opacity="1" fill-rule="nonzero"/><path fill="#f7f1eb" d="M 368.136719 237.230469 L 196.863281 237.230469 L 196.863281 136.238281 L 368.136719 136.238281 L 368.136719 237.230469 " fill-opacity="1" fill-rule="nonzero"/><path fill="#e6d0be" d="M 357.085938 228.023438 L 205.023438 228.023438 L 205.023438 221.4375 L 357.085938 221.4375 L 357.085938 228.023438 " fill-opacity="1" fill-rule="nonzero"/><path fill="#efbc73" d="M 326.710938 152.867188 C 323.398438 152.867188 320.707031 155.558594 320.707031 158.871094 C 320.707031 162.183594 323.398438 164.878906 326.710938 164.878906 L 350.8125 164.878906 C 354.128906 164.878906 356.824219 162.183594 356.824219 158.871094 C 356.824219 155.558594 354.128906 152.867188 350.8125 152.867188 Z M 350.8125 165.296875 L 326.710938 165.296875 C 323.171875 165.296875 320.289062 162.414062 320.289062 158.871094 C 320.289062 155.328125 323.171875 152.449219 326.710938 152.449219 L 350.8125 152.449219 C 354.359375 152.449219 357.242188 155.328125 357.242188 158.871094 C 357.242188 162.414062 354.359375 165.296875 350.8125 165.296875 " fill-opacity="1" fill-rule="nonzero"/><path fill="#d87355" d="M 350.8125 182.609375 L 326.710938 182.609375 C 323.273438 182.609375 320.496094 179.824219 320.496094 176.394531 C 320.496094 172.960938 323.273438 170.179688 326.710938 170.179688 L 350.8125 170.179688 C 354.25 170.179688 357.03125 172.960938 357.03125 176.394531 C 357.03125 179.824219 354.25 182.609375 350.8125 182.609375 " fill-opacity="1" fill-rule="nonzero"/><path fill="#776e42" d="M 345.683594 175.628906 L 346.78125 194.167969 L 351.625 188.304688 C 351.664062 188.257812 351.722656 188.230469 351.78125 188.226562 L 359.386719 188.167969 Z M 346.609375 194.921875 C 346.585938 194.921875 346.566406 194.914062 346.542969 194.910156 C 346.460938 194.882812 346.402344 194.808594 346.398438 194.722656 L 345.238281 175.140625 C 345.234375 175.054688 345.28125 174.972656 345.359375 174.9375 C 345.433594 174.902344 345.527344 174.914062 345.585938 174.972656 L 360.0625 188.21875 C 360.125 188.277344 360.144531 188.367188 360.117188 188.449219 C 360.085938 188.527344 360.007812 188.582031 359.921875 188.585938 L 351.882812 188.644531 L 346.769531 194.84375 C 346.726562 194.894531 346.671875 194.921875 346.609375 194.921875 " fill-opacity="1" fill-rule="nonzero"/><path fill="#d3bba3" d="M 203.710938 10.476562 L 7.757812 10.476562 L 7.757812 22.824219 L 203.710938 22.824219 L 203.710938 10.476562 " fill-opacity="1" fill-rule="nonzero"/><path fill="#d3bba3" d="M 130.796875 149.839844 L 7.757812 149.839844 C 7.640625 149.839844 7.546875 149.746094 7.546875 149.628906 L 7.546875 10.476562 C 7.546875 10.363281 7.640625 10.269531 7.757812 10.269531 L 203.707031 10.269531 C 203.824219 10.269531 203.914062 10.363281 203.914062 10.476562 L 203.914062 71.070312 C 203.914062 71.1875 203.824219 71.277344 203.707031 71.277344 C 203.59375 71.277344 203.5 71.1875 203.5 71.070312 L 203.5 10.6875 L 7.964844 10.6875 L 7.964844 149.421875 L 130.796875 149.421875 C 130.910156 149.421875 131.007812 149.515625 131.007812 149.628906 C 131.007812 149.746094 130.910156 149.839844 130.796875 149.839844 " fill-opacity="1" fill-rule="nonzero"/><path fill="#ffffff" d="M 18.027344 14.679688 C 20.316406 17.683594 16.917969 21.082031 13.914062 18.792969 C 11.621094 15.789062 15.023438 12.390625 18.027344 14.679688 " fill-opacity="1" fill-rule="nonzero"/><path fill="#ffffff" d="M 27.105469 14.679688 C 29.394531 17.683594 25.996094 21.082031 22.988281 18.792969 C 20.699219 15.789062 24.097656 12.390625 27.105469 14.679688 " fill-opacity="1" fill-rule="nonzero"/><path fill="#ffffff" d="M 36.179688 14.679688 C 38.46875 17.683594 35.070312 21.082031 32.066406 18.792969 C 29.773438 15.789062 33.175781 12.390625 36.179688 14.679688 " fill-opacity="1" fill-rule="nonzero"/><path fill="#f7f1eb" d="M 192.183594 138.621094 L 19.28125 138.621094 L 19.28125 32.183594 L 192.183594 32.183594 L 192.183594 138.621094 " fill-opacity="1" fill-rule="nonzero"/><path fill="#8b865c" d="M 29.398438 97.722656 L 111.976562 97.722656 L 111.976562 43.359375 L 29.398438 43.359375 Z M 112.1875 98.140625 L 29.191406 98.140625 C 29.074219 98.140625 28.980469 98.046875 28.980469 97.933594 L 28.980469 43.152344 C 28.980469 43.035156 29.074219 42.941406 29.191406 42.941406 L 112.1875 42.941406 C 112.300781 42.941406 112.394531 43.035156 112.394531 43.152344 L 112.394531 97.933594 C 112.394531 98.046875 112.300781 98.140625 112.1875 98.140625 " fill-opacity="1" fill-rule="nonzero"/><path fill="#ffffff" d="M 68.277344 82.496094 L 36.269531 82.496094 L 36.269531 50.496094 L 68.277344 50.496094 L 68.277344 82.496094 " fill-opacity="1" fill-rule="nonzero"/><path fill="#8b865c" d="M 40.039062 74.953125 C 39.984375 74.953125 39.933594 74.9375 39.890625 74.894531 C 39.808594 74.8125 39.808594 74.679688 39.890625 74.597656 L 49.355469 65.136719 C 49.4375 65.054688 49.570312 65.054688 49.652344 65.136719 L 55.414062 70.894531 C 55.496094 70.976562 55.496094 71.109375 55.414062 71.191406 C 55.332031 71.273438 55.199219 71.273438 55.117188 71.191406 L 49.503906 65.578125 L 40.1875 74.894531 C 40.144531 74.9375 40.09375 74.953125 40.039062 74.953125 " fill-opacity="1" fill-rule="nonzero"/><path fill="#8b865c" d="M 64.9375 70.222656 C 64.882812 70.222656 64.828125 70.203125 64.789062 70.164062 L 57.734375 63.109375 L 53.355469 67.488281 C 53.273438 67.570312 53.140625 67.570312 53.058594 67.488281 C 52.976562 67.40625 52.976562 67.273438 53.058594 67.195312 L 57.585938 62.667969 C 57.664062 62.589844 57.804688 62.589844 57.882812 62.667969 L 65.082031 69.867188 C 65.164062 69.949219 65.164062 70.082031 65.082031 70.164062 C 65.042969 70.203125 64.988281 70.222656 64.9375 70.222656 " fill-opacity="1" fill-rule="nonzero"/><path fill="#8b865c" d="M 47.089844 59.019531 C 47.089844 60.519531 45.875 61.730469 44.378906 61.730469 C 42.878906 61.730469 41.667969 60.519531 41.667969 59.019531 C 41.667969 57.523438 42.878906 56.308594 44.378906 56.308594 C 45.875 56.308594 47.089844 57.523438 47.089844 59.019531 " fill-opacity="1" fill-rule="nonzero"/><path fill="#8b865c" d="M 101.878906 51.089844 L 73.671875 51.089844 C 73.558594 51.089844 73.464844 50.996094 73.464844 50.882812 C 73.464844 50.765625 73.558594 50.671875 73.671875 50.671875 L 101.878906 50.671875 C 101.996094 50.671875 102.089844 50.765625 102.089844 50.882812 C 102.089844 50.996094 101.996094 51.089844 101.878906 51.089844 " fill-opacity="1" fill-rule="nonzero"/><path fill="#8b865c" d="M 101.878906 56.515625 L 73.671875 56.515625 C 73.554688 56.515625 73.464844 56.417969 73.464844 56.304688 C 73.464844 56.1875 73.554688 56.097656 73.671875 56.097656 L 101.878906 56.097656 C 101.996094 56.097656 102.089844 56.1875 102.089844 56.304688 C 102.089844 56.417969 101.996094 56.515625 101.878906 56.515625 " fill-opacity="1" fill-rule="nonzero"/><path fill="#8b865c" d="M 101.878906 61.9375 L 73.671875 61.9375 C 73.558594 61.9375 73.464844 61.84375 73.464844 61.726562 C 73.464844 61.613281 73.558594 61.519531 73.671875 61.519531 L 101.878906 61.519531 C 101.996094 61.519531 102.089844 61.613281 102.089844 61.726562 C 102.089844 61.84375 101.996094 61.9375 101.878906 61.9375 " fill-opacity="1" fill-rule="nonzero"/><path fill="#8b865c" d="M 101.878906 67.363281 L 73.671875 67.363281 C 73.554688 67.363281 73.464844 67.269531 73.464844 67.152344 C 73.464844 67.039062 73.554688 66.945312 73.671875 66.945312 L 101.878906 66.945312 C 101.996094 66.945312 102.089844 67.039062 102.089844 67.152344 C 102.089844 67.269531 101.996094 67.363281 101.878906 67.363281 " fill-opacity="1" fill-rule="nonzero"/><path fill="#ffffff" d="M 126.289062 93.59375 L 57.941406 93.59375 L 57.941406 87.085938 L 126.289062 87.085938 L 126.289062 93.59375 " fill-opacity="1" fill-rule="nonzero"/><path fill="#40484c" d="M 279.035156 343.515625 C 279.035156 350.003906 273.777344 355.257812 267.289062 355.257812 L 138.964844 355.257812 C 132.476562 355.257812 127.21875 350.003906 127.21875 343.515625 L 127.21875 108.136719 C 127.21875 101.648438 132.476562 96.390625 138.964844 96.390625 L 267.289062 96.390625 C 273.777344 96.390625 279.035156 101.648438 279.035156 108.136719 L 279.035156 343.515625 " fill-opacity="1" fill-rule="nonzero"/><path fill="#ffffff" d="M 137.8125 109.773438 C 135.890625 109.773438 134.335938 111.328125 134.335938 113.25 L 134.335938 345.101562 L 268.445312 345.101562 C 270.363281 345.101562 271.921875 343.546875 271.921875 341.625 L 271.921875 113.25 C 271.921875 111.328125 270.363281 109.773438 268.445312 109.773438 L 137.8125 109.773438 " fill-opacity="1" fill-rule="nonzero"/><path fill="#d3bba3" d="M 218.222656 103.574219 L 188.03125 103.574219 C 187.914062 103.574219 187.824219 103.480469 187.824219 103.363281 C 187.824219 103.25 187.914062 103.15625 188.03125 103.15625 L 218.222656 103.15625 C 218.339844 103.15625 218.433594 103.25 218.433594 103.363281 C 218.433594 103.480469 218.339844 103.574219 218.222656 103.574219 " fill-opacity="1" fill-rule="nonzero"/><path fill="#e6d0be" d="M 252.417969 268.722656 L 199.898438 268.722656 L 199.898438 216.210938 L 252.417969 216.210938 L 252.417969 268.722656 " fill-opacity="1" fill-rule="nonzero"/><path fill="#ffffff" d="M 210.3125 231.832031 C 210.257812 231.832031 210.203125 231.8125 210.164062 231.769531 L 205.371094 226.980469 C 205.289062 226.898438 205.289062 226.765625 205.371094 226.683594 L 210.164062 221.890625 C 210.246094 221.8125 210.378906 221.8125 210.460938 221.890625 C 210.539062 221.972656 210.539062 222.105469 210.460938 222.1875 L 205.816406 226.832031 L 210.460938 231.476562 C 210.539062 231.558594 210.539062 231.6875 210.460938 231.769531 C 210.417969 231.8125 210.367188 231.832031 210.3125 231.832031 " fill-opacity="1" fill-rule="nonzero"/><path fill="#ffffff" d="M 218.160156 231.832031 C 218.109375 231.832031 218.054688 231.8125 218.011719 231.769531 C 217.933594 231.6875 217.933594 231.558594 218.011719 231.476562 L 222.65625 226.832031 L 218.011719 222.1875 C 217.933594 222.105469 217.933594 221.972656 218.011719 221.890625 C 218.09375 221.8125 218.226562 221.8125 218.308594 221.890625 L 223.101562 226.683594 C 223.183594 226.765625 223.183594 226.898438 223.101562 226.980469 L 218.308594 231.769531 C 218.269531 231.8125 218.214844 231.832031 218.160156 231.832031 " fill-opacity="1" fill-rule="nonzero"/><path fill="#ffffff" d="M 212.183594 231.535156 C 212.15625 231.535156 212.125 231.53125 212.097656 231.519531 C 211.996094 231.46875 211.945312 231.347656 211.996094 231.238281 L 216.132812 222.214844 C 216.179688 222.109375 216.304688 222.0625 216.410156 222.113281 C 216.511719 222.160156 216.558594 222.285156 216.511719 222.386719 L 212.375 231.414062 C 212.339844 231.492188 212.265625 231.535156 212.183594 231.535156 " fill-opacity="1" fill-rule="nonzero"/><path fill="#f2e6dc" d="M 249.179688 233.089844 L 228.886719 233.089844 L 228.886719 220.644531 L 249.179688 220.644531 L 249.179688 233.089844 " fill-opacity="1" fill-rule="nonzero"/><path fill="#ffffff" d="M 232.523438 237.902344 L 205.242188 237.902344 C 205.125 237.902344 205.03125 237.808594 205.03125 237.691406 C 205.03125 237.578125 205.125 237.484375 205.242188 237.484375 L 232.523438 237.484375 C 232.640625 237.484375 232.734375 237.578125 232.734375 237.691406 C 232.734375 237.808594 232.640625 237.902344 232.523438 237.902344 " fill-opacity="1" fill-rule="nonzero"/><path fill="#ffffff" d="M 248.226562 243.136719 L 224.226562 243.136719 C 224.113281 243.136719 224.019531 243.042969 224.019531 242.925781 C 224.019531 242.8125 224.113281 242.71875 224.226562 242.71875 L 248.226562 242.71875 C 248.339844 242.71875 248.433594 242.8125 248.433594 242.925781 C 248.433594 243.042969 248.339844 243.136719 248.226562 243.136719 " fill-opacity="1" fill-rule="nonzero"/><path fill="#ffffff" d="M 218.992188 243.136719 L 205.242188 243.136719 C 205.125 243.136719 205.03125 243.042969 205.03125 242.925781 C 205.03125 242.8125 205.125 242.71875 205.242188 242.71875 L 218.992188 242.71875 C 219.109375 242.71875 219.203125 242.8125 219.203125 242.925781 C 219.203125 243.042969 219.109375 243.136719 218.992188 243.136719 " fill-opacity="1" fill-rule="nonzero"/><path fill="#ffffff" d="M 248.226562 248.367188 L 236.164062 248.367188 C 236.050781 248.367188 235.957031 248.273438 235.957031 248.160156 C 235.957031 248.042969 236.050781 247.949219 236.164062 247.949219 L 248.226562 247.949219 C 248.339844 247.949219 248.433594 248.042969 248.433594 248.160156 C 248.433594 248.273438 248.339844 248.367188 248.226562 248.367188 " fill-opacity="1" fill-rule="nonzero"/><path fill="#ffffff" d="M 230.929688 248.367188 L 205.242188 248.367188 C 205.125 248.367188 205.03125 248.273438 205.03125 248.160156 C 205.03125 248.042969 205.125 247.949219 205.242188 247.949219 L 230.929688 247.949219 C 231.046875 247.949219 231.140625 248.042969 231.140625 248.160156 C 231.140625 248.273438 231.046875 248.367188 230.929688 248.367188 " fill-opacity="1" fill-rule="nonzero"/><path fill="#ffffff" d="M 240.375 253.601562 L 205.242188 253.601562 C 205.125 253.601562 205.03125 253.507812 205.03125 253.394531 C 205.03125 253.277344 205.125 253.183594 205.242188 253.183594 L 240.375 253.183594 C 240.488281 253.183594 240.585938 253.277344 240.585938 253.394531 C 240.585938 253.507812 240.488281 253.601562 240.375 253.601562 " fill-opacity="1" fill-rule="nonzero"/><path fill="#f7f1eb" d="M 249.335938 300.367188 C 249.335938 306.679688 244.175781 311.839844 237.863281 311.839844 L 159.953125 311.839844 C 153.644531 311.839844 148.480469 306.679688 148.480469 300.367188 C 148.480469 294.058594 153.644531 288.894531 159.953125 288.894531 L 237.863281 288.894531 C 244.175781 288.894531 249.335938 294.058594 249.335938 300.367188 " fill-opacity="1" fill-rule="nonzero"/><path fill="#e6d0be" d="M 166.664062 293.371094 C 159.921875 293.371094 154.441406 298.855469 154.441406 305.597656 C 154.441406 312.335938 159.921875 317.820312 166.664062 317.820312 L 240.148438 317.820312 C 246.890625 317.820312 252.375 312.335938 252.375 305.597656 C 252.375 298.855469 246.890625 293.371094 240.148438 293.371094 Z M 240.148438 318.238281 L 166.664062 318.238281 C 159.695312 318.238281 154.023438 312.566406 154.023438 305.597656 C 154.023438 298.625 159.695312 292.953125 166.664062 292.953125 L 240.148438 292.953125 C 247.117188 292.953125 252.792969 298.625 252.792969 305.597656 C 252.792969 312.566406 247.117188 318.238281 240.148438 318.238281 " fill-opacity="1" fill-rule="nonzero"/><path fill="#d87355" d="M 171.1875 305.3125 C 171.1875 307.8125 169.164062 309.835938 166.664062 309.835938 C 164.167969 309.835938 162.144531 307.8125 162.144531 305.3125 C 162.144531 302.816406 164.167969 300.792969 166.664062 300.792969 C 169.164062 300.792969 171.1875 302.816406 171.1875 305.3125 " fill-opacity="1" fill-rule="nonzero"/><path fill="#d87355" d="M 185.648438 305.3125 C 185.648438 307.8125 183.621094 309.835938 181.125 309.835938 C 178.628906 309.835938 176.601562 307.8125 176.601562 305.3125 C 176.601562 302.816406 178.628906 300.792969 181.125 300.792969 C 183.621094 300.792969 185.648438 302.816406 185.648438 305.3125 " fill-opacity="1" fill-rule="nonzero"/><path fill="#d87355" d="M 200.101562 305.3125 C 200.101562 307.8125 198.078125 309.835938 195.582031 309.835938 C 193.085938 309.835938 191.058594 307.8125 191.058594 305.3125 C 191.058594 302.816406 193.085938 300.792969 195.582031 300.792969 C 198.078125 300.792969 200.101562 302.816406 200.101562 305.3125 " fill-opacity="1" fill-rule="nonzero"/><path fill="#d87355" d="M 214.5625 305.3125 C 214.5625 307.8125 212.539062 309.835938 210.042969 309.835938 C 207.542969 309.835938 205.519531 307.8125 205.519531 305.3125 C 205.519531 302.816406 207.542969 300.792969 210.042969 300.792969 C 212.539062 300.792969 214.5625 302.816406 214.5625 305.3125 " fill-opacity="1" fill-rule="nonzero"/><path fill="#f7f1eb" d="M 256.195312 127.296875 L 148.433594 127.296875 L 148.433594 134.085938 L 256.195312 134.085938 L 256.195312 127.296875 " fill-opacity="1" fill-rule="nonzero"/><path fill="#f7f1eb" d="M 148.640625 203.613281 L 255.984375 203.613281 L 255.984375 127.503906 L 148.640625 127.503906 Z M 256.195312 204.03125 L 148.433594 204.03125 C 148.316406 204.03125 148.226562 203.9375 148.226562 203.824219 L 148.226562 127.296875 C 148.226562 127.179688 148.316406 127.085938 148.433594 127.085938 L 256.195312 127.085938 C 256.25 127.085938 256.304688 127.109375 256.34375 127.148438 C 256.382812 127.1875 256.402344 127.242188 256.402344 127.296875 L 256.402344 203.824219 C 256.402344 203.9375 256.3125 204.03125 256.195312 204.03125 " fill-opacity="1" fill-rule="nonzero"/><path fill="#ffffff" d="M 154.496094 130.738281 C 154.496094 131.59375 153.800781 132.28125 152.949219 132.28125 C 152.097656 132.28125 151.402344 131.59375 151.402344 130.738281 C 151.402344 129.886719 152.097656 129.195312 152.949219 129.195312 C 153.800781 129.195312 154.496094 129.886719 154.496094 130.738281 " fill-opacity="1" fill-rule="nonzero"/><path fill="#ffffff" d="M 159.484375 130.738281 C 159.484375 131.59375 158.792969 132.28125 157.941406 132.28125 C 157.085938 132.28125 156.394531 131.59375 156.394531 130.738281 C 156.394531 129.886719 157.085938 129.195312 157.941406 129.195312 C 158.792969 129.195312 159.484375 129.886719 159.484375 130.738281 " fill-opacity="1" fill-rule="nonzero"/><path fill="#ffffff" d="M 164.476562 130.738281 C 164.476562 131.59375 163.785156 132.28125 162.933594 132.28125 C 162.078125 132.28125 161.386719 131.59375 161.386719 130.738281 C 161.386719 129.886719 162.078125 129.195312 162.933594 129.195312 C 163.785156 129.195312 164.476562 129.886719 164.476562 130.738281 " fill-opacity="1" fill-rule="nonzero"/><path fill="#d87355" d="M 181.578125 162.582031 L 230.597656 162.582031 L 230.597656 156.695312 L 181.578125 156.695312 Z M 230.804688 163 L 181.367188 163 C 181.253906 163 181.160156 162.90625 181.160156 162.792969 L 181.160156 156.484375 C 181.160156 156.371094 181.253906 156.277344 181.367188 156.277344 L 230.804688 156.277344 C 230.921875 156.277344 231.015625 156.371094 231.015625 156.484375 L 231.015625 162.792969 C 231.015625 162.90625 230.921875 163 230.804688 163 " fill-opacity="1" fill-rule="nonzero"/><path fill="#f7f1eb" d="M 202.84375 196.648438 L 153.582031 196.648438 L 153.582031 167.601562 L 202.84375 167.601562 L 202.84375 196.648438 " fill-opacity="1" fill-rule="nonzero"/><path fill="#e6d0be" d="M 185.277344 180.023438 C 185.277344 183.921875 182.113281 187.085938 178.214844 187.085938 C 174.3125 187.085938 171.152344 183.921875 171.152344 180.023438 C 171.152344 176.125 174.3125 172.964844 178.214844 172.964844 C 182.113281 172.964844 185.277344 176.125 185.277344 180.023438 " fill-opacity="1" fill-rule="nonzero"/><path fill="#ffffff" d="M 182.375 180.023438 L 175.726562 176.183594 L 175.726562 183.863281 Z M 182.375 180.023438 " fill-opacity="1" fill-rule="nonzero"/><path fill="#e6d0be" d="M 199.664062 194 L 155.929688 194 L 155.929688 192.105469 L 199.664062 192.105469 L 199.664062 194 " fill-opacity="1" fill-rule="nonzero"/><path fill="#efbc73" d="M 202.523438 152.347656 L 153.085938 152.347656 L 153.085938 137.835938 L 202.523438 137.835938 L 202.523438 152.347656 " fill-opacity="1" fill-rule="nonzero"/><path fill="#363e44" d="M 162.734375 149.1875 L 162.707031 149.1875 C 162.625 149.175781 162.558594 149.117188 162.535156 149.035156 L 160.355469 141.484375 C 160.324219 141.375 160.386719 141.257812 160.5 141.226562 C 160.609375 141.195312 160.722656 141.257812 160.753906 141.371094 L 162.804688 148.460938 L 165.414062 144.109375 C 165.492188 143.984375 165.699219 143.984375 165.773438 144.109375 L 168.382812 148.460938 L 170.433594 141.371094 C 170.464844 141.257812 170.582031 141.195312 170.691406 141.226562 C 170.800781 141.257812 170.867188 141.375 170.832031 141.484375 L 168.652344 149.035156 C 168.628906 149.117188 168.5625 149.175781 168.480469 149.1875 C 168.398438 149.195312 168.316406 149.15625 168.273438 149.085938 L 165.59375 144.621094 L 162.914062 149.085938 C 162.875 149.148438 162.808594 149.1875 162.734375 149.1875 " fill-opacity="1" fill-rule="nonzero"/><path fill="#363e44" d="M 180.800781 149.1875 C 180.726562 149.1875 180.660156 149.148438 180.621094 149.085938 L 177.941406 144.621094 L 175.261719 149.085938 C 175.21875 149.15625 175.136719 149.195312 175.054688 149.1875 C 174.972656 149.175781 174.90625 149.117188 174.882812 149.035156 L 172.699219 141.484375 C 172.667969 141.375 172.734375 141.257812 172.84375 141.226562 C 172.957031 141.195312 173.070312 141.257812 173.105469 141.371094 L 175.148438 148.460938 L 177.761719 144.109375 C 177.839844 143.984375 178.042969 143.984375 178.121094 144.109375 L 180.730469 148.460938 L 182.777344 141.371094 C 182.8125 141.257812 182.925781 141.195312 183.039062 141.226562 C 183.148438 141.257812 183.214844 141.375 183.179688 141.484375 L 181 149.035156 C 180.976562 149.117188 180.910156 149.175781 180.828125 149.1875 L 180.800781 149.1875 " fill-opacity="1" fill-rule="nonzero"/><path fill="#363e44" d="M 193.148438 149.1875 C 193.074219 149.1875 193.007812 149.148438 192.96875 149.085938 L 190.289062 144.621094 L 187.609375 149.085938 C 187.566406 149.15625 187.484375 149.195312 187.402344 149.1875 C 187.320312 149.175781 187.25 149.117188 187.226562 149.035156 L 185.050781 141.484375 C 185.015625 141.375 185.082031 141.257812 185.191406 141.226562 C 185.300781 141.195312 185.417969 141.257812 185.449219 141.371094 L 187.496094 148.460938 L 190.109375 144.109375 C 190.183594 143.984375 190.390625 143.984375 190.464844 144.109375 L 193.082031 148.460938 L 195.128906 141.371094 C 195.160156 141.257812 195.273438 141.195312 195.382812 141.226562 C 195.496094 141.257812 195.558594 141.375 195.527344 141.484375 L 193.347656 149.035156 C 193.324219 149.117188 193.253906 149.175781 193.175781 149.1875 L 193.148438 149.1875 " fill-opacity="1" fill-rule="nonzero"/><path fill="#363e44" d="M 119.914062 217.066406 C 119.667969 217.066406 119.425781 217.109375 119.195312 217.191406 C 118.433594 217.464844 117.867188 218.160156 117.605469 219.15625 C 117.335938 220.179688 117.417969 221.386719 117.835938 222.554688 C 118.691406 224.941406 120.6875 226.417969 122.289062 225.84375 C 123.050781 225.574219 123.617188 224.871094 123.878906 223.878906 C 124.148438 222.855469 124.066406 221.648438 123.648438 220.476562 C 123.230469 219.3125 122.527344 218.324219 121.667969 217.703125 C 121.089844 217.285156 120.484375 217.066406 119.914062 217.066406 Z M 121.582031 226.382812 C 119.964844 226.382812 118.234375 224.90625 117.441406 222.695312 C 116.996094 221.449219 116.910156 220.15625 117.203125 219.050781 C 117.5 217.917969 118.160156 217.117188 119.054688 216.796875 C 119.949219 216.480469 120.964844 216.679688 121.914062 217.367188 C 122.839844 218.035156 123.59375 219.089844 124.039062 220.339844 C 124.488281 221.585938 124.574219 222.878906 124.28125 223.984375 C 123.984375 225.117188 123.324219 225.917969 122.429688 226.238281 C 122.15625 226.335938 121.871094 226.382812 121.582031 226.382812 " fill-opacity="1" fill-rule="nonzero"/><path fill="#bc8271" d="M 119.421875 221.078125 C 116.90625 214.023438 114.816406 210.132812 110.675781 208.195312 C 105.113281 205.585938 99.152344 208.785156 98.535156 209.125 C 98.140625 209.34375 92.351562 212.121094 91.386719 218.507812 C 90.4375 224.816406 92.859375 231.40625 97.898438 235.222656 L 97.898438 249.316406 C 97.898438 253.839844 101.566406 257.507812 106.09375 257.507812 L 107.117188 257.507812 C 111.644531 257.507812 115.3125 253.839844 115.3125 249.316406 L 115.3125 239.902344 C 118.183594 239.660156 120.453125 238.832031 121.363281 237.375 C 122.996094 234.773438 122.386719 229.390625 119.421875 221.078125 " fill-opacity="1" fill-rule="nonzero"/><path fill="#363e44" d="M 115.554688 223.542969 C 115.480469 223.542969 115.410156 223.503906 115.371094 223.4375 C 115.316406 223.335938 115.351562 223.210938 115.449219 223.152344 L 122.992188 218.933594 C 123.09375 218.875 123.21875 218.910156 123.277344 219.011719 C 123.332031 219.113281 123.296875 219.238281 123.195312 219.296875 L 115.65625 223.519531 C 115.625 223.535156 115.589844 223.542969 115.554688 223.542969 " fill-opacity="1" fill-rule="nonzero"/><path fill="#363e44" d="M 115.441406 239.886719 C 115.328125 239.886719 115.238281 239.796875 115.234375 239.683594 L 115.140625 236.25 L 115.351562 236.234375 L 115.558594 236.226562 L 115.351562 236.234375 L 115.558594 236.238281 L 115.652344 239.675781 C 115.652344 239.789062 115.5625 239.886719 115.449219 239.886719 L 115.441406 239.886719 " fill-opacity="1" fill-rule="nonzero"/><path fill="#363e44" d="M 114.152344 227.195312 C 114.09375 227.195312 114.039062 227.171875 113.996094 227.128906 C 113.601562 226.699219 113.257812 226.304688 112.890625 225.890625 C 112.59375 225.554688 112.285156 225.207031 111.941406 224.824219 C 111.863281 224.738281 111.871094 224.605469 111.957031 224.527344 C 112.042969 224.453125 112.171875 224.457031 112.25 224.542969 C 112.597656 224.925781 112.90625 225.277344 113.203125 225.613281 C 113.570312 226.027344 113.914062 226.417969 114.304688 226.847656 C 114.382812 226.929688 114.378906 227.066406 114.292969 227.140625 C 114.253906 227.179688 114.203125 227.195312 114.152344 227.195312 " fill-opacity="1" fill-rule="nonzero"/><path fill="#363e44" d="M 113.773438 205.253906 C 114.394531 205.695312 115.675781 206.625 116.597656 208.320312 C 119.875 214.363281 114.261719 222.179688 113.898438 222.675781 C 114.453125 221.660156 115.503906 219.425781 115.492188 216.414062 C 115.480469 213.316406 114.351562 211.722656 113.773438 210.71875 C 113.839844 212.386719 113.714844 214.863281 111.8125 217.886719 C 108.605469 222.988281 104.140625 225.394531 100.375 226.546875 C 96.925781 227.605469 90.890625 227.828125 88.621094 224.507812 C 85.230469 219.546875 88.777344 211.660156 93.652344 207.460938 C 99.367188 202.539062 108.5 201.515625 113.773438 205.253906 " fill-opacity="1" fill-rule="nonzero"/><path fill="#363e44" d="M 90.160156 211.898438 C 90.160156 214.707031 87.882812 216.988281 85.074219 216.988281 C 82.261719 216.988281 79.984375 214.707031 79.984375 211.898438 C 79.984375 209.089844 82.261719 206.808594 85.074219 206.808594 C 87.882812 206.808594 90.160156 209.089844 90.160156 211.898438 " fill-opacity="1" fill-rule="nonzero"/><path fill="#363e44" d="M 86.257812 210.371094 C 85.347656 210.371094 84.359375 210.609375 83.417969 211.105469 C 82.253906 211.71875 81.335938 212.625 80.835938 213.664062 C 80.347656 214.679688 80.316406 215.695312 80.753906 216.523438 C 81.667969 218.253906 84.347656 218.648438 86.730469 217.390625 C 87.894531 216.777344 88.808594 215.871094 89.308594 214.835938 C 89.796875 213.820312 89.828125 212.800781 89.390625 211.976562 C 88.839844 210.929688 87.644531 210.371094 86.257812 210.371094 Z M 83.898438 218.539062 C 82.355469 218.539062 81.011719 217.90625 80.386719 216.71875 C 79.886719 215.769531 79.914062 214.621094 80.460938 213.484375 C 81 212.367188 81.980469 211.390625 83.222656 210.734375 C 85.808594 209.375 88.742188 209.84375 89.761719 211.777344 C 90.261719 212.730469 90.234375 213.878906 89.683594 215.015625 C 89.144531 216.132812 88.164062 217.105469 86.925781 217.761719 C 85.921875 218.289062 84.871094 218.539062 83.898438 218.539062 " fill-opacity="1" fill-rule="nonzero"/><path fill="#363e44" d="M 111.054688 229.761719 C 111.019531 229.761719 110.980469 229.753906 110.945312 229.730469 C 108.910156 228.476562 107.894531 226.1875 108.46875 224.167969 C 108.878906 222.714844 110.175781 221.113281 112.042969 221.019531 C 113.527344 220.941406 114.976562 221.8125 115.738281 223.238281 C 115.792969 223.339844 115.753906 223.464844 115.652344 223.519531 C 115.550781 223.574219 115.421875 223.535156 115.371094 223.433594 C 114.683594 222.152344 113.382812 221.367188 112.066406 221.433594 C 110.402344 221.519531 109.242188 222.96875 108.871094 224.28125 C 108.34375 226.125 109.289062 228.21875 111.164062 229.375 C 111.265625 229.433594 111.292969 229.566406 111.234375 229.664062 C 111.195312 229.726562 111.125 229.761719 111.054688 229.761719 " fill-opacity="1" fill-rule="nonzero"/><path fill="#363e44" d="M 139.230469 318.101562 C 142.589844 326.648438 145.890625 335.558594 149.085938 344.820312 C 153.398438 357.316406 157.167969 369.417969 160.460938 381.058594 C 144.539062 381.058594 128.617188 381.058594 112.691406 381.058594 C 110.671875 377.761719 108.648438 374.46875 106.625 371.175781 C 105.613281 375.078125 105.1875 377.015625 104.175781 380.921875 C 89.4375 380.921875 74.117188 380.921875 59.382812 380.921875 C 60.191406 368.074219 62.09375 355.289062 65.964844 339.238281 C 68.144531 330.195312 70.683594 321.859375 73.359375 314.257812 C 95.316406 315.539062 117.273438 316.820312 139.230469 318.101562 " fill-opacity="1" fill-rule="nonzero"/><path fill="#40484c" d="M 113.671875 342.535156 L 138.683594 340.339844 L 139.757812 352.597656 C 140.363281 359.503906 135.257812 365.589844 128.351562 366.195312 C 121.445312 366.800781 115.355469 361.695312 114.75 354.789062 L 113.671875 342.535156 " fill-opacity="1" fill-rule="nonzero"/><path fill="#bc8271" d="M 159.414062 257.507812 C 162.160156 258.089844 164.515625 256.414062 167.035156 257.011719 C 193.800781 263.378906 207.261719 270.796875 204.015625 281.667969 C 201.953125 288.570312 182.757812 291.972656 157.230469 287.964844 C 157.792969 277.648438 158.453125 269.976562 159.414062 257.507812 " fill-opacity="1" fill-rule="nonzero"/><path fill="#bc8271" d="M 47.792969 264.453125 C 15.015625 288.011719 -0.00390625 304.34375 9.042969 314.234375 C 14.292969 319.96875 37.800781 313.710938 64.550781 296.296875 C 59.507812 286.390625 54.191406 276.273438 47.792969 264.453125 " fill-opacity="1" fill-rule="nonzero"/><path fill="#8b865c" d="M 38.558594 265.367188 C 38.558594 265.367188 70.40625 248.921875 100.882812 247.824219 C 126.855469 246.890625 167.035156 257.007812 167.035156 257.007812 L 167.417969 297.695312 L 151.675781 299.527344 L 154.96875 329.539062 L 61.253906 334.300781 L 59.425781 307.953125 L 49.265625 310.140625 L 38.558594 265.367188 " fill-opacity="1" fill-rule="nonzero"/><path fill="#bc8271" d="M 174.738281 269.785156 C 174.246094 261.757812 173.914062 243.433594 174.464844 229.433594 C 175.039062 214.730469 178.035156 193.105469 181.054688 193.5625 C 182.773438 193.824219 182.976562 196.855469 182.976562 205 C 183.386719 204.589844 184.804688 203.628906 186.363281 204.132812 C 188.664062 204.875 188.710938 206.925781 188.785156 207.105469 C 188.917969 206.957031 190.34375 205.367188 191.96875 205.605469 C 193.800781 205.871094 194.828125 207.105469 195.203125 208.507812 C 195.53125 208.144531 196.886719 206.921875 198.441406 207.199219 C 200.042969 207.480469 201.507812 208.9375 201.417969 210.628906 C 201.25 213.734375 200.574219 222.953125 200.792969 227.480469 C 201.222656 236.390625 206.992188 267.820312 204.207031 280.859375 C 194.355469 274.851562 184.589844 275.796875 174.738281 269.785156 " fill-opacity="1" fill-rule="nonzero"/><path fill="#363e44" d="M 192.722656 265.882812 C 192.691406 265.882812 192.660156 265.878906 192.628906 265.863281 C 187.945312 263.558594 181.886719 261.414062 174.105469 259.304688 C 173.996094 259.269531 173.929688 259.160156 173.960938 259.046875 C 173.988281 258.933594 174.105469 258.867188 174.214844 258.898438 C 182.023438 261.019531 188.105469 263.171875 192.816406 265.492188 C 192.917969 265.539062 192.960938 265.664062 192.910156 265.769531 C 192.871094 265.84375 192.800781 265.882812 192.722656 265.882812 " fill-opacity="1" fill-rule="nonzero"/><path fill="#363e44" d="M 180.175781 209.824219 L 180.132812 209.820312 L 177.71875 209.328125 C 177.605469 209.304688 177.53125 209.199219 177.554688 209.082031 C 177.578125 208.96875 177.6875 208.898438 177.800781 208.917969 L 180.21875 209.410156 C 180.332031 209.433594 180.402344 209.546875 180.378906 209.660156 C 180.359375 209.757812 180.273438 209.824219 180.175781 209.824219 " fill-opacity="1" fill-rule="nonzero"/><path fill="#363e44" d="M 186.304688 211.066406 L 186.261719 211.058594 L 183.847656 210.570312 C 183.734375 210.546875 183.664062 210.4375 183.683594 210.324219 C 183.707031 210.210938 183.820312 210.136719 183.929688 210.160156 L 186.347656 210.652344 C 186.460938 210.675781 186.53125 210.785156 186.511719 210.898438 C 186.488281 210.996094 186.402344 211.066406 186.304688 211.066406 " fill-opacity="1" fill-rule="nonzero"/><path fill="#363e44" d="M 192.558594 212.257812 L 192.515625 212.253906 L 190.101562 211.761719 C 189.988281 211.738281 189.917969 211.628906 189.941406 211.519531 C 189.964844 211.402344 190.070312 211.332031 190.1875 211.351562 L 192.601562 211.847656 C 192.714844 211.867188 192.785156 211.980469 192.761719 212.09375 C 192.742188 212.191406 192.65625 212.257812 192.558594 212.257812 " fill-opacity="1" fill-rule="nonzero"/><path fill="#363e44" d="M 198.210938 213.457031 L 198.167969 213.453125 L 195.753906 212.960938 C 195.640625 212.941406 195.566406 212.828125 195.589844 212.714844 C 195.613281 212.605469 195.722656 212.53125 195.835938 212.554688 L 198.25 213.042969 C 198.363281 213.066406 198.4375 213.179688 198.414062 213.289062 C 198.394531 213.390625 198.308594 213.457031 198.210938 213.457031 " fill-opacity="1" fill-rule="nonzero"/><path fill="#d87355" d="M 80.996094 329.402344 L 45.894531 348.855469 L 44.695312 346.695312 L 28.460938 346.410156 L 20.097656 360.328125 L 22.058594 363.863281 L 36.257812 355.992188 L 40.210938 363.121094 L 26.011719 370.992188 L 27.96875 374.53125 L 44.207031 374.8125 L 52.570312 360.894531 L 51.371094 358.730469 L 86.46875 339.273438 L 87.667969 341.4375 L 103.90625 341.71875 L 112.269531 327.800781 L 110.308594 324.265625 L 96.109375 332.140625 L 92.15625 325.007812 L 106.355469 317.136719 L 104.394531 313.601562 L 88.160156 313.320312 L 79.796875 327.238281 L 80.996094 329.402344 " fill-opacity="1" fill-rule="nonzero"/><path fill="#bc8271" d="M 24.992188 287.539062 L 24.996094 287.539062 C 48.476562 305.550781 65.484375 317.878906 70.582031 321.894531 C 71.117188 322.3125 72.0625 323.050781 72.988281 324.304688 C 76.410156 328.957031 73.320312 333.464844 75.410156 339.804688 C 76.972656 344.539062 79.953125 346.164062 79.140625 348.691406 C 78.726562 349.972656 76.183594 351.699219 74.03125 349.394531 C 75.183594 350.574219 76.535156 351.890625 75.09375 353.296875 C 73.335938 354.839844 70.945312 353.773438 69.75 352.292969 C 70.828125 353.628906 70.242188 355.257812 69.019531 355.515625 C 67.234375 355.894531 65 354.316406 64.144531 353.433594 C 64.71875 354.59375 64.554688 356.0625 63.542969 356.367188 C 61.695312 356.917969 59.96875 355.601562 57.632812 352.128906 C 55.007812 348.21875 54.328125 344.277344 53.957031 341.78125 L 53.957031 341.777344 C 36.199219 330.871094 24.53125 323.554688 10.015625 315.035156 C 7.042969 313.292969 16.984375 295.117188 24.992188 287.539062 " fill-opacity="1" fill-rule="nonzero"/><path fill="#363e44" d="M 47.890625 305.386719 C 47.847656 305.386719 47.804688 305.371094 47.765625 305.34375 C 40.660156 300.019531 34.058594 295.027344 27.59375 290.082031 C 27.5 290.011719 27.484375 289.882812 27.554688 289.789062 C 27.621094 289.695312 27.753906 289.679688 27.847656 289.75 C 34.3125 294.695312 40.910156 299.683594 48.015625 305.011719 C 48.109375 305.078125 48.128906 305.210938 48.058594 305.300781 C 48.019531 305.355469 47.957031 305.386719 47.890625 305.386719 " fill-opacity="1" fill-rule="nonzero"/><path fill="#363e44" d="M 73.929688 349.492188 C 73.875 349.492188 73.820312 349.46875 73.777344 349.425781 C 73.078125 348.664062 72.484375 347.820312 72.007812 346.90625 C 71.546875 346.023438 71.203125 345.082031 70.980469 344.113281 C 70.957031 344 71.027344 343.886719 71.140625 343.863281 C 71.253906 343.835938 71.363281 343.90625 71.390625 344.019531 C 71.601562 344.957031 71.933594 345.863281 72.378906 346.714844 C 72.835938 347.59375 73.410156 348.410156 74.085938 349.140625 C 74.164062 349.222656 74.15625 349.355469 74.074219 349.433594 C 74.03125 349.472656 73.980469 349.492188 73.929688 349.492188 " fill-opacity="1" fill-rule="nonzero"/><path fill="#363e44" d="M 69.96875 352.429688 C 69.921875 352.429688 69.871094 352.414062 69.832031 352.378906 C 68.933594 351.59375 68.148438 350.695312 67.492188 349.707031 C 66.859375 348.75 66.351562 347.710938 65.984375 346.625 C 65.949219 346.519531 66.007812 346.398438 66.117188 346.363281 C 66.226562 346.328125 66.34375 346.382812 66.378906 346.492188 C 66.734375 347.546875 67.226562 348.546875 67.839844 349.476562 C 68.472656 350.433594 69.238281 351.304688 70.105469 352.0625 C 70.195312 352.140625 70.203125 352.273438 70.125 352.359375 C 70.085938 352.40625 70.027344 352.429688 69.96875 352.429688 " fill-opacity="1" fill-rule="nonzero"/><path fill="#363e44" d="M 64.152344 353.507812 C 64.09375 353.507812 64.035156 353.484375 63.992188 353.4375 C 63.164062 352.476562 62.464844 351.414062 61.914062 350.273438 C 61.386719 349.167969 61 348 60.769531 346.796875 C 60.746094 346.683594 60.824219 346.574219 60.9375 346.550781 C 61.050781 346.53125 61.160156 346.605469 61.179688 346.71875 C 61.402344 347.886719 61.777344 349.019531 62.292969 350.089844 C 62.824219 351.199219 63.503906 352.230469 64.308594 353.164062 C 64.386719 353.25 64.375 353.382812 64.289062 353.457031 C 64.25 353.492188 64.199219 353.507812 64.152344 353.507812 " fill-opacity="1" fill-rule="nonzero"/><path fill="#efbc73" d="M 216.335938 89.75 C 215.585938 91.273438 188.789062 95.738281 172.535156 98.3125 C 165.21875 99.472656 157.960938 95.925781 154.378906 89.441406 C 150.828125 83.007812 152.890625 74.921875 159.089844 70.972656 L 194.90625 48.171875 L 216.335938 89.75 " fill-opacity="1" fill-rule="nonzero"/><path fill="#efbc73" d="M 298.667969 111.097656 C 308.984375 112.09375 317.589844 103.304688 316.359375 93.011719 C 315.042969 81.964844 307.320312 63.777344 291.519531 43.726562 C 281.960938 31.601562 265.933594 26.582031 251.160156 31.070312 L 194.90625 48.171875 L 213.589844 96.453125 L 281.09375 96.453125 L 298.667969 111.097656 " fill-opacity="1" fill-rule="nonzero"/><path fill="#363e44" d="M 275.160156 78.203125 C 275.078125 78.203125 275 78.152344 274.964844 78.070312 L 269.109375 63.433594 C 269.066406 63.328125 269.121094 63.207031 269.226562 63.164062 C 269.332031 63.121094 269.457031 63.171875 269.5 63.28125 L 275.351562 77.914062 C 275.398438 78.023438 275.347656 78.144531 275.238281 78.1875 C 275.210938 78.199219 275.1875 78.203125 275.160156 78.203125 " fill-opacity="1" fill-rule="nonzero"/><path fill="#363e44" d="M 275.15625 85.054688 C 275.132812 85.054688 275.101562 85.046875 275.078125 85.035156 C 274.96875 84.988281 274.921875 84.863281 274.96875 84.757812 C 278.441406 76.917969 285.210938 74.613281 290.277344 74.0625 C 295.742188 73.464844 300.464844 74.730469 300.507812 74.742188 C 300.621094 74.773438 300.6875 74.890625 300.65625 75 C 300.625 75.113281 300.507812 75.175781 300.398438 75.148438 C 300.355469 75.132812 295.703125 73.886719 290.308594 74.476562 C 283.105469 75.265625 278.074219 78.785156 275.351562 84.929688 C 275.316406 85.007812 275.242188 85.054688 275.15625 85.054688 " fill-opacity="1" fill-rule="nonzero"/><path fill="#363e44" d="M 212.285156 91.816406 C 212.203125 91.816406 212.125 91.765625 212.089844 91.683594 L 205.066406 74.234375 L 197.40625 67.625 C 197.320312 67.550781 197.308594 67.417969 197.386719 67.328125 C 197.460938 67.242188 197.59375 67.234375 197.679688 67.308594 L 205.378906 73.949219 C 205.402344 73.972656 205.425781 74 205.4375 74.03125 L 212.476562 91.527344 C 212.523438 91.636719 212.472656 91.757812 212.363281 91.800781 C 212.335938 91.8125 212.3125 91.816406 212.285156 91.816406 " fill-opacity="1" fill-rule="nonzero"/><path fill="#84524d" d="M 183.429688 74.074219 C 183.429688 74.074219 173.621094 52.683594 167.847656 40.683594 C 161.777344 28.074219 150.984375 10.351562 148.523438 11.894531 C 147.121094 12.769531 148.09375 15.492188 151.175781 22.59375 C 150.660156 22.390625 148.949219 22.164062 147.78125 23.1875 C 146.054688 24.707031 146.898438 26.441406 146.902344 26.628906 C 146.734375 26.546875 144.757812 25.703125 143.429688 26.523438 C 141.933594 27.449219 141.636719 28.914062 141.839844 30.28125 C 141.414062 30.085938 139.472656 29.566406 138.238281 30.421875 C 136.632812 31.53125 136.789062 33.6875 137.507812 35.125 C 138.832031 37.773438 142.621094 44.910156 144.144531 48.941406 C 147.144531 56.871094 151.765625 90.519531 163.757812 94.632812 C 172.792969 97.734375 185.535156 87.199219 183.429688 74.074219 " fill-opacity="1" fill-rule="nonzero"/><path fill="#363e44" d="M 149.890625 31.726562 Z M 143.210938 38.703125 C 142.246094 38.703125 141.132812 38.191406 140.136719 36.910156 C 140.066406 36.820312 140.082031 36.6875 140.175781 36.617188 C 140.265625 36.546875 140.398438 36.566406 140.46875 36.65625 C 141.921875 38.53125 143.46875 38.527344 144.347656 37.957031 C 145.230469 37.386719 145.265625 35.96875 144.847656 34.917969 C 144.800781 34.796875 144.847656 34.664062 144.957031 34.601562 C 145.066406 34.535156 145.207031 34.5625 145.285156 34.664062 C 146.375 36.019531 147.9375 36.375 149.175781 35.546875 C 150.105469 34.929688 150.417969 33.027344 149.804688 31.710938 C 149.753906 31.601562 149.789062 31.472656 149.894531 31.410156 C 149.996094 31.34375 150.128906 31.359375 150.207031 31.457031 C 151.371094 32.816406 153.433594 33.222656 154.304688 32.601562 C 154.796875 32.25 155.082031 31.789062 155.175781 31.195312 C 155.550781 28.847656 152.828125 25.148438 151.363281 23.164062 L 151.0625 22.753906 C 150.996094 22.660156 151.015625 22.53125 151.109375 22.460938 C 151.199219 22.390625 151.332031 22.414062 151.398438 22.503906 L 151.699219 22.914062 C 153.199219 24.949219 155.988281 28.746094 155.589844 31.261719 C 155.476562 31.960938 155.125 32.527344 154.550781 32.941406 C 153.65625 33.578125 151.785156 33.367188 150.433594 32.261719 C 150.769531 33.667969 150.359375 35.261719 149.410156 35.894531 C 148.175781 36.71875 146.617188 36.511719 145.4375 35.433594 C 145.660156 36.519531 145.457031 37.742188 144.574219 38.308594 C 144.191406 38.558594 143.722656 38.703125 143.210938 38.703125 " fill-opacity="1" fill-rule="nonzero"/><path fill="#84524d" d="M 150.730469 28.078125 C 151.84375 26.523438 158.574219 29.539062 159.824219 30.109375 L 157.222656 37.523438 C 156.652344 36.96875 149.425781 29.910156 150.730469 28.078125 " fill-opacity="1" fill-rule="nonzero"/><path fill="#363e44" d="M 157.222656 37.730469 C 157.171875 37.730469 157.117188 37.710938 157.078125 37.671875 C 155.75 36.386719 149.195312 29.875 150.558594 27.957031 C 151.636719 26.449219 156.882812 28.539062 159.914062 29.917969 C 160.019531 29.96875 160.0625 30.089844 160.015625 30.195312 C 159.96875 30.300781 159.84375 30.347656 159.738281 30.300781 C 155.003906 28.140625 151.53125 27.316406 150.902344 28.199219 C 149.929688 29.5625 154.707031 34.796875 157.367188 37.371094 C 157.449219 37.453125 157.453125 37.585938 157.371094 37.667969 C 157.332031 37.707031 157.277344 37.730469 157.222656 37.730469 " fill-opacity="1" fill-rule="nonzero"/><path fill="#ffffff" d="M 182.875 80.6875 C 208.789062 87.820312 224.019531 114.613281 216.882812 140.527344 C 209.746094 166.441406 182.949219 181.667969 157.03125 174.53125 C 131.113281 167.394531 115.886719 140.605469 123.023438 114.691406 C 130.15625 88.777344 156.953125 73.550781 182.875 80.6875 " fill-opacity="1" fill-rule="nonzero"/><path fill="#363e44" d="M 169.964844 79.039062 C 148.648438 79.039062 129.050781 93.195312 123.125 114.71875 C 119.679688 127.226562 121.3125 140.324219 127.722656 151.601562 C 134.132812 162.878906 144.550781 170.984375 157.058594 174.429688 C 161.34375 175.609375 165.703125 176.191406 170.027344 176.191406 C 178.332031 176.191406 186.53125 174.046875 193.949219 169.828125 C 205.226562 163.421875 213.335938 153.003906 216.78125 140.5 C 220.226562 127.992188 218.589844 114.894531 212.179688 103.617188 C 205.773438 92.335938 195.355469 84.230469 182.847656 80.785156 C 178.546875 79.605469 174.21875 79.039062 169.964844 79.039062 Z M 170.03125 176.402344 C 165.679688 176.402344 161.308594 175.816406 157.003906 174.632812 C 144.441406 171.175781 133.980469 163.03125 127.539062 151.703125 C 121.105469 140.375 119.464844 127.222656 122.921875 114.664062 C 126.378906 102.101562 134.523438 91.640625 145.851562 85.203125 C 157.179688 78.765625 170.339844 77.125 182.898438 80.585938 C 195.460938 84.042969 205.925781 92.1875 212.363281 103.511719 C 218.800781 114.839844 220.441406 127.992188 216.980469 140.554688 C 213.527344 153.113281 205.382812 163.578125 194.050781 170.011719 C 186.605469 174.246094 178.367188 176.402344 170.03125 176.402344 " fill-opacity="1" fill-rule="nonzero"/><path fill="#363e44" d="M 258.765625 150.089844 L 258.710938 150.078125 L 248.246094 147.335938 C 248.132812 147.308594 248.066406 147.195312 248.097656 147.082031 C 248.125 146.972656 248.242188 146.90625 248.351562 146.933594 L 258.816406 149.675781 C 258.929688 149.707031 258.996094 149.820312 258.964844 149.933594 C 258.941406 150.027344 258.859375 150.089844 258.765625 150.089844 " fill-opacity="1" fill-rule="nonzero"/><path fill="#363e44" d="M 257.800781 153.714844 L 257.746094 153.710938 L 247.28125 150.96875 C 247.167969 150.9375 247.101562 150.824219 247.132812 150.710938 C 247.160156 150.601562 247.273438 150.53125 247.386719 150.5625 L 257.851562 153.304688 C 257.964844 153.335938 258.03125 153.449219 258 153.558594 C 257.976562 153.652344 257.894531 153.714844 257.800781 153.714844 " fill-opacity="1" fill-rule="nonzero"/><path fill="#363e44" d="M 283.6875 158.308594 L 283.691406 158.308594 Z M 248.128906 143.828125 C 247.292969 143.828125 246.527344 144.382812 246.296875 145.226562 L 244.550781 151.609375 C 244.273438 152.617188 244.871094 153.664062 245.882812 153.941406 L 277.472656 162.582031 C 279.949219 163.257812 282.519531 161.796875 283.195312 159.320312 L 283.484375 158.25 C 283.8125 157.054688 283.65625 155.796875 283.039062 154.71875 C 282.421875 153.636719 281.421875 152.863281 280.226562 152.535156 L 248.628906 143.894531 C 248.460938 143.847656 248.292969 143.828125 248.128906 143.828125 Z M 278.699219 163.164062 C 278.261719 163.164062 277.8125 163.105469 277.367188 162.984375 L 245.773438 154.34375 C 244.539062 154.007812 243.808594 152.730469 244.148438 151.5 L 245.894531 145.117188 C 246.230469 143.882812 247.507812 143.15625 248.738281 143.492188 L 280.332031 152.132812 C 281.640625 152.488281 282.730469 153.332031 283.402344 154.511719 C 284.074219 155.6875 284.246094 157.054688 283.890625 158.363281 L 283.597656 159.425781 C 282.984375 161.679688 280.933594 163.164062 278.699219 163.164062 " fill-opacity="1" fill-rule="nonzero"/><path fill="#363e44" d="M 225.226562 145.890625 L 244.289062 151.078125 L 245.800781 145.550781 L 226.734375 140.363281 Z M 244.433594 151.542969 L 244.378906 151.535156 L 224.910156 146.242188 C 224.859375 146.226562 224.8125 146.191406 224.785156 146.144531 C 224.757812 146.09375 224.75 146.039062 224.765625 145.984375 L 226.386719 140.054688 C 226.417969 139.941406 226.53125 139.878906 226.644531 139.90625 L 246.113281 145.203125 C 246.164062 145.21875 246.210938 145.253906 246.238281 145.300781 C 246.265625 145.347656 246.273438 145.40625 246.257812 145.460938 L 244.636719 151.386719 C 244.613281 151.480469 244.527344 151.542969 244.433594 151.542969 " fill-opacity="1" fill-rule="nonzero"/><path fill="#363e44" d="M 169.867188 73.515625 C 160.621094 73.515625 151.488281 75.910156 143.234375 80.597656 C 130.675781 87.734375 121.648438 99.332031 117.8125 113.257812 C 113.976562 127.183594 115.796875 141.769531 122.933594 154.324219 C 130.070312 166.878906 141.671875 175.90625 155.597656 179.742188 C 160.367188 181.054688 165.214844 181.707031 170.035156 181.707031 C 179.28125 181.707031 188.414062 179.308594 196.667969 174.621094 C 209.226562 167.484375 218.253906 155.886719 222.089844 141.964844 C 225.921875 128.035156 224.105469 113.453125 216.96875 100.898438 C 209.832031 88.339844 198.230469 79.3125 184.304688 75.476562 C 179.535156 74.167969 174.683594 73.515625 169.867188 73.515625 Z M 170.035156 182.125 C 165.179688 182.125 160.296875 181.46875 155.484375 180.144531 C 141.453125 176.28125 129.761719 167.183594 122.570312 154.53125 C 115.378906 141.875 113.546875 127.179688 117.410156 113.148438 C 121.273438 99.117188 130.371094 87.425781 143.027344 80.234375 C 155.683594 73.046875 170.382812 71.210938 184.414062 75.074219 C 198.449219 78.941406 210.140625 88.035156 217.332031 100.691406 C 224.523438 113.34375 226.355469 128.042969 222.492188 142.074219 C 218.628906 156.105469 209.53125 167.796875 196.875 174.984375 C 188.558594 179.710938 179.351562 182.125 170.035156 182.125 " fill-opacity="1" fill-rule="nonzero"/><path fill="#d87355" d="M 144.117188 112.679688 L 148.832031 114.433594 C 150.195312 114.9375 151.410156 115.003906 152.484375 114.625 C 153.554688 114.242188 154.308594 113.46875 154.746094 112.292969 C 155.230469 110.992188 155.203125 109.90625 154.664062 109.03125 C 154.125 108.15625 153.085938 107.433594 151.535156 106.859375 L 146.921875 105.144531 Z M 143.1875 115.183594 L 140.023438 123.695312 L 145.175781 125.609375 C 146.625 126.148438 147.910156 126.199219 149.03125 125.757812 C 150.148438 125.316406 150.957031 124.4375 151.445312 123.117188 C 152.503906 120.265625 151.484375 118.265625 148.386719 117.113281 Z M 135.957031 125.085938 L 144.75 101.433594 L 152.480469 104.308594 C 155.050781 105.261719 156.785156 106.511719 157.683594 108.050781 C 158.582031 109.59375 158.648438 111.40625 157.871094 113.484375 C 157.460938 114.589844 156.785156 115.449219 155.839844 116.066406 C 154.898438 116.683594 153.796875 117.023438 152.539062 117.085938 C 153.683594 117.917969 154.441406 118.972656 154.8125 120.25 C 155.183594 121.527344 155.109375 122.859375 154.59375 124.246094 C 153.804688 126.371094 152.496094 127.78125 150.671875 128.484375 C 148.84375 129.1875 146.675781 129.070312 144.160156 128.136719 L 135.957031 125.085938 " fill-opacity="1" fill-rule="nonzero"/><path fill="#d87355" d="M 182.121094 115.320312 L 176.140625 131.402344 C 175.300781 133.628906 173.921875 135.191406 172.003906 136.09375 C 170.085938 136.996094 167.898438 137.089844 165.453125 136.378906 L 164.613281 136.101562 C 162.023438 135.140625 160.21875 133.675781 159.199219 131.707031 C 158.179688 129.738281 158.113281 127.527344 159.003906 125.070312 L 164.992188 108.953125 L 168.082031 110.101562 L 162.128906 126.121094 C 161.492188 127.832031 161.46875 129.335938 162.058594 130.632812 C 162.648438 131.929688 163.8125 132.902344 165.558594 133.554688 C 167.324219 134.207031 168.851562 134.238281 170.140625 133.644531 C 171.425781 133.050781 172.386719 131.898438 173.023438 130.1875 L 178.984375 114.152344 L 182.121094 115.320312 " fill-opacity="1" fill-rule="nonzero"/><path fill="#d87355" d="M 196.871094 144.1875 C 195.640625 145.039062 194.203125 145.484375 192.558594 145.519531 C 190.910156 145.554688 189.132812 145.21875 187.226562 144.507812 C 185.300781 143.792969 183.757812 142.703125 182.597656 141.246094 C 181.4375 139.785156 180.761719 138.070312 180.5625 136.097656 C 180.367188 134.125 180.664062 132.035156 181.460938 129.828125 L 182.226562 127.765625 C 183.550781 124.203125 185.410156 121.75 187.800781 120.40625 C 190.191406 119.066406 192.890625 118.953125 195.90625 120.070312 C 198.375 120.988281 200.128906 122.359375 201.164062 124.179688 C 202.203125 126.003906 202.457031 128.132812 201.929688 130.578125 L 198.8125 129.417969 C 199.394531 126.058594 198.113281 123.796875 194.972656 122.628906 C 192.882812 121.851562 191.023438 122 189.402344 123.066406 C 187.777344 124.136719 186.441406 126.058594 185.394531 128.839844 L 184.675781 130.773438 C 183.691406 133.433594 183.511719 135.765625 184.144531 137.785156 C 184.773438 139.804688 186.125 141.195312 188.191406 141.960938 C 189.363281 142.398438 190.433594 142.648438 191.410156 142.714844 C 192.382812 142.785156 193.269531 142.613281 194.074219 142.210938 L 196.042969 136.910156 L 190.566406 134.878906 L 191.515625 132.328125 L 200.09375 135.515625 L 196.871094 144.1875 " fill-opacity="1" fill-rule="nonzero"/><path fill="#84524d" d="M 240.839844 129.96875 C 251.511719 115.582031 272.347656 88.96875 272.347656 88.96875 C 272.347656 88.96875 278.34375 80.226562 287.597656 79.351562 C 292.128906 78.921875 296.722656 79.597656 300.796875 81.09375 C 311.832031 85.136719 315.867188 98.640625 309.027344 108.195312 C 297.847656 123.816406 274.980469 144.6875 268.761719 152.085938 C 265.019531 156.542969 258.644531 166.476562 256.429688 169.773438 C 255.222656 171.574219 252.460938 171.941406 250.453125 171.003906 C 248.503906 170.097656 247.933594 167.816406 247.84375 167.191406 C 246.339844 168.335938 244.238281 168.808594 241.984375 167.683594 C 239.984375 166.679688 239.617188 163.972656 239.585938 163.71875 C 239.359375 163.847656 237.726562 165.902344 234.578125 164.898438 C 232.449219 164.226562 231.605469 162.160156 231.464844 161.425781 C 229.101562 165.066406 229.289062 174.117188 224.9375 172.902344 C 220.933594 171.78125 222.347656 154.894531 240.839844 129.96875 " fill-opacity="1" fill-rule="nonzero"/><path fill="#363e44" d="M 256.902344 165.1875 C 256.875 165.1875 256.84375 165.183594 256.816406 165.167969 L 253.558594 163.671875 C 253.453125 163.625 253.40625 163.5 253.457031 163.394531 C 253.503906 163.292969 253.628906 163.246094 253.734375 163.292969 L 256.988281 164.789062 C 257.09375 164.835938 257.140625 164.960938 257.09375 165.066406 C 257.058594 165.140625 256.980469 165.1875 256.902344 165.1875 " fill-opacity="1" fill-rule="nonzero"/><path fill="#363e44" d="M 249.113281 161.445312 C 249.085938 161.445312 249.058594 161.441406 249.03125 161.429688 L 249.027344 161.429688 L 245.300781 159.847656 C 245.191406 159.804688 245.140625 159.679688 245.1875 159.574219 C 245.234375 159.46875 245.355469 159.417969 245.460938 159.460938 L 249.1875 161.042969 C 249.296875 161.089844 249.347656 161.214844 249.300781 161.320312 C 249.269531 161.398438 249.195312 161.445312 249.113281 161.445312 " fill-opacity="1" fill-rule="nonzero"/><path fill="#363e44" d="M 240.664062 158.035156 C 240.636719 158.035156 240.609375 158.03125 240.578125 158.015625 C 239.96875 157.738281 239.421875 157.488281 238.871094 157.238281 C 238.320312 156.992188 237.769531 156.742188 237.164062 156.464844 C 237.058594 156.414062 237.015625 156.292969 237.0625 156.1875 C 237.109375 156.082031 237.234375 156.039062 237.339844 156.085938 C 237.945312 156.363281 238.492188 156.613281 239.039062 156.859375 C 239.59375 157.105469 240.144531 157.355469 240.753906 157.636719 C 240.859375 157.683594 240.902344 157.808594 240.855469 157.914062 C 240.820312 157.988281 240.746094 158.035156 240.664062 158.035156 " fill-opacity="1" fill-rule="nonzero"/><path fill="#363e44" d="M 233.988281 154.613281 C 233.953125 154.613281 233.921875 154.605469 233.890625 154.589844 L 230.773438 152.886719 C 230.671875 152.832031 230.632812 152.707031 230.6875 152.605469 C 230.746094 152.503906 230.871094 152.464844 230.972656 152.523438 L 234.089844 154.222656 C 234.1875 154.277344 234.226562 154.402344 234.171875 154.507812 C 234.132812 154.574219 234.0625 154.613281 233.988281 154.613281 " fill-opacity="1" fill-rule="nonzero"/><path fill="#84524d" d="M 224.199219 41.515625 L 237.601562 36.785156 L 223.246094 14.113281 C 222.007812 11.875 218.171875 15.175781 215.933594 16.414062 C 213.695312 17.648438 212.886719 20.46875 214.121094 22.707031 L 224.199219 41.515625 " fill-opacity="1" fill-rule="nonzero"/><path fill="#84524d" d="M 227.796875 46.046875 L 241.113281 35.152344 L 227.34375 34.171875 L 220.460938 41.882812 L 227.796875 46.046875 " fill-opacity="1" fill-rule="nonzero"/><path fill="#84524d" d="M 207.996094 30.984375 C 210.820312 33.464844 219.640625 27.433594 219.640625 27.433594 L 226.046875 18.679688 C 226.589844 13.417969 222.765625 8.710938 217.5 8.164062 C 212.242188 7.621094 207.53125 11.441406 206.984375 16.707031 C 206.984375 16.707031 205.117188 28.457031 207.996094 30.984375 " fill-opacity="1" fill-rule="nonzero"/><path fill="#84524d" d="M 207.820312 19.324219 C 207.820312 19.324219 204.855469 21.847656 204.921875 22.605469 C 205 23.5 207.921875 24.347656 207.921875 24.347656 C 207.921875 24.347656 207.746094 19.324219 207.820312 19.324219 " fill-opacity="1" fill-rule="nonzero"/><path fill="#ffffff" d="M 216.0625 17.90625 C 216.0625 17.90625 214.597656 17.28125 212.914062 17.433594 C 212.558594 17.464844 213.492188 20.273438 213.816406 20.078125 C 215.25 19.226562 216.0625 17.90625 216.0625 17.90625 " fill-opacity="1" fill-rule="nonzero"/><g clip-path="url(#id2)"><g clip-path="url(#id3)"><path fill="#363e44" d="M 212.835938 17.371094 C 211.621094 16.359375 209.816406 16.519531 208.804688 17.734375 C 207.792969 18.949219 207.953125 20.753906 209.171875 21.765625 C 210.386719 22.777344 212.191406 22.613281 213.199219 21.398438 C 214.214844 20.183594 214.050781 18.378906 212.835938 17.371094 " fill-opacity="1" fill-rule="nonzero"/></g></g><path fill="#363e44" d="M 228.4375 8.375 C 228.4375 8.375 231.9375 18.914062 224.851562 22.195312 L 223.105469 20.578125 L 218.792969 22.203125 L 220.707031 17.183594 C 221.222656 15.238281 219.835938 13.300781 217.824219 13.171875 L 209.050781 12.609375 L 209.628906 7.941406 C 215.761719 4.839844 222.011719 4.523438 228.4375 8.375 " fill-opacity="1" fill-rule="nonzero"/><path fill="#363e44" d="M 218.8125 6.261719 C 219.769531 6.570312 220.800781 6.042969 221.109375 5.082031 C 221.417969 4.121094 221.050781 2.589844 220.089844 2.285156 C 219.128906 1.972656 217.941406 3.003906 217.628906 3.964844 C 217.320312 4.925781 217.851562 5.953125 218.8125 6.261719 " fill-opacity="1" fill-rule="nonzero"/><path fill="#363e44" d="M 217.40625 6.664062 C 218.394531 6.46875 219.035156 5.507812 218.835938 4.515625 C 218.640625 3.527344 217.574219 2.371094 216.589844 2.566406 C 215.601562 2.765625 215.0625 4.242188 215.261719 5.230469 C 215.457031 6.21875 216.417969 6.863281 217.40625 6.664062 " fill-opacity="1" fill-rule="nonzero"/><path fill="#363e44" d="M 214.390625 7.566406 C 215.664062 7.070312 216.296875 5.632812 215.800781 4.359375 C 215.304688 3.085938 213.609375 1.789062 212.335938 2.289062 C 211.058594 2.78125 210.6875 4.882812 211.1875 6.15625 C 211.683594 7.433594 213.121094 8.0625 214.390625 7.566406 " fill-opacity="1" fill-rule="nonzero"/><path fill="#363e44" d="M 221.675781 6.695312 C 222.625 7.035156 223.667969 6.542969 224.011719 5.59375 C 224.347656 4.640625 224.035156 3.097656 223.085938 2.761719 C 222.132812 2.421875 220.910156 3.410156 220.574219 4.359375 C 220.234375 5.3125 220.726562 6.355469 221.675781 6.695312 " fill-opacity="1" fill-rule="nonzero"/><path fill="#363e44" d="M 212.089844 7.84375 C 212.671875 6.773438 212.28125 5.4375 211.214844 4.851562 C 210.148438 4.265625 208.253906 4.351562 207.667969 5.417969 C 207.082031 6.484375 208.03125 8.128906 209.097656 8.714844 C 210.164062 9.300781 211.503906 8.910156 212.089844 7.84375 " fill-opacity="1" fill-rule="nonzero"/><path fill="#363e44" d="M 223.914062 7.546875 C 225 8.175781 226.394531 7.8125 227.027344 6.726562 C 227.660156 5.640625 227.625 3.679688 226.539062 3.046875 C 225.453125 2.414062 223.730469 3.347656 223.097656 4.433594 C 222.464844 5.519531 222.828125 6.914062 223.914062 7.546875 " fill-opacity="1" fill-rule="nonzero"/><path fill="#363e44" d="M 226.148438 8.058594 C 226.6875 8.878906 227.792969 9.105469 228.609375 8.5625 C 229.425781 8.023438 230.082031 6.636719 229.542969 5.820312 C 229 5 227.46875 5.058594 226.652344 5.597656 C 225.832031 6.140625 225.609375 7.242188 226.148438 8.058594 " fill-opacity="1" fill-rule="nonzero"/><path fill="#363e44" d="M 211.316406 10.53125 C 211.585938 9.070312 210.621094 7.671875 209.164062 7.402344 C 207.703125 7.132812 205.539062 7.953125 205.269531 9.414062 C 205 10.871094 206.730469 12.414062 208.1875 12.683594 C 209.644531 12.953125 211.046875 11.988281 211.316406 10.53125 " fill-opacity="1" fill-rule="nonzero"/><path fill="#84524d" d="M 227.890625 18.90625 C 228.425781 20.652344 227.445312 22.5 225.703125 23.039062 C 223.960938 23.574219 222.109375 22.597656 221.570312 20.851562 C 221.035156 19.109375 222.015625 17.257812 223.757812 16.722656 C 225.5 16.183594 227.351562 17.164062 227.890625 18.90625 " fill-opacity="1" fill-rule="nonzero"/><path fill="#363e44" d="M 206.390625 23.785156 L 206.589844 31.824219 C 206.617188 32.941406 207.570312 33.8125 208.6875 33.738281 C 208.96875 33.71875 209.273438 33.695312 209.59375 33.664062 C 215.183594 33.152344 220.113281 29.792969 222.621094 24.777344 C 223.464844 23.09375 223.179688 21.070312 221.910156 19.6875 L 221.488281 19.230469 L 219.851562 19.945312 C 219.851562 19.945312 218.289062 24.175781 216.628906 24.351562 C 214.96875 24.527344 212.070312 22.945312 206.390625 23.785156 " fill-opacity="1" fill-rule="nonzero"/><path fill="#84524d" d="M 210.25 26.457031 C 209.902344 26.457031 209.558594 26.34375 209.273438 26.113281 C 209.183594 26.042969 209.167969 25.914062 209.242188 25.824219 C 209.3125 25.730469 209.445312 25.71875 209.535156 25.789062 C 209.886719 26.070312 210.367188 26.121094 210.761719 25.917969 C 211.144531 25.71875 211.386719 25.316406 211.382812 24.886719 C 211.378906 24.769531 211.46875 24.675781 211.585938 24.671875 L 211.589844 24.671875 C 211.699219 24.671875 211.796875 24.765625 211.796875 24.878906 C 211.804688 25.46875 211.476562 26.023438 210.953125 26.289062 C 210.730469 26.402344 210.492188 26.457031 210.25 26.457031 " fill-opacity="1" fill-rule="nonzero"/><path fill="#84524d" d="M 220.164062 13.851562 C 220.09375 13.851562 220.027344 13.820312 219.988281 13.757812 C 219.925781 13.664062 219.949219 13.535156 220.042969 13.46875 L 224.082031 10.785156 C 224.175781 10.722656 224.308594 10.746094 224.371094 10.84375 C 224.433594 10.941406 224.410156 11.066406 224.3125 11.132812 L 220.277344 13.820312 C 220.242188 13.839844 220.203125 13.851562 220.164062 13.851562 " fill-opacity="1" fill-rule="nonzero"/><path fill="#8b865c" d="M 338.90625 311.273438 C 334.441406 332.628906 332.765625 350.164062 335.171875 350.441406 C 337.574219 350.71875 343.148438 333.632812 347.617188 312.28125 C 352.085938 290.929688 351.355469 273.113281 351.355469 273.113281 C 351.355469 273.113281 343.375 289.921875 338.90625 311.273438 " fill-opacity="1" fill-rule="nonzero"/><path fill="#776e42" d="M 331.582031 311.652344 C 327.84375 333.082031 327.472656 350.710938 330.757812 351.03125 C 334.039062 351.347656 339.734375 334.230469 343.472656 312.800781 C 347.214844 291.371094 344.304688 273.425781 344.304688 273.425781 C 344.304688 273.425781 335.320312 290.222656 331.582031 311.652344 " fill-opacity="1" fill-rule="nonzero"/><path fill="#8b865c" d="M 297.90625 322.421875 C 301.910156 343.824219 307.109375 360.976562 309.519531 360.726562 C 311.925781 360.476562 310.636719 342.921875 306.636719 321.519531 C 302.632812 300.117188 295.023438 283.214844 295.023438 283.214844 C 295.023438 283.214844 293.90625 301.015625 297.90625 322.421875 " fill-opacity="1" fill-rule="nonzero"/><path fill="#776e42" d="M 303.613281 315.25 C 306.023438 335.230469 309.742188 351.3125 311.917969 351.164062 C 314.09375 351.023438 313.902344 334.707031 311.492188 314.726562 C 309.078125 294.742188 303.1875 278.808594 303.1875 278.808594 C 303.1875 278.808594 301.203125 295.269531 303.613281 315.25 " fill-opacity="1" fill-rule="nonzero"/><path fill="#8b865c" d="M 309.210938 319.003906 C 308.746094 342.726562 310.339844 361.976562 312.773438 362.003906 C 315.207031 362.027344 317.558594 342.820312 318.027344 319.097656 C 318.492188 295.375 314.464844 276.09375 314.464844 276.09375 C 314.464844 276.09375 309.679688 295.277344 309.210938 319.003906 " fill-opacity="1" fill-rule="nonzero"/><path fill="#8b865c" d="M 322.160156 342.234375 C 325.945312 363.660156 330.972656 380.835938 333.386719 380.601562 C 335.796875 380.367188 334.683594 362.808594 330.898438 341.378906 C 327.113281 319.953125 319.671875 303.011719 319.671875 303.011719 C 319.671875 303.011719 318.371094 320.808594 322.160156 342.234375 " fill-opacity="1" fill-rule="nonzero"/><path fill="#776e42" d="M 315.097656 317.617188 C 314.019531 336.105469 316.074219 351.183594 319.683594 351.300781 C 323.289062 351.417969 327.089844 336.527344 328.164062 318.039062 C 329.238281 299.550781 323.574219 284.355469 323.574219 284.355469 C 323.574219 284.355469 316.171875 299.128906 315.097656 317.617188 " fill-opacity="1" fill-rule="nonzero"/><path fill="#8b865c" d="M 325.582031 322.296875 C 322.027344 343.746094 321.105469 361.3125 323.523438 361.53125 C 325.9375 361.753906 330.777344 344.546875 334.328125 323.097656 C 337.882812 301.652344 336.390625 283.863281 336.390625 283.863281 C 336.390625 283.863281 329.136719 300.851562 325.582031 322.296875 " fill-opacity="1" fill-rule="nonzero"/><path fill="#efbc73" d="M 305.21875 381.117188 L 338.214844 381.117188 L 344.730469 342.898438 L 298.703125 342.898438 L 305.21875 381.117188 " fill-opacity="1" fill-rule="nonzero"/></svg>