<svg xmlns="http://www.w3.org/2000/svg" xmlns:xlink="http://www.w3.org/1999/xlink" width="512" zoomAndPan="magnify" viewBox="0 0 384 383.999986" height="512" preserveAspectRatio="xMidYMid meet" version="1.0"><path fill="#cccece" d="M 133.554688 227.59375 C 128.335938 230.609375 128.304688 235.496094 133.496094 238.507812 C 138.683594 241.523438 147.125 241.523438 152.347656 238.507812 L 205.109375 208.0625 C 210.332031 205.046875 210.359375 200.160156 205.171875 197.148438 C 202.574219 195.636719 199.164062 194.886719 195.75 194.886719 C 192.347656 194.890625 188.929688 195.640625 186.320312 197.148438 Z M 133.554688 227.59375 " fill-opacity="1" fill-rule="nonzero"/><path fill="#cccece" d="M 87.195312 247.042969 C 84.621094 248.527344 84.605469 250.9375 87.164062 252.425781 C 89.722656 253.910156 93.886719 253.910156 96.460938 252.425781 L 261.570312 155.621094 C 264.144531 154.132812 264.160156 151.722656 261.601562 150.238281 C 260.320312 149.492188 258.636719 149.121094 256.957031 149.121094 C 255.273438 149.125 114.507812 231.28125 113.21875 232.023438 Z M 87.195312 247.042969 " fill-opacity="1" fill-rule="nonzero"/><path fill="#d9dddd" d="M 265.976562 6.558594 C 264.363281 5.617188 262.128906 5.753906 259.660156 7.175781 L 93.550781 103.035156 C 88.652344 105.863281 84.6875 112.722656 84.703125 118.355469 L 85.066406 238.464844 C 85.078125 241.265625 86.066406 243.226562 87.65625 244.15625 L 82.621094 241.234375 C 81.027344 240.304688 80.039062 238.339844 80.03125 235.542969 L 79.671875 115.433594 C 79.652344 109.796875 83.613281 102.9375 88.519531 100.113281 L 254.628906 4.25 C 257.097656 2.828125 259.328125 2.695312 260.945312 3.632812 Z M 265.976562 6.558594 " fill-opacity="1" fill-rule="nonzero"/><path fill="#262e3f" d="M 216.847656 201.492188 C 216.855469 203.480469 215.542969 205.472656 212.914062 206.988281 L 160.148438 237.433594 C 154.929688 240.449219 146.488281 240.449219 141.296875 237.433594 C 138.71875 235.9375 137.429688 233.976562 137.421875 232.015625 L 137.417969 227.820312 C 137.421875 229.78125 138.710938 231.738281 141.289062 233.238281 C 146.476562 236.25 154.917969 236.25 160.136719 233.238281 L 212.90625 202.792969 C 215.527344 201.277344 216.839844 199.292969 216.839844 197.304688 Z M 216.847656 201.492188 " fill-opacity="1" fill-rule="nonzero"/><path fill="#38425d" d="M 141.351562 222.324219 C 136.128906 225.335938 136.097656 230.222656 141.289062 233.238281 C 146.476562 236.25 154.917969 236.25 160.140625 233.238281 L 212.902344 202.789062 C 218.125 199.777344 218.152344 194.886719 212.964844 191.875 C 210.367188 190.367188 206.957031 189.613281 203.546875 189.617188 C 200.140625 189.617188 196.722656 190.371094 194.113281 191.875 Z M 141.351562 222.324219 " fill-opacity="1" fill-rule="nonzero"/><path fill="#d9dddd" d="M 160.421875 225.539062 L 154.417969 222.050781 L 154.296875 179.714844 L 160.300781 183.203125 Z M 160.421875 225.539062 " fill-opacity="1" fill-rule="nonzero"/><path fill="#c9cece" d="M 160.300781 184.660156 L 154.296875 181.171875 L 190.816406 160.097656 L 196.820312 163.585938 Z M 160.300781 184.660156 " fill-opacity="1" fill-rule="nonzero"/><path fill="#eaefef" d="M 196.820312 162.128906 L 196.9375 204.464844 L 160.421875 225.539062 L 160.300781 183.203125 Z M 196.820312 162.128906 " fill-opacity="1" fill-rule="nonzero"/><path fill="#38425d" d="M 259.664062 7.175781 C 264.566406 4.347656 268.554688 6.617188 268.570312 12.25 L 268.933594 132.359375 C 268.949219 137.992188 264.988281 144.851562 260.085938 147.679688 L 93.972656 243.539062 C 89.070312 246.367188 85.082031 244.09375 85.066406 238.464844 L 84.703125 118.355469 C 84.6875 112.722656 88.652344 105.863281 93.550781 103.035156 Z M 259.664062 7.175781 " fill-opacity="1" fill-rule="nonzero"/><path fill="#f3516f" d="M 265.703125 12.261719 C 265.6875 10.984375 265.417969 8.847656 263.644531 8.847656 C 263.148438 8.847656 262.289062 8.972656 261.105469 9.675781 L 94.996094 105.523438 C 90.957031 107.855469 87.554688 113.710938 87.574219 118.339844 L 87.589844 123.6875 L 265.730469 20.878906 Z M 265.703125 12.261719 " fill-opacity="1" fill-rule="nonzero"/><path fill="#f3516f" d="M 165.234375 78.875 L 265.730469 20.878906 L 265.703125 12.261719 C 265.6875 10.984375 265.417969 8.847656 263.644531 8.847656 C 263.148438 8.847656 262.289062 8.972656 261.105469 9.675781 L 165.234375 64.996094 Z M 165.234375 78.875 " fill-opacity="1" fill-rule="nonzero"/><path fill="#eaefef" d="M 266.054688 132.375 C 266.074219 137.007812 262.679688 142.878906 258.640625 145.1875 L 92.542969 241.042969 C 91.332031 241.734375 90.5 241.875 90 241.875 C 88.222656 241.875 87.941406 239.722656 87.941406 238.453125 L 87.59375 123.691406 L 265.726562 20.878906 Z M 266.054688 132.375 " fill-opacity="1" fill-rule="nonzero"/><path fill="#d7dbdb" d="M 115.101562 290.414062 C 114.179688 290.945312 114.175781 291.824219 115.089844 292.355469 L 177.851562 328.8125 C 178.765625 329.34375 180.265625 329.332031 181.183594 328.800781 L 341.949219 236.027344 C 342.871094 235.496094 342.875 234.640625 341.960938 234.109375 L 279.199219 197.652344 C 278.285156 197.121094 276.785156 197.109375 275.863281 197.640625 Z M 115.101562 290.414062 " fill-opacity="1" fill-rule="nonzero"/><path fill="#bbbec6" d="M 113.507812 276.8125 L 113.539062 284.140625 C 113.539062 284.484375 113.757812 284.859375 114.199219 285.113281 L 176.957031 321.558594 C 177.898438 322.089844 179.375 322.089844 180.316406 321.558594 L 341.078125 228.777344 C 341.550781 228.527344 341.769531 228.152344 341.769531 227.808594 L 341.738281 220.480469 C 341.738281 220.824219 341.519531 221.203125 341.046875 221.453125 L 180.285156 314.234375 C 179.375 314.765625 177.867188 314.765625 176.957031 314.234375 L 114.199219 277.785156 C 113.757812 277.535156 113.507812 277.160156 113.507812 276.8125 Z M 113.507812 276.8125 " fill-opacity="1" fill-rule="nonzero"/><path fill="#eaefef" d="M 114.210938 275.84375 C 113.289062 276.375 113.28125 277.253906 114.199219 277.785156 L 176.960938 314.242188 C 177.875 314.773438 179.371094 314.761719 180.292969 314.230469 L 341.058594 221.457031 C 341.980469 220.925781 341.984375 220.070312 341.070312 219.539062 L 278.308594 183.082031 C 277.390625 182.550781 275.894531 182.539062 274.972656 183.070312 Z M 114.210938 275.84375 " fill-opacity="1" fill-rule="nonzero"/><path fill="#475675" d="M 239.019531 210.078125 L 248.917969 215.828125 L 258.859375 210.089844 L 248.960938 204.34375 Z M 239.019531 210.078125 " fill-opacity="1" fill-rule="nonzero"/><path fill="#475675" d="M 191.121094 254.984375 L 201.019531 260.734375 L 210.960938 254.996094 L 201.066406 249.25 Z M 191.121094 254.984375 " fill-opacity="1" fill-rule="nonzero"/><path fill="#475675" d="M 226.457031 217.328125 L 236.355469 223.078125 L 246.296875 217.339844 L 236.398438 211.589844 Z M 226.457031 217.328125 " fill-opacity="1" fill-rule="nonzero"/><path fill="#475675" d="M 193.492188 270.90625 L 203.371094 276.644531 L 213.332031 270.898438 L 203.453125 265.160156 Z M 193.492188 270.90625 " fill-opacity="1" fill-rule="nonzero"/><path fill="#475675" d="M 206.054688 263.660156 L 215.929688 269.394531 L 225.871094 263.660156 L 215.996094 257.921875 Z M 206.054688 263.660156 " fill-opacity="1" fill-rule="nonzero"/><path fill="#475675" d="M 218.613281 256.410156 L 228.492188 262.148438 L 238.433594 256.410156 L 228.558594 250.671875 Z M 218.613281 256.410156 " fill-opacity="1" fill-rule="nonzero"/><path fill="#475675" d="M 293.984375 212.914062 L 303.863281 218.652344 L 313.804688 212.914062 L 303.925781 207.179688 Z M 293.984375 212.914062 " fill-opacity="1" fill-rule="nonzero"/><path fill="#475675" d="M 281.421875 220.164062 L 291.300781 225.902344 L 301.242188 220.164062 L 291.367188 214.425781 Z M 281.421875 220.164062 " fill-opacity="1" fill-rule="nonzero"/><path fill="#475675" d="M 253.929688 218.742188 L 263.828125 224.488281 L 273.769531 218.753906 L 263.875 213.003906 Z M 253.929688 218.742188 " fill-opacity="1" fill-rule="nonzero"/><path fill="#475675" d="M 241.371094 225.988281 L 251.265625 231.738281 L 261.207031 226 L 251.3125 220.253906 Z M 241.371094 225.988281 " fill-opacity="1" fill-rule="nonzero"/><path fill="#475675" d="M 268.863281 227.414062 L 278.738281 233.152344 L 288.679688 227.414062 L 278.804688 221.675781 Z M 268.863281 227.414062 " fill-opacity="1" fill-rule="nonzero"/><path fill="#475675" d="M 201.335938 231.828125 L 211.230469 237.574219 L 221.171875 231.835938 L 211.277344 226.089844 Z M 201.335938 231.828125 " fill-opacity="1" fill-rule="nonzero"/><path fill="#475675" d="M 228.808594 233.238281 L 238.703125 238.988281 L 248.648438 233.25 L 238.75 227.5 Z M 228.808594 233.238281 " fill-opacity="1" fill-rule="nonzero"/><path fill="#475675" d="M 256.300781 234.664062 L 266.175781 240.398438 L 276.121094 234.664062 L 266.242188 228.925781 Z M 256.300781 234.664062 " fill-opacity="1" fill-rule="nonzero"/><path fill="#475675" d="M 188.773438 239.074219 L 198.667969 244.824219 L 208.613281 239.085938 L 198.714844 233.339844 Z M 188.773438 239.074219 " fill-opacity="1" fill-rule="nonzero"/><path fill="#475675" d="M 216.246094 240.488281 L 226.144531 246.238281 L 236.085938 240.5 L 226.1875 234.75 Z M 216.246094 240.488281 " fill-opacity="1" fill-rule="nonzero"/><path fill="#475675" d="M 243.738281 241.910156 L 253.617188 247.648438 L 263.558594 241.910156 L 253.679688 236.175781 Z M 243.738281 241.910156 " fill-opacity="1" fill-rule="nonzero"/><path fill="#475675" d="M 176.210938 246.324219 L 186.109375 252.074219 L 196.050781 246.335938 L 186.152344 240.585938 Z M 176.210938 246.324219 " fill-opacity="1" fill-rule="nonzero"/><path fill="#475675" d="M 203.683594 247.738281 L 213.582031 253.484375 L 223.523438 247.75 L 213.625 242 Z M 203.683594 247.738281 " fill-opacity="1" fill-rule="nonzero"/><path fill="#475675" d="M 231.175781 249.160156 L 241.054688 254.898438 L 250.996094 249.160156 L 241.117188 243.421875 Z M 231.175781 249.160156 " fill-opacity="1" fill-rule="nonzero"/><path fill="#475675" d="M 163.648438 253.574219 L 173.546875 259.324219 L 183.507812 253.574219 L 173.609375 247.824219 Z M 163.648438 253.574219 " fill-opacity="1" fill-rule="nonzero"/><path fill="#475675" d="M 178.5625 262.234375 L 188.457031 267.984375 L 198.417969 262.234375 L 188.523438 256.488281 Z M 178.5625 262.234375 " fill-opacity="1" fill-rule="nonzero"/><path fill="#475675" d="M 198.210938 285.699219 L 207.65625 291.1875 L 301.242188 237.183594 L 291.796875 231.695312 Z M 198.210938 285.699219 " fill-opacity="1" fill-rule="nonzero"/><path fill="#475675" d="M 266.492188 211.492188 L 276.390625 217.242188 L 286.332031 211.503906 L 276.433594 205.753906 Z M 266.492188 211.492188 " fill-opacity="1" fill-rule="nonzero"/><path fill="#475675" d="M 251.582031 202.832031 L 261.476562 208.578125 L 271.421875 202.839844 L 261.523438 197.09375 Z M 251.582031 202.832031 " fill-opacity="1" fill-rule="nonzero"/><path fill="#475675" d="M 279.054688 204.242188 L 288.949219 209.992188 L 298.894531 204.253906 L 288.996094 198.503906 Z M 279.054688 204.242188 " fill-opacity="1" fill-rule="nonzero"/><path fill="#475675" d="M 264.144531 195.582031 L 274.039062 201.332031 L 283.980469 195.59375 L 274.085938 189.84375 Z M 264.144531 195.582031 " fill-opacity="1" fill-rule="nonzero"/><path fill="#475675" d="M 213.894531 224.578125 L 223.792969 230.328125 L 233.734375 224.589844 L 223.839844 218.839844 Z M 213.894531 224.578125 " fill-opacity="1" fill-rule="nonzero"/><path fill="#475675" d="M 151.105469 260.8125 L 161.003906 266.558594 L 170.945312 260.824219 L 161.050781 255.074219 Z M 151.105469 260.8125 " fill-opacity="1" fill-rule="nonzero"/><path fill="#475675" d="M 138.546875 268.0625 L 148.441406 273.808594 L 158.382812 268.070312 L 148.488281 262.324219 Z M 138.546875 268.0625 " fill-opacity="1" fill-rule="nonzero"/><path fill="#475675" d="M 166.019531 269.472656 L 175.914062 275.222656 L 185.859375 269.484375 L 175.960938 263.734375 Z M 166.019531 269.472656 " fill-opacity="1" fill-rule="nonzero"/><path fill="#475675" d="M 125.984375 275.308594 L 135.878906 281.058594 L 145.824219 275.320312 L 135.925781 269.574219 Z M 125.984375 275.308594 " fill-opacity="1" fill-rule="nonzero"/><path fill="#475675" d="M 153.457031 276.722656 L 163.355469 282.472656 L 173.296875 276.734375 L 163.398438 270.984375 Z M 153.457031 276.722656 " fill-opacity="1" fill-rule="nonzero"/><path fill="#475675" d="M 180.949219 278.144531 L 190.828125 283.882812 L 200.769531 278.144531 L 190.890625 272.410156 Z M 180.949219 278.144531 " fill-opacity="1" fill-rule="nonzero"/><path fill="#475675" d="M 140.894531 283.972656 L 150.792969 289.71875 L 160.734375 283.980469 L 150.835938 278.234375 Z M 140.894531 283.972656 " fill-opacity="1" fill-rule="nonzero"/><path fill="#475675" d="M 168.386719 285.394531 L 178.265625 291.132812 L 188.207031 285.394531 L 178.328125 279.65625 Z M 168.386719 285.394531 " fill-opacity="1" fill-rule="nonzero"/><path fill="#475675" d="M 155.824219 292.644531 L 165.703125 298.382812 L 175.644531 292.644531 L 165.769531 286.90625 Z M 155.824219 292.644531 " fill-opacity="1" fill-rule="nonzero"/><path fill="#eaefef" d="M 128.207031 94.410156 C 128.214844 96.371094 126.878906 98.734375 125.171875 99.714844 C 123.464844 100.707031 122.078125 99.914062 122.078125 97.953125 C 122.066406 95.992188 123.445312 93.609375 125.152344 92.628906 C 126.859375 91.636719 128.207031 92.449219 128.207031 94.410156 Z M 128.207031 94.410156 " fill-opacity="1" fill-rule="nonzero"/><path fill="#eaefef" d="M 104.734375 107.953125 C 104.742188 109.914062 103.386719 112.292969 101.679688 113.269531 C 99.972656 114.261719 98.585938 113.46875 98.574219 111.507812 C 98.574219 109.546875 99.953125 107.164062 101.660156 106.183594 C 103.367188 105.191406 104.722656 105.996094 104.734375 107.953125 Z M 104.734375 107.953125 " fill-opacity="1" fill-rule="nonzero"/><path fill="#eaefef" d="M 116.476562 101.1875 C 116.476562 103.148438 115.136719 105.503906 113.429688 106.492188 C 111.722656 107.472656 110.316406 106.703125 110.316406 104.742188 C 110.308594 102.78125 111.703125 100.386719 113.410156 99.394531 C 115.117188 98.414062 116.464844 99.226562 116.476562 101.1875 Z M 116.476562 101.1875 " fill-opacity="1" fill-rule="nonzero"/><path fill="#cccece" d="M 98.246094 134.695312 L 95.179688 136.464844 L 95.179688 135.246094 L 98.246094 133.472656 Z M 98.246094 134.695312 " fill-opacity="1" fill-rule="nonzero"/><path fill="#cccece" d="M 98.988281 199.273438 L 95.207031 201.453125 L 95.207031 200.230469 L 98.988281 198.050781 Z M 98.988281 199.273438 " fill-opacity="1" fill-rule="nonzero"/><path fill="#cccece" d="M 95.253906 163.25 L 99.046875 161.058594 L 99.046875 162.277344 L 95.265625 164.457031 Z M 95.253906 163.25 " fill-opacity="1" fill-rule="nonzero"/><path fill="#cccece" d="M 95.265625 220.117188 L 95.253906 218.894531 L 99.046875 216.71875 L 99.046875 217.9375 Z M 95.265625 220.117188 " fill-opacity="1" fill-rule="nonzero"/><path fill="#cccece" d="M 98.246094 190.355469 L 95.179688 192.125 L 95.179688 190.90625 L 98.246094 189.132812 Z M 98.246094 190.355469 " fill-opacity="1" fill-rule="nonzero"/><path fill="#cccece" d="M 98.988281 143.613281 L 95.207031 145.792969 L 95.207031 144.585938 L 98.988281 142.390625 Z M 98.988281 143.613281 " fill-opacity="1" fill-rule="nonzero"/><path fill="#cccece" d="M 95.308594 181.914062 L 99.089844 179.722656 L 99.101562 180.941406 L 95.308594 183.121094 Z M 95.308594 181.914062 " fill-opacity="1" fill-rule="nonzero"/><path fill="#cccece" d="M 100.382812 184.441406 L 95.164062 187.449219 L 95.164062 186.242188 L 100.382812 183.238281 Z M 100.382812 184.441406 " fill-opacity="1" fill-rule="nonzero"/><path fill="#cccece" d="M 100.410156 193.78125 L 95.195312 196.789062 L 95.195312 195.570312 L 100.398438 192.5625 Z M 100.410156 193.78125 " fill-opacity="1" fill-rule="nonzero"/><path fill="#cccece" d="M 95.28125 172.574219 L 99.785156 169.976562 L 99.785156 171.195312 L 95.28125 173.796875 Z M 95.28125 172.574219 " fill-opacity="1" fill-rule="nonzero"/><path fill="#cccece" d="M 95.28125 228.234375 L 99.785156 225.636719 L 99.785156 226.855469 L 95.28125 229.441406 Z M 95.28125 228.234375 " fill-opacity="1" fill-rule="nonzero"/><path fill="#cccece" d="M 99.800781 175.859375 L 95.296875 178.457031 L 95.296875 177.238281 L 99.800781 174.652344 Z M 99.800781 175.859375 " fill-opacity="1" fill-rule="nonzero"/><path fill="#cccece" d="M 100.382812 128.78125 L 95.164062 131.789062 L 95.164062 130.582031 L 100.382812 127.578125 Z M 100.382812 128.78125 " fill-opacity="1" fill-rule="nonzero"/><path fill="#cccece" d="M 95.222656 204.910156 L 100.425781 201.902344 L 100.441406 203.105469 L 95.222656 206.113281 Z M 95.222656 204.910156 " fill-opacity="1" fill-rule="nonzero"/><path fill="#cccece" d="M 95.195312 139.910156 L 100.398438 136.902344 L 100.410156 138.121094 L 95.195312 141.128906 Z M 95.195312 139.910156 " fill-opacity="1" fill-rule="nonzero"/><path fill="#cccece" d="M 95.222656 149.246094 L 100.425781 146.242188 L 100.441406 147.445312 L 95.222656 150.453125 Z M 95.222656 149.246094 " fill-opacity="1" fill-rule="nonzero"/><path fill="#cccece" d="M 95.253906 215.453125 L 95.238281 214.234375 L 100.453125 211.226562 L 100.453125 212.445312 Z M 95.253906 215.453125 " fill-opacity="1" fill-rule="nonzero"/><path fill="#cccece" d="M 95.265625 167.914062 L 100.484375 164.90625 L 100.484375 166.113281 L 95.265625 169.132812 Z M 95.265625 167.914062 " fill-opacity="1" fill-rule="nonzero"/><path fill="#cccece" d="M 95.265625 223.574219 L 100.484375 220.550781 L 100.484375 221.773438 L 95.265625 224.777344 Z M 95.265625 223.574219 " fill-opacity="1" fill-rule="nonzero"/><path fill="#cccece" d="M 100.453125 156.785156 L 95.253906 159.792969 L 95.238281 158.574219 L 100.453125 155.566406 Z M 100.453125 156.785156 " fill-opacity="1" fill-rule="nonzero"/><path fill="#cccece" d="M 105.164062 154.070312 L 105.164062 152.851562 L 113.386719 148.117188 L 113.386719 149.320312 Z M 105.164062 154.070312 " fill-opacity="1" fill-rule="nonzero"/><path fill="#cccece" d="M 105.164062 209.730469 L 105.164062 208.511719 L 113.386719 203.761719 L 113.386719 204.980469 Z M 105.164062 209.730469 " fill-opacity="1" fill-rule="nonzero"/><path fill="#cccece" d="M 114.011719 130.265625 L 105.105469 135.40625 L 105.105469 134.199219 L 114.011719 129.058594 Z M 114.011719 130.265625 " fill-opacity="1" fill-rule="nonzero"/><path fill="#cccece" d="M 114.011719 185.925781 L 105.105469 191.066406 L 105.105469 189.847656 L 114.011719 184.71875 Z M 114.011719 185.925781 " fill-opacity="1" fill-rule="nonzero"/><path fill="#cccece" d="M 112.9375 157.714844 L 105.175781 162.191406 L 105.191406 163.410156 L 112.9375 158.9375 Z M 112.9375 157.714844 " fill-opacity="1" fill-rule="nonzero"/><path fill="#cccece" d="M 114.625 213.609375 L 105.191406 219.054688 L 105.175781 217.851562 L 114.625 212.402344 Z M 114.625 213.609375 " fill-opacity="1" fill-rule="nonzero"/><path fill="#cccece" d="M 120.347656 135.957031 L 105.132812 144.746094 L 105.132812 143.523438 L 120.347656 134.75 Z M 120.347656 135.957031 " fill-opacity="1" fill-rule="nonzero"/><path fill="#cccece" d="M 100.441406 152.125 L 95.238281 155.128906 L 95.222656 153.910156 L 100.441406 150.902344 Z M 100.441406 152.125 " fill-opacity="1" fill-rule="nonzero"/><path fill="#cccece" d="M 120.347656 191.617188 L 105.132812 200.390625 L 105.132812 199.1875 L 120.347656 190.398438 Z M 120.347656 191.617188 " fill-opacity="1" fill-rule="nonzero"/><path fill="#cccece" d="M 110.527344 177.371094 L 105.074219 180.519531 L 105.074219 181.726562 L 110.527344 178.585938 Z M 110.527344 177.371094 " fill-opacity="1" fill-rule="nonzero"/><path fill="#cccece" d="M 120.507812 117.175781 L 105.074219 126.082031 L 105.074219 124.859375 L 120.496094 115.957031 Z M 120.507812 117.175781 " fill-opacity="1" fill-rule="nonzero"/><path fill="#cccece" d="M 95.238281 210.777344 L 95.222656 209.570312 L 100.441406 206.566406 L 100.441406 207.769531 Z M 95.238281 210.777344 " fill-opacity="1" fill-rule="nonzero"/><path fill="#cccece" d="M 112.601562 153.234375 L 105.164062 157.527344 L 105.175781 158.734375 L 112.601562 154.449219 Z M 112.601562 153.234375 " fill-opacity="1" fill-rule="nonzero"/><path fill="#cccece" d="M 136.320312 122.070312 L 105.121094 140.066406 L 105.121094 138.863281 L 136.320312 120.851562 Z M 136.320312 122.070312 " fill-opacity="1" fill-rule="nonzero"/><path fill="#cccece" d="M 105.089844 129.523438 L 135.871094 111.773438 L 135.871094 112.980469 L 105.089844 130.742188 Z M 105.089844 129.523438 " fill-opacity="1" fill-rule="nonzero"/><path fill="#cccece" d="M 136.320312 177.730469 L 105.121094 195.726562 L 105.121094 194.523438 L 136.320312 176.511719 Z M 136.320312 177.730469 " fill-opacity="1" fill-rule="nonzero"/><path fill="#cccece" d="M 130.214844 134.941406 L 105.148438 149.40625 L 105.148438 148.1875 L 130.214844 133.71875 Z M 130.214844 134.941406 " fill-opacity="1" fill-rule="nonzero"/><path fill="#cccece" d="M 115.027344 179.449219 L 105.089844 185.183594 L 105.089844 186.402344 L 115.027344 180.667969 Z M 115.027344 179.449219 " fill-opacity="1" fill-rule="nonzero"/><path fill="#cccece" d="M 110.167969 168.65625 L 105.207031 171.515625 L 105.207031 172.734375 L 110.167969 169.875 Z M 110.167969 168.65625 " fill-opacity="1" fill-rule="nonzero"/><path fill="#cccece" d="M 130.214844 190.585938 L 105.148438 205.066406 L 105.148438 203.847656 L 130.214844 189.382812 Z M 130.214844 190.585938 " fill-opacity="1" fill-rule="nonzero"/><path fill="#cccece" d="M 105.175781 214.394531 L 105.164062 213.1875 L 132.746094 197.269531 L 132.746094 198.488281 Z M 105.175781 214.394531 " fill-opacity="1" fill-rule="nonzero"/><path fill="#cccece" d="M 145.738281 157.050781 L 145.738281 158.273438 L 158.480469 150.917969 L 158.480469 149.699219 Z M 145.738281 157.050781 " fill-opacity="1" fill-rule="nonzero"/><path fill="#cccece" d="M 142.378906 107.996094 L 158.496094 98.699219 L 158.496094 99.921875 L 142.394531 109.21875 Z M 142.378906 107.996094 " fill-opacity="1" fill-rule="nonzero"/><path fill="#cccece" d="M 142.953125 141.613281 L 151.621094 136.609375 L 151.609375 135.390625 L 142.953125 140.386719 Z M 142.953125 141.613281 " fill-opacity="1" fill-rule="nonzero"/><path fill="#cccece" d="M 124.753906 132.195312 L 158.539062 112.703125 L 158.539062 113.921875 L 124.765625 133.414062 Z M 124.753906 132.195312 " fill-opacity="1" fill-rule="nonzero"/><path fill="#cccece" d="M 141.144531 118.0625 L 158.523438 108.039062 L 158.523438 109.261719 L 141.160156 119.28125 Z M 141.144531 118.0625 " fill-opacity="1" fill-rule="nonzero"/><path fill="#cccece" d="M 124.753906 187.855469 L 158.539062 168.363281 L 158.539062 169.582031 L 124.765625 189.074219 Z M 124.753906 187.855469 " fill-opacity="1" fill-rule="nonzero"/><path fill="#cccece" d="M 134.925781 131.003906 L 158.554688 117.363281 L 158.554688 118.585938 L 134.925781 132.226562 Z M 134.925781 131.003906 " fill-opacity="1" fill-rule="nonzero"/><path fill="#cccece" d="M 143.316406 130.84375 L 143.316406 132.050781 L 158.570312 123.25 L 158.570312 122.042969 Z M 143.316406 130.84375 " fill-opacity="1" fill-rule="nonzero"/><path fill="#cccece" d="M 118.097656 201.042969 L 158.570312 177.6875 L 158.570312 178.910156 L 118.097656 202.265625 Z M 118.097656 201.042969 " fill-opacity="1" fill-rule="nonzero"/><path fill="#cccece" d="M 158.570312 182.367188 L 158.582031 183.570312 L 137.539062 195.714844 L 137.539062 194.492188 Z M 158.570312 182.367188 " fill-opacity="1" fill-rule="nonzero"/><path fill="#cccece" d="M 112.890625 162.410156 L 105.191406 166.851562 L 105.207031 168.074219 L 112.890625 163.632812 Z M 112.890625 162.410156 " fill-opacity="1" fill-rule="nonzero"/><path fill="#cccece" d="M 142.378906 163.65625 L 158.496094 154.359375 L 158.496094 155.582031 L 142.394531 164.878906 Z M 142.378906 163.65625 " fill-opacity="1" fill-rule="nonzero"/><path fill="#cccece" d="M 139.105469 139.152344 L 158.582031 127.925781 L 158.570312 126.703125 L 139.105469 137.945312 Z M 139.105469 139.152344 " fill-opacity="1" fill-rule="nonzero"/><path fill="#cccece" d="M 157.21875 187.828125 L 158.582031 187.027344 L 158.597656 188.25 L 157.21875 189.03125 Z M 157.21875 187.828125 " fill-opacity="1" fill-rule="nonzero"/><path fill="#cccece" d="M 105.207031 222.511719 L 137.570312 203.847656 L 137.570312 205.054688 L 105.207031 223.734375 Z M 105.207031 222.511719 " fill-opacity="1" fill-rule="nonzero"/><path fill="#cccece" d="M 141.144531 173.722656 L 158.523438 163.699219 L 158.523438 164.90625 L 141.160156 174.929688 Z M 141.144531 173.722656 " fill-opacity="1" fill-rule="nonzero"/><path fill="#cccece" d="M 158.480469 95.257812 L 125.230469 114.445312 L 125.230469 113.226562 L 158.480469 94.039062 Z M 158.480469 95.257812 " fill-opacity="1" fill-rule="nonzero"/><path fill="#cccece" d="M 134.925781 186.664062 L 158.554688 173.027344 L 158.554688 174.246094 L 134.925781 187.871094 Z M 134.925781 186.664062 " fill-opacity="1" fill-rule="nonzero"/><path fill="#cccece" d="M 114.144531 171.039062 L 105.222656 176.191406 L 105.222656 177.398438 L 114.144531 172.253906 Z M 114.144531 171.039062 " fill-opacity="1" fill-rule="nonzero"/><path fill="#cccece" d="M 119.214844 209.746094 L 151.609375 191.050781 L 151.621094 192.273438 L 119.230469 210.964844 Z M 119.214844 209.746094 " fill-opacity="1" fill-rule="nonzero"/><path fill="#cccece" d="M 119.15625 126.082031 L 153.65625 106.179688 L 153.65625 107.386719 L 119.15625 127.300781 Z M 119.15625 126.082031 " fill-opacity="1" fill-rule="nonzero"/><path fill="#cccece" d="M 141.960938 168.585938 L 141.960938 169.792969 L 153.65625 163.046875 L 153.65625 161.839844 Z M 141.960938 168.585938 " fill-opacity="1" fill-rule="nonzero"/><path fill="#cccece" d="M 143.390625 146.027344 L 158.613281 137.25 L 158.597656 136.046875 L 143.390625 144.820312 Z M 143.390625 146.027344 " fill-opacity="1" fill-rule="nonzero"/><path fill="#cccece" d="M 158.582031 131.367188 L 158.597656 132.589844 L 157.21875 133.371094 L 157.21875 132.167969 Z M 158.582031 131.367188 " fill-opacity="1" fill-rule="nonzero"/><path fill="#cccece" d="M 158.625 145.371094 L 158.625 146.589844 L 144.355469 154.824219 L 144.355469 153.605469 Z M 158.625 145.371094 " fill-opacity="1" fill-rule="nonzero"/><path fill="#cccece" d="M 158.597656 191.691406 L 158.613281 192.910156 L 141.957031 202.511719 L 141.957031 201.304688 Z M 158.597656 191.691406 " fill-opacity="1" fill-rule="nonzero"/><path fill="#cccece" d="M 144.140625 149.054688 L 144.140625 150.269531 L 158.613281 141.914062 L 158.613281 140.707031 Z M 144.140625 149.054688 " fill-opacity="1" fill-rule="nonzero"/><path fill="#cccece" d="M 173.949219 121.238281 L 169.785156 123.644531 L 169.785156 121.988281 L 173.949219 119.582031 Z M 173.949219 121.238281 " fill-opacity="1" fill-rule="nonzero"/><path fill="#cccece" d="M 169.882812 159.996094 L 175.03125 157.019531 L 175.03125 158.675781 L 169.902344 161.632812 Z M 169.882812 159.996094 " fill-opacity="1" fill-rule="nonzero"/><path fill="#cccece" d="M 174.953125 133.34375 L 169.824219 136.300781 L 169.824219 134.664062 L 174.953125 131.6875 Z M 174.953125 133.34375 " fill-opacity="1" fill-rule="nonzero"/><path fill="#cccece" d="M 176.847656 113.214844 L 169.765625 117.296875 L 169.765625 115.660156 L 176.847656 111.578125 Z M 176.847656 113.214844 " fill-opacity="1" fill-rule="nonzero"/><path fill="#cccece" d="M 169.804688 128.316406 L 176.867188 124.234375 L 176.886719 125.890625 L 169.804688 129.972656 Z M 169.804688 128.316406 " fill-opacity="1" fill-rule="nonzero"/><path fill="#cccece" d="M 169.84375 140.992188 L 176.90625 136.910156 L 176.925781 138.546875 L 169.84375 142.628906 Z M 169.84375 140.992188 " fill-opacity="1" fill-rule="nonzero"/><path fill="#cccece" d="M 176.945312 151.222656 L 169.882812 155.304688 L 169.863281 153.648438 L 176.945312 149.566406 Z M 176.945312 151.222656 " fill-opacity="1" fill-rule="nonzero"/><path fill="#cccece" d="M 183.335938 147.539062 L 183.335938 145.882812 L 194.5 139.453125 L 194.5 141.089844 Z M 183.335938 147.539062 " fill-opacity="1" fill-rule="nonzero"/><path fill="#cccece" d="M 195.347656 115.226562 L 183.257812 122.207031 L 183.257812 120.570312 L 195.347656 113.589844 Z M 195.347656 115.226562 " fill-opacity="1" fill-rule="nonzero"/><path fill="#cccece" d="M 203.945312 122.953125 L 183.296875 134.882812 L 183.296875 133.226562 L 203.945312 121.316406 Z M 203.945312 122.953125 " fill-opacity="1" fill-rule="nonzero"/><path fill="#cccece" d="M 176.925781 144.894531 L 169.863281 148.976562 L 169.84375 147.320312 L 176.925781 143.238281 Z M 176.925781 144.894531 " fill-opacity="1" fill-rule="nonzero"/><path fill="#cccece" d="M 204.164062 97.464844 L 183.21875 109.546875 L 183.21875 107.894531 L 204.144531 95.808594 Z M 204.164062 97.464844 " fill-opacity="1" fill-rule="nonzero"/><path fill="#cccece" d="M 183.355469 153.867188 L 183.335938 152.230469 L 220.769531 130.625 L 220.769531 132.277344 Z M 183.355469 153.867188 " fill-opacity="1" fill-rule="nonzero"/><path fill="#cccece" d="M 225.621094 104.109375 L 183.277344 128.535156 L 183.277344 126.898438 L 225.621094 102.453125 Z M 225.621094 104.109375 " fill-opacity="1" fill-rule="nonzero"/><path fill="#cccece" d="M 183.238281 114.222656 L 225.011719 90.128906 L 225.011719 91.765625 L 183.238281 115.878906 Z M 183.238281 114.222656 " fill-opacity="1" fill-rule="nonzero"/><path fill="#cccece" d="M 217.339844 121.574219 L 183.316406 141.210938 L 183.316406 139.554688 L 217.339844 119.917969 Z M 217.339844 121.574219 " fill-opacity="1" fill-rule="nonzero"/><path fill="#cccece" d="M 192.511719 165.957031 L 192.511719 167.613281 L 206.609375 159.484375 L 206.609375 157.828125 Z M 192.511719 165.957031 " fill-opacity="1" fill-rule="nonzero"/><path fill="#cccece" d="M 233.847656 85.003906 L 255.71875 72.386719 L 255.71875 74.042969 L 233.867188 86.660156 Z M 233.847656 85.003906 " fill-opacity="1" fill-rule="nonzero"/><path fill="#cccece" d="M 232.664062 130.097656 L 202.40625 147.558594 L 202.429688 149.214844 L 232.664062 131.761719 Z M 232.664062 130.097656 " fill-opacity="1" fill-rule="nonzero"/><path fill="#cccece" d="M 209.921875 117.847656 L 255.78125 91.390625 L 255.78125 93.046875 L 209.941406 119.503906 Z M 209.921875 117.847656 " fill-opacity="1" fill-rule="nonzero"/><path fill="#cccece" d="M 232.171875 98.667969 L 255.757812 85.0625 L 255.757812 86.71875 L 232.191406 100.324219 Z M 232.171875 98.667969 " fill-opacity="1" fill-rule="nonzero"/><path fill="#cccece" d="M 223.730469 116.230469 L 255.800781 97.71875 L 255.800781 99.375 L 223.730469 117.886719 Z M 223.730469 116.230469 " fill-opacity="1" fill-rule="nonzero"/><path fill="#cccece" d="M 200.890625 135.769531 L 255.820312 104.066406 L 255.820312 105.703125 L 200.890625 137.40625 Z M 200.890625 135.769531 " fill-opacity="1" fill-rule="nonzero"/><path fill="#cccece" d="M 192.511719 159.617188 L 192.511719 161.277344 L 227.300781 141.191406 L 227.300781 139.554688 Z M 192.511719 159.617188 " fill-opacity="1" fill-rule="nonzero"/><path fill="#cccece" d="M 255.820312 110.394531 L 255.839844 112.050781 L 227.277344 128.511719 L 227.277344 126.878906 Z M 255.820312 110.394531 " fill-opacity="1" fill-rule="nonzero"/><path fill="#cccece" d="M 255.699219 67.714844 L 210.574219 93.757812 L 210.574219 92.101562 L 255.699219 66.058594 Z M 255.699219 67.714844 " fill-opacity="1" fill-rule="nonzero"/><path fill="#cccece" d="M 192.511719 173.953125 L 226.15625 154.554688 L 226.136719 152.898438 L 192.511719 172.3125 Z M 192.511719 173.953125 " fill-opacity="1" fill-rule="nonzero"/><path fill="#cccece" d="M 202.328125 109.546875 L 249.152344 82.539062 L 249.152344 84.175781 L 202.328125 111.203125 Z M 202.328125 109.546875 " fill-opacity="1" fill-rule="nonzero"/><path fill="#cccece" d="M 233.148438 142.515625 L 212.171875 154.613281 L 212.171875 156.269531 L 233.148438 144.160156 Z M 233.148438 142.515625 " fill-opacity="1" fill-rule="nonzero"/><path fill="#638dff" d="M 189.183594 77.148438 L 189.246094 99.402344 L 169.871094 110.585938 L 169.804688 88.332031 Z M 189.183594 77.148438 " fill-opacity="1" fill-rule="nonzero"/><path fill="#7dd17d" d="M 222.714844 57.796875 L 222.777344 80.054688 L 203.402344 91.234375 L 203.339844 68.980469 Z M 222.714844 57.796875 " fill-opacity="1" fill-rule="nonzero"/><path fill="#ffd06c" d="M 256.238281 38.453125 L 256.300781 60.707031 L 236.933594 71.882812 L 236.871094 49.628906 Z M 256.238281 38.453125 " fill-opacity="1" fill-rule="nonzero"/><path fill="#bbbec6" d="M 189.183594 155.449219 L 189.246094 177.703125 L 169.871094 188.886719 L 169.804688 166.632812 Z M 189.183594 155.449219 " fill-opacity="1" fill-rule="nonzero"/><path fill="#bbbec6" d="M 256.238281 116.753906 L 256.300781 139.007812 L 236.933594 150.183594 L 236.871094 127.929688 Z M 256.238281 116.753906 " fill-opacity="1" fill-rule="nonzero"/><path fill="#eaefef" d="M 273.046875 129.144531 L 299.816406 143.957031 L 326.753906 129.144531 L 299.988281 113.597656 Z M 273.046875 129.144531 " fill-opacity="1" fill-rule="nonzero"/><path fill="#bbbec6" d="M 274.542969 110.257812 L 275.25 125.632812 L 299.964844 138.617188 L 299.898438 123.917969 Z M 274.542969 110.257812 " fill-opacity="1" fill-rule="nonzero"/><path fill="#abaeb7" d="M 299.898438 123.917969 L 299.964844 138.617188 L 324.855469 125.628906 L 325.433594 110.253906 Z M 299.898438 123.917969 " fill-opacity="1" fill-rule="nonzero"/><path fill="#dcdcdc" d="M 274.542969 110.257812 L 299.898438 123.917969 L 325.433594 110.253906 L 300.078125 95.953125 Z M 274.542969 110.257812 " fill-opacity="1" fill-rule="nonzero"/><path fill="#cccece" d="M 273.78125 110.210938 L 274.121094 117.296875 L 299.84375 130.988281 L 299.804688 124.21875 Z M 273.78125 110.210938 " fill-opacity="1" fill-rule="nonzero"/><path fill="#d9dddd" d="M 299.804688 124.21875 L 299.84375 130.988281 L 325.730469 117.296875 L 325.996094 110.210938 Z M 299.804688 124.21875 " fill-opacity="1" fill-rule="nonzero"/><path fill="#eaefef" d="M 273.78125 110.210938 L 299.804688 124.21875 L 325.996094 110.210938 L 299.976562 95.527344 Z M 273.78125 110.210938 " fill-opacity="1" fill-rule="nonzero"/><path fill="#bbbec6" d="M 273.816406 92.835938 L 274.5625 109.089844 L 299.96875 122.800781 L 299.898438 107.277344 Z M 273.816406 92.835938 " fill-opacity="1" fill-rule="nonzero"/><path fill="#abaeb7" d="M 299.898438 107.277344 L 299.96875 122.800781 L 325.550781 109.085938 L 326.160156 92.832031 Z M 299.898438 107.277344 " fill-opacity="1" fill-rule="nonzero"/><path fill="#dcdcdc" d="M 273.816406 92.835938 L 299.898438 107.277344 L 326.160156 92.832031 L 300.082031 77.691406 Z M 273.816406 92.835938 " fill-opacity="1" fill-rule="nonzero"/><path fill="#cccece" d="M 273.035156 92.785156 L 273.394531 100.28125 L 299.839844 114.746094 L 299.804688 107.597656 Z M 273.035156 92.785156 " fill-opacity="1" fill-rule="nonzero"/><path fill="#d9dddd" d="M 299.804688 107.597656 L 299.839844 114.746094 L 326.457031 100.28125 L 326.742188 92.785156 Z M 299.804688 107.597656 " fill-opacity="1" fill-rule="nonzero"/><path fill="#eaefef" d="M 273.035156 92.785156 L 299.804688 107.597656 L 326.742188 92.785156 L 299.976562 77.238281 Z M 273.035156 92.785156 " fill-opacity="1" fill-rule="nonzero"/><path fill="#cccece" d="M 322.269531 92.785156 L 315.460938 96.53125 L 299.890625 87.492188 L 299.890625 79.78125 Z M 322.269531 92.785156 " fill-opacity="1" fill-rule="nonzero"/><path fill="#d9dddd" d="M 299.890625 79.78125 L 299.890625 87.492188 L 284.160156 96.566406 L 277.339844 92.796875 Z M 299.890625 79.78125 " fill-opacity="1" fill-rule="nonzero"/><path fill="#dda450" d="M 317.054688 95.652344 L 299.710938 105.183594 L 282.5625 95.6875 L 299.898438 85.691406 Z M 317.054688 95.652344 " fill-opacity="1" fill-rule="nonzero"/><path fill="#7dd17d" d="M 294.394531 76.492188 C 294.394531 76.492188 293.414062 55.757812 297.480469 51.53125 C 297.480469 51.53125 297.480469 72.09375 299.371094 77.976562 C 301.265625 83.859375 296.078125 81.402344 296.078125 81.402344 Z M 294.394531 76.492188 " fill-opacity="1" fill-rule="nonzero"/><path fill="#7dd17d" d="M 300.535156 80.332031 C 300.535156 80.332031 308.492188 63.78125 316.292969 59.816406 C 316.292969 59.816406 304.550781 77 304.472656 84.867188 L 304.472656 87.949219 C 304.472656 87.949219 312.085938 80.082031 320.832031 77.628906 C 320.832031 77.628906 305.785156 89.269531 305.167969 93.929688 C 304.550781 98.585938 297.910156 94.683594 297.910156 94.683594 Z M 300.535156 80.332031 " fill-opacity="1" fill-rule="nonzero"/><path fill="#9bd899" d="M 320.832031 84.078125 C 320.832031 84.078125 308.089844 92.328125 306.902344 95.667969 C 306.902344 95.667969 302.011719 99.855469 298.902344 98.96875 C 295.789062 98.082031 293.171875 96.625 293.171875 96.625 C 293.171875 96.625 292.230469 85.917969 280.804688 79.613281 C 280.804688 79.613281 285.992188 79.65625 292.035156 85.878906 C 292.035156 85.878906 286.707031 76.203125 280.238281 73.203125 C 280.238281 73.203125 285.988281 72.230469 295.902344 84.167969 C 295.902344 84.167969 290.71875 70.300781 285.085938 66.308594 C 285.085938 66.308594 291.332031 65.582031 297.371094 79.355469 C 297.371094 79.355469 301.59375 59.15625 311.636719 54.75 C 311.636719 54.75 299.535156 74.710938 300.957031 87.320312 C 300.957031 87.320312 313.210938 71.097656 320.175781 68.441406 C 320.175781 68.441406 304.40625 87.023438 303.230469 94.179688 " fill-opacity="1" fill-rule="nonzero"/><path fill="#dda450" d="M 311.085938 94.773438 C 310.03125 94.683594 308.980469 94.589844 307.929688 94.5 C 307.097656 94.429688 306.199219 94.367188 305.484375 94.71875 C 305.070312 94.921875 304.761719 95.246094 304.34375 95.445312 C 303.785156 95.707031 303.109375 95.722656 302.464844 95.726562 C 300.511719 95.746094 298.5625 95.761719 296.613281 95.78125 C 295.65625 95.789062 294.683594 95.796875 293.761719 95.589844 C 292.460938 95.304688 291.214844 94.597656 289.890625 94.792969 C 289.625 94.832031 289.347656 94.921875 289.214844 95.109375 C 289.140625 95.222656 289.125 95.351562 289.109375 95.476562 C 289.023438 96.175781 288.964844 96.953125 289.5 97.503906 C 289.730469 97.742188 290.050781 97.90625 290.363281 98.070312 C 291.714844 98.773438 293.070312 99.476562 294.425781 100.179688 C 294.894531 100.421875 295.375 100.671875 295.90625 100.808594 C 296.507812 100.96875 297.152344 100.980469 297.789062 100.992188 C 299.074219 101.015625 300.394531 101.035156 301.605469 100.679688 C 302.460938 100.433594 303.222656 100.011719 304.007812 99.636719 C 305.128906 99.105469 306.316406 98.667969 307.550781 98.335938 C 309.167969 97.902344 311.003906 97.5625 311.964844 96.414062 C 312.503906 95.769531 312.035156 94.855469 311.085938 94.773438 Z M 311.085938 94.773438 " fill-opacity="1" fill-rule="nonzero"/><path fill="#eaefef" d="M 0.0117188 284.042969 L 26.78125 298.855469 L 53.71875 284.042969 L 26.953125 268.496094 Z M 0.0117188 284.042969 " fill-opacity="1" fill-rule="nonzero"/><path fill="#bbbec6" d="M 1.507812 265.15625 L 2.214844 280.535156 L 26.933594 293.519531 L 26.867188 278.816406 Z M 1.507812 265.15625 " fill-opacity="1" fill-rule="nonzero"/><path fill="#abaeb7" d="M 26.867188 278.816406 L 26.933594 293.519531 L 51.820312 280.53125 L 52.398438 265.152344 Z M 26.867188 278.816406 " fill-opacity="1" fill-rule="nonzero"/><path fill="#dcdcdc" d="M 1.507812 265.15625 L 26.867188 278.816406 L 52.398438 265.152344 L 27.042969 250.851562 Z M 1.507812 265.15625 " fill-opacity="1" fill-rule="nonzero"/><path fill="#cccece" d="M 0.746094 265.109375 L 1.085938 272.199219 L 26.808594 285.886719 L 26.769531 279.121094 Z M 0.746094 265.109375 " fill-opacity="1" fill-rule="nonzero"/><path fill="#d9dddd" d="M 26.769531 279.121094 L 26.808594 285.886719 L 52.695312 272.199219 L 52.960938 265.113281 Z M 26.769531 279.121094 " fill-opacity="1" fill-rule="nonzero"/><path fill="#eaefef" d="M 0.746094 265.109375 L 26.769531 279.121094 L 52.960938 265.113281 L 26.941406 250.425781 Z M 0.746094 265.109375 " fill-opacity="1" fill-rule="nonzero"/><path fill="#bbbec6" d="M 0.78125 247.734375 L 1.527344 263.992188 L 26.933594 277.703125 L 26.863281 262.175781 Z M 0.78125 247.734375 " fill-opacity="1" fill-rule="nonzero"/><path fill="#abaeb7" d="M 26.863281 262.175781 L 26.933594 277.703125 L 52.515625 263.988281 L 53.125 247.730469 Z M 26.863281 262.175781 " fill-opacity="1" fill-rule="nonzero"/><path fill="#dcdcdc" d="M 0.78125 247.734375 L 26.863281 262.175781 L 53.125 247.730469 L 27.046875 232.589844 Z M 0.78125 247.734375 " fill-opacity="1" fill-rule="nonzero"/><path fill="#cccece" d="M 0 247.6875 L 0.359375 255.179688 L 26.804688 269.644531 L 26.769531 262.5 Z M 0 247.6875 " fill-opacity="1" fill-rule="nonzero"/><path fill="#d9dddd" d="M 26.769531 262.5 L 26.804688 269.644531 L 53.421875 255.179688 L 53.707031 247.6875 Z M 26.769531 262.5 " fill-opacity="1" fill-rule="nonzero"/><path fill="#eaefef" d="M 0 247.6875 L 26.769531 262.5 L 53.707031 247.6875 L 26.941406 232.140625 Z M 0 247.6875 " fill-opacity="1" fill-rule="nonzero"/><path fill="#cccece" d="M 49.234375 247.683594 L 42.425781 251.433594 L 26.855469 242.394531 L 26.855469 234.683594 Z M 49.234375 247.683594 " fill-opacity="1" fill-rule="nonzero"/><path fill="#d9dddd" d="M 26.855469 234.683594 L 26.855469 242.394531 L 11.125 251.464844 L 4.304688 247.695312 Z M 26.855469 234.683594 " fill-opacity="1" fill-rule="nonzero"/><path fill="#dda450" d="M 44.023438 250.550781 L 26.675781 260.085938 L 9.527344 250.585938 L 26.863281 240.589844 Z M 44.023438 250.550781 " fill-opacity="1" fill-rule="nonzero"/><path fill="#7dd17d" d="M 21.359375 231.390625 C 21.359375 231.390625 20.378906 210.660156 24.445312 206.433594 C 24.445312 206.433594 24.445312 226.996094 26.335938 232.878906 C 28.230469 238.761719 23.042969 236.304688 23.042969 236.304688 Z M 21.359375 231.390625 " fill-opacity="1" fill-rule="nonzero"/><path fill="#7dd17d" d="M 27.5 235.234375 C 27.5 235.234375 35.457031 218.683594 43.257812 214.71875 C 43.257812 214.71875 31.515625 231.898438 31.4375 239.765625 L 31.4375 242.851562 C 31.4375 242.851562 39.050781 234.984375 47.796875 232.527344 C 47.796875 232.527344 32.753906 244.171875 32.132812 248.828125 C 31.515625 253.484375 24.875 249.582031 24.875 249.582031 Z M 27.5 235.234375 " fill-opacity="1" fill-rule="nonzero"/><path fill="#9bd899" d="M 47.796875 238.976562 C 47.796875 238.976562 35.054688 247.230469 33.867188 250.570312 C 33.867188 250.570312 28.976562 254.753906 25.867188 253.871094 C 22.753906 252.984375 20.136719 251.523438 20.136719 251.523438 C 20.136719 251.523438 19.195312 240.816406 7.769531 234.511719 C 7.769531 234.511719 12.957031 234.554688 19 240.78125 C 19 240.78125 13.671875 231.101562 7.203125 228.101562 C 7.203125 228.101562 12.953125 227.132812 22.867188 239.070312 C 22.867188 239.070312 17.683594 225.203125 12.050781 221.207031 C 12.050781 221.207031 18.296875 220.484375 24.335938 234.257812 C 24.335938 234.257812 28.558594 214.058594 38.601562 209.652344 C 38.601562 209.652344 26.5 229.613281 27.921875 242.222656 C 27.921875 242.222656 40.179688 226 47.140625 223.339844 C 47.140625 223.339844 31.371094 241.925781 30.199219 249.078125 " fill-opacity="1" fill-rule="nonzero"/><path fill="#dda450" d="M 38.050781 249.675781 C 36.996094 249.582031 35.945312 249.492188 34.894531 249.402344 C 34.0625 249.328125 33.167969 249.269531 32.449219 249.621094 C 32.035156 249.824219 31.726562 250.144531 31.308594 250.34375 C 30.75 250.609375 30.074219 250.621094 29.429688 250.628906 C 27.480469 250.644531 25.527344 250.664062 23.578125 250.679688 C 22.621094 250.6875 21.648438 250.695312 20.726562 250.492188 C 19.425781 250.203125 18.183594 249.5 16.855469 249.691406 C 16.589844 249.730469 16.3125 249.820312 16.183594 250.011719 C 16.105469 250.121094 16.089844 250.25 16.074219 250.378906 C 15.988281 251.078125 15.929688 251.855469 16.464844 252.40625 C 16.695312 252.640625 17.015625 252.808594 17.328125 252.96875 C 18.683594 253.671875 20.035156 254.375 21.390625 255.078125 C 21.859375 255.324219 22.339844 255.570312 22.871094 255.710938 C 23.472656 255.867188 24.117188 255.882812 24.753906 255.894531 C 26.039062 255.914062 27.359375 255.933594 28.570312 255.582031 C 29.425781 255.332031 30.1875 254.910156 30.972656 254.539062 C 32.09375 254.007812 33.285156 253.570312 34.515625 253.238281 C 36.132812 252.800781 37.972656 252.460938 38.929688 251.316406 C 39.46875 250.671875 39 249.757812 38.050781 249.675781 Z M 38.050781 249.675781 " fill-opacity="1" fill-rule="nonzero"/><path fill="#eaefef" d="M 144.0625 343.441406 C 148.742188 346.140625 148.765625 350.519531 144.117188 353.222656 L 106.992188 374.785156 C 102.34375 377.484375 94.78125 377.484375 90.101562 374.785156 L 52.734375 353.222656 C 48.054688 350.519531 48.03125 346.144531 52.679688 343.441406 L 89.804688 321.878906 C 94.453125 319.175781 102.015625 319.175781 106.695312 321.878906 Z M 144.0625 343.441406 " fill-opacity="1" fill-rule="nonzero"/><path fill="#bbbec6" d="M 147.570312 335.339844 L 147.570312 340.109375 C 147.570312 341.878906 146.429688 343.648438 144.09375 344.972656 L 106.992188 366.515625 C 102.316406 369.230469 94.796875 369.230469 90.054688 366.515625 L 52.703125 344.972656 C 50.363281 343.648438 49.164062 341.816406 49.164062 340.046875 L 49.226562 335.273438 C 49.226562 337.042969 50.363281 338.8125 52.765625 340.203125 L 90.117188 361.742188 C 94.796875 364.460938 102.316406 364.460938 106.992188 361.742188 L 144.09375 340.203125 C 146.429688 338.8125 147.570312 337.105469 147.570312 335.339844 Z M 147.570312 335.339844 " fill-opacity="1" fill-rule="nonzero"/><path fill="#eaefef" d="M 144.0625 330.394531 C 148.742188 333.09375 148.765625 337.472656 144.117188 340.171875 L 106.992188 361.738281 C 102.34375 364.4375 94.78125 364.4375 90.101562 361.738281 L 52.734375 340.175781 C 48.054688 337.472656 48.03125 333.09375 52.679688 330.394531 L 89.804688 308.832031 C 94.453125 306.128906 102.015625 306.128906 106.695312 308.832031 Z M 144.0625 330.394531 " fill-opacity="1" fill-rule="nonzero"/><path fill="#c92d5d" d="M 72.148438 321.691406 L 72.167969 328.636719 L 76.972656 332.214844 L 76.953125 325.273438 Z M 72.148438 321.691406 " fill-opacity="1" fill-rule="nonzero"/><path fill="#c92d5d" d="M 115.945312 325.933594 L 115.964844 332.875 L 121.738281 328.636719 L 121.71875 321.691406 Z M 115.945312 325.933594 " fill-opacity="1" fill-rule="nonzero"/><path fill="#e24466" d="M 83.820312 331.96875 L 83.839844 337.921875 C 83.832031 335.976562 85.117188 334.023438 87.6875 332.539062 C 92.796875 329.589844 101.054688 329.605469 106.132812 332.554688 C 108.660156 334.023438 109.929688 335.945312 109.933594 337.867188 L 109.917969 331.914062 C 109.910156 329.988281 108.644531 328.066406 106.113281 326.597656 C 101.039062 323.648438 92.78125 323.636719 87.671875 326.585938 C 85.101562 328.066406 83.816406 330.019531 83.820312 331.96875 Z M 83.820312 331.96875 " fill-opacity="1" fill-rule="nonzero"/><path fill="#d4d6d6" d="M 126.851562 334.820312 L 126.871094 339.585938 L 126.902344 335.953125 L 126.882812 329.007812 Z M 126.851562 334.820312 " fill-opacity="1" fill-rule="nonzero"/><path fill="#c92d5d" d="M 66.839844 334.867188 L 66.859375 339.632812 L 75.179688 340.183594 L 75.160156 335.414062 Z M 66.839844 334.867188 " fill-opacity="1" fill-rule="nonzero"/><path fill="#c92d5d" d="M 116.921875 335.539062 L 116.941406 340.308594 L 126.871094 339.585938 L 126.851562 334.820312 Z M 116.921875 335.539062 " fill-opacity="1" fill-rule="nonzero"/><path fill="#e24466" d="M 115.390625 337.582031 L 115.410156 344.527344 C 116.039062 343.882812 116.585938 343.191406 116.941406 342.484375 L 116.921875 335.539062 C 116.566406 336.246094 116.019531 336.9375 115.390625 337.582031 Z M 115.390625 337.582031 " fill-opacity="1" fill-rule="nonzero"/><path fill="#e24466" d="M 75.160156 335.414062 L 75.179688 342.359375 C 75.691406 343.347656 76.445312 344.257812 77.386719 345.152344 L 77.367188 338.210938 C 76.425781 337.316406 75.671875 336.402344 75.160156 335.414062 Z M 75.160156 335.414062 " fill-opacity="1" fill-rule="nonzero"/><path fill="#e24466" d="M 103.019531 343.5625 L 103.039062 348.332031 C 104.261719 348.128906 105.453125 347.8125 106.570312 347.453125 L 106.550781 342.683594 C 105.433594 343.046875 104.242188 343.359375 103.019531 343.5625 Z M 103.019531 343.5625 " fill-opacity="1" fill-rule="nonzero"/><path fill="#e24466" d="M 86.425781 342.964844 L 86.445312 347.734375 C 87.828125 348.128906 89.207031 348.425781 90.644531 348.597656 L 90.625 343.832031 C 89.1875 343.65625 87.808594 343.359375 86.425781 342.964844 Z M 86.425781 342.964844 " fill-opacity="1" fill-rule="nonzero"/><path fill="#e24466" d="M 72.03125 342.164062 L 72.050781 346.933594 L 79.132812 351.046875 L 79.113281 346.28125 Z M 72.03125 342.164062 " fill-opacity="1" fill-rule="nonzero"/><path fill="#c92d5d" d="M 79.113281 346.28125 L 79.132812 351.046875 L 86.445312 347.734375 L 86.425781 342.964844 Z M 79.113281 346.28125 " fill-opacity="1" fill-rule="nonzero"/><path fill="#e24466" d="M 114.472656 346.28125 L 114.492188 351.046875 L 121.621094 346.933594 L 121.601562 342.167969 Z M 114.472656 346.28125 " fill-opacity="1" fill-rule="nonzero"/><path fill="#c92d5d" d="M 106.550781 342.683594 L 106.570312 347.453125 L 114.492188 351.046875 L 114.472656 346.28125 Z M 106.550781 342.683594 " fill-opacity="1" fill-rule="nonzero"/><path fill="#c92d5d" d="M 90.625 343.832031 L 90.644531 348.597656 L 91.726562 354.078125 L 91.707031 349.308594 Z M 90.625 343.832031 " fill-opacity="1" fill-rule="nonzero"/><path fill="#c92d5d" d="M 101.765625 349.292969 L 101.785156 354.0625 L 103.039062 348.332031 L 103.019531 343.5625 Z M 101.765625 349.292969 " fill-opacity="1" fill-rule="nonzero"/><path fill="#f3516f" d="M 72.03125 342.164062 L 77.367188 338.210938 C 76.425781 337.316406 75.671875 336.402344 75.160156 335.414062 L 66.839844 334.867188 L 66.871094 329.023438 L 74.765625 328.476562 C 75.179688 327.359375 75.945312 326.261719 76.953125 325.273438 L 72.148438 321.691406 L 79.273438 317.578125 L 85.414062 320.390625 C 87.125 319.808594 89.027344 319.371094 90.953125 319.132812 L 91.957031 314.550781 L 102.015625 314.566406 L 102.964844 319.371094 C 104.671875 319.667969 106.269531 320.09375 107.785156 320.65625 L 114.636719 317.578125 L 121.71875 321.691406 L 115.945312 325.933594 C 116.644531 326.71875 117.128906 327.535156 117.449219 328.351562 L 126.882812 329.007812 L 126.851562 334.820312 L 116.921875 335.539062 C 116.566406 336.246094 116.019531 336.9375 115.390625 337.582031 L 121.601562 342.167969 L 114.472656 346.28125 L 106.550781 342.683594 C 105.433594 343.046875 104.242188 343.359375 103.019531 343.5625 L 101.765625 349.292969 L 91.707031 349.308594 L 90.625 343.832031 C 89.1875 343.65625 87.808594 343.359375 86.425781 342.964844 L 79.113281 346.28125 Z M 106.078125 337.277344 C 111.1875 334.328125 111.191406 329.546875 106.113281 326.597656 C 101.039062 323.648438 92.78125 323.636719 87.671875 326.585938 C 82.5625 329.535156 82.535156 334.328125 87.613281 337.277344 C 92.6875 340.226562 100.96875 340.226562 106.078125 337.277344 " fill-opacity="1" fill-rule="nonzero"/><path fill="#e24466" d="M 91.707031 349.308594 L 91.726562 354.078125 L 101.785156 354.0625 L 101.765625 349.292969 Z M 91.707031 349.308594 " fill-opacity="1" fill-rule="nonzero"/><path fill="#d7dbdb" d="M 198.75 346.804688 C 196.25 348.246094 196.238281 350.558594 198.71875 352 L 239.566406 375.726562 C 242.046875 377.167969 246.054688 377.175781 248.550781 375.734375 L 264.882812 366.308594 L 285.542969 368.359375 L 282.066406 356.394531 L 298.398438 346.96875 C 300.894531 345.527344 300.910156 343.199219 298.429688 341.757812 L 257.582031 318.03125 C 255.101562 316.59375 251.089844 316.597656 248.59375 318.039062 Z M 198.75 346.804688 " fill-opacity="1" fill-rule="nonzero"/><path fill="#70c470" d="M 281.265625 350.542969 L 297.589844 341.121094 C 298.851562 340.402344 299.484375 339.449219 299.484375 338.507812 L 299.46875 332.945312 C 299.46875 333.882812 298.835938 334.839844 297.589844 335.554688 L 281.246094 344.976562 Z M 281.265625 350.542969 " fill-opacity="1" fill-rule="nonzero"/><path fill="#70c470" d="M 196.054688 338.015625 L 196.070312 343.578125 C 196.070312 344.515625 196.6875 345.4375 197.914062 346.15625 L 238.761719 369.878906 C 241.238281 371.332031 245.25 371.332031 247.742188 369.898438 L 264.085938 360.457031 L 284.75 362.523438 L 284.730469 356.960938 L 264.070312 354.894531 L 247.742188 364.332031 C 245.234375 365.765625 241.222656 365.765625 238.746094 364.316406 L 197.898438 340.589844 C 196.667969 339.875 196.054688 338.953125 196.054688 338.015625 Z M 196.054688 338.015625 " fill-opacity="1" fill-rule="nonzero"/><path fill="#9bd899" d="M 197.929688 335.394531 C 195.433594 336.835938 195.421875 339.152344 197.902344 340.59375 L 238.75 364.320312 C 241.230469 365.757812 245.238281 365.765625 247.734375 364.324219 L 264.066406 354.902344 L 284.726562 356.953125 L 281.25 344.984375 L 297.582031 335.558594 C 300.078125 334.121094 300.09375 331.792969 297.609375 330.351562 L 256.765625 306.625 C 254.285156 305.183594 250.273438 305.191406 247.777344 306.632812 Z M 197.929688 335.394531 " fill-opacity="1" fill-rule="nonzero"/><path fill="#eaefef" d="M 247.558594 326.152344 C 247.140625 326.394531 246.910156 326.738281 246.980469 327.105469 C 247.078125 327.722656 248.042969 328.195312 249.167969 328.136719 L 262.710938 327.296875 L 261.238281 335.148438 C 261.109375 335.785156 261.894531 336.359375 263.015625 336.421875 C 263.640625 336.460938 264.230469 336.332031 264.640625 336.09375 C 264.957031 335.910156 265.167969 335.667969 265.214844 335.386719 L 266.976562 326.128906 C 267.027344 325.777344 266.828125 325.421875 266.394531 325.171875 C 265.988281 324.933594 265.375 324.816406 264.765625 324.847656 L 248.746094 325.820312 C 248.28125 325.851562 247.871094 325.972656 247.558594 326.152344 Z M 247.558594 326.152344 " fill-opacity="1" fill-rule="nonzero"/><path fill="#eaefef" d="M 230.96875 330.164062 C 230.816406 330.25 230.691406 330.355469 230.589844 330.46875 C 230.128906 331.0625 230.53125 331.738281 231.527344 332.019531 L 262.585938 340.730469 C 263.363281 340.949219 264.285156 340.851562 264.867188 340.515625 C 265.03125 340.421875 265.164062 340.3125 265.265625 340.183594 C 265.753906 339.609375 265.347656 338.929688 264.355469 338.648438 L 233.296875 329.9375 C 232.503906 329.714844 231.566406 329.820312 230.96875 330.164062 Z M 230.96875 330.164062 " fill-opacity="1" fill-rule="nonzero"/><path fill="#eaefef" d="M 232.492188 334.847656 C 232.179688 335.027344 231.96875 335.265625 231.914062 335.535156 L 230.152344 344.820312 C 230.101562 345.175781 230.328125 345.515625 230.734375 345.75 C 231.167969 346 231.75 346.132812 232.363281 346.105469 L 248.382812 345.101562 C 248.867188 345.074219 249.292969 344.953125 249.605469 344.769531 C 250.019531 344.53125 250.246094 344.191406 250.175781 343.832031 C 250.050781 343.195312 249.085938 342.722656 247.988281 342.796875 L 234.417969 343.625 L 235.914062 335.785156 C 235.996094 335.148438 235.207031 334.574219 234.136719 334.515625 C 233.507812 334.472656 232.910156 334.605469 232.492188 334.847656 Z M 232.492188 334.847656 " fill-opacity="1" fill-rule="nonzero"/><path fill="#d9dddd" d="M 333.929688 298.902344 L 330.664062 314.265625 C 325.15625 313.648438 319.890625 312.113281 315.617188 309.644531 C 311.386719 307.207031 308.726562 304.183594 307.621094 301.019531 Z M 333.929688 298.902344 " fill-opacity="1" fill-rule="nonzero"/><path fill="#d9dddd" d="M 355.847656 310.898438 C 349.871094 313.96875 342.210938 315.359375 334.683594 315.074219 L 337.792969 300.480469 Z M 355.847656 310.898438 " fill-opacity="1" fill-rule="nonzero"/><path fill="#d9dddd" d="M 360.539062 286.597656 C 370.324219 292.929688 370.433594 302.542969 360.789062 308.90625 L 341.394531 297.714844 Z M 360.539062 286.597656 " fill-opacity="1" fill-rule="nonzero"/><path fill="#cccece" d="M 357.660156 268.472656 L 357.621094 282.789062 L 337.644531 294.390625 L 337.6875 280.074219 Z M 357.660156 268.472656 " fill-opacity="1" fill-rule="nonzero"/><path fill="#d9dddd" d="M 337.6875 280.074219 L 337.644531 294.390625 L 309.621094 296.660156 L 309.660156 282.339844 Z M 337.6875 280.074219 " fill-opacity="1" fill-rule="nonzero"/><path fill="#eaefef" d="M 357.660156 268.472656 L 337.6875 280.074219 L 309.660156 282.339844 C 309.039062 277.640625 311.828125 272.835938 318.003906 269.25 C 328.828125 262.960938 346.230469 262.703125 357.660156 268.472656 Z M 357.660156 268.472656 " fill-opacity="1" fill-rule="nonzero"/><path fill="#edb458" d="M 367.660156 285.605469 L 367.628906 295.554688 C 367.617188 299.5 365.234375 303.4375 360.46875 306.582031 L 360.496094 296.632812 C 365.265625 293.488281 367.648438 289.550781 367.660156 285.605469 Z M 367.660156 285.605469 " fill-opacity="1" fill-rule="nonzero"/><path fill="#ffd06c" d="M 360.25 274.449219 C 370.035156 280.78125 370.144531 290.398438 360.496094 296.761719 L 341.105469 285.570312 Z M 360.25 274.449219 " fill-opacity="1" fill-rule="nonzero"/><path fill="#f9c15f" d="M 360.496094 296.632812 L 360.46875 306.582031 L 341.074219 295.390625 L 341.105469 285.441406 Z M 360.496094 296.632812 " fill-opacity="1" fill-rule="nonzero"/><path fill="#f3516f" d="M 336.433594 289.101562 L 333.167969 304.464844 C 327.660156 303.851562 322.394531 302.316406 318.121094 299.847656 C 313.890625 297.40625 311.230469 294.386719 310.125 291.222656 Z M 336.433594 289.101562 " fill-opacity="1" fill-rule="nonzero"/><path fill="#d63a63" d="M 336.433594 289.101562 L 336.402344 296.617188 L 333.136719 311.980469 L 333.167969 304.464844 Z M 336.433594 289.101562 " fill-opacity="1" fill-rule="nonzero"/><path fill="#e24466" d="M 333.167969 304.464844 L 333.136719 311.980469 C 327.628906 311.367188 322.363281 309.832031 318.089844 307.363281 C 313.859375 304.921875 311.199219 301.902344 310.09375 298.738281 L 310.125 291.222656 C 311.230469 294.386719 313.890625 297.40625 318.121094 299.847656 C 322.394531 302.316406 327.660156 303.851562 333.167969 304.464844 Z M 333.167969 304.464844 " fill-opacity="1" fill-rule="nonzero"/><path fill="#4878fe" d="M 357.933594 300.558594 L 357.902344 308.074219 C 351.921875 311.144531 344.261719 312.53125 336.738281 312.246094 L 336.769531 304.730469 C 344.292969 305.015625 351.953125 303.625 357.933594 300.558594 Z M 357.933594 300.558594 " fill-opacity="1" fill-rule="nonzero"/><path fill="#638dff" d="M 357.933594 300.558594 C 351.953125 303.625 344.292969 305.015625 336.769531 304.730469 L 339.875 290.136719 Z M 357.933594 300.558594 " fill-opacity="1" fill-rule="nonzero"/><path fill="#cacece" d="M 384 184.574219 L 346.542969 206.191406 L 285.96875 170.992188 L 323.421875 149.371094 Z M 384 184.574219 " fill-opacity="1" fill-rule="nonzero"/><path fill="#e2e2e2" d="M 285.738281 166.945312 L 285.738281 168.554688 L 346.320312 203.742188 L 346.320312 202.136719 Z M 285.738281 166.945312 " fill-opacity="1" fill-rule="nonzero"/><path fill="#d6d6d6" d="M 346.320312 202.136719 L 346.320312 203.742188 L 383.78125 182.125 L 383.777344 180.519531 Z M 346.320312 202.136719 " fill-opacity="1" fill-rule="nonzero"/><path fill="#eaefef" d="M 285.738281 166.945312 L 346.320312 202.136719 L 383.777344 180.519531 L 323.195312 145.328125 Z M 285.738281 166.945312 " fill-opacity="1" fill-rule="nonzero"/><path fill="#d6d6d6" d="M 327.726562 160.207031 L 325.40625 161.542969 L 325.40625 161.832031 L 325.902344 161.832031 L 328.222656 160.496094 L 328.226562 160.207031 Z M 327.726562 160.207031 " fill-opacity="1" fill-rule="nonzero"/><path fill="#f3516f" d="M 294.089844 169.085938 L 299.511719 172.234375 L 304.359375 169.441406 L 298.933594 166.289062 Z M 294.089844 169.085938 " fill-opacity="1" fill-rule="nonzero"/><path fill="#d6d6d6" d="M 313.761719 168.265625 L 311.417969 169.617188 L 311.417969 169.90625 L 311.914062 169.90625 L 314.257812 168.554688 L 314.261719 168.265625 Z M 313.761719 168.265625 " fill-opacity="1" fill-rule="nonzero"/><path fill="#d6d6d6" d="M 332.390625 157.515625 L 330.046875 158.867188 L 330.042969 159.15625 L 330.542969 159.15625 L 332.886719 157.804688 L 332.886719 157.515625 Z M 332.390625 157.515625 " fill-opacity="1" fill-rule="nonzero"/><path fill="#638eff" d="M 332.292969 153.328125 L 315.144531 163.210938 L 309.714844 160.066406 L 326.863281 150.167969 Z M 332.292969 153.328125 " fill-opacity="1" fill-rule="nonzero"/><path fill="#d6d6d6" d="M 323.0625 162.898438 L 320.742188 164.234375 L 320.742188 164.523438 L 321.242188 164.523438 L 323.5625 163.183594 L 323.5625 162.898438 Z M 323.0625 162.898438 " fill-opacity="1" fill-rule="nonzero"/><path fill="#d6d6d6" d="M 322.550781 167.882812 L 323.046875 168.171875 L 340.46875 158.121094 L 339.972656 157.832031 Z M 322.550781 167.882812 " fill-opacity="1" fill-rule="nonzero"/><path fill="#d6d6d6" d="M 326.929688 169.519531 L 327.425781 169.808594 L 344.074219 160.203125 L 343.578125 159.914062 Z M 326.929688 169.519531 " fill-opacity="1" fill-rule="nonzero"/><path fill="#d6d6d6" d="M 322.828125 169.804688 L 323.324219 170.09375 L 342.273438 159.160156 L 341.773438 158.871094 Z M 322.828125 169.804688 " fill-opacity="1" fill-rule="nonzero"/><path fill="#abaeb7" d="M 300.765625 165.085938 L 306.191406 168.234375 L 311.011719 165.453125 L 305.589844 162.300781 Z M 300.765625 165.085938 " fill-opacity="1" fill-rule="nonzero"/><path fill="#d6d6d6" d="M 307.152344 176.769531 L 307.648438 177.058594 L 314.472656 173.121094 L 313.976562 172.832031 Z M 307.152344 176.769531 " fill-opacity="1" fill-rule="nonzero"/><path fill="#d6d6d6" d="M 306.777344 172.292969 L 306.777344 172.582031 L 307.277344 172.582031 L 309.597656 171.246094 L 309.597656 170.957031 L 309.097656 170.957031 Z M 306.777344 172.292969 " fill-opacity="1" fill-rule="nonzero"/><path fill="#d6d6d6" d="M 308.953125 177.8125 L 309.453125 178.101562 L 317.914062 173.21875 L 317.414062 172.929688 Z M 308.953125 177.8125 " fill-opacity="1" fill-rule="nonzero"/><path fill="#d6d6d6" d="M 333.246094 191.863281 L 333.742188 192.152344 L 339.246094 188.976562 L 338.75 188.6875 Z M 333.246094 191.863281 " fill-opacity="1" fill-rule="nonzero"/><path fill="#d6d6d6" d="M 345.148438 198.742188 L 346.503906 199.53125 L 379.277344 180.617188 L 377.921875 179.828125 Z M 345.148438 198.742188 " fill-opacity="1" fill-rule="nonzero"/><path fill="#d6d6d6" d="M 335.027344 192.898438 L 335.523438 193.1875 L 343.417969 188.632812 L 342.917969 188.34375 Z M 335.027344 192.898438 " fill-opacity="1" fill-rule="nonzero"/><path fill="#d6d6d6" d="M 336.8125 193.9375 L 337.308594 194.226562 L 344.175781 190.261719 L 343.679688 189.972656 Z M 336.8125 193.9375 " fill-opacity="1" fill-rule="nonzero"/><path fill="#d6d6d6" d="M 338.59375 194.972656 L 339.089844 195.261719 L 346.460938 191.007812 L 345.960938 190.722656 Z M 338.59375 194.972656 " fill-opacity="1" fill-rule="nonzero"/><path fill="#d6d6d6" d="M 310.757812 178.851562 L 311.253906 179.140625 L 316.757812 175.964844 L 316.261719 175.675781 Z M 310.757812 178.851562 " fill-opacity="1" fill-rule="nonzero"/><path fill="#d6d6d6" d="M 312.5625 179.894531 L 313.058594 180.183594 L 320.949219 175.628906 L 320.453125 175.339844 Z M 312.5625 179.894531 " fill-opacity="1" fill-rule="nonzero"/><path fill="#d6d6d6" d="M 314.363281 180.933594 L 314.859375 181.222656 L 321.730469 177.261719 L 321.230469 176.972656 Z M 314.363281 180.933594 " fill-opacity="1" fill-rule="nonzero"/><path fill="#d6d6d6" d="M 316.167969 181.976562 L 316.664062 182.265625 L 324.03125 178.011719 L 323.535156 177.722656 Z M 316.167969 181.976562 " fill-opacity="1" fill-rule="nonzero"/><path fill="#d6d6d6" d="M 317.96875 183.019531 L 318.488281 183.320312 L 324.449219 179.882812 L 323.929688 179.578125 Z M 317.96875 183.019531 " fill-opacity="1" fill-rule="nonzero"/><path fill="#d6d6d6" d="M 319.796875 184.074219 L 320.292969 184.359375 L 328.183594 179.808594 L 327.6875 179.519531 Z M 319.796875 184.074219 " fill-opacity="1" fill-rule="nonzero"/><path fill="#d6d6d6" d="M 329.105469 185.261719 L 329.101562 185.550781 L 329.601562 185.550781 L 331.921875 184.210938 L 331.921875 183.921875 L 331.425781 183.921875 Z M 329.105469 185.261719 " fill-opacity="1" fill-rule="nonzero"/><path fill="#d6d6d6" d="M 321.863281 185.261719 L 322.363281 185.550781 L 329.230469 181.585938 L 328.734375 181.296875 Z M 321.863281 185.261719 " fill-opacity="1" fill-rule="nonzero"/><path fill="#d6d6d6" d="M 329.1875 189.5 L 329.683594 189.789062 L 336.507812 185.851562 L 336.007812 185.5625 Z M 329.1875 189.5 " fill-opacity="1" fill-rule="nonzero"/><path fill="#d6d6d6" d="M 331.214844 190.683594 L 331.710938 190.972656 L 340.171875 186.089844 L 339.675781 185.800781 Z M 331.214844 190.683594 " fill-opacity="1" fill-rule="nonzero"/><path fill="#d6d6d6" d="M 332.242188 170.617188 L 332.738281 170.90625 L 347.679688 162.285156 L 347.183594 161.996094 Z M 332.242188 170.617188 " fill-opacity="1" fill-rule="nonzero"/><path fill="#d6d6d6" d="M 354.714844 170.484375 L 352.371094 171.835938 L 352.371094 172.125 L 352.871094 172.125 L 355.210938 170.773438 L 355.214844 170.484375 Z M 354.714844 170.484375 " fill-opacity="1" fill-rule="nonzero"/><path fill="#d6d6d6" d="M 326.046875 172.109375 L 326.546875 172.398438 L 345.878906 161.242188 L 345.378906 160.953125 Z M 326.046875 172.109375 " fill-opacity="1" fill-rule="nonzero"/><path fill="#d6d6d6" d="M 350.050781 173.175781 L 347.730469 174.511719 L 347.730469 174.800781 L 348.230469 174.800781 L 350.550781 173.460938 L 350.550781 173.175781 Z M 350.050781 173.175781 " fill-opacity="1" fill-rule="nonzero"/><path fill="#d6d6d6" d="M 330.632812 173.628906 L 331.128906 173.917969 L 349.484375 163.324219 L 348.988281 163.035156 Z M 330.632812 173.628906 " fill-opacity="1" fill-rule="nonzero"/><path fill="#d6d6d6" d="M 333.890625 173.832031 L 334.410156 174.132812 L 351.308594 164.378906 L 350.789062 164.078125 Z M 333.890625 173.832031 " fill-opacity="1" fill-rule="nonzero"/><path fill="#d6d6d6" d="M 334.261719 175.726562 L 334.757812 176.011719 L 353.113281 165.421875 L 352.617188 165.132812 Z M 334.261719 175.726562 " fill-opacity="1" fill-rule="nonzero"/><path fill="#d6d6d6" d="M 345.390625 175.863281 L 343.070312 177.203125 L 343.066406 177.492188 L 343.566406 177.492188 L 345.886719 176.152344 L 345.886719 175.863281 Z M 345.390625 175.863281 " fill-opacity="1" fill-rule="nonzero"/><path fill="#d6d6d6" d="M 335.078125 177.636719 L 335.578125 177.925781 L 355.183594 166.613281 L 354.683594 166.324219 Z M 335.078125 177.636719 " fill-opacity="1" fill-rule="nonzero"/><path fill="#d6d6d6" d="M 344.582031 180.617188 L 345.082031 180.902344 L 362.503906 170.851562 L 362.003906 170.5625 Z M 344.582031 180.617188 " fill-opacity="1" fill-rule="nonzero"/><path fill="#d6d6d6" d="M 349.414062 182.53125 L 349.914062 182.820312 L 366.5625 173.210938 L 366.066406 172.921875 Z M 349.414062 182.53125 " fill-opacity="1" fill-rule="nonzero"/><path fill="#d6d6d6" d="M 345.089844 182.675781 L 345.585938 182.964844 L 364.53125 172.03125 L 364.035156 171.742188 Z M 345.089844 182.675781 " fill-opacity="1" fill-rule="nonzero"/><path fill="#d6d6d6" d="M 354.6875 183.621094 L 355.183594 183.910156 L 370.128906 175.285156 L 369.628906 174.996094 Z M 354.6875 183.621094 " fill-opacity="1" fill-rule="nonzero"/><path fill="#d6d6d6" d="M 348.515625 185.117188 L 349.011719 185.40625 L 368.34375 174.25 L 367.847656 173.960938 Z M 348.515625 185.117188 " fill-opacity="1" fill-rule="nonzero"/><path fill="#d6d6d6" d="M 353.058594 186.625 L 353.554688 186.914062 L 371.910156 176.320312 L 371.414062 176.035156 Z M 353.058594 186.625 " fill-opacity="1" fill-rule="nonzero"/><path fill="#d6d6d6" d="M 343.386719 197.746094 L 343.996094 198.097656 L 376.816406 179.160156 L 376.203125 178.804688 Z M 343.386719 197.746094 " fill-opacity="1" fill-rule="nonzero"/><path fill="#d6d6d6" d="M 334.707031 156.175781 L 334.707031 156.464844 L 335.207031 156.464844 L 336.480469 155.730469 L 336.480469 155.441406 L 335.984375 155.441406 Z M 334.707031 156.175781 " fill-opacity="1" fill-rule="nonzero"/><path fill="#d6d6d6" d="M 318.425781 165.574219 L 316.082031 166.925781 L 316.078125 167.214844 L 316.578125 167.214844 L 318.921875 165.863281 L 318.921875 165.574219 Z M 318.425781 165.574219 " fill-opacity="1" fill-rule="nonzero"/><path fill="#d6d6d6" d="M 303.183594 174.367188 L 303.183594 174.65625 L 303.683594 174.65625 L 304.933594 173.933594 L 304.933594 173.644531 L 304.4375 173.644531 Z M 303.183594 174.367188 " fill-opacity="1" fill-rule="nonzero"/><path fill="#d6d6d6" d="M 357.035156 169.144531 L 357.03125 169.433594 L 357.53125 169.433594 L 358.804688 168.699219 L 358.808594 168.410156 L 358.308594 168.410156 Z M 357.035156 169.144531 " fill-opacity="1" fill-rule="nonzero"/><path fill="#d6d6d6" d="M 336.085938 181.234375 L 333.746094 182.585938 L 333.742188 182.875 L 334.242188 182.875 L 336.585938 181.523438 L 336.585938 181.234375 Z M 336.085938 181.234375 " fill-opacity="1" fill-rule="nonzero"/><path fill="#d6d6d6" d="M 340.75 178.542969 L 338.40625 179.894531 L 338.40625 180.183594 L 338.902344 180.183594 L 341.246094 178.832031 L 341.25 178.542969 Z M 340.75 178.542969 " fill-opacity="1" fill-rule="nonzero"/><path fill="#d6d6d6" d="M 325.511719 187.335938 L 325.507812 187.625 L 326.007812 187.625 L 327.257812 186.902344 L 327.261719 186.613281 L 326.761719 186.613281 Z M 325.511719 187.335938 " fill-opacity="1" fill-rule="nonzero"/><path fill="#262e3f" d="M 321.945312 173.824219 C 321.945312 175.671875 323.164062 177.53125 325.605469 178.941406 C 330.464844 181.75 338.339844 181.75 343.167969 178.941406 C 343.453125 178.773438 343.722656 178.601562 343.972656 178.421875 C 344.949219 177.734375 345.675781 176.964844 346.140625 176.152344 C 346.554688 175.421875 346.769531 174.664062 346.769531 173.902344 L 346.777344 171.15625 C 346.769531 171.421875 346.21875 171.652344 345.289062 171.839844 C 345.28125 171.839844 345.273438 171.839844 345.257812 171.847656 C 345.265625 171.871094 345.265625 171.894531 345.273438 171.917969 C 344.988281 173.273438 343.949219 174.578125 342.183594 175.617188 C 337.910156 178.097656 330.929688 178.097656 326.621094 175.617188 C 324.804688 174.570312 323.746094 173.242188 323.464844 171.871094 C 323.472656 171.839844 323.480469 171.816406 323.488281 171.785156 C 323.472656 171.785156 323.457031 171.785156 323.449219 171.777344 C 322.527344 171.585938 321.984375 171.351562 321.960938 171.082031 Z M 321.945312 173.824219 " fill-opacity="1" fill-rule="nonzero"/><path fill="#3f4a63" d="M 321.960938 171.082031 C 321.960938 172.933594 323.179688 174.785156 325.621094 176.191406 C 330.480469 178.996094 338.355469 178.996094 343.183594 176.191406 C 345.570312 174.800781 346.769531 172.980469 346.777344 171.15625 C 346.785156 169.304688 345.5625 167.4375 343.113281 166.023438 C 338.246094 163.226562 330.378906 163.226562 325.558594 166.023438 C 323.15625 167.421875 321.960938 169.25 321.960938 171.082031 Z M 323.464844 171.871094 C 323.472656 171.839844 323.480469 171.816406 323.488281 171.785156 C 323.785156 170.46875 324.8125 169.195312 326.558594 168.171875 C 330.828125 165.699219 337.804688 165.699219 342.113281 168.171875 C 343.902344 169.203125 344.949219 170.5 345.257812 171.847656 C 345.265625 171.871094 345.265625 171.894531 345.273438 171.917969 C 344.988281 173.273438 343.949219 174.578125 342.183594 175.617188 C 337.910156 178.097656 330.929688 178.097656 326.621094 175.617188 C 324.804688 174.570312 323.746094 173.242188 323.464844 171.871094 Z M 323.464844 171.871094 " fill-opacity="1" fill-rule="nonzero"/><path fill="#262e3f" d="M 323.449219 171.777344 C 323.449219 171.808594 323.457031 171.839844 323.464844 171.871094 C 323.472656 171.839844 323.480469 171.816406 323.488281 171.785156 C 323.785156 170.46875 324.8125 169.195312 326.558594 168.171875 C 330.828125 165.699219 337.804688 165.699219 342.113281 168.171875 C 343.902344 169.203125 344.949219 170.5 345.257812 171.847656 C 345.265625 171.871094 345.265625 171.894531 345.273438 171.917969 C 345.28125 171.894531 345.28125 171.863281 345.289062 171.839844 C 345.652344 169.972656 344.59375 168.027344 342.113281 166.605469 C 337.804688 164.132812 330.828125 164.132812 326.558594 166.605469 C 324.132812 168.011719 323.085938 169.933594 323.449219 171.777344 Z M 323.449219 171.777344 " fill-opacity="1" fill-rule="nonzero"/><path fill="#eaefef" d="M 345.277344 176.960938 C 345.085938 176.855469 344.832031 176.871094 344.539062 177.035156 C 343.96875 177.371094 343.503906 178.171875 343.503906 178.835938 C 343.503906 179.152344 343.621094 179.378906 343.804688 179.488281 L 342.503906 178.734375 C 342.324219 178.625 342.203125 178.398438 342.203125 178.070312 C 342.203125 177.410156 342.667969 176.609375 343.242188 176.28125 C 343.53125 176.109375 343.796875 176.101562 343.976562 176.210938 Z M 345.277344 176.960938 " fill-opacity="1" fill-rule="nonzero"/><path fill="#c8c8cc" d="M 344.539062 177.039062 C 345.113281 176.707031 345.578125 176.972656 345.578125 177.632812 C 345.582031 178.285156 345.117188 179.085938 344.542969 179.417969 C 343.96875 179.75 343.503906 179.484375 343.5 178.832031 C 343.5 178.171875 343.960938 177.371094 344.539062 177.039062 Z M 344.539062 177.039062 " fill-opacity="1" fill-rule="nonzero"/><path fill="#f3516f" d="M 360.328125 187.183594 C 359.777344 188.335938 358.402344 188.824219 357.25 188.277344 C 357.136719 188.222656 357.023438 188.15625 356.921875 188.085938 L 344.199219 179.246094 L 344.160156 179.21875 C 344.144531 179.210938 344.128906 179.199219 344.117188 179.1875 C 344.113281 179.183594 344.113281 179.183594 344.113281 179.183594 C 344.023438 179.097656 343.972656 178.953125 343.96875 178.769531 C 343.96875 178.300781 344.300781 177.726562 344.707031 177.492188 C 344.871094 177.398438 345.023438 177.371094 345.144531 177.402344 C 345.148438 177.402344 345.148438 177.402344 345.148438 177.402344 C 345.164062 177.410156 345.183594 177.417969 345.199219 177.425781 L 345.257812 177.453125 L 359.234375 184.105469 C 360.386719 184.65625 360.875 186.03125 360.328125 187.183594 Z M 360.328125 187.183594 " fill-opacity="1" fill-rule="nonzero"/><path fill="#eaefef" d="M 342.109375 168.171875 C 337.808594 165.695312 330.832031 165.695312 326.5625 168.171875 C 324.773438 169.21875 323.738281 170.527344 323.464844 171.871094 C 323.746094 173.246094 324.800781 174.570312 326.625 175.617188 C 330.925781 178.09375 337.90625 178.09375 342.183594 175.617188 C 343.953125 174.582031 344.988281 173.269531 345.273438 171.917969 C 344.988281 170.546875 343.933594 169.21875 342.109375 168.171875 Z M 342.109375 168.171875 " fill-opacity="0.298" fill-rule="nonzero"/><path fill="#475675" d="M 111.105469 191.808594 L 95.40625 214.542969 C 95.476562 214.4375 95.324219 214.164062 94.902344 213.742188 C 93.855469 212.667969 91.496094 210.976562 89.65625 209.972656 C 88.53125 209.363281 87.855469 209.144531 87.746094 209.3125 L 103.445312 186.582031 C 103.5625 186.414062 104.238281 186.632812 105.355469 187.242188 C 107.203125 188.246094 109.554688 189.925781 110.609375 191.007812 C 111.023438 191.429688 111.183594 191.707031 111.105469 191.808594 Z M 111.105469 191.808594 " fill-opacity="1" fill-rule="nonzero"/><path fill="#d8463f" d="M 95.894531 210.453125 C 94.054688 209.453125 91.707031 207.765625 90.644531 206.683594 C 89.589844 205.601562 90.222656 205.539062 92.0625 206.539062 C 93.910156 207.542969 96.261719 209.230469 97.316406 210.3125 C 98.378906 211.394531 97.742188 211.460938 95.894531 210.453125 Z M 95.894531 210.453125 " fill-opacity="1" fill-rule="nonzero"/><path fill="#638dff" d="M 101.285156 209.578125 C 93.617188 225.277344 83.289062 240.265625 70.511719 254.617188 C 70.632812 254.457031 70.386719 254.050781 69.765625 253.410156 C 68.183594 251.796875 64.652344 249.261719 61.882812 247.753906 C 60.199219 246.847656 59.1875 246.511719 59.027344 246.777344 C 67.332031 230.066406 77.554688 214.988281 89.785156 201.734375 C 89.960938 201.46875 90.972656 201.789062 92.660156 202.710938 C 95.429688 204.21875 98.941406 206.757812 100.539062 208.371094 C 101.160156 209.007812 101.390625 209.398438 101.285156 209.578125 Z M 101.285156 209.578125 " fill-opacity="1" fill-rule="nonzero"/><path fill="#3e5dea" d="M 67.644531 253.632812 C 64.878906 252.132812 61.351562 249.597656 59.757812 247.972656 C 58.171875 246.351562 59.128906 246.253906 61.890625 247.757812 C 64.660156 249.261719 68.183594 251.792969 69.769531 253.414062 C 71.359375 255.039062 70.414062 255.140625 67.644531 253.632812 Z M 67.644531 253.632812 " fill-opacity="1" fill-rule="nonzero"/><path fill="#475675" d="M 154.332031 121.609375 C 148.882812 118.449219 141.34375 118.894531 133.019531 123.699219 C 116.484375 133.246094 103.117188 156.386719 103.179688 175.371094 C 103.199219 184.820312 106.535156 191.453125 111.90625 194.585938 L 106.351562 191.347656 C 100.984375 188.226562 97.644531 181.582031 97.613281 172.144531 C 97.566406 153.152344 110.921875 130.007812 127.464844 120.460938 C 135.789062 115.65625 143.328125 115.210938 148.769531 118.382812 Z M 154.332031 121.609375 " fill-opacity="1" fill-rule="nonzero"/><path fill="#38425d" d="M 154.320312 121.605469 C 154.046875 121.441406 153.742188 121.277344 153.441406 121.140625 C 153.195312 121.03125 152.945312 120.921875 152.699219 120.8125 C 152.011719 120.507812 151.273438 120.261719 150.53125 120.070312 C 150.226562 119.988281 149.925781 119.933594 149.625 119.878906 C 149.296875 119.796875 148.9375 119.742188 148.582031 119.714844 C 148.363281 119.6875 148.140625 119.660156 147.894531 119.632812 C 147.429688 119.605469 146.960938 119.578125 146.496094 119.578125 C 143.445312 119.578125 140.097656 120.316406 136.582031 121.882812 C 135.402344 122.375 134.222656 122.980469 133.015625 123.691406 C 116.484375 133.242188 103.113281 156.378906 103.167969 175.367188 C 103.167969 176.164062 103.195312 176.960938 103.25 177.726562 C 103.25 177.835938 103.25 177.949219 103.277344 178.058594 C 103.332031 178.769531 103.386719 179.457031 103.5 180.144531 C 103.5 180.226562 103.5 180.308594 103.527344 180.390625 C 103.609375 181.074219 103.746094 181.707031 103.882812 182.339844 C 104.019531 183.023438 104.183594 183.710938 104.40625 184.371094 C 104.570312 184.945312 104.761719 185.496094 104.980469 186.015625 C 105.144531 186.480469 105.339844 186.921875 105.53125 187.359375 C 105.722656 187.746094 105.914062 188.128906 106.132812 188.511719 C 106.546875 189.253906 106.984375 189.96875 107.480469 190.597656 C 107.480469 190.597656 107.480469 190.625 107.507812 190.652344 C 107.699219 190.902344 107.890625 191.121094 108.082031 191.339844 C 108.660156 192.027344 109.292969 192.683594 109.976562 193.234375 C 110.199219 193.425781 110.445312 193.589844 110.664062 193.753906 C 110.964844 194 111.269531 194.195312 111.570312 194.386719 C 117.0625 197.761719 124.722656 197.40625 133.207031 192.492188 C 149.761719 182.941406 163.132812 159.808594 163.078125 140.816406 C 163.050781 131.375 159.699219 124.707031 154.320312 121.605469 Z M 106.132812 175.367188 C 106.105469 157.335938 118.820312 135.328125 134.496094 126.273438 C 138.695312 123.828125 142.84375 122.566406 146.46875 122.566406 C 148.363281 122.566406 150.0625 122.925781 151.628906 123.582031 C 154.730469 126.683594 156.460938 131.734375 156.488281 138.375 C 156.515625 156.40625 143.804688 178.414062 128.097656 187.46875 C 123.898438 189.914062 119.78125 191.175781 116.15625 191.175781 C 114.261719 191.175781 112.558594 190.816406 110.992188 190.160156 C 107.890625 187.085938 106.160156 182.007812 106.132812 175.367188 Z M 106.132812 175.367188 " fill-opacity="1" fill-rule="nonzero"/><path fill="#475675" d="M 160.085938 140.816406 C 160.140625 158.847656 147.429688 180.855469 131.722656 189.914062 C 127.523438 192.355469 123.402344 193.644531 119.78125 193.644531 C 116.210938 193.644531 113.246094 192.410156 110.992188 190.160156 C 112.558594 190.816406 114.261719 191.175781 116.15625 191.175781 C 119.78125 191.175781 123.898438 189.914062 128.097656 187.46875 C 143.804688 178.414062 156.515625 156.40625 156.488281 138.375 C 156.460938 131.734375 154.730469 126.683594 151.628906 123.582031 C 156.984375 125.859375 160.058594 131.953125 160.085938 140.816406 Z M 160.085938 140.816406 " fill-opacity="1" fill-rule="nonzero"/><path fill="#475675" d="M 135.285156 140.570312 C 135.414062 140.496094 135.550781 140.445312 135.679688 140.433594 C 136.207031 140.378906 136.460938 140.925781 136.242188 141.660156 L 126.585938 174.324219 C 126.421875 174.875 126.035156 175.375 125.628906 175.609375 C 125.496094 175.683594 125.359375 175.734375 125.230469 175.746094 C 124.703125 175.800781 124.453125 175.246094 124.667969 174.515625 L 134.328125 141.855469 C 134.488281 141.304688 134.875 140.808594 135.285156 140.570312 Z M 135.285156 140.570312 " fill-opacity="1" fill-rule="nonzero"/><path fill="#475675" d="M 123.300781 153.566406 C 123.617188 153.382812 123.929688 153.367188 124.128906 153.566406 C 124.472656 153.898438 124.382812 154.695312 123.921875 155.351562 L 116.34375 166.230469 L 123.960938 168.339844 C 124.421875 168.46875 124.515625 169.164062 124.175781 169.886719 C 123.976562 170.3125 123.664062 170.660156 123.347656 170.84375 C 123.132812 170.96875 122.914062 171.015625 122.726562 170.964844 L 113.996094 168.542969 C 113.730469 168.46875 113.570312 168.207031 113.570312 167.832031 C 113.570312 167.453125 113.722656 167.011719 113.992188 166.628906 L 122.679688 154.160156 C 122.867188 153.894531 123.085938 153.691406 123.300781 153.566406 Z M 123.300781 153.566406 " fill-opacity="1" fill-rule="nonzero"/><path fill="#475675" d="M 137.089844 145.609375 C 137.304688 145.484375 137.523438 145.4375 137.710938 145.488281 L 146.441406 147.902344 C 146.710938 147.976562 146.859375 148.242188 146.863281 148.621094 C 146.863281 148.996094 146.714844 149.433594 146.449219 149.816406 L 137.757812 162.292969 C 137.574219 162.558594 137.355469 162.757812 137.140625 162.882812 C 136.824219 163.066406 136.507812 163.082031 136.304688 162.890625 C 135.960938 162.558594 136.058594 161.75 136.515625 161.09375 L 144.089844 150.21875 L 136.480469 148.105469 C 136.019531 147.980469 135.917969 147.292969 136.257812 146.570312 C 136.460938 146.136719 136.773438 145.792969 137.089844 145.609375 Z M 137.089844 145.609375 " fill-opacity="1" fill-rule="nonzero"/><path fill="#648dff" d="M 156.476562 138.378906 C 156.527344 156.398438 143.800781 178.425781 128.113281 187.480469 C 123.910156 189.90625 119.777344 191.1875 116.164062 191.1875 C 114.261719 191.1875 112.546875 190.828125 111.003906 190.171875 C 107.898438 187.074219 106.164062 182.003906 106.148438 175.367188 C 106.097656 157.347656 118.820312 135.320312 134.507812 126.265625 C 138.710938 123.84375 142.84375 122.5625 146.457031 122.5625 C 148.355469 122.5625 150.074219 122.917969 151.617188 123.574219 C 154.722656 126.671875 156.457031 131.742188 156.476562 138.378906 Z M 156.476562 138.378906 " fill-opacity="0.2" fill-rule="nonzero"/><path fill="#c3ccd8" d="M 325.386719 329.371094 C 325.949219 329.695312 325.953125 330.222656 325.394531 330.546875 L 320.558594 333.355469 L 325.425781 336.164062 C 325.988281 336.488281 325.996094 337.015625 325.433594 337.34375 C 324.875 337.667969 323.960938 337.667969 323.398438 337.34375 L 318.53125 334.53125 L 313.699219 337.339844 C 313.144531 337.664062 312.230469 337.664062 311.667969 337.339844 C 311.105469 337.015625 311.105469 336.488281 311.664062 336.164062 L 316.496094 333.359375 L 311.628906 330.550781 C 311.066406 330.226562 311.066406 329.695312 311.621094 329.371094 C 312.183594 329.046875 313.09375 329.046875 313.65625 329.371094 L 318.519531 332.179688 L 323.359375 329.371094 C 323.917969 329.046875 324.824219 329.046875 325.386719 329.371094 Z M 325.386719 329.371094 " fill-opacity="1" fill-rule="nonzero"/><path fill="#c3ccd8" d="M 176.886719 345.863281 C 177.449219 346.1875 177.453125 346.714844 176.894531 347.039062 L 172.058594 349.847656 L 176.925781 352.65625 C 177.488281 352.980469 177.496094 353.507812 176.933594 353.835938 C 176.375 354.160156 175.460938 354.160156 174.898438 353.835938 L 170.03125 351.023438 L 165.199219 353.832031 C 164.644531 354.15625 163.730469 354.15625 163.167969 353.832031 C 162.605469 353.507812 162.605469 352.980469 163.164062 352.65625 L 167.996094 349.851562 L 163.128906 347.042969 C 162.566406 346.71875 162.566406 346.1875 163.121094 345.863281 C 163.683594 345.539062 164.59375 345.539062 165.15625 345.863281 L 170.019531 348.671875 L 174.859375 345.863281 C 175.417969 345.539062 176.324219 345.539062 176.886719 345.863281 Z M 176.886719 345.863281 " fill-opacity="1" fill-rule="nonzero"/><path fill="#c3ccd8" d="M 84.238281 285.734375 C 84.804688 286.058594 84.804688 286.585938 84.25 286.910156 L 79.410156 289.71875 L 84.28125 292.527344 C 84.839844 292.851562 84.847656 293.378906 84.285156 293.707031 C 83.730469 294.03125 82.816406 294.03125 82.253906 293.707031 L 77.382812 290.894531 L 72.554688 293.703125 C 71.996094 294.027344 71.085938 294.027344 70.519531 293.703125 C 69.957031 293.378906 69.960938 292.851562 70.515625 292.527344 L 75.347656 289.722656 L 70.480469 286.914062 C 69.921875 286.589844 69.917969 286.058594 70.476562 285.734375 C 71.035156 285.410156 71.949219 285.410156 72.507812 285.734375 L 77.375 288.542969 L 82.210938 285.734375 C 82.769531 285.410156 83.675781 285.410156 84.238281 285.734375 Z M 84.238281 285.734375 " fill-opacity="1" fill-rule="nonzero"/><path fill="#c3ccd8" d="M 361.667969 243.640625 C 362.230469 243.96875 362.234375 244.492188 361.675781 244.816406 L 356.839844 247.628906 L 361.710938 250.4375 C 362.269531 250.761719 362.277344 251.289062 361.714844 251.613281 C 361.15625 251.9375 360.242188 251.9375 359.683594 251.613281 L 354.8125 248.804688 L 349.984375 251.609375 C 349.425781 251.933594 348.515625 251.9375 347.949219 251.609375 C 347.386719 251.285156 347.386719 250.757812 347.945312 250.433594 L 352.777344 247.628906 L 347.910156 244.820312 C 347.351562 244.496094 347.347656 243.96875 347.90625 243.644531 C 348.464844 243.320312 349.375 243.320312 349.9375 243.644531 L 354.804688 246.453125 L 359.640625 243.640625 C 360.199219 243.316406 361.105469 243.316406 361.667969 243.640625 Z M 361.667969 243.640625 " fill-opacity="1" fill-rule="nonzero"/><path fill="#c3ccd8" d="M 278.277344 161.28125 C 278.839844 161.609375 278.84375 162.132812 278.285156 162.457031 L 273.449219 165.265625 L 278.320312 168.078125 C 278.878906 168.402344 278.886719 168.929688 278.324219 169.253906 C 277.765625 169.578125 276.851562 169.578125 276.292969 169.253906 L 271.421875 166.445312 L 266.59375 169.25 C 266.035156 169.574219 265.125 169.574219 264.558594 169.25 C 263.996094 168.925781 263.996094 168.398438 264.554688 168.074219 L 269.386719 165.269531 L 264.519531 162.460938 C 263.960938 162.136719 263.957031 161.609375 264.515625 161.285156 C 265.074219 160.957031 265.984375 160.960938 266.546875 161.285156 L 271.414062 164.089844 L 276.25 161.28125 C 276.808594 160.957031 277.714844 160.957031 278.277344 161.28125 Z M 278.277344 161.28125 " fill-opacity="1" fill-rule="nonzero"/></svg>