<svg xmlns="http://www.w3.org/2000/svg" xmlns:xlink="http://www.w3.org/1999/xlink" width="512" zoomAndPan="magnify" viewBox="0 0 384 383.999986" height="512" preserveAspectRatio="xMidYMid meet" version="1.0"><path fill="#c1c1bf" d="M 275.210938 291.890625 C 266.011719 291.101562 258.785156 284.332031 258.128906 270.886719 C 260.242188 235.1875 262.351562 198.234375 237.339844 174.402344 C 233.445312 144.730469 219.601562 133.832031 213.078125 114.777344 L 202.800781 107.496094 L 215.097656 88.488281 L 220.351562 88.625 L 271.691406 191.183594 L 282.4375 242.882812 Z M 275.210938 291.890625 " fill-opacity="1" fill-rule="nonzero"/><path fill="#c1c1bf" d="M 149.347656 106.527344 C 147.796875 116.542969 146.953125 126.371094 148.40625 135.875 C 137.707031 150.25 129.589844 164.761719 128.652344 179.691406 C 120.53125 201.066406 101.246094 219.148438 104.578125 261.339844 C 115.417969 272.511719 130.574219 282.898438 143.574219 293.703125 C 159.90625 307.195312 150.191406 325 127.195312 320.777344 C 122.082031 315.214844 110.488281 280.347656 88.527344 258.882812 L 92.84375 230.738281 L 113.585938 175.886719 L 139.398438 135.085938 L 142.261719 117.46875 L 138.644531 72.445312 L 141.648438 55.988281 L 149.347656 106.523438 Z M 149.347656 106.527344 " fill-opacity="1" fill-rule="nonzero"/><path fill="#ffffff" d="M 143.667969 106.253906 C 130.359375 156.894531 101.089844 202.273438 95.0625 227.59375 C 89.03125 252.914062 96.570312 300.578125 111.644531 325.898438 C 126.722656 351.21875 205.113281 361.644531 223.207031 346.75 C 241.296875 331.855469 315.167969 212.695312 282 187.375 C 248.835938 162.054688 257.878906 83.113281 229.234375 84.601562 C 200.589844 86.09375 145.175781 110.722656 143.667969 106.253906 Z M 143.667969 106.253906 " fill-opacity="1" fill-rule="evenodd"/><path fill="#c1c1bf" d="M 135.925781 43.238281 C 136.535156 39.992188 137.332031 36.933594 138.320312 34.058594 L 139.867188 44.117188 Z M 135.925781 43.238281 " fill-opacity="1" fill-rule="nonzero"/><path fill="#c1c1bf" d="M 139.402344 145.648438 C 131.1875 160.671875 128.324219 175.136719 147.191406 177.6875 C 136.820312 180.050781 123.914062 189.558594 110.871094 205.554688 L 111.152344 173.050781 L 126.683594 147.457031 Z M 139.402344 145.648438 " fill-opacity="1" fill-rule="nonzero"/><path fill="#c1c1bf" d="M 38.878906 350.453125 C 67.410156 363.109375 87.542969 362.414062 105.707031 371.363281 C 120.066406 378.828125 134.566406 377.949219 143.292969 368.90625 C 150.710938 359.449219 156.199219 358.984375 167.132812 358.011719 C 185.015625 356.945312 202.472656 356.757812 218.238281 358.382812 L 236.257812 359.820312 C 235.929688 379.800781 274.363281 382.257812 285.675781 367.097656 C 299.332031 351.054688 318.101562 343.867188 334.199219 332.230469 L 249.113281 290.59375 C 227.292969 342.710938 145.964844 356.34375 134.703125 314.890625 Z M 38.878906 350.453125 " fill-opacity="1" fill-rule="nonzero"/><path fill="#000000" d="M 36.207031 352.210938 C 65.207031 364.871094 85.714844 364.128906 104.203125 373.121094 C 118.800781 380.542969 133.535156 379.707031 142.453125 370.621094 C 150.007812 361.207031 155.589844 360.742188 166.714844 359.769531 C 184.875 358.65625 202.660156 358.519531 218.710938 360.09375 L 237.011719 361.578125 C 236.683594 381.5625 275.820312 383.972656 287.320312 368.8125 C 301.210938 352.769531 320.308594 345.628906 336.6875 333.945312 L 250.105469 292.355469 C 227.90625 344.421875 145.171875 358.054688 133.722656 316.652344 L 36.203125 352.210938 Z M 36.207031 352.210938 " fill-opacity="1" fill-rule="nonzero"/><path fill="#b7bd00" d="M 309.742188 268.980469 C 323.632812 273.480469 314.671875 287.203125 321.757812 295.085938 C 324.808594 301.761719 331.238281 307.652344 341.984375 313.121094 C 359.957031 322.070312 338.367188 338.113281 316.546875 346.316406 C 289.941406 355.035156 284.777344 379.050781 255.636719 371.957031 C 245.078125 368.480469 241.980469 359.023438 242.308594 344.417969 C 245.828125 314.558594 241.605469 293.742188 242.261719 273.386719 C 242.214844 265.226562 245.359375 264.253906 260.796875 266.386719 C 262.628906 291.097656 290.222656 291.75 309.742188 268.984375 Z M 309.742188 268.980469 " fill-opacity="1" fill-rule="nonzero"/><path fill="#f2dc00" d="M 281.917969 355.6875 C 302.753906 347.761719 323.777344 337.328125 340.71875 327.035156 C 345.925781 324.023438 346.632812 316.601562 339.308594 314.285156 C 323.449219 305.382812 314.8125 294.253906 316.644531 279.789062 C 316.925781 274.734375 310.636719 269.359375 308.945312 274.179688 C 295.101562 320.171875 250.429688 317.71875 256.574219 272.1875 C 256.902344 270.839844 257.230469 269.496094 257.558594 268.199219 C 249.535156 266.574219 246.4375 268.335938 246.8125 274.410156 L 253.007812 342.800781 C 254.558594 358.378906 267.367188 361.808594 281.917969 355.691406 Z M 281.917969 355.6875 " fill-opacity="1" fill-rule="nonzero"/><path fill="#000000" d="M 291.585938 169.535156 C 307.683594 190.308594 324.152344 242.652344 311.109375 268.710938 C 295.808594 298.476562 261.175781 302 259.675781 271.445312 C 261.832031 235.28125 263.898438 197.867188 238.933594 173.757812 C 235.035156 143.664062 221.144531 132.628906 214.625 113.34375 L 192.941406 97.761719 L 147.609375 103.558594 C 145.777344 114.546875 144.699219 125.257812 146.296875 135.644531 C 135.546875 150.109375 127.429688 164.714844 126.492188 179.691406 C 118.375 201.15625 99.085938 219.378906 102.417969 261.757812 C 113.257812 273.023438 128.414062 283.457031 141.414062 294.304688 C 157.746094 307.890625 148.878906 323.28125 125.882812 319.015625 C 111.945312 303.808594 97.539062 288.878906 83.554688 273.71875 C 68.628906 263.238281 63.09375 249.792969 78.390625 229.394531 C 88.855469 215.578125 91.8125 185.578125 100.964844 173.476562 C 108.988281 161.5625 120.675781 150.898438 129.167969 138.980469 C 133.671875 131.144531 135.082031 125.117188 134.378906 116.03125 L 132.453125 61.085938 C 131.1875 21.214844 153.382812 -0.0234375 184.261719 0.628906 C 219.269531 0.953125 247.992188 24.597656 248.367188 66.976562 C 251.324219 87.609375 245.175781 99.433594 261.742188 128.917969 C 278.585938 159.984375 281.214844 158.3125 291.585938 169.535156 Z M 291.585938 169.535156 " fill-opacity="1" fill-rule="nonzero"/><path fill="#c1c1bf" d="M 230.859375 147.691406 L 232.316406 153.210938 C 228.511719 146.441406 223.960938 134.804688 218.234375 129.703125 C 216.5 128.3125 214.246094 128.359375 212.886719 129.65625 C 205.285156 136.9375 186.417969 151.863281 171.308594 149.917969 C 159.667969 148.757812 148.3125 141.015625 145.824219 132.625 C 144.511719 126.597656 145.121094 121.636719 145.917969 116.582031 L 217.4375 115.421875 C 215.984375 121.636719 225.511719 136.980469 230.859375 147.691406 Z M 230.859375 147.691406 " fill-opacity="1" fill-rule="nonzero"/><path fill="#c1c1bf" d="M 153.847656 57.277344 C 160.984375 57.277344 167.367188 66.039062 167.316406 78.140625 C 167.269531 86.253906 161.921875 88.34375 157.886719 91.910156 C 156.101562 93.535156 155.679688 102.296875 153.472656 102.296875 C 146.386719 102.296875 141.039062 89.824219 141.039062 78.140625 C 141.039062 66.503906 146.761719 57.277344 153.851562 57.277344 Z M 153.847656 57.277344 " fill-opacity="1" fill-rule="nonzero"/><path fill="#ffffff" d="M 154.652344 64.886719 C 160.988281 64.886719 165.398438 68.039062 165.914062 75.367188 C 166.289062 80.417969 164.929688 88.53125 161.363281 90.25 C 159.71875 91.039062 154.042969 98.132812 152.070312 98.039062 C 144.046875 97.667969 142.027344 82.320312 142.640625 74.996094 C 143.203125 67.667969 148.363281 64.886719 154.652344 64.886719 Z M 154.652344 64.886719 " fill-opacity="1" fill-rule="nonzero"/><path fill="#000000" d="M 153.011719 69.796875 C 157.375 69.425781 161.410156 74.34375 161.972656 80.742188 C 162.535156 87.140625 159.390625 92.703125 155.027344 93.074219 C 150.664062 93.445312 146.628906 88.53125 146.066406 82.085938 C 145.5 75.6875 148.644531 70.167969 153.011719 69.796875 Z M 153.011719 69.796875 " fill-opacity="1" fill-rule="nonzero"/><path fill="#c1c1bf" d="M 201.949219 55.660156 C 212.226562 55.660156 220.628906 66.417969 220.628906 79.539062 C 220.628906 92.707031 212.226562 103.417969 201.949219 103.417969 C 191.671875 103.417969 183.367188 92.707031 183.367188 79.539062 C 183.367188 66.417969 191.671875 55.660156 201.949219 55.660156 Z M 201.949219 55.660156 " fill-opacity="1" fill-rule="nonzero"/><path fill="#ffffff" d="M 207.070312 64.839844 C 214.15625 67.34375 218.238281 72.859375 218.757812 78.75 C 219.367188 85.519531 216.597656 93.167969 210.636719 97.664062 C 208.949219 98.917969 189.425781 91.3125 188.300781 88.4375 C 186.609375 84.3125 185.578125 76.382812 186.84375 71.699219 C 187.359375 69.847656 189.097656 67.15625 191.679688 65.71875 C 195.761719 63.449219 201.769531 62.984375 207.070312 64.839844 Z M 207.070312 64.839844 " fill-opacity="1" fill-rule="nonzero"/><path fill="#000000" d="M 201.902344 68.691406 C 207.582031 68.691406 212.226562 74.070312 212.226562 80.609375 C 212.226562 87.191406 207.582031 92.570312 201.902344 92.570312 C 196.222656 92.570312 191.578125 87.191406 191.578125 80.609375 C 191.578125 74.070312 196.222656 68.691406 201.902344 68.691406 Z M 201.902344 68.691406 " fill-opacity="1" fill-rule="nonzero"/><path fill="#e79a00" d="M 168.066406 83.851562 C 172.902344 82.460938 180.550781 82.921875 185.851562 83.941406 C 191.15625 85.335938 205.28125 92.707031 220.25 100.726562 C 222.175781 101.703125 222.738281 104.855469 220.25 105.875 C 216.402344 106.152344 223.019531 115.519531 216.261719 118.855469 C 206.125 121.453125 189.890625 136.335938 181.863281 137.542969 C 177.40625 138.515625 172.804688 138.652344 167.832031 137.542969 C 152.15625 134.386719 148.027344 116.769531 140.660156 113.199219 C 138.640625 111.113281 139.675781 107.496094 140.332031 106.753906 C 141.128906 103 158.117188 84.960938 168.066406 83.851562 Z M 168.066406 83.851562 " fill-opacity="1" fill-rule="nonzero"/><path fill="#f2de00" d="M 181.398438 84.726562 C 189.890625 85.652344 207.910156 96.363281 216.59375 100.675781 C 218.753906 101.835938 218.613281 105.3125 216.6875 105.867188 C 214.621094 107.027344 214.011719 105.589844 212.371094 105.359375 C 209.742188 103.96875 205.425781 107.304688 202 109.855469 C 182.242188 124.597656 178.300781 122.976562 162.34375 121.308594 C 156.808594 119.964844 153.191406 118.292969 151.597656 116.996094 C 152.769531 110.503906 165.160156 85.882812 169.242188 85.328125 C 170.273438 83.984375 177.832031 83.9375 181.398438 84.726562 Z M 181.398438 84.726562 " fill-opacity="1" fill-rule="nonzero"/><path fill="#b77200" d="M 184.828125 88.710938 L 186.84375 89.59375 C 188.347656 90.429688 186.515625 92.652344 184.875 91.957031 L 181.917969 90.9375 C 180.179688 89.5 182.246094 87.460938 184.828125 88.710938 Z M 184.828125 88.710938 " fill-opacity="1" fill-rule="nonzero"/><path fill="#c1c1bf" d="M 249.164062 201.285156 C 249.070312 202.769531 248.507812 203.003906 247.238281 201.613281 C 242.921875 194.191406 213.78125 178.476562 199.609375 176.714844 C 196.933594 175.785156 197.074219 174.582031 199.703125 174.210938 C 209.933594 174.210938 217.816406 169.757812 226.730469 169.757812 C 229.171875 169.851562 231.519531 170.78125 232.878906 172.171875 C 236.210938 174.304688 248.320312 190.808594 249.164062 201.289062 Z M 249.164062 201.285156 " fill-opacity="1" fill-rule="nonzero"/><path fill="#b7a400" d="M 94.253906 264.121094 C 109.882812 279.1875 120.113281 302 135.269531 322.632812 C 157.328125 348.875 139.730469 376.089844 103.875 367.886719 C 85.902344 361.207031 60.042969 361.949219 39.253906 355.179688 C 24.660156 351.65625 24.144531 344.515625 31.605469 330.5625 C 34.234375 321.660156 34.46875 307.191406 32.027344 295.136719 C 30.714844 286.003906 34.984375 280.902344 44.839844 279.835938 C 53.191406 279.746094 64.832031 283.082031 71.167969 265.417969 C 75.90625 256.980469 87.261719 256.75 94.253906 264.121094 Z M 94.253906 264.121094 " fill-opacity="1" fill-rule="nonzero"/><path fill="#f2ec00" d="M 76.609375 273.527344 C 76.089844 261.890625 86.179688 259.527344 92.9375 266.621094 C 105 281.226562 116.027344 297.359375 125.976562 316 C 141.839844 341.222656 128.746094 366.027344 104.8125 356.617188 C 92.9375 350.03125 64.546875 347.109375 49.25 344.421875 C 39.019531 343.585938 37.65625 337.003906 41.550781 333.292969 C 46.902344 327.21875 47.464844 312.660156 42.398438 300.234375 C 37.375 292.539062 46.808594 284.050781 54.222656 287.578125 C 61.074219 291.5625 77.265625 282.570312 76.605469 273.527344 Z M 76.609375 273.527344 " fill-opacity="1" fill-rule="nonzero"/></svg>