<svg xmlns="http://www.w3.org/2000/svg" xmlns:xlink="http://www.w3.org/1999/xlink" width="50" zoomAndPan="magnify" viewBox="0 0 37.5 37.499999" height="50" preserveAspectRatio="xMidYMid meet" version="1.0"><defs><clipPath id="id1"><path d="M 0 0 L 37.007812 0 L 37.007812 37.007812 L 0 37.007812 Z M 0 0 " clip-rule="nonzero"/></clipPath><clipPath id="id2"><path d="M 18 10 L 37.007812 10 L 37.007812 12 L 18 12 Z M 18 10 " clip-rule="nonzero"/></clipPath><clipPath id="id3"><path d="M 18 10 L 37.007812 10 L 37.007812 25 L 18 25 Z M 18 10 " clip-rule="nonzero"/></clipPath><clipPath id="id4"><path d="M 5 30 L 16 30 L 16 37.007812 L 5 37.007812 Z M 5 30 " clip-rule="nonzero"/></clipPath><clipPath id="id5"><path d="M 20.34375 1.691406 L 20.894531 1.691406 L 20.894531 2.039062 L 20.34375 2.039062 Z M 20.34375 1.691406 " clip-rule="nonzero"/></clipPath><clipPath id="id6"><path d="M 21.101562 1.753906 C 21.101562 1.753906 20.890625 1.664062 20.6875 1.730469 C 20.480469 1.796875 20.363281 1.992188 20.363281 1.992188 C 20.363281 1.992188 20.574219 2.082031 20.777344 2.015625 C 20.980469 1.949219 21.101562 1.753906 21.101562 1.753906 Z M 21.101562 1.753906 " clip-rule="nonzero"/></clipPath><clipPath id="id7"><path d="M 31 29 L 33 29 L 33 37.007812 L 31 37.007812 Z M 31 29 " clip-rule="nonzero"/></clipPath><clipPath id="id8"><path d="M 29 33 L 34 33 L 34 37.007812 L 29 37.007812 Z M 29 33 " clip-rule="nonzero"/></clipPath></defs><g clip-path="url(#id1)"><path fill="#f2e6dc" d="M 37.5 18.75 C 37.5 29.097656 29.140625 37.488281 18.832031 37.488281 C 8.523438 37.488281 0.164062 29.097656 0.164062 18.75 C 0.164062 8.402344 8.523438 0.0117188 18.832031 0.0117188 C 29.140625 0.0117188 37.5 8.402344 37.5 18.75 " fill-opacity="1" fill-rule="nonzero"/></g><path fill="#ffffff" d="M 5.476562 17.539062 C 6.808594 17.011719 8.335938 17.625 8.945312 18.921875 C 9.617188 20.359375 8.945312 22.058594 7.472656 22.640625 C 6.144531 23.167969 4.613281 22.558594 4.003906 21.257812 C 3.332031 19.820312 4.007812 18.121094 5.476562 17.539062 Z M 2.523438 22.644531 L 2.941406 22.464844 C 3.066406 22.652344 3.207031 22.832031 3.359375 22.992188 L 3.085938 23.359375 L 4.324219 24.289062 L 4.597656 23.917969 C 4.800781 24.019531 5.007812 24.101562 5.222656 24.167969 L 5.167969 24.625 L 6.703125 24.804688 L 6.757812 24.347656 C 6.980469 24.335938 7.199219 24.300781 7.421875 24.25 L 7.601562 24.671875 L 9.023438 24.058594 L 8.839844 23.636719 C 9.03125 23.511719 9.207031 23.371094 9.367188 23.21875 L 9.734375 23.492188 L 10.65625 22.25 L 10.289062 21.972656 C 10.390625 21.773438 10.472656 21.5625 10.539062 21.347656 L 10.992188 21.402344 L 11.171875 19.859375 L 10.71875 19.808594 C 10.703125 19.585938 10.671875 19.363281 10.621094 19.140625 L 11.039062 18.960938 L 10.429688 17.535156 L 10.007812 17.714844 C 9.882812 17.527344 9.742188 17.351562 9.59375 17.1875 L 9.867188 16.820312 L 8.625 15.894531 L 8.351562 16.261719 C 8.152344 16.160156 7.941406 16.078125 7.730469 16.011719 L 7.78125 15.554688 L 6.246094 15.375 L 6.195312 15.832031 C 5.972656 15.847656 5.75 15.878906 5.53125 15.929688 L 5.347656 15.507812 L 3.929688 16.121094 L 4.109375 16.542969 C 3.921875 16.667969 3.746094 16.808594 3.582031 16.960938 L 3.21875 16.6875 L 2.292969 17.933594 L 2.660156 18.207031 C 2.5625 18.40625 2.480469 18.617188 2.414062 18.832031 L 1.957031 18.777344 L 1.777344 20.320312 L 2.230469 20.375 C 2.246094 20.59375 2.277344 20.816406 2.328125 21.039062 L 1.910156 21.222656 L 2.523438 22.644531 " fill-opacity="1" fill-rule="nonzero"/><path fill="#f2e6dc" d="M 6.476562 23.507812 C 5.449219 23.507812 4.449219 23.039062 3.789062 22.191406 C 3.785156 22.179688 3.785156 22.167969 3.792969 22.160156 C 3.804688 22.152344 3.816406 22.15625 3.824219 22.164062 C 4.761719 23.375 6.398438 23.796875 7.808594 23.1875 C 8.632812 22.832031 9.269531 22.175781 9.597656 21.335938 C 9.929688 20.5 9.917969 19.582031 9.5625 18.753906 C 8.910156 17.234375 7.214844 16.402344 5.621094 16.824219 C 5.609375 16.828125 5.597656 16.824219 5.597656 16.8125 C 5.59375 16.800781 5.601562 16.789062 5.609375 16.785156 C 6.390625 16.578125 7.222656 16.660156 7.953125 17.011719 C 8.691406 17.371094 9.273438 17.980469 9.601562 18.738281 C 9.960938 19.574219 9.972656 20.503906 9.636719 21.351562 C 9.300781 22.199219 8.65625 22.863281 7.824219 23.226562 C 7.386719 23.414062 6.929688 23.507812 6.476562 23.507812 " fill-opacity="1" fill-rule="nonzero"/><path fill="#f7f1eb" d="M 30.796875 3.957031 C 31.71875 3.589844 32.785156 4.015625 33.207031 4.917969 C 33.671875 5.914062 33.203125 7.09375 32.183594 7.5 C 31.257812 7.863281 30.195312 7.441406 29.773438 6.539062 C 29.308594 5.539062 29.777344 4.359375 30.796875 3.957031 Z M 28.429688 7.707031 L 28.753906 7.566406 C 28.851562 7.710938 28.960938 7.847656 29.078125 7.972656 L 28.867188 8.257812 L 29.824219 8.976562 L 30.035156 8.691406 C 30.191406 8.769531 30.355469 8.832031 30.519531 8.882812 L 30.476562 9.238281 L 31.667969 9.375 L 31.707031 9.023438 C 31.878906 9.011719 32.050781 8.988281 32.222656 8.949219 L 32.363281 9.273438 L 33.460938 8.796875 L 33.320312 8.472656 C 33.46875 8.375 33.601562 8.265625 33.730469 8.148438 L 34.011719 8.359375 L 34.726562 7.398438 L 34.441406 7.183594 C 34.519531 7.03125 34.582031 6.867188 34.632812 6.699219 L 34.988281 6.742188 L 35.125 5.550781 L 34.773438 5.507812 C 34.761719 5.335938 34.738281 5.164062 34.699219 4.992188 L 35.023438 4.851562 L 34.550781 3.75 L 34.226562 3.890625 C 34.128906 3.742188 34.019531 3.605469 33.902344 3.480469 L 34.113281 3.195312 L 33.15625 2.476562 L 32.941406 2.761719 C 32.789062 2.6875 32.625 2.621094 32.460938 2.570312 L 32.5 2.21875 L 31.3125 2.078125 L 31.273438 2.429688 C 31.101562 2.441406 30.929688 2.464844 30.757812 2.503906 L 30.617188 2.179688 L 29.519531 2.65625 L 29.660156 2.980469 C 29.511719 3.078125 29.375 3.1875 29.25 3.304688 L 28.96875 3.09375 L 28.253906 4.054688 L 28.535156 4.269531 C 28.460938 4.425781 28.394531 4.585938 28.34375 4.753906 L 27.992188 4.710938 L 27.855469 5.90625 L 28.207031 5.945312 C 28.214844 6.117188 28.242188 6.289062 28.28125 6.460938 L 27.957031 6.601562 L 28.429688 7.707031 " fill-opacity="1" fill-rule="nonzero"/><path fill="#ffffff" d="M 31.488281 8.375 C 30.695312 8.375 29.917969 8.015625 29.40625 7.355469 C 29.402344 7.347656 29.402344 7.332031 29.410156 7.324219 C 29.421875 7.320312 29.433594 7.320312 29.441406 7.328125 C 30.164062 8.265625 31.429688 8.59375 32.519531 8.121094 C 33.832031 7.550781 34.441406 6.015625 33.875 4.695312 C 33.371094 3.519531 32.0625 2.878906 30.828125 3.203125 C 30.820312 3.207031 30.808594 3.203125 30.804688 3.191406 C 30.800781 3.179688 30.808594 3.167969 30.820312 3.164062 C 31.425781 3.003906 32.070312 3.066406 32.636719 3.339844 C 33.207031 3.617188 33.660156 4.09375 33.914062 4.679688 C 34.488281 6.019531 33.871094 7.582031 32.535156 8.160156 C 32.195312 8.304688 31.839844 8.375 31.488281 8.375 " fill-opacity="1" fill-rule="nonzero"/><g clip-path="url(#id2)"><path fill="#d3bba3" d="M 37.15625 10.582031 L 18.019531 10.582031 L 18.019531 11.792969 L 37.15625 11.792969 L 37.15625 10.582031 " fill-opacity="1" fill-rule="nonzero"/></g><g clip-path="url(#id3)"><path fill="#ffffff" d="M 37.15625 24.222656 L 18.019531 24.222656 L 18.019531 10.582031 L 37.15625 10.582031 L 37.15625 24.222656 " fill-opacity="1" fill-rule="nonzero"/><path fill="#d3bba3" d="M 18.039062 24.203125 L 37.136719 24.203125 L 37.136719 10.601562 L 18.039062 10.601562 Z M 37.15625 24.246094 L 18.019531 24.246094 C 18.007812 24.246094 18 24.234375 18 24.222656 L 18 10.582031 C 18 10.570312 18.007812 10.5625 18.019531 10.5625 L 37.15625 10.5625 C 37.167969 10.5625 37.175781 10.570312 37.175781 10.582031 L 37.175781 24.222656 C 37.175781 24.234375 37.167969 24.246094 37.15625 24.246094 " fill-opacity="1" fill-rule="nonzero"/></g><path fill="#ffffff" d="M 19.097656 11.195312 C 19.097656 11.347656 18.972656 11.472656 18.824219 11.472656 C 18.671875 11.472656 18.546875 11.347656 18.546875 11.195312 C 18.546875 11.042969 18.671875 10.921875 18.824219 10.921875 C 18.972656 10.921875 19.097656 11.042969 19.097656 11.195312 " fill-opacity="1" fill-rule="nonzero"/><path fill="#ffffff" d="M 19.984375 11.195312 C 19.984375 11.347656 19.859375 11.472656 19.707031 11.472656 C 19.558594 11.472656 19.433594 11.347656 19.433594 11.195312 C 19.433594 11.042969 19.558594 10.921875 19.707031 10.921875 C 19.859375 10.921875 19.984375 11.042969 19.984375 11.195312 " fill-opacity="1" fill-rule="nonzero"/><path fill="#ffffff" d="M 20.871094 11.195312 C 20.871094 11.347656 20.746094 11.472656 20.59375 11.472656 C 20.445312 11.472656 20.320312 11.347656 20.320312 11.195312 C 20.320312 11.042969 20.445312 10.921875 20.59375 10.921875 C 20.746094 10.921875 20.871094 11.042969 20.871094 11.195312 " fill-opacity="1" fill-rule="nonzero"/><path fill="#f7f1eb" d="M 35.949219 23.257812 L 19.226562 23.257812 L 19.226562 13.355469 L 35.949219 13.355469 L 35.949219 23.257812 " fill-opacity="1" fill-rule="nonzero"/><path fill="#e6d0be" d="M 34.871094 22.355469 L 20.023438 22.355469 L 20.023438 21.710938 L 34.871094 21.710938 L 34.871094 22.355469 " fill-opacity="1" fill-rule="nonzero"/><path fill="#efbc73" d="M 31.90625 14.988281 C 31.582031 14.988281 31.320312 15.25 31.320312 15.574219 C 31.320312 15.902344 31.582031 16.164062 31.90625 16.164062 L 34.257812 16.164062 C 34.582031 16.164062 34.847656 15.902344 34.847656 15.574219 C 34.847656 15.25 34.582031 14.988281 34.257812 14.988281 Z M 34.257812 16.207031 L 31.90625 16.207031 C 31.558594 16.207031 31.277344 15.921875 31.277344 15.574219 C 31.277344 15.226562 31.558594 14.945312 31.90625 14.945312 L 34.257812 14.945312 C 34.605469 14.945312 34.886719 15.226562 34.886719 15.574219 C 34.886719 15.921875 34.605469 16.207031 34.257812 16.207031 " fill-opacity="1" fill-rule="nonzero"/><path fill="#d87355" d="M 34.257812 17.902344 L 31.90625 17.902344 C 31.570312 17.902344 31.296875 17.628906 31.296875 17.292969 C 31.296875 16.957031 31.570312 16.683594 31.90625 16.683594 L 34.257812 16.683594 C 34.59375 16.683594 34.867188 16.957031 34.867188 17.292969 C 34.867188 17.628906 34.59375 17.902344 34.257812 17.902344 " fill-opacity="1" fill-rule="nonzero"/><path fill="#776e42" d="M 33.757812 17.21875 L 33.867188 19.035156 L 34.339844 18.460938 C 34.34375 18.457031 34.347656 18.453125 34.355469 18.453125 L 35.097656 18.449219 Z M 33.847656 19.109375 C 33.847656 19.109375 33.84375 19.109375 33.84375 19.109375 C 33.832031 19.105469 33.828125 19.097656 33.828125 19.089844 L 33.714844 17.171875 C 33.714844 17.164062 33.71875 17.15625 33.726562 17.152344 C 33.734375 17.148438 33.742188 17.148438 33.75 17.15625 L 35.164062 18.453125 C 35.167969 18.457031 35.171875 18.46875 35.167969 18.476562 C 35.164062 18.484375 35.15625 18.488281 35.148438 18.488281 L 34.363281 18.496094 L 33.863281 19.101562 C 33.859375 19.105469 33.855469 19.109375 33.847656 19.109375 " fill-opacity="1" fill-rule="nonzero"/><path fill="#d3bba3" d="M 19.894531 1.027344 L 0.757812 1.027344 L 0.757812 2.238281 L 19.894531 2.238281 L 19.894531 1.027344 " fill-opacity="1" fill-rule="nonzero"/><path fill="#d3bba3" d="M 12.773438 14.691406 L 0.757812 14.691406 C 0.746094 14.691406 0.738281 14.679688 0.738281 14.667969 L 0.738281 1.027344 C 0.738281 1.015625 0.746094 1.007812 0.757812 1.007812 L 19.894531 1.007812 C 19.90625 1.007812 19.914062 1.015625 19.914062 1.027344 L 19.914062 6.96875 C 19.914062 6.980469 19.90625 6.988281 19.894531 6.988281 C 19.882812 6.988281 19.871094 6.980469 19.871094 6.96875 L 19.871094 1.046875 L 0.777344 1.046875 L 0.777344 14.648438 L 12.773438 14.648438 C 12.785156 14.648438 12.792969 14.660156 12.792969 14.667969 C 12.792969 14.679688 12.785156 14.691406 12.773438 14.691406 " fill-opacity="1" fill-rule="nonzero"/><path fill="#ffffff" d="M 1.761719 1.4375 C 1.984375 1.734375 1.652344 2.066406 1.359375 1.84375 C 1.136719 1.546875 1.46875 1.214844 1.761719 1.4375 " fill-opacity="1" fill-rule="nonzero"/><path fill="#ffffff" d="M 2.648438 1.4375 C 2.871094 1.734375 2.539062 2.066406 2.246094 1.84375 C 2.019531 1.546875 2.351562 1.214844 2.648438 1.4375 " fill-opacity="1" fill-rule="nonzero"/><path fill="#ffffff" d="M 3.535156 1.441406 C 3.757812 1.734375 3.425781 2.066406 3.132812 1.84375 C 2.90625 1.546875 3.238281 1.214844 3.535156 1.441406 " fill-opacity="1" fill-rule="nonzero"/><path fill="#f7f1eb" d="M 18.769531 13.589844 L 1.882812 13.589844 L 1.882812 3.15625 L 18.769531 3.15625 L 18.769531 13.589844 " fill-opacity="1" fill-rule="nonzero"/><path fill="#8b865c" d="M 2.871094 9.582031 L 10.933594 9.582031 L 10.933594 4.25 L 2.871094 4.25 Z M 10.957031 9.621094 L 2.851562 9.621094 C 2.839844 9.621094 2.832031 9.613281 2.832031 9.601562 L 2.832031 4.230469 C 2.832031 4.21875 2.839844 4.210938 2.851562 4.210938 L 10.957031 4.210938 C 10.96875 4.210938 10.976562 4.21875 10.976562 4.230469 L 10.976562 9.601562 C 10.976562 9.613281 10.96875 9.621094 10.957031 9.621094 " fill-opacity="1" fill-rule="nonzero"/><path fill="#ffffff" d="M 6.667969 8.089844 L 3.542969 8.089844 L 3.542969 4.949219 L 6.667969 4.949219 L 6.667969 8.089844 " fill-opacity="1" fill-rule="nonzero"/><path fill="#8b865c" d="M 3.910156 7.347656 C 3.90625 7.347656 3.898438 7.347656 3.894531 7.34375 C 3.886719 7.335938 3.886719 7.320312 3.894531 7.3125 L 4.820312 6.386719 C 4.828125 6.378906 4.839844 6.378906 4.847656 6.386719 L 5.410156 6.949219 C 5.417969 6.957031 5.417969 6.972656 5.410156 6.980469 C 5.402344 6.988281 5.390625 6.988281 5.382812 6.980469 L 4.835938 6.429688 L 3.925781 7.34375 C 3.921875 7.347656 3.914062 7.347656 3.910156 7.347656 " fill-opacity="1" fill-rule="nonzero"/><path fill="#8b865c" d="M 6.339844 6.886719 C 6.335938 6.886719 6.332031 6.882812 6.328125 6.878906 L 5.636719 6.1875 L 5.210938 6.617188 C 5.203125 6.625 5.191406 6.625 5.179688 6.617188 C 5.171875 6.609375 5.171875 6.597656 5.179688 6.589844 L 5.625 6.144531 C 5.632812 6.136719 5.644531 6.136719 5.652344 6.144531 L 6.355469 6.851562 C 6.363281 6.859375 6.363281 6.871094 6.355469 6.878906 C 6.351562 6.882812 6.347656 6.886719 6.339844 6.886719 " fill-opacity="1" fill-rule="nonzero"/><path fill="#8b865c" d="M 4.597656 5.785156 C 4.597656 5.933594 4.480469 6.050781 4.332031 6.050781 C 4.1875 6.050781 4.070312 5.933594 4.070312 5.785156 C 4.070312 5.640625 4.1875 5.519531 4.332031 5.519531 C 4.480469 5.519531 4.597656 5.640625 4.597656 5.785156 " fill-opacity="1" fill-rule="nonzero"/><path fill="#8b865c" d="M 9.949219 5.007812 L 7.195312 5.007812 C 7.183594 5.007812 7.175781 5 7.175781 4.988281 C 7.175781 4.976562 7.183594 4.96875 7.195312 4.96875 L 9.949219 4.96875 C 9.960938 4.96875 9.96875 4.976562 9.96875 4.988281 C 9.96875 5 9.960938 5.007812 9.949219 5.007812 " fill-opacity="1" fill-rule="nonzero"/><path fill="#8b865c" d="M 9.949219 5.539062 L 7.195312 5.539062 C 7.183594 5.539062 7.175781 5.53125 7.175781 5.519531 C 7.175781 5.507812 7.183594 5.5 7.195312 5.5 L 9.949219 5.5 C 9.960938 5.5 9.96875 5.507812 9.96875 5.519531 C 9.96875 5.53125 9.960938 5.539062 9.949219 5.539062 " fill-opacity="1" fill-rule="nonzero"/><path fill="#8b865c" d="M 9.949219 6.074219 L 7.195312 6.074219 C 7.183594 6.074219 7.175781 6.0625 7.175781 6.050781 C 7.175781 6.039062 7.183594 6.03125 7.195312 6.03125 L 9.949219 6.03125 C 9.960938 6.03125 9.96875 6.039062 9.96875 6.050781 C 9.96875 6.0625 9.960938 6.074219 9.949219 6.074219 " fill-opacity="1" fill-rule="nonzero"/><path fill="#8b865c" d="M 9.949219 6.605469 L 7.195312 6.605469 C 7.183594 6.605469 7.175781 6.59375 7.175781 6.582031 C 7.175781 6.574219 7.183594 6.5625 7.195312 6.5625 L 9.949219 6.5625 C 9.960938 6.5625 9.96875 6.574219 9.96875 6.582031 C 9.96875 6.59375 9.960938 6.605469 9.949219 6.605469 " fill-opacity="1" fill-rule="nonzero"/><path fill="#ffffff" d="M 12.332031 9.175781 L 5.65625 9.175781 L 5.65625 8.539062 L 12.332031 8.539062 L 12.332031 9.175781 " fill-opacity="1" fill-rule="nonzero"/><path fill="#40484c" d="M 27.25 33.679688 C 27.25 34.3125 26.734375 34.828125 26.101562 34.828125 L 13.570312 34.828125 C 12.9375 34.828125 12.421875 34.3125 12.421875 33.679688 L 12.421875 10.601562 C 12.421875 9.964844 12.9375 9.449219 13.570312 9.449219 L 26.101562 9.449219 C 26.734375 9.449219 27.25 9.964844 27.25 10.601562 L 27.25 33.679688 " fill-opacity="1" fill-rule="nonzero"/><path fill="#ffffff" d="M 13.457031 10.761719 C 13.269531 10.761719 13.117188 10.914062 13.117188 11.101562 L 13.117188 33.832031 L 26.214844 33.832031 C 26.402344 33.832031 26.554688 33.679688 26.554688 33.492188 L 26.554688 11.101562 C 26.554688 10.914062 26.402344 10.761719 26.214844 10.761719 L 13.457031 10.761719 " fill-opacity="1" fill-rule="nonzero"/><path fill="#d3bba3" d="M 21.3125 10.15625 L 18.363281 10.15625 C 18.351562 10.15625 18.34375 10.144531 18.34375 10.132812 C 18.34375 10.121094 18.351562 10.113281 18.363281 10.113281 L 21.3125 10.113281 C 21.320312 10.113281 21.332031 10.121094 21.332031 10.132812 C 21.332031 10.144531 21.320312 10.15625 21.3125 10.15625 " fill-opacity="1" fill-rule="nonzero"/><path fill="#e6d0be" d="M 24.648438 26.34375 L 19.519531 26.34375 L 19.519531 21.195312 L 24.648438 21.195312 L 24.648438 26.34375 " fill-opacity="1" fill-rule="nonzero"/><path fill="#ffffff" d="M 20.539062 22.726562 C 20.53125 22.726562 20.527344 22.726562 20.523438 22.722656 L 20.054688 22.253906 C 20.046875 22.246094 20.046875 22.230469 20.054688 22.222656 L 20.523438 21.753906 C 20.53125 21.746094 20.542969 21.746094 20.550781 21.753906 C 20.5625 21.761719 20.5625 21.773438 20.550781 21.78125 L 20.097656 22.238281 L 20.550781 22.695312 C 20.5625 22.703125 20.5625 22.714844 20.550781 22.722656 C 20.546875 22.726562 20.542969 22.726562 20.539062 22.726562 " fill-opacity="1" fill-rule="nonzero"/><path fill="#ffffff" d="M 21.304688 22.726562 C 21.300781 22.726562 21.292969 22.726562 21.289062 22.722656 C 21.28125 22.714844 21.28125 22.703125 21.289062 22.695312 L 21.742188 22.238281 L 21.289062 21.78125 C 21.28125 21.773438 21.28125 21.761719 21.289062 21.753906 C 21.296875 21.746094 21.3125 21.746094 21.320312 21.753906 L 21.789062 22.222656 C 21.796875 22.230469 21.796875 22.246094 21.789062 22.253906 L 21.320312 22.722656 C 21.316406 22.726562 21.308594 22.726562 21.304688 22.726562 " fill-opacity="1" fill-rule="nonzero"/><path fill="#ffffff" d="M 20.722656 22.699219 C 20.71875 22.699219 20.714844 22.699219 20.710938 22.699219 C 20.703125 22.691406 20.699219 22.679688 20.703125 22.671875 L 21.105469 21.785156 C 21.109375 21.773438 21.125 21.769531 21.132812 21.777344 C 21.144531 21.78125 21.148438 21.792969 21.144531 21.800781 L 20.738281 22.6875 C 20.738281 22.695312 20.730469 22.699219 20.722656 22.699219 " fill-opacity="1" fill-rule="nonzero"/><path fill="#f2e6dc" d="M 24.332031 22.851562 L 22.351562 22.851562 L 22.351562 21.632812 L 24.332031 21.632812 L 24.332031 22.851562 " fill-opacity="1" fill-rule="nonzero"/><path fill="#ffffff" d="M 22.707031 23.324219 L 20.042969 23.324219 C 20.03125 23.324219 20.023438 23.316406 20.023438 23.304688 C 20.023438 23.292969 20.03125 23.28125 20.042969 23.28125 L 22.707031 23.28125 C 22.71875 23.28125 22.726562 23.292969 22.726562 23.304688 C 22.726562 23.316406 22.71875 23.324219 22.707031 23.324219 " fill-opacity="1" fill-rule="nonzero"/><path fill="#ffffff" d="M 24.242188 23.835938 L 21.898438 23.835938 C 21.886719 23.835938 21.875 23.828125 21.875 23.816406 C 21.875 23.804688 21.886719 23.796875 21.898438 23.796875 L 24.242188 23.796875 C 24.253906 23.796875 24.261719 23.804688 24.261719 23.816406 C 24.261719 23.828125 24.253906 23.835938 24.242188 23.835938 " fill-opacity="1" fill-rule="nonzero"/><path fill="#ffffff" d="M 21.386719 23.835938 L 20.042969 23.835938 C 20.03125 23.835938 20.023438 23.828125 20.023438 23.816406 C 20.023438 23.804688 20.03125 23.796875 20.042969 23.796875 L 21.386719 23.796875 C 21.398438 23.796875 21.40625 23.804688 21.40625 23.816406 C 21.40625 23.828125 21.398438 23.835938 21.386719 23.835938 " fill-opacity="1" fill-rule="nonzero"/><path fill="#ffffff" d="M 24.242188 24.351562 L 23.0625 24.351562 C 23.050781 24.351562 23.042969 24.339844 23.042969 24.328125 C 23.042969 24.316406 23.050781 24.308594 23.0625 24.308594 L 24.242188 24.308594 C 24.253906 24.308594 24.261719 24.316406 24.261719 24.328125 C 24.261719 24.339844 24.253906 24.351562 24.242188 24.351562 " fill-opacity="1" fill-rule="nonzero"/><path fill="#ffffff" d="M 22.550781 24.351562 L 20.042969 24.351562 C 20.03125 24.351562 20.023438 24.339844 20.023438 24.328125 C 20.023438 24.316406 20.03125 24.308594 20.042969 24.308594 L 22.550781 24.308594 C 22.5625 24.308594 22.570312 24.316406 22.570312 24.328125 C 22.570312 24.339844 22.5625 24.351562 22.550781 24.351562 " fill-opacity="1" fill-rule="nonzero"/><path fill="#ffffff" d="M 23.472656 24.863281 L 20.042969 24.863281 C 20.03125 24.863281 20.023438 24.855469 20.023438 24.84375 C 20.023438 24.832031 20.03125 24.820312 20.042969 24.820312 L 23.472656 24.820312 C 23.484375 24.820312 23.496094 24.832031 23.496094 24.84375 C 23.496094 24.855469 23.484375 24.863281 23.472656 24.863281 " fill-opacity="1" fill-rule="nonzero"/><path fill="#f7f1eb" d="M 24.347656 29.449219 C 24.347656 30.066406 23.84375 30.574219 23.230469 30.574219 L 15.621094 30.574219 C 15.003906 30.574219 14.5 30.066406 14.5 29.449219 C 14.5 28.828125 15.003906 28.324219 15.621094 28.324219 L 23.230469 28.324219 C 23.84375 28.324219 24.347656 28.828125 24.347656 29.449219 " fill-opacity="1" fill-rule="nonzero"/><path fill="#e6d0be" d="M 16.277344 28.761719 C 15.617188 28.761719 15.082031 29.300781 15.082031 29.960938 C 15.082031 30.621094 15.617188 31.160156 16.277344 31.160156 L 23.453125 31.160156 C 24.109375 31.160156 24.644531 30.621094 24.644531 29.960938 C 24.644531 29.300781 24.109375 28.761719 23.453125 28.761719 Z M 23.453125 31.199219 L 16.277344 31.199219 C 15.59375 31.199219 15.042969 30.644531 15.042969 29.960938 C 15.042969 29.277344 15.59375 28.722656 16.277344 28.722656 L 23.453125 28.722656 C 24.132812 28.722656 24.6875 29.277344 24.6875 29.960938 C 24.6875 30.644531 24.132812 31.199219 23.453125 31.199219 " fill-opacity="1" fill-rule="nonzero"/><path fill="#d87355" d="M 16.71875 29.933594 C 16.71875 30.175781 16.519531 30.375 16.277344 30.375 C 16.03125 30.375 15.835938 30.175781 15.835938 29.933594 C 15.835938 29.6875 16.03125 29.488281 16.277344 29.488281 C 16.519531 29.488281 16.71875 29.6875 16.71875 29.933594 " fill-opacity="1" fill-rule="nonzero"/><path fill="#d87355" d="M 18.128906 29.933594 C 18.128906 30.175781 17.933594 30.375 17.6875 30.375 C 17.445312 30.375 17.246094 30.175781 17.246094 29.933594 C 17.246094 29.6875 17.445312 29.488281 17.6875 29.488281 C 17.933594 29.488281 18.128906 29.6875 18.128906 29.933594 " fill-opacity="1" fill-rule="nonzero"/><path fill="#d87355" d="M 19.542969 29.933594 C 19.542969 30.175781 19.34375 30.375 19.101562 30.375 C 18.855469 30.375 18.65625 30.175781 18.65625 29.933594 C 18.65625 29.6875 18.855469 29.488281 19.101562 29.488281 C 19.34375 29.488281 19.542969 29.6875 19.542969 29.933594 " fill-opacity="1" fill-rule="nonzero"/><path fill="#d87355" d="M 20.953125 29.933594 C 20.953125 30.175781 20.753906 30.375 20.511719 30.375 C 20.269531 30.375 20.070312 30.175781 20.070312 29.933594 C 20.070312 29.6875 20.269531 29.488281 20.511719 29.488281 C 20.753906 29.488281 20.953125 29.6875 20.953125 29.933594 " fill-opacity="1" fill-rule="nonzero"/><path fill="#f7f1eb" d="M 25.019531 12.480469 L 14.496094 12.480469 L 14.496094 13.144531 L 25.019531 13.144531 L 25.019531 12.480469 " fill-opacity="1" fill-rule="nonzero"/><path fill="#f7f1eb" d="M 14.515625 19.960938 L 25 19.960938 L 25 12.5 L 14.515625 12.5 Z M 25.019531 20.003906 L 14.496094 20.003906 C 14.484375 20.003906 14.476562 19.992188 14.476562 19.984375 L 14.476562 12.480469 C 14.476562 12.46875 14.484375 12.460938 14.496094 12.460938 L 25.019531 12.460938 C 25.023438 12.460938 25.03125 12.460938 25.035156 12.464844 C 25.039062 12.46875 25.039062 12.476562 25.039062 12.480469 L 25.039062 19.984375 C 25.039062 19.992188 25.03125 20.003906 25.019531 20.003906 " fill-opacity="1" fill-rule="nonzero"/><path fill="#ffffff" d="M 15.085938 12.816406 C 15.085938 12.902344 15.019531 12.96875 14.9375 12.96875 C 14.851562 12.96875 14.785156 12.902344 14.785156 12.816406 C 14.785156 12.734375 14.851562 12.667969 14.9375 12.667969 C 15.019531 12.667969 15.085938 12.734375 15.085938 12.816406 " fill-opacity="1" fill-rule="nonzero"/><path fill="#ffffff" d="M 15.574219 12.816406 C 15.574219 12.902344 15.507812 12.96875 15.425781 12.96875 C 15.339844 12.96875 15.273438 12.902344 15.273438 12.816406 C 15.273438 12.734375 15.339844 12.667969 15.425781 12.667969 C 15.507812 12.667969 15.574219 12.734375 15.574219 12.816406 " fill-opacity="1" fill-rule="nonzero"/><path fill="#ffffff" d="M 16.0625 12.816406 C 16.0625 12.902344 15.996094 12.96875 15.910156 12.96875 C 15.828125 12.96875 15.761719 12.902344 15.761719 12.816406 C 15.761719 12.734375 15.828125 12.667969 15.910156 12.667969 C 15.996094 12.667969 16.0625 12.734375 16.0625 12.816406 " fill-opacity="1" fill-rule="nonzero"/><path fill="#d87355" d="M 17.730469 15.941406 L 22.519531 15.941406 L 22.519531 15.363281 L 17.730469 15.363281 Z M 22.539062 15.980469 L 17.710938 15.980469 C 17.699219 15.980469 17.691406 15.972656 17.691406 15.960938 L 17.691406 15.34375 C 17.691406 15.332031 17.699219 15.320312 17.710938 15.320312 L 22.539062 15.320312 C 22.550781 15.320312 22.558594 15.332031 22.558594 15.34375 L 22.558594 15.960938 C 22.558594 15.972656 22.550781 15.980469 22.539062 15.980469 " fill-opacity="1" fill-rule="nonzero"/><path fill="#f7f1eb" d="M 19.808594 19.277344 L 15 19.277344 L 15 16.429688 L 19.808594 16.429688 L 19.808594 19.277344 " fill-opacity="1" fill-rule="nonzero"/><path fill="#e6d0be" d="M 18.09375 17.648438 C 18.09375 18.03125 17.785156 18.339844 17.402344 18.339844 C 17.023438 18.339844 16.714844 18.03125 16.714844 17.648438 C 16.714844 17.265625 17.023438 16.957031 17.402344 16.957031 C 17.785156 16.957031 18.09375 17.265625 18.09375 17.648438 " fill-opacity="1" fill-rule="nonzero"/><path fill="#ffffff" d="M 17.808594 17.648438 L 17.160156 17.273438 L 17.160156 18.027344 Z M 17.808594 17.648438 " fill-opacity="1" fill-rule="nonzero"/><path fill="#e6d0be" d="M 19.5 19.019531 L 15.226562 19.019531 L 15.226562 18.835938 L 19.5 18.835938 L 19.5 19.019531 " fill-opacity="1" fill-rule="nonzero"/><path fill="#efbc73" d="M 19.777344 14.9375 L 14.949219 14.9375 L 14.949219 13.511719 L 19.777344 13.511719 L 19.777344 14.9375 " fill-opacity="1" fill-rule="nonzero"/><path fill="#363e44" d="M 15.890625 14.625 C 15.882812 14.625 15.875 14.621094 15.871094 14.613281 L 15.660156 13.871094 C 15.65625 13.859375 15.664062 13.847656 15.671875 13.847656 C 15.683594 13.84375 15.695312 13.847656 15.699219 13.859375 L 15.898438 14.554688 L 16.152344 14.128906 C 16.160156 14.117188 16.179688 14.117188 16.1875 14.128906 L 16.445312 14.554688 L 16.644531 13.859375 C 16.648438 13.847656 16.660156 13.84375 16.667969 13.847656 C 16.679688 13.847656 16.6875 13.859375 16.683594 13.871094 L 16.46875 14.613281 C 16.46875 14.621094 16.460938 14.625 16.453125 14.625 C 16.445312 14.628906 16.4375 14.625 16.433594 14.617188 L 16.171875 14.179688 L 15.910156 14.617188 C 15.90625 14.621094 15.898438 14.625 15.890625 14.625 " fill-opacity="1" fill-rule="nonzero"/><path fill="#363e44" d="M 17.65625 14.625 C 17.648438 14.625 17.640625 14.621094 17.640625 14.617188 L 17.375 14.179688 L 17.117188 14.617188 C 17.109375 14.625 17.101562 14.628906 17.09375 14.625 C 17.085938 14.625 17.082031 14.621094 17.078125 14.613281 L 16.867188 13.871094 C 16.863281 13.859375 16.867188 13.847656 16.878906 13.847656 C 16.890625 13.84375 16.902344 13.847656 16.90625 13.859375 L 17.105469 14.554688 L 17.359375 14.128906 C 17.367188 14.117188 17.386719 14.117188 17.394531 14.128906 L 17.648438 14.554688 L 17.847656 13.859375 C 17.851562 13.847656 17.863281 13.84375 17.875 13.847656 C 17.886719 13.847656 17.890625 13.859375 17.886719 13.871094 L 17.675781 14.613281 C 17.671875 14.621094 17.667969 14.625 17.660156 14.625 L 17.65625 14.625 " fill-opacity="1" fill-rule="nonzero"/><path fill="#363e44" d="M 18.863281 14.625 C 18.855469 14.625 18.847656 14.621094 18.84375 14.617188 L 18.582031 14.179688 L 18.320312 14.617188 C 18.316406 14.625 18.308594 14.628906 18.300781 14.625 C 18.292969 14.625 18.285156 14.621094 18.285156 14.613281 L 18.070312 13.871094 C 18.066406 13.859375 18.074219 13.847656 18.085938 13.847656 C 18.097656 13.84375 18.105469 13.847656 18.109375 13.859375 L 18.308594 14.554688 L 18.566406 14.128906 C 18.574219 14.117188 18.59375 14.117188 18.601562 14.128906 L 18.855469 14.554688 L 19.054688 13.859375 C 19.058594 13.847656 19.070312 13.84375 19.082031 13.847656 C 19.089844 13.847656 19.097656 13.859375 19.09375 13.871094 L 18.882812 14.613281 C 18.878906 14.621094 18.871094 14.625 18.863281 14.625 " fill-opacity="1" fill-rule="nonzero"/><path fill="#363e44" d="M 11.710938 21.28125 C 11.6875 21.28125 11.664062 21.285156 11.640625 21.292969 C 11.566406 21.320312 11.511719 21.386719 11.484375 21.484375 C 11.457031 21.585938 11.464844 21.703125 11.507812 21.820312 C 11.589844 22.054688 11.785156 22.199219 11.941406 22.140625 C 12.015625 22.113281 12.070312 22.046875 12.097656 21.949219 C 12.125 21.847656 12.117188 21.730469 12.074219 21.617188 C 12.035156 21.5 11.964844 21.40625 11.882812 21.34375 C 11.824219 21.300781 11.765625 21.28125 11.710938 21.28125 Z M 11.875 22.195312 C 11.714844 22.195312 11.546875 22.050781 11.46875 21.832031 C 11.425781 21.710938 11.417969 21.582031 11.445312 21.476562 C 11.476562 21.363281 11.539062 21.285156 11.625 21.253906 C 11.714844 21.222656 11.8125 21.242188 11.90625 21.308594 C 11.996094 21.375 12.070312 21.480469 12.113281 21.601562 C 12.15625 21.722656 12.164062 21.851562 12.136719 21.960938 C 12.109375 22.070312 12.042969 22.148438 11.957031 22.179688 C 11.929688 22.191406 11.902344 22.195312 11.875 22.195312 " fill-opacity="1" fill-rule="nonzero"/><path fill="#bc8271" d="M 11.664062 21.675781 C 11.417969 20.984375 11.210938 20.601562 10.808594 20.410156 C 10.265625 20.15625 9.683594 20.46875 9.621094 20.503906 C 9.585938 20.523438 9.019531 20.796875 8.925781 21.421875 C 8.832031 22.039062 9.066406 22.6875 9.558594 23.0625 L 9.558594 24.441406 C 9.558594 24.886719 9.917969 25.246094 10.359375 25.246094 L 10.460938 25.246094 C 10.902344 25.246094 11.261719 24.886719 11.261719 24.441406 L 11.261719 23.519531 C 11.542969 23.496094 11.761719 23.414062 11.851562 23.273438 C 12.011719 23.015625 11.953125 22.488281 11.664062 21.675781 " fill-opacity="1" fill-rule="nonzero"/><path fill="#363e44" d="M 11.285156 21.917969 C 11.277344 21.917969 11.269531 21.914062 11.265625 21.90625 C 11.261719 21.894531 11.265625 21.882812 11.273438 21.878906 L 12.011719 21.464844 C 12.019531 21.457031 12.03125 21.460938 12.039062 21.472656 C 12.042969 21.480469 12.039062 21.492188 12.03125 21.5 L 11.292969 21.914062 C 11.292969 21.914062 11.289062 21.917969 11.285156 21.917969 " fill-opacity="1" fill-rule="nonzero"/><path fill="#363e44" d="M 11.273438 23.519531 C 11.261719 23.519531 11.253906 23.507812 11.253906 23.5 L 11.246094 23.160156 L 11.285156 23.160156 L 11.265625 23.160156 L 11.285156 23.160156 L 11.292969 23.496094 C 11.292969 23.507812 11.285156 23.519531 11.273438 23.519531 " fill-opacity="1" fill-rule="nonzero"/><path fill="#363e44" d="M 11.148438 22.273438 C 11.140625 22.273438 11.136719 22.273438 11.132812 22.265625 C 11.09375 22.226562 11.058594 22.1875 11.023438 22.144531 C 10.996094 22.113281 10.964844 22.078125 10.933594 22.042969 C 10.925781 22.03125 10.925781 22.019531 10.933594 22.011719 C 10.941406 22.003906 10.953125 22.003906 10.960938 22.015625 C 10.996094 22.050781 11.027344 22.085938 11.054688 22.117188 C 11.089844 22.160156 11.125 22.199219 11.164062 22.238281 C 11.171875 22.25 11.167969 22.261719 11.160156 22.269531 C 11.15625 22.273438 11.152344 22.273438 11.148438 22.273438 " fill-opacity="1" fill-rule="nonzero"/><path fill="#363e44" d="M 11.109375 20.121094 C 11.171875 20.167969 11.296875 20.257812 11.386719 20.421875 C 11.707031 21.015625 11.160156 21.78125 11.121094 21.832031 C 11.175781 21.730469 11.28125 21.511719 11.277344 21.21875 C 11.277344 20.914062 11.167969 20.757812 11.109375 20.660156 C 11.117188 20.820312 11.105469 21.066406 10.917969 21.363281 C 10.605469 21.863281 10.171875 22.097656 9.800781 22.210938 C 9.464844 22.3125 8.875 22.335938 8.65625 22.011719 C 8.324219 21.523438 8.667969 20.75 9.144531 20.339844 C 9.703125 19.855469 10.597656 19.757812 11.109375 20.121094 " fill-opacity="1" fill-rule="nonzero"/><path fill="#363e44" d="M 8.804688 20.773438 C 8.804688 21.050781 8.582031 21.273438 8.308594 21.273438 C 8.035156 21.273438 7.8125 21.050781 7.8125 20.773438 C 7.8125 20.5 8.035156 20.273438 8.308594 20.273438 C 8.582031 20.273438 8.804688 20.5 8.804688 20.773438 " fill-opacity="1" fill-rule="nonzero"/><path fill="#363e44" d="M 8.421875 20.625 C 8.335938 20.625 8.238281 20.648438 8.144531 20.695312 C 8.03125 20.757812 7.941406 20.847656 7.894531 20.949219 C 7.847656 21.046875 7.84375 21.148438 7.886719 21.226562 C 7.976562 21.398438 8.238281 21.4375 8.46875 21.3125 C 8.582031 21.253906 8.671875 21.164062 8.722656 21.0625 C 8.769531 20.960938 8.773438 20.863281 8.730469 20.78125 C 8.675781 20.679688 8.558594 20.625 8.421875 20.625 Z M 8.191406 21.425781 C 8.042969 21.425781 7.910156 21.363281 7.851562 21.246094 C 7.800781 21.152344 7.804688 21.042969 7.859375 20.929688 C 7.910156 20.820312 8.007812 20.722656 8.128906 20.660156 C 8.378906 20.527344 8.667969 20.574219 8.765625 20.761719 C 8.816406 20.855469 8.8125 20.96875 8.757812 21.078125 C 8.707031 21.1875 8.609375 21.285156 8.488281 21.347656 C 8.390625 21.402344 8.289062 21.425781 8.191406 21.425781 " fill-opacity="1" fill-rule="nonzero"/><path fill="#363e44" d="M 10.84375 22.527344 C 10.839844 22.527344 10.839844 22.523438 10.835938 22.523438 C 10.636719 22.398438 10.535156 22.175781 10.59375 21.976562 C 10.632812 21.835938 10.757812 21.675781 10.941406 21.667969 C 11.085938 21.660156 11.226562 21.746094 11.300781 21.886719 C 11.308594 21.894531 11.304688 21.910156 11.292969 21.914062 C 11.285156 21.917969 11.273438 21.914062 11.265625 21.90625 C 11.199219 21.78125 11.074219 21.703125 10.945312 21.710938 C 10.78125 21.71875 10.667969 21.859375 10.632812 21.988281 C 10.582031 22.167969 10.671875 22.375 10.855469 22.488281 C 10.867188 22.492188 10.867188 22.507812 10.863281 22.515625 C 10.859375 22.523438 10.851562 22.527344 10.84375 22.527344 " fill-opacity="1" fill-rule="nonzero"/><g clip-path="url(#id4)"><path fill="#363e44" d="M 13.597656 31.1875 C 13.925781 32.023438 14.246094 32.898438 14.558594 33.804688 C 14.980469 35.03125 15.347656 36.21875 15.671875 37.359375 C 14.113281 37.359375 12.558594 37.359375 11.003906 37.359375 C 10.808594 37.035156 10.609375 36.710938 10.414062 36.390625 C 10.3125 36.773438 10.273438 36.960938 10.171875 37.34375 C 8.734375 37.34375 7.238281 37.34375 5.800781 37.34375 C 5.878906 36.085938 6.0625 34.832031 6.441406 33.257812 C 6.65625 32.371094 6.902344 31.554688 7.164062 30.808594 C 9.308594 30.933594 11.453125 31.0625 13.597656 31.1875 " fill-opacity="1" fill-rule="nonzero"/></g><path fill="#40484c" d="M 11.101562 33.582031 L 13.542969 33.367188 L 13.648438 34.566406 C 13.707031 35.246094 13.207031 35.84375 12.535156 35.902344 C 11.859375 35.960938 11.265625 35.460938 11.207031 34.78125 L 11.101562 33.582031 " fill-opacity="1" fill-rule="nonzero"/><path fill="#bc8271" d="M 15.566406 25.246094 C 15.835938 25.304688 16.066406 25.136719 16.3125 25.199219 C 18.925781 25.820312 20.242188 26.546875 19.921875 27.613281 C 19.722656 28.292969 17.847656 28.625 15.355469 28.230469 C 15.410156 27.21875 15.472656 26.46875 15.566406 25.246094 " fill-opacity="1" fill-rule="nonzero"/><path fill="#bc8271" d="M 4.667969 25.925781 C 1.464844 28.234375 0 29.835938 0.882812 30.808594 C 1.394531 31.371094 3.691406 30.753906 6.304688 29.046875 C 5.8125 28.078125 5.292969 27.085938 4.667969 25.925781 " fill-opacity="1" fill-rule="nonzero"/><path fill="#8b865c" d="M 3.765625 26.015625 C 3.765625 26.015625 6.875 24.402344 9.851562 24.296875 C 12.386719 24.203125 16.3125 25.195312 16.3125 25.195312 L 16.347656 29.1875 L 14.8125 29.363281 L 15.132812 32.308594 L 5.980469 32.773438 L 5.804688 30.191406 L 4.8125 30.40625 L 3.765625 26.015625 " fill-opacity="1" fill-rule="nonzero"/><path fill="#bc8271" d="M 17.0625 26.449219 C 17.015625 25.664062 16.984375 23.867188 17.039062 22.492188 C 17.09375 21.050781 17.386719 18.933594 17.679688 18.976562 C 17.847656 19.003906 17.867188 19.300781 17.867188 20.097656 C 17.910156 20.058594 18.046875 19.964844 18.199219 20.011719 C 18.425781 20.085938 18.429688 20.285156 18.4375 20.304688 C 18.449219 20.289062 18.589844 20.132812 18.746094 20.15625 C 18.925781 20.183594 19.027344 20.304688 19.0625 20.441406 C 19.09375 20.40625 19.226562 20.285156 19.378906 20.3125 C 19.535156 20.339844 19.679688 20.484375 19.667969 20.648438 C 19.652344 20.953125 19.585938 21.859375 19.609375 22.300781 C 19.652344 23.175781 20.214844 26.257812 19.941406 27.535156 C 18.980469 26.945312 18.027344 27.039062 17.0625 26.449219 " fill-opacity="1" fill-rule="nonzero"/><path fill="#363e44" d="M 18.820312 26.066406 C 18.816406 26.066406 18.816406 26.066406 18.8125 26.066406 C 18.355469 25.839844 17.761719 25.628906 17.003906 25.421875 C 16.992188 25.417969 16.984375 25.40625 16.988281 25.398438 C 16.992188 25.386719 17.003906 25.378906 17.011719 25.382812 C 17.777344 25.589844 18.371094 25.800781 18.828125 26.027344 C 18.839844 26.035156 18.84375 26.046875 18.839844 26.054688 C 18.835938 26.0625 18.828125 26.066406 18.820312 26.066406 " fill-opacity="1" fill-rule="nonzero"/><path fill="#363e44" d="M 17.59375 20.570312 L 17.589844 20.570312 L 17.355469 20.523438 C 17.34375 20.519531 17.335938 20.507812 17.339844 20.5 C 17.339844 20.488281 17.351562 20.480469 17.363281 20.480469 L 17.597656 20.53125 C 17.609375 20.53125 17.617188 20.542969 17.613281 20.554688 C 17.613281 20.5625 17.605469 20.570312 17.59375 20.570312 " fill-opacity="1" fill-rule="nonzero"/><path fill="#363e44" d="M 18.195312 20.691406 L 18.191406 20.691406 L 17.953125 20.644531 C 17.941406 20.640625 17.9375 20.632812 17.9375 20.621094 C 17.941406 20.609375 17.949219 20.601562 17.960938 20.605469 L 18.199219 20.652344 C 18.207031 20.65625 18.214844 20.664062 18.214844 20.675781 C 18.210938 20.6875 18.203125 20.691406 18.195312 20.691406 " fill-opacity="1" fill-rule="nonzero"/><path fill="#363e44" d="M 18.804688 20.808594 L 18.800781 20.808594 L 18.566406 20.761719 C 18.554688 20.757812 18.546875 20.746094 18.550781 20.738281 C 18.550781 20.726562 18.5625 20.71875 18.574219 20.722656 L 18.808594 20.769531 C 18.820312 20.769531 18.828125 20.78125 18.824219 20.792969 C 18.824219 20.804688 18.8125 20.808594 18.804688 20.808594 " fill-opacity="1" fill-rule="nonzero"/><path fill="#363e44" d="M 19.355469 20.925781 L 19.351562 20.925781 L 19.117188 20.878906 C 19.105469 20.875 19.097656 20.867188 19.101562 20.855469 C 19.101562 20.84375 19.113281 20.835938 19.125 20.839844 L 19.359375 20.886719 C 19.371094 20.890625 19.378906 20.898438 19.375 20.910156 C 19.375 20.921875 19.367188 20.925781 19.355469 20.925781 " fill-opacity="1" fill-rule="nonzero"/><path fill="#d87355" d="M 7.910156 32.292969 L 4.480469 34.203125 L 4.363281 33.988281 L 2.777344 33.960938 L 1.960938 35.324219 L 2.152344 35.671875 L 3.539062 34.902344 L 3.925781 35.601562 L 2.539062 36.371094 L 2.730469 36.71875 L 4.316406 36.746094 L 5.132812 35.382812 L 5.015625 35.167969 L 8.445312 33.261719 L 8.5625 33.472656 L 10.148438 33.5 L 10.964844 32.136719 L 10.773438 31.789062 L 9.386719 32.5625 L 9 31.863281 L 10.386719 31.089844 L 10.195312 30.746094 L 8.609375 30.71875 L 7.792969 32.082031 L 7.910156 32.292969 " fill-opacity="1" fill-rule="nonzero"/><path fill="#bc8271" d="M 2.441406 28.191406 C 4.734375 29.957031 6.394531 31.164062 6.894531 31.558594 C 6.945312 31.597656 7.039062 31.671875 7.128906 31.792969 C 7.460938 32.25 7.160156 32.691406 7.363281 33.3125 C 7.515625 33.777344 7.808594 33.9375 7.726562 34.183594 C 7.6875 34.3125 7.441406 34.480469 7.230469 34.253906 C 7.34375 34.371094 7.472656 34.5 7.332031 34.636719 C 7.160156 34.789062 6.929688 34.683594 6.8125 34.539062 C 6.917969 34.667969 6.859375 34.828125 6.742188 34.855469 C 6.566406 34.890625 6.347656 34.738281 6.265625 34.648438 C 6.320312 34.765625 6.304688 34.90625 6.207031 34.9375 C 6.023438 34.992188 5.855469 34.863281 5.628906 34.523438 C 5.371094 34.140625 5.304688 33.753906 5.269531 33.507812 C 3.535156 32.4375 2.394531 31.722656 0.976562 30.886719 C 0.6875 30.714844 1.660156 28.933594 2.441406 28.191406 " fill-opacity="1" fill-rule="nonzero"/><path fill="#363e44" d="M 4.675781 29.941406 C 4.671875 29.941406 4.667969 29.9375 4.664062 29.933594 C 3.96875 29.414062 3.328125 28.925781 2.695312 28.4375 C 2.6875 28.433594 2.683594 28.417969 2.691406 28.410156 C 2.699219 28.402344 2.710938 28.398438 2.71875 28.40625 C 3.351562 28.890625 3.996094 29.378906 4.6875 29.902344 C 4.699219 29.910156 4.699219 29.921875 4.691406 29.929688 C 4.6875 29.9375 4.683594 29.941406 4.675781 29.941406 " fill-opacity="1" fill-rule="nonzero"/><path fill="#363e44" d="M 7.21875 34.261719 C 7.214844 34.261719 7.207031 34.261719 7.203125 34.257812 C 7.136719 34.183594 7.078125 34.101562 7.03125 34.011719 C 6.988281 33.921875 6.953125 33.832031 6.933594 33.734375 C 6.929688 33.726562 6.9375 33.714844 6.945312 33.710938 C 6.957031 33.710938 6.96875 33.714844 6.972656 33.726562 C 6.992188 33.820312 7.023438 33.90625 7.066406 33.992188 C 7.113281 34.078125 7.167969 34.15625 7.234375 34.230469 C 7.242188 34.238281 7.242188 34.25 7.234375 34.257812 C 7.230469 34.261719 7.226562 34.261719 7.21875 34.261719 " fill-opacity="1" fill-rule="nonzero"/><path fill="#363e44" d="M 6.832031 34.550781 C 6.828125 34.550781 6.824219 34.550781 6.820312 34.546875 C 6.730469 34.46875 6.65625 34.382812 6.589844 34.285156 C 6.527344 34.191406 6.480469 34.089844 6.445312 33.984375 C 6.441406 33.972656 6.445312 33.960938 6.457031 33.957031 C 6.46875 33.953125 6.480469 33.960938 6.484375 33.96875 C 6.515625 34.074219 6.566406 34.171875 6.625 34.261719 C 6.6875 34.355469 6.761719 34.441406 6.847656 34.515625 C 6.855469 34.523438 6.855469 34.535156 6.847656 34.542969 C 6.84375 34.550781 6.839844 34.550781 6.832031 34.550781 " fill-opacity="1" fill-rule="nonzero"/><path fill="#363e44" d="M 6.265625 34.65625 C 6.257812 34.65625 6.253906 34.65625 6.25 34.648438 C 6.167969 34.554688 6.101562 34.453125 6.046875 34.339844 C 5.996094 34.230469 5.957031 34.117188 5.933594 34 C 5.933594 33.988281 5.941406 33.976562 5.949219 33.976562 C 5.960938 33.972656 5.972656 33.980469 5.976562 33.992188 C 5.996094 34.105469 6.03125 34.21875 6.082031 34.324219 C 6.136719 34.429688 6.203125 34.53125 6.28125 34.625 C 6.289062 34.632812 6.285156 34.644531 6.277344 34.652344 C 6.273438 34.65625 6.269531 34.65625 6.265625 34.65625 " fill-opacity="1" fill-rule="nonzero"/><path fill="#efbc73" d="M 21.125 8.800781 C 21.054688 8.949219 18.4375 9.386719 16.847656 9.640625 C 16.132812 9.753906 15.425781 9.40625 15.074219 8.769531 C 14.730469 8.136719 14.929688 7.34375 15.535156 6.957031 L 19.035156 4.722656 L 21.125 8.800781 " fill-opacity="1" fill-rule="nonzero"/><path fill="#efbc73" d="M 29.167969 10.890625 C 30.175781 10.988281 31.015625 10.128906 30.894531 9.117188 C 30.765625 8.035156 30.011719 6.253906 28.46875 4.289062 C 27.535156 3.097656 25.96875 2.605469 24.527344 3.046875 L 19.035156 4.722656 L 20.859375 9.457031 L 27.449219 9.457031 L 29.167969 10.890625 " fill-opacity="1" fill-rule="nonzero"/><path fill="#363e44" d="M 26.871094 7.667969 C 26.863281 7.667969 26.855469 7.664062 26.851562 7.652344 L 26.28125 6.21875 C 26.277344 6.207031 26.28125 6.195312 26.292969 6.191406 C 26.300781 6.1875 26.3125 6.195312 26.316406 6.203125 L 26.890625 7.640625 C 26.894531 7.648438 26.890625 7.660156 26.878906 7.664062 C 26.875 7.667969 26.875 7.667969 26.871094 7.667969 " fill-opacity="1" fill-rule="nonzero"/><path fill="#363e44" d="M 26.871094 8.339844 C 26.867188 8.339844 26.867188 8.339844 26.863281 8.335938 C 26.851562 8.332031 26.847656 8.320312 26.851562 8.308594 C 27.191406 7.542969 27.851562 7.316406 28.347656 7.261719 C 28.882812 7.203125 29.34375 7.328125 29.347656 7.328125 C 29.359375 7.332031 29.363281 7.34375 29.359375 7.351562 C 29.359375 7.363281 29.347656 7.371094 29.335938 7.367188 C 29.332031 7.367188 28.878906 7.242188 28.351562 7.300781 C 27.648438 7.378906 27.15625 7.722656 26.890625 8.328125 C 26.886719 8.335938 26.878906 8.339844 26.871094 8.339844 " fill-opacity="1" fill-rule="nonzero"/><path fill="#363e44" d="M 20.730469 9 C 20.722656 9 20.714844 8.996094 20.710938 8.988281 L 20.027344 7.277344 L 19.277344 6.628906 C 19.269531 6.621094 19.269531 6.609375 19.277344 6.601562 C 19.285156 6.59375 19.296875 6.589844 19.304688 6.597656 L 20.054688 7.25 C 20.058594 7.253906 20.0625 7.253906 20.0625 7.257812 L 20.75 8.972656 C 20.753906 8.984375 20.75 8.996094 20.738281 9 C 20.734375 9 20.734375 9 20.730469 9 " fill-opacity="1" fill-rule="nonzero"/><path fill="#84524d" d="M 17.914062 7.261719 C 17.914062 7.261719 16.957031 5.164062 16.390625 3.988281 C 15.796875 2.753906 14.746094 1.015625 14.503906 1.167969 C 14.367188 1.253906 14.460938 1.519531 14.761719 2.214844 C 14.714844 2.195312 14.546875 2.171875 14.433594 2.273438 C 14.261719 2.421875 14.347656 2.59375 14.347656 2.609375 C 14.328125 2.601562 14.136719 2.519531 14.007812 2.601562 C 13.859375 2.691406 13.832031 2.835938 13.851562 2.96875 C 13.808594 2.949219 13.621094 2.898438 13.5 2.984375 C 13.34375 3.089844 13.359375 3.304688 13.429688 3.445312 C 13.558594 3.703125 13.929688 4.402344 14.078125 4.796875 C 14.371094 5.574219 14.820312 8.875 15.992188 9.277344 C 16.875 9.582031 18.117188 8.550781 17.914062 7.261719 " fill-opacity="1" fill-rule="nonzero"/><path fill="#363e44" d="M 14.636719 3.109375 Z M 13.984375 3.792969 C 13.890625 3.792969 13.78125 3.746094 13.683594 3.617188 C 13.679688 3.609375 13.679688 3.597656 13.6875 3.589844 C 13.699219 3.582031 13.710938 3.585938 13.71875 3.59375 C 13.859375 3.777344 14.011719 3.777344 14.097656 3.722656 C 14.183594 3.664062 14.1875 3.527344 14.144531 3.421875 C 14.140625 3.410156 14.144531 3.398438 14.15625 3.390625 C 14.167969 3.386719 14.179688 3.390625 14.1875 3.398438 C 14.292969 3.53125 14.445312 3.566406 14.566406 3.484375 C 14.660156 3.425781 14.6875 3.238281 14.628906 3.109375 C 14.625 3.097656 14.628906 3.085938 14.636719 3.078125 C 14.648438 3.074219 14.660156 3.074219 14.667969 3.085938 C 14.78125 3.21875 14.984375 3.257812 15.070312 3.195312 C 15.117188 3.160156 15.144531 3.117188 15.152344 3.058594 C 15.191406 2.828125 14.925781 2.464844 14.78125 2.269531 L 14.753906 2.230469 C 14.746094 2.222656 14.746094 2.210938 14.757812 2.203125 C 14.765625 2.195312 14.777344 2.199219 14.785156 2.207031 L 14.816406 2.246094 C 14.960938 2.445312 15.234375 2.816406 15.195312 3.066406 C 15.183594 3.132812 15.148438 3.1875 15.09375 3.230469 C 15.003906 3.292969 14.824219 3.273438 14.691406 3.164062 C 14.722656 3.300781 14.683594 3.457031 14.589844 3.519531 C 14.46875 3.601562 14.316406 3.578125 14.203125 3.472656 C 14.222656 3.582031 14.203125 3.699219 14.117188 3.757812 C 14.082031 3.78125 14.035156 3.792969 13.984375 3.792969 " fill-opacity="1" fill-rule="nonzero"/><path fill="#84524d" d="M 14.71875 2.753906 C 14.828125 2.601562 15.484375 2.894531 15.609375 2.953125 L 15.355469 3.679688 C 15.296875 3.625 14.59375 2.933594 14.71875 2.753906 " fill-opacity="1" fill-rule="nonzero"/><path fill="#363e44" d="M 15.355469 3.699219 C 15.347656 3.699219 15.34375 3.699219 15.339844 3.695312 C 15.210938 3.566406 14.570312 2.929688 14.703125 2.742188 C 14.808594 2.59375 15.320312 2.796875 15.617188 2.933594 C 15.625 2.9375 15.632812 2.949219 15.625 2.960938 C 15.621094 2.972656 15.609375 2.976562 15.601562 2.972656 C 15.136719 2.757812 14.796875 2.679688 14.738281 2.765625 C 14.640625 2.898438 15.109375 3.410156 15.367188 3.664062 C 15.375 3.671875 15.375 3.683594 15.367188 3.691406 C 15.363281 3.695312 15.359375 3.699219 15.355469 3.699219 " fill-opacity="1" fill-rule="nonzero"/><path fill="#ffffff" d="M 17.859375 7.910156 C 20.390625 8.609375 21.875 11.238281 21.179688 13.777344 C 20.484375 16.316406 17.867188 17.8125 15.335938 17.109375 C 12.804688 16.410156 11.316406 13.785156 12.015625 11.246094 C 12.710938 8.703125 15.328125 7.210938 17.859375 7.910156 " fill-opacity="1" fill-rule="nonzero"/><path fill="#363e44" d="M 16.597656 7.75 C 14.515625 7.75 12.601562 9.136719 12.023438 11.246094 C 11.6875 12.472656 11.847656 13.757812 12.472656 14.863281 C 13.097656 15.96875 14.117188 16.761719 15.339844 17.101562 C 15.757812 17.214844 16.183594 17.273438 16.605469 17.273438 C 17.414062 17.273438 18.214844 17.0625 18.941406 16.648438 C 20.042969 16.023438 20.832031 15 21.171875 13.773438 C 21.507812 12.546875 21.347656 11.265625 20.722656 10.160156 C 20.09375 9.054688 19.078125 8.257812 17.855469 7.921875 C 17.4375 7.804688 17.015625 7.75 16.597656 7.75 Z M 16.605469 17.292969 C 16.179688 17.292969 15.753906 17.238281 15.332031 17.121094 C 14.105469 16.78125 13.082031 15.984375 12.457031 14.871094 C 11.828125 13.761719 11.667969 12.472656 12.003906 11.242188 C 12.34375 10.011719 13.136719 8.984375 14.242188 8.355469 C 15.351562 7.722656 16.632812 7.5625 17.859375 7.902344 C 19.089844 8.238281 20.109375 9.039062 20.738281 10.148438 C 21.367188 11.257812 21.527344 12.546875 21.191406 13.78125 C 20.851562 15.011719 20.058594 16.035156 18.949219 16.667969 C 18.222656 17.082031 17.417969 17.292969 16.605469 17.292969 " fill-opacity="1" fill-rule="nonzero"/><path fill="#363e44" d="M 25.269531 14.714844 L 25.265625 14.714844 L 24.242188 14.445312 C 24.230469 14.441406 24.226562 14.429688 24.226562 14.421875 C 24.230469 14.410156 24.242188 14.402344 24.253906 14.40625 L 25.273438 14.675781 C 25.285156 14.675781 25.292969 14.6875 25.289062 14.699219 C 25.289062 14.707031 25.277344 14.714844 25.269531 14.714844 " fill-opacity="1" fill-rule="nonzero"/><path fill="#363e44" d="M 25.175781 15.070312 L 25.171875 15.070312 L 24.148438 14.800781 C 24.136719 14.796875 24.132812 14.785156 24.132812 14.777344 C 24.136719 14.765625 24.148438 14.757812 24.160156 14.761719 L 25.179688 15.03125 C 25.191406 15.03125 25.199219 15.042969 25.195312 15.054688 C 25.191406 15.0625 25.183594 15.070312 25.175781 15.070312 " fill-opacity="1" fill-rule="nonzero"/><path fill="#363e44" d="M 27.703125 15.519531 Z M 24.230469 14.101562 C 24.148438 14.101562 24.074219 14.15625 24.050781 14.238281 L 23.882812 14.863281 C 23.855469 14.960938 23.914062 15.066406 24.011719 15.09375 L 27.097656 15.9375 C 27.339844 16.007812 27.589844 15.863281 27.65625 15.621094 L 27.683594 15.515625 C 27.714844 15.398438 27.699219 15.273438 27.640625 15.167969 C 27.582031 15.0625 27.484375 14.988281 27.367188 14.953125 L 24.28125 14.109375 C 24.265625 14.101562 24.246094 14.101562 24.230469 14.101562 Z M 27.21875 15.996094 C 27.175781 15.996094 27.128906 15.992188 27.085938 15.980469 L 24 15.132812 C 23.878906 15.097656 23.808594 14.972656 23.84375 14.851562 L 24.011719 14.226562 C 24.046875 14.105469 24.171875 14.035156 24.289062 14.066406 L 27.375 14.914062 C 27.503906 14.949219 27.609375 15.03125 27.675781 15.148438 C 27.742188 15.261719 27.757812 15.398438 27.722656 15.527344 L 27.695312 15.628906 C 27.636719 15.851562 27.433594 15.996094 27.21875 15.996094 " fill-opacity="1" fill-rule="nonzero"/><path fill="#363e44" d="M 21.996094 14.304688 L 23.855469 14.8125 L 24.003906 14.269531 L 22.140625 13.761719 Z M 23.871094 14.855469 L 23.867188 14.855469 L 21.964844 14.335938 C 21.957031 14.335938 21.953125 14.332031 21.953125 14.328125 C 21.949219 14.324219 21.949219 14.316406 21.949219 14.3125 L 22.109375 13.730469 C 22.109375 13.71875 22.121094 13.714844 22.132812 13.714844 L 24.035156 14.234375 C 24.039062 14.238281 24.042969 14.242188 24.046875 14.246094 C 24.050781 14.25 24.050781 14.253906 24.046875 14.261719 L 23.890625 14.84375 C 23.886719 14.851562 23.878906 14.855469 23.871094 14.855469 " fill-opacity="1" fill-rule="nonzero"/><path fill="#363e44" d="M 16.589844 7.207031 C 15.6875 7.207031 14.792969 7.441406 13.988281 7.902344 C 12.761719 8.601562 11.878906 9.738281 11.503906 11.105469 C 11.128906 12.46875 11.308594 13.898438 12.003906 15.128906 C 12.703125 16.359375 13.835938 17.246094 15.195312 17.621094 C 15.660156 17.75 16.132812 17.8125 16.605469 17.8125 C 17.507812 17.8125 18.398438 17.578125 19.207031 17.121094 C 20.433594 16.421875 21.3125 15.285156 21.6875 13.917969 C 22.0625 12.554688 21.886719 11.125 21.1875 9.890625 C 20.492188 8.660156 19.359375 7.777344 18 7.398438 C 17.53125 7.269531 17.058594 7.207031 16.589844 7.207031 Z M 16.605469 17.855469 C 16.128906 17.855469 15.652344 17.789062 15.183594 17.660156 C 13.8125 17.28125 12.671875 16.390625 11.96875 15.148438 C 11.265625 13.910156 11.089844 12.46875 11.464844 11.09375 C 11.84375 9.71875 12.730469 8.570312 13.96875 7.867188 C 15.203125 7.160156 16.640625 6.980469 18.007812 7.359375 C 19.378906 7.738281 20.523438 8.632812 21.222656 9.871094 C 21.925781 11.113281 22.105469 12.554688 21.726562 13.929688 C 21.351562 15.304688 20.460938 16.449219 19.226562 17.15625 C 18.414062 17.617188 17.515625 17.855469 16.605469 17.855469 " fill-opacity="1" fill-rule="nonzero"/><path fill="#d87355" d="M 14.074219 11.046875 L 14.535156 11.21875 C 14.667969 11.269531 14.785156 11.273438 14.890625 11.238281 C 14.996094 11.199219 15.070312 11.125 15.113281 11.007812 C 15.160156 10.882812 15.15625 10.773438 15.105469 10.6875 C 15.050781 10.605469 14.949219 10.53125 14.796875 10.476562 L 14.347656 10.308594 Z M 13.984375 11.292969 L 13.675781 12.128906 L 14.175781 12.316406 C 14.320312 12.367188 14.445312 12.371094 14.554688 12.328125 C 14.664062 12.285156 14.742188 12.199219 14.789062 12.070312 C 14.894531 11.789062 14.792969 11.59375 14.492188 11.480469 Z M 13.277344 12.261719 L 14.136719 9.945312 L 14.890625 10.226562 C 15.140625 10.320312 15.3125 10.441406 15.398438 10.59375 C 15.488281 10.746094 15.492188 10.921875 15.417969 11.125 C 15.378906 11.234375 15.3125 11.320312 15.21875 11.378906 C 15.125 11.441406 15.019531 11.472656 14.898438 11.480469 C 15.007812 11.5625 15.082031 11.664062 15.117188 11.789062 C 15.15625 11.914062 15.148438 12.046875 15.097656 12.179688 C 15.019531 12.390625 14.890625 12.527344 14.714844 12.597656 C 14.535156 12.664062 14.324219 12.652344 14.078125 12.5625 L 13.277344 12.261719 " fill-opacity="1" fill-rule="nonzero"/><path fill="#d87355" d="M 17.785156 11.304688 L 17.203125 12.882812 C 17.121094 13.101562 16.984375 13.253906 16.796875 13.34375 C 16.609375 13.429688 16.394531 13.441406 16.15625 13.371094 L 16.074219 13.34375 C 15.824219 13.25 15.644531 13.105469 15.546875 12.914062 C 15.445312 12.71875 15.441406 12.503906 15.527344 12.261719 L 16.113281 10.683594 L 16.414062 10.792969 L 15.832031 12.363281 C 15.769531 12.53125 15.769531 12.679688 15.824219 12.808594 C 15.882812 12.933594 15.996094 13.03125 16.167969 13.09375 C 16.339844 13.15625 16.488281 13.160156 16.613281 13.101562 C 16.742188 13.042969 16.835938 12.929688 16.898438 12.761719 L 17.480469 11.191406 L 17.785156 11.304688 " fill-opacity="1" fill-rule="nonzero"/><path fill="#d87355" d="M 19.226562 14.136719 C 19.105469 14.21875 18.964844 14.261719 18.804688 14.265625 C 18.644531 14.269531 18.46875 14.238281 18.285156 14.167969 C 18.09375 14.097656 17.945312 13.992188 17.832031 13.847656 C 17.71875 13.703125 17.652344 13.535156 17.632812 13.34375 C 17.613281 13.148438 17.644531 12.945312 17.722656 12.726562 L 17.796875 12.527344 C 17.925781 12.175781 18.105469 11.9375 18.339844 11.804688 C 18.574219 11.671875 18.835938 11.664062 19.132812 11.773438 C 19.371094 11.863281 19.542969 11.996094 19.644531 12.175781 C 19.746094 12.351562 19.769531 12.5625 19.71875 12.800781 L 19.414062 12.6875 C 19.472656 12.359375 19.347656 12.136719 19.039062 12.023438 C 18.835938 11.945312 18.65625 11.960938 18.496094 12.066406 C 18.335938 12.171875 18.207031 12.359375 18.105469 12.632812 L 18.035156 12.820312 C 17.9375 13.082031 17.921875 13.3125 17.984375 13.507812 C 18.042969 13.707031 18.175781 13.84375 18.378906 13.917969 C 18.492188 13.960938 18.597656 13.984375 18.691406 13.992188 C 18.789062 14 18.875 13.980469 18.953125 13.941406 L 19.144531 13.421875 L 18.609375 13.222656 L 18.703125 12.972656 L 19.539062 13.285156 L 19.226562 14.136719 " fill-opacity="1" fill-rule="nonzero"/><path fill="#84524d" d="M 23.519531 12.742188 C 24.5625 11.332031 26.597656 8.722656 26.597656 8.722656 C 26.597656 8.722656 27.183594 7.867188 28.085938 7.78125 C 28.527344 7.738281 28.976562 7.804688 29.375 7.949219 C 30.453125 8.347656 30.847656 9.671875 30.179688 10.609375 C 29.085938 12.140625 26.851562 14.183594 26.246094 14.910156 C 25.878906 15.347656 25.257812 16.320312 25.042969 16.644531 C 24.925781 16.820312 24.652344 16.855469 24.457031 16.765625 C 24.269531 16.675781 24.210938 16.453125 24.203125 16.390625 C 24.058594 16.503906 23.851562 16.550781 23.632812 16.441406 C 23.4375 16.339844 23.398438 16.074219 23.398438 16.050781 C 23.375 16.0625 23.214844 16.265625 22.90625 16.167969 C 22.699219 16.101562 22.617188 15.898438 22.605469 15.824219 C 22.375 16.183594 22.390625 17.070312 21.964844 16.953125 C 21.574219 16.839844 21.714844 15.1875 23.519531 12.742188 " fill-opacity="1" fill-rule="nonzero"/><path fill="#363e44" d="M 25.089844 16.195312 C 25.085938 16.195312 25.082031 16.195312 25.078125 16.191406 L 24.761719 16.046875 C 24.75 16.042969 24.746094 16.03125 24.75 16.019531 C 24.757812 16.007812 24.769531 16.003906 24.777344 16.007812 L 25.097656 16.15625 C 25.105469 16.160156 25.113281 16.171875 25.105469 16.183594 C 25.101562 16.191406 25.097656 16.195312 25.089844 16.195312 " fill-opacity="1" fill-rule="nonzero"/><path fill="#363e44" d="M 24.328125 15.828125 C 24.324219 15.828125 24.320312 15.828125 24.320312 15.828125 L 23.953125 15.671875 C 23.945312 15.667969 23.941406 15.65625 23.945312 15.644531 C 23.949219 15.632812 23.960938 15.628906 23.972656 15.632812 L 24.335938 15.789062 C 24.34375 15.792969 24.351562 15.804688 24.347656 15.816406 C 24.34375 15.824219 24.335938 15.828125 24.328125 15.828125 " fill-opacity="1" fill-rule="nonzero"/><path fill="#363e44" d="M 23.503906 15.492188 C 23.5 15.492188 23.496094 15.492188 23.492188 15.492188 C 23.433594 15.464844 23.382812 15.441406 23.328125 15.414062 C 23.273438 15.390625 23.21875 15.367188 23.160156 15.339844 C 23.152344 15.335938 23.144531 15.324219 23.152344 15.3125 C 23.15625 15.300781 23.167969 15.296875 23.179688 15.300781 C 23.238281 15.328125 23.289062 15.355469 23.34375 15.378906 C 23.398438 15.402344 23.453125 15.425781 23.511719 15.453125 C 23.519531 15.460938 23.527344 15.472656 23.519531 15.480469 C 23.519531 15.488281 23.511719 15.492188 23.503906 15.492188 " fill-opacity="1" fill-rule="nonzero"/><path fill="#363e44" d="M 22.851562 15.160156 C 22.847656 15.160156 22.84375 15.15625 22.839844 15.15625 L 22.535156 14.988281 C 22.527344 14.984375 22.523438 14.972656 22.527344 14.960938 C 22.535156 14.953125 22.546875 14.949219 22.554688 14.953125 L 22.859375 15.121094 C 22.871094 15.125 22.875 15.136719 22.867188 15.148438 C 22.863281 15.15625 22.859375 15.160156 22.851562 15.160156 " fill-opacity="1" fill-rule="nonzero"/><path fill="#84524d" d="M 21.894531 4.070312 L 23.203125 3.605469 L 21.800781 1.382812 C 21.679688 1.164062 21.304688 1.488281 21.085938 1.609375 C 20.867188 1.730469 20.789062 2.007812 20.910156 2.226562 L 21.894531 4.070312 " fill-opacity="1" fill-rule="nonzero"/><path fill="#84524d" d="M 22.246094 4.515625 L 23.546875 3.445312 L 22.203125 3.351562 L 21.53125 4.105469 L 22.246094 4.515625 " fill-opacity="1" fill-rule="nonzero"/><path fill="#84524d" d="M 20.3125 3.039062 C 20.589844 3.28125 21.449219 2.691406 21.449219 2.691406 L 22.074219 1.832031 C 22.128906 1.316406 21.753906 0.855469 21.242188 0.800781 C 20.726562 0.746094 20.265625 1.121094 20.214844 1.636719 C 20.214844 1.636719 20.03125 2.789062 20.3125 3.039062 " fill-opacity="1" fill-rule="nonzero"/><path fill="#84524d" d="M 20.292969 1.894531 C 20.292969 1.894531 20.003906 2.140625 20.011719 2.214844 C 20.019531 2.304688 20.304688 2.386719 20.304688 2.386719 C 20.304688 2.386719 20.289062 1.894531 20.292969 1.894531 " fill-opacity="1" fill-rule="nonzero"/><path fill="#ffffff" d="M 21.101562 1.757812 C 21.101562 1.757812 20.957031 1.695312 20.792969 1.710938 C 20.757812 1.710938 20.847656 1.988281 20.878906 1.96875 C 21.019531 1.886719 21.101562 1.757812 21.101562 1.757812 " fill-opacity="1" fill-rule="nonzero"/><g clip-path="url(#id5)"><g clip-path="url(#id6)"><path fill="#363e44" d="M 20.785156 1.703125 C 20.667969 1.605469 20.488281 1.621094 20.390625 1.738281 C 20.292969 1.859375 20.308594 2.035156 20.425781 2.132812 C 20.546875 2.234375 20.722656 2.21875 20.820312 2.097656 C 20.917969 1.980469 20.902344 1.800781 20.785156 1.703125 " fill-opacity="1" fill-rule="nonzero"/></g></g><path fill="#363e44" d="M 22.308594 0.820312 C 22.308594 0.820312 22.648438 1.855469 21.957031 2.175781 L 21.789062 2.019531 L 21.367188 2.175781 L 21.554688 1.683594 C 21.605469 1.496094 21.46875 1.304688 21.273438 1.292969 L 20.414062 1.238281 L 20.472656 0.777344 C 21.070312 0.476562 21.679688 0.445312 22.308594 0.820312 " fill-opacity="1" fill-rule="nonzero"/><path fill="#363e44" d="M 21.367188 0.613281 C 21.460938 0.644531 21.5625 0.59375 21.59375 0.5 C 21.621094 0.40625 21.585938 0.253906 21.492188 0.222656 C 21.398438 0.195312 21.285156 0.292969 21.253906 0.390625 C 21.222656 0.484375 21.273438 0.585938 21.367188 0.613281 " fill-opacity="1" fill-rule="nonzero"/><path fill="#363e44" d="M 21.230469 0.652344 C 21.328125 0.632812 21.390625 0.539062 21.371094 0.441406 C 21.351562 0.347656 21.246094 0.234375 21.152344 0.25 C 21.054688 0.269531 21.003906 0.417969 21.019531 0.511719 C 21.039062 0.609375 21.132812 0.671875 21.230469 0.652344 " fill-opacity="1" fill-rule="nonzero"/><path fill="#363e44" d="M 20.9375 0.742188 C 21.0625 0.695312 21.121094 0.550781 21.074219 0.429688 C 21.027344 0.304688 20.859375 0.175781 20.734375 0.226562 C 20.609375 0.273438 20.574219 0.480469 20.625 0.605469 C 20.671875 0.730469 20.8125 0.789062 20.9375 0.742188 " fill-opacity="1" fill-rule="nonzero"/><path fill="#363e44" d="M 21.648438 0.65625 C 21.742188 0.691406 21.84375 0.640625 21.875 0.546875 C 21.910156 0.457031 21.878906 0.304688 21.785156 0.269531 C 21.691406 0.238281 21.574219 0.335938 21.539062 0.429688 C 21.507812 0.519531 21.554688 0.625 21.648438 0.65625 " fill-opacity="1" fill-rule="nonzero"/><path fill="#363e44" d="M 20.710938 0.769531 C 20.769531 0.664062 20.730469 0.535156 20.625 0.476562 C 20.523438 0.417969 20.335938 0.425781 20.28125 0.53125 C 20.222656 0.636719 20.316406 0.796875 20.417969 0.855469 C 20.523438 0.910156 20.65625 0.875 20.710938 0.769531 " fill-opacity="1" fill-rule="nonzero"/><path fill="#363e44" d="M 21.867188 0.738281 C 21.972656 0.800781 22.109375 0.765625 22.171875 0.660156 C 22.234375 0.554688 22.230469 0.359375 22.121094 0.300781 C 22.015625 0.238281 21.847656 0.328125 21.785156 0.433594 C 21.726562 0.542969 21.761719 0.679688 21.867188 0.738281 " fill-opacity="1" fill-rule="nonzero"/><path fill="#363e44" d="M 22.085938 0.789062 C 22.136719 0.871094 22.246094 0.894531 22.324219 0.839844 C 22.40625 0.785156 22.46875 0.652344 22.417969 0.570312 C 22.363281 0.492188 22.214844 0.496094 22.132812 0.550781 C 22.054688 0.601562 22.03125 0.710938 22.085938 0.789062 " fill-opacity="1" fill-rule="nonzero"/><path fill="#363e44" d="M 20.636719 1.03125 C 20.664062 0.890625 20.570312 0.753906 20.425781 0.726562 C 20.285156 0.699219 20.074219 0.78125 20.046875 0.921875 C 20.019531 1.066406 20.1875 1.21875 20.332031 1.242188 C 20.472656 1.269531 20.609375 1.175781 20.636719 1.03125 " fill-opacity="1" fill-rule="nonzero"/><path fill="#84524d" d="M 22.253906 1.855469 C 22.308594 2.023438 22.210938 2.207031 22.042969 2.257812 C 21.871094 2.3125 21.691406 2.214844 21.636719 2.042969 C 21.585938 1.875 21.679688 1.691406 21.851562 1.640625 C 22.023438 1.585938 22.203125 1.683594 22.253906 1.855469 " fill-opacity="1" fill-rule="nonzero"/><path fill="#363e44" d="M 20.15625 2.332031 L 20.175781 3.121094 C 20.175781 3.230469 20.269531 3.316406 20.378906 3.308594 C 20.40625 3.304688 20.4375 3.304688 20.46875 3.300781 C 21.015625 3.25 21.496094 2.921875 21.742188 2.429688 C 21.824219 2.265625 21.792969 2.066406 21.671875 1.929688 L 21.628906 1.886719 L 21.46875 1.957031 C 21.46875 1.957031 21.316406 2.371094 21.15625 2.386719 C 20.992188 2.40625 20.710938 2.25 20.15625 2.332031 " fill-opacity="1" fill-rule="nonzero"/><path fill="#84524d" d="M 20.53125 2.59375 C 20.5 2.59375 20.464844 2.582031 20.4375 2.558594 C 20.429688 2.554688 20.425781 2.539062 20.433594 2.53125 C 20.441406 2.523438 20.453125 2.523438 20.460938 2.527344 C 20.496094 2.554688 20.542969 2.5625 20.582031 2.542969 C 20.621094 2.523438 20.644531 2.480469 20.644531 2.441406 C 20.640625 2.429688 20.652344 2.417969 20.664062 2.417969 C 20.675781 2.417969 20.683594 2.429688 20.683594 2.4375 C 20.683594 2.496094 20.652344 2.550781 20.601562 2.578125 C 20.578125 2.589844 20.554688 2.59375 20.53125 2.59375 " fill-opacity="1" fill-rule="nonzero"/><path fill="#84524d" d="M 21.5 1.359375 C 21.492188 1.359375 21.488281 1.355469 21.484375 1.347656 C 21.476562 1.339844 21.480469 1.328125 21.488281 1.320312 L 21.882812 1.058594 C 21.890625 1.050781 21.90625 1.054688 21.910156 1.0625 C 21.917969 1.074219 21.914062 1.085938 21.90625 1.09375 L 21.511719 1.355469 C 21.507812 1.355469 21.503906 1.359375 21.5 1.359375 " fill-opacity="1" fill-rule="nonzero"/><path fill="#8b865c" d="M 33.097656 30.515625 C 32.660156 32.609375 32.496094 34.328125 32.730469 34.355469 C 32.964844 34.382812 33.511719 32.710938 33.945312 30.617188 C 34.382812 28.523438 34.3125 26.777344 34.3125 26.777344 C 34.3125 26.777344 33.53125 28.421875 33.097656 30.515625 " fill-opacity="1" fill-rule="nonzero"/><path fill="#776e42" d="M 32.382812 30.554688 C 32.015625 32.65625 31.980469 34.382812 32.300781 34.414062 C 32.621094 34.445312 33.175781 32.769531 33.542969 30.667969 C 33.90625 28.566406 33.625 26.804688 33.625 26.804688 C 33.625 26.804688 32.746094 28.453125 32.382812 30.554688 " fill-opacity="1" fill-rule="nonzero"/><path fill="#8b865c" d="M 29.09375 31.609375 C 29.484375 33.707031 29.992188 35.390625 30.226562 35.363281 C 30.460938 35.339844 30.335938 33.621094 29.945312 31.519531 C 29.554688 29.421875 28.8125 27.765625 28.8125 27.765625 C 28.8125 27.765625 28.703125 29.511719 29.09375 31.609375 " fill-opacity="1" fill-rule="nonzero"/><path fill="#776e42" d="M 29.648438 30.90625 C 29.886719 32.867188 30.25 34.441406 30.460938 34.429688 C 30.671875 34.414062 30.65625 32.8125 30.417969 30.855469 C 30.183594 28.894531 29.609375 27.335938 29.609375 27.335938 C 29.609375 27.335938 29.414062 28.949219 29.648438 30.90625 " fill-opacity="1" fill-rule="nonzero"/><path fill="#8b865c" d="M 30.195312 31.273438 C 30.152344 33.601562 30.304688 35.488281 30.542969 35.492188 C 30.78125 35.492188 31.011719 33.609375 31.058594 31.285156 C 31.101562 28.957031 30.710938 27.066406 30.710938 27.066406 C 30.710938 27.066406 30.242188 28.949219 30.195312 31.273438 " fill-opacity="1" fill-rule="nonzero"/><g clip-path="url(#id7)"><path fill="#8b865c" d="M 31.460938 33.550781 C 31.832031 35.652344 32.320312 37.335938 32.558594 37.3125 C 32.792969 37.289062 32.683594 35.570312 32.3125 33.46875 C 31.945312 31.367188 31.21875 29.707031 31.21875 29.707031 C 31.21875 29.707031 31.089844 31.453125 31.460938 33.550781 " fill-opacity="1" fill-rule="nonzero"/></g><path fill="#776e42" d="M 30.769531 31.140625 C 30.667969 32.953125 30.867188 34.429688 31.21875 34.441406 C 31.570312 34.453125 31.941406 32.992188 32.046875 31.179688 C 32.152344 29.367188 31.597656 27.878906 31.597656 27.878906 C 31.597656 27.878906 30.875 29.328125 30.769531 31.140625 " fill-opacity="1" fill-rule="nonzero"/><path fill="#8b865c" d="M 31.796875 31.597656 C 31.449219 33.699219 31.359375 35.421875 31.59375 35.445312 C 31.828125 35.464844 32.300781 33.777344 32.648438 31.675781 C 32.996094 29.574219 32.851562 27.828125 32.851562 27.828125 C 32.851562 27.828125 32.140625 29.496094 31.796875 31.597656 " fill-opacity="1" fill-rule="nonzero"/><g clip-path="url(#id8)"><path fill="#efbc73" d="M 29.804688 37.363281 L 33.027344 37.363281 L 33.664062 33.617188 L 29.171875 33.617188 L 29.804688 37.363281 " fill-opacity="1" fill-rule="nonzero"/></g></svg>