<svg xmlns="http://www.w3.org/2000/svg" xmlns:xlink="http://www.w3.org/1999/xlink" width="512" zoomAndPan="magnify" viewBox="0 0 384 383.999986" height="512" preserveAspectRatio="xMidYMid meet" version="1.0"><defs><clipPath id="id1"><path d="M 38 0 L 345.421875 0 L 345.421875 384 L 38 384 Z M 38 0 " clip-rule="nonzero"/></clipPath></defs><path fill="#70ecff" d="M 198.710938 336.777344 L 86.566406 336.777344 C 63.566406 336.777344 44.839844 318.113281 44.839844 295.027344 L 44.839844 128.398438 C 44.839844 105.386719 63.566406 86.648438 86.566406 86.648438 L 179.832031 86.648438 L 159.15625 189.9375 L 224.03125 189.9375 Z M 198.710938 336.777344 " fill-opacity="1" fill-rule="nonzero"/><g clip-path="url(#id1)"><path fill="#454754" d="M 296.773438 36.277344 L 224.183594 36.277344 C 220.4375 36.277344 217.441406 39.277344 217.441406 43.023438 C 217.441406 46.773438 220.4375 49.769531 224.183594 49.769531 L 296.773438 49.769531 C 316.101562 49.769531 331.757812 65.511719 331.757812 84.773438 L 331.757812 295.027344 C 331.757812 314.367188 316.027344 330.03125 296.773438 330.03125 L 206.726562 330.03125 L 215.492188 279.511719 C 246.582031 275.988281 274.449219 265.570312 294.226562 249.828125 C 297.148438 247.503906 297.597656 243.234375 295.273438 240.382812 C 292.953125 237.460938 288.683594 237.011719 285.835938 239.335938 C 269.054688 252.675781 244.785156 261.972656 217.890625 265.644531 L 230.773438 191.136719 C 231.148438 189.1875 230.550781 187.164062 229.277344 185.667969 C 228.003906 184.167969 226.128906 183.269531 224.109375 183.269531 L 167.472656 183.269531 L 195.191406 44.449219 L 202.308594 8.695312 C 203.058594 5.023438 200.660156 1.5 196.988281 0.75 C 193.316406 0 189.796875 2.398438 189.046875 6.070312 L 182.980469 36.355469 L 86.566406 36.355469 C 59.824219 36.355469 38.097656 58.089844 38.097656 84.851562 L 38.097656 295.027344 C 38.097656 321.785156 59.824219 343.523438 86.566406 343.523438 L 166.949219 343.523438 C 170.695312 343.523438 173.691406 340.527344 173.691406 336.777344 C 173.691406 333.03125 170.695312 330.03125 166.949219 330.03125 L 86.566406 330.03125 C 67.3125 330.03125 51.582031 314.367188 51.582031 295.027344 L 51.582031 84.773438 C 51.582031 65.4375 67.3125 49.769531 86.566406 49.769531 L 180.359375 49.769531 L 152.640625 188.589844 C 152.265625 190.539062 152.789062 192.636719 154.0625 194.210938 C 155.335938 195.785156 157.285156 196.683594 159.308594 196.683594 L 216.167969 196.683594 L 204.03125 266.992188 C 199.984375 267.21875 195.863281 267.367188 191.746094 267.367188 C 154.886719 267.367188 119.679688 256.875 97.578125 239.261719 C 94.65625 236.9375 90.460938 237.386719 88.140625 240.308594 C 85.816406 243.234375 86.265625 247.429688 89.1875 249.753906 C 113.910156 269.46875 151.292969 280.785156 191.746094 280.785156 C 195.042969 280.785156 198.335938 280.710938 201.632812 280.5625 L 185.078125 376.128906 C 184.476562 379.800781 186.875 383.324219 190.546875 383.925781 C 190.921875 384 191.296875 384 191.671875 384 C 194.890625 384 197.738281 381.675781 198.335938 378.378906 L 204.40625 343.375 L 296.773438 343.375 C 323.515625 343.375 345.242188 321.636719 345.242188 294.878906 L 345.242188 84.773438 C 345.242188 58.015625 323.441406 36.277344 296.773438 36.277344 Z M 296.773438 36.277344 " fill-opacity="1" fill-rule="nonzero"/></g><path fill="#454754" d="M 128.21875 137.621094 L 128.21875 116.183594 C 128.21875 112.433594 125.222656 109.4375 121.476562 109.4375 C 117.730469 109.4375 114.734375 112.433594 114.734375 116.183594 L 114.734375 137.621094 C 114.734375 141.367188 117.730469 144.367188 121.476562 144.367188 C 125.222656 144.367188 128.21875 141.367188 128.21875 137.621094 Z M 128.21875 137.621094 " fill-opacity="1" fill-rule="nonzero"/><path fill="#454754" d="M 268.605469 137.621094 L 268.605469 116.183594 C 268.605469 112.433594 265.609375 109.4375 261.863281 109.4375 C 258.117188 109.4375 255.121094 112.433594 255.121094 116.183594 L 255.121094 137.621094 C 255.121094 141.367188 258.117188 144.367188 261.863281 144.367188 C 265.609375 144.367188 268.605469 141.367188 268.605469 137.621094 Z M 268.605469 137.621094 " fill-opacity="1" fill-rule="nonzero"/></svg>