<svg xmlns="http://www.w3.org/2000/svg" xmlns:xlink="http://www.w3.org/1999/xlink" width="512" zoomAndPan="magnify" viewBox="0 0 384 383.999986" height="512" preserveAspectRatio="xMidYMid meet" version="1.0"><defs><clipPath id="id1"><path d="M 0 20.878906 L 384 20.878906 L 384 362.878906 L 0 362.878906 Z M 0 20.878906 " clip-rule="nonzero"/></clipPath></defs><g clip-path="url(#id1)"><path fill="#dbceff" d="M 366 80.957031 L 336 80.957031 L 336 26.992188 C 336 23.695312 333.300781 20.996094 330 20.996094 L 102 20.996094 C 98.699219 20.996094 96 23.695312 96 26.992188 L 96 68.964844 L 54 68.964844 C 50.699219 68.964844 48 71.664062 48 74.960938 L 48 98.945312 L 18 98.945312 C 8.101562 98.945312 0 107.039062 0 116.929688 L 0 344.773438 C 0 354.667969 8.101562 362.761719 18 362.761719 L 366 362.761719 C 375.898438 362.761719 384 354.667969 384 344.773438 L 384 98.945312 C 384 89.050781 375.898438 80.957031 366 80.957031 Z M 48 134.917969 L 12 134.917969 L 12 116.929688 C 12 113.632812 14.699219 110.9375 18 110.9375 L 48 110.9375 Z M 84 134.917969 L 60 134.917969 L 60 80.957031 L 270 80.957031 L 270 194.878906 L 146.460938 194.878906 L 88.261719 136.65625 C 87.121094 135.578125 85.621094 134.917969 84 134.917969 Z M 276 332.785156 L 108 332.785156 L 108 308.800781 L 276 308.800781 Z M 276 68.964844 L 108 68.964844 L 108 32.988281 L 324 32.988281 L 324 194.878906 L 282 194.878906 L 282 74.960938 C 282 71.664062 279.300781 68.964844 276 68.964844 Z M 360 332.785156 C 360 336.082031 357.300781 338.78125 354 338.78125 L 324 338.78125 C 320.699219 338.78125 318 336.082031 318 332.785156 C 318 329.484375 320.699219 326.789062 324 326.789062 L 348 326.789062 L 348 302.804688 C 348 299.507812 350.699219 296.808594 354 296.808594 C 357.300781 296.808594 360 299.507812 360 302.804688 Z M 372 194.878906 L 336 194.878906 L 336 92.949219 L 366 92.949219 C 369.300781 92.949219 372 95.644531 372 98.945312 Z M 372 194.878906 " fill-opacity="1" fill-rule="nonzero"/></g><path fill="#dbceff" d="M 204 110.9375 L 240 110.9375 C 243.316406 110.9375 246 108.253906 246 104.941406 C 246 101.625 243.316406 98.945312 240 98.945312 L 204 98.945312 C 200.683594 98.945312 198 101.625 198 104.941406 C 198 108.253906 200.683594 110.9375 204 110.9375 Z M 204 110.9375 " fill-opacity="1" fill-rule="nonzero"/><path fill="#dbceff" d="M 90 110.9375 L 180 110.9375 C 183.316406 110.9375 186 108.253906 186 104.941406 C 186 101.625 183.316406 98.945312 180 98.945312 L 90 98.945312 C 86.683594 98.945312 84 101.625 84 104.941406 C 84 108.253906 86.683594 110.9375 90 110.9375 Z M 90 110.9375 " fill-opacity="1" fill-rule="nonzero"/><path fill="#dbceff" d="M 240 122.925781 L 120 122.925781 C 116.683594 122.925781 114 125.609375 114 128.921875 C 114 132.238281 116.683594 134.917969 120 134.917969 L 240 134.917969 C 243.316406 134.917969 246 132.238281 246 128.921875 C 246 125.609375 243.316406 122.925781 240 122.925781 Z M 240 122.925781 " fill-opacity="1" fill-rule="nonzero"/><path fill="#dbceff" d="M 288 56.972656 L 306 56.972656 C 309.316406 56.972656 312 54.289062 312 50.976562 C 312 47.664062 309.316406 44.980469 306 44.980469 L 288 44.980469 C 284.683594 44.980469 282 47.664062 282 50.976562 C 282 54.289062 284.683594 56.972656 288 56.972656 Z M 288 56.972656 " fill-opacity="1" fill-rule="nonzero"/><path fill="#dbceff" d="M 264 44.980469 L 126 44.980469 C 122.683594 44.980469 120 47.664062 120 50.976562 C 120 54.289062 122.683594 56.972656 126 56.972656 L 264 56.972656 C 267.316406 56.972656 270 54.289062 270 50.976562 C 270 47.664062 267.316406 44.980469 264 44.980469 Z M 264 44.980469 " fill-opacity="1" fill-rule="nonzero"/><path fill="#dbceff" d="M 240 146.910156 L 156 146.910156 C 152.683594 146.910156 150 149.59375 150 152.90625 C 150 156.222656 152.683594 158.902344 156 158.902344 L 240 158.902344 C 243.316406 158.902344 246 156.222656 246 152.90625 C 246 149.59375 243.316406 146.910156 240 146.910156 Z M 240 146.910156 " fill-opacity="1" fill-rule="nonzero"/></svg>