<svg xmlns="http://www.w3.org/2000/svg" xmlns:xlink="http://www.w3.org/1999/xlink" width="512" zoomAndPan="magnify" viewBox="0 0 384 383.999986" height="512" preserveAspectRatio="xMidYMid meet" version="1.0"><defs><clipPath id="id1"><path d="M 88.320312 20 L 295.320312 20 L 295.320312 364 L 88.320312 364 Z M 88.320312 20 " clip-rule="nonzero"/></clipPath></defs><g clip-path="url(#id1)"><path fill="#dbceff" d="M 290.664062 241.574219 C 289.480469 240.457031 288.171875 239.527344 286.726562 238.78125 C 285.285156 238.035156 283.769531 237.507812 282.175781 237.191406 C 280.585938 236.875 278.980469 236.785156 277.363281 236.921875 C 275.746094 237.0625 274.179688 237.417969 272.664062 238 C 272.535156 237.699219 272.378906 237.414062 272.203125 237.136719 L 272.203125 26.121094 C 272.203125 25.742188 272.167969 25.367188 272.09375 24.996094 C 272.019531 24.625 271.910156 24.265625 271.765625 23.914062 C 271.621094 23.566406 271.445312 23.234375 271.234375 22.917969 C 271.027344 22.605469 270.789062 22.3125 270.519531 22.046875 C 270.253906 21.777344 269.964844 21.539062 269.648438 21.328125 C 269.335938 21.121094 269.003906 20.941406 268.65625 20.796875 C 268.304688 20.652344 267.945312 20.542969 267.578125 20.46875 C 267.207031 20.394531 266.832031 20.359375 266.453125 20.359375 L 94.070312 20.359375 C 93.691406 20.359375 93.320312 20.394531 92.949219 20.46875 C 92.578125 20.542969 92.21875 20.652344 91.871094 20.796875 C 91.519531 20.941406 91.1875 21.121094 90.875 21.328125 C 90.5625 21.539062 90.269531 21.777344 90.003906 22.046875 C 89.738281 22.3125 89.5 22.605469 89.289062 22.917969 C 89.078125 23.234375 88.902344 23.566406 88.757812 23.914062 C 88.613281 24.265625 88.503906 24.625 88.429688 24.996094 C 88.355469 25.367188 88.320312 25.742188 88.320312 26.121094 L 88.320312 337.285156 C 88.320312 337.664062 88.355469 338.039062 88.429688 338.410156 C 88.503906 338.78125 88.613281 339.140625 88.757812 339.488281 C 88.902344 339.839844 89.078125 340.171875 89.289062 340.488281 C 89.5 340.800781 89.738281 341.09375 90.003906 341.359375 C 90.269531 341.628906 90.5625 341.867188 90.875 342.078125 C 91.1875 342.285156 91.519531 342.464844 91.871094 342.609375 C 92.21875 342.753906 92.578125 342.863281 92.949219 342.9375 C 93.320312 343.011719 93.691406 343.046875 94.070312 343.046875 L 207.113281 343.046875 C 208.246094 344.65625 209.46875 346.195312 210.78125 347.65625 C 212.097656 349.117188 213.496094 350.496094 214.976562 351.789062 C 216.457031 353.085938 218.007812 354.285156 219.632812 355.390625 C 221.257812 356.496094 222.945312 357.5 224.691406 358.402344 C 226.4375 359.304688 228.230469 360.097656 230.070312 360.785156 C 231.914062 361.46875 233.789062 362.042969 235.699219 362.5 C 237.609375 362.960938 239.539062 363.300781 241.492188 363.527344 C 243.441406 363.753906 245.402344 363.859375 247.363281 363.847656 C 248.9375 363.835938 250.507812 363.746094 252.070312 363.578125 C 253.636719 363.414062 255.1875 363.171875 256.726562 362.851562 C 258.269531 362.535156 259.789062 362.140625 261.292969 361.675781 C 262.792969 361.207031 264.269531 360.667969 265.71875 360.054688 C 267.171875 359.445312 268.585938 358.765625 269.96875 358.015625 C 271.355469 357.265625 272.699219 356.449219 274.003906 355.566406 C 275.304688 354.6875 276.5625 353.742188 277.777344 352.738281 C 278.988281 351.734375 280.148438 350.671875 281.257812 349.554688 C 282.367188 348.4375 283.417969 347.265625 284.414062 346.046875 C 285.410156 344.824219 286.34375 343.558594 287.214844 342.246094 C 288.085938 340.933594 288.890625 339.582031 289.632812 338.191406 C 290.371094 336.800781 291.042969 335.378906 291.644531 333.921875 C 292.246094 332.464844 292.777344 330.980469 293.234375 329.472656 C 293.691406 327.964844 294.074219 326.4375 294.382812 324.890625 C 294.691406 323.347656 294.921875 321.789062 295.078125 320.222656 C 295.234375 318.652344 295.316406 317.078125 295.320312 315.503906 L 295.320312 253.214844 C 295.34375 251.039062 294.953125 248.945312 294.148438 246.929688 C 293.339844 244.910156 292.179688 243.125 290.664062 241.574219 Z M 247.882812 228.722656 C 246.8125 227.675781 245.625 226.789062 244.320312 226.0625 C 243.015625 225.332031 241.636719 224.789062 240.1875 224.429688 C 238.734375 224.070312 237.261719 223.90625 235.769531 223.941406 C 234.277344 223.976562 232.8125 224.207031 231.378906 224.632812 L 231.378906 197.550781 C 231.378906 196.980469 231.347656 196.414062 231.285156 195.847656 C 231.226562 195.28125 231.136719 194.71875 231.019531 194.160156 C 230.898438 193.605469 230.753906 193.054688 230.578125 192.515625 C 230.402344 191.972656 230.199219 191.441406 229.972656 190.921875 C 229.742188 190.398438 229.484375 189.890625 229.203125 189.398438 C 228.921875 188.902344 228.613281 188.425781 228.285156 187.960938 C 227.953125 187.5 227.597656 187.054688 227.222656 186.628906 C 226.84375 186.203125 226.445312 185.796875 226.027344 185.414062 C 225.609375 185.03125 225.171875 184.667969 224.714844 184.328125 C 224.257812 183.988281 223.785156 183.671875 223.296875 183.382812 C 222.808594 183.09375 222.304688 182.828125 221.789062 182.589844 C 221.273438 182.351562 220.746094 182.140625 220.210938 181.957031 C 219.671875 181.773438 219.125 181.617188 218.574219 181.488281 C 218.019531 181.359375 217.460938 181.261719 216.898438 181.191406 C 216.332031 181.125 215.765625 181.082031 215.199219 181.070312 C 214.628906 181.0625 214.0625 181.078125 213.496094 181.125 C 212.460938 181.261719 211.449219 181.492188 210.453125 181.8125 C 209.460938 182.132812 208.503906 182.539062 207.582031 183.035156 C 206.660156 183.53125 205.792969 184.105469 204.976562 184.757812 C 204.160156 185.410156 203.410156 186.132812 202.726562 186.921875 C 202.039062 187.710938 201.429688 188.554688 200.898438 189.457031 C 200.367188 190.355469 199.917969 191.296875 199.558594 192.277344 C 199.195312 193.261719 198.925781 194.265625 198.746094 195.296875 C 198.566406 196.328125 198.480469 197.367188 198.488281 198.414062 L 198.488281 270.097656 C 196.070312 268.390625 193.441406 267.105469 190.613281 266.234375 L 190.613281 237.078125 C 190.613281 236.699219 190.574219 236.324219 190.503906 235.953125 C 190.429688 235.582031 190.320312 235.222656 190.175781 234.875 C 190.03125 234.523438 189.851562 234.191406 189.644531 233.878906 C 189.433594 233.5625 189.195312 233.273438 188.929688 233.003906 C 188.660156 232.738281 188.371094 232.496094 188.058594 232.289062 C 187.742188 232.078125 187.410156 231.898438 187.0625 231.753906 C 186.714844 231.609375 186.355469 231.5 185.984375 231.425781 C 185.613281 231.351562 185.238281 231.316406 184.863281 231.316406 L 116.496094 231.316406 C 116.117188 231.316406 115.742188 231.351562 115.375 231.425781 C 115.003906 231.5 114.644531 231.609375 114.292969 231.753906 C 113.945312 231.898438 113.613281 232.078125 113.300781 232.289062 C 112.988281 232.496094 112.695312 232.738281 112.429688 233.003906 C 112.164062 233.273438 111.921875 233.5625 111.714844 233.878906 C 111.503906 234.191406 111.328125 234.523438 111.183594 234.875 C 111.039062 235.222656 110.929688 235.582031 110.855469 235.953125 C 110.78125 236.324219 110.746094 236.699219 110.746094 237.078125 L 110.746094 291.1875 C 110.746094 291.566406 110.78125 291.941406 110.855469 292.3125 C 110.929688 292.683594 111.039062 293.042969 111.183594 293.390625 C 111.328125 293.742188 111.503906 294.074219 111.714844 294.386719 C 111.921875 294.703125 112.164062 294.992188 112.429688 295.261719 C 112.695312 295.527344 112.988281 295.769531 113.300781 295.976562 C 113.613281 296.1875 113.945312 296.367188 114.292969 296.511719 C 114.644531 296.65625 115.003906 296.765625 115.375 296.839844 C 115.742188 296.910156 116.117188 296.949219 116.496094 296.949219 L 177.847656 296.949219 L 181.757812 302.191406 L 99.820312 302.191406 L 99.820312 79.132812 L 260.820312 79.132812 L 260.820312 228.953125 C 258.863281 228.542969 256.894531 228.488281 254.914062 228.785156 C 252.9375 229.082031 251.070312 229.714844 249.320312 230.683594 C 248.898438 229.984375 248.421875 229.332031 247.882812 228.722656 Z M 164.105469 278.566406 L 169.164062 285.425781 L 122.246094 285.425781 L 122.246094 242.839844 L 179.113281 242.839844 L 179.113281 265.257812 C 176.605469 265.46875 174.175781 266.023438 171.820312 266.914062 C 169.464844 267.804688 167.277344 269 165.253906 270.5 C 164.953125 270.726562 164.675781 270.980469 164.425781 271.261719 C 164.171875 271.542969 163.949219 271.847656 163.757812 272.175781 C 163.566406 272.5 163.40625 272.839844 163.28125 273.199219 C 163.15625 273.554688 163.066406 273.921875 163.011719 274.296875 C 162.960938 274.667969 162.941406 275.046875 162.964844 275.421875 C 162.984375 275.800781 163.042969 276.171875 163.136719 276.539062 C 163.230469 276.90625 163.355469 277.261719 163.519531 277.601562 C 163.683594 277.941406 163.878906 278.265625 164.105469 278.566406 Z M 260.820312 31.882812 L 260.820312 67.609375 L 99.820312 67.609375 L 99.820312 31.882812 Z M 99.820312 331.523438 L 99.820312 313.601562 L 190.441406 313.601562 L 196.9375 322.304688 C 198.457031 324.199219 199.570312 326.3125 200.273438 328.640625 C 200.558594 329.621094 200.90625 330.542969 201.25 331.523438 Z M 283.820312 315.503906 C 283.816406 316.605469 283.761719 317.703125 283.65625 318.800781 C 283.554688 319.898438 283.402344 320.988281 283.203125 322.070312 C 283.003906 323.152344 282.757812 324.222656 282.460938 325.285156 C 282.167969 326.347656 281.824219 327.390625 281.4375 328.421875 C 281.046875 329.453125 280.613281 330.464844 280.136719 331.453125 C 279.660156 332.445312 279.136719 333.414062 278.574219 334.359375 C 278.007812 335.304688 277.402344 336.222656 276.757812 337.113281 C 276.109375 338.003906 275.425781 338.863281 274.703125 339.695312 C 273.980469 340.523438 273.222656 341.320312 272.429688 342.082031 C 271.636719 342.84375 270.8125 343.570312 269.953125 344.257812 C 269.09375 344.945312 268.207031 345.59375 267.292969 346.203125 C 266.375 346.8125 265.4375 347.378906 264.46875 347.90625 C 263.503906 348.429688 262.515625 348.910156 261.507812 349.347656 C 260.496094 349.785156 259.472656 350.175781 258.429688 350.519531 C 257.382812 350.863281 256.328125 351.164062 255.257812 351.414062 C 254.1875 351.664062 253.109375 351.867188 252.019531 352.019531 C 250.929688 352.171875 249.839844 352.277344 248.742188 352.335938 C 247.644531 352.390625 246.546875 352.398438 245.449219 352.355469 C 244.347656 352.316406 243.253906 352.226562 242.164062 352.085938 C 241.074219 351.945312 239.992188 351.757812 238.917969 351.523438 C 237.847656 351.285156 236.785156 351.003906 235.738281 350.671875 C 234.6875 350.339844 233.65625 349.964844 232.644531 349.539062 C 231.628906 349.117188 230.632812 348.648438 229.660156 348.136719 C 228.6875 347.625 227.738281 347.070312 226.816406 346.472656 C 225.894531 345.878906 224.996094 345.242188 224.128906 344.5625 C 223.261719 343.886719 222.429688 343.171875 221.625 342.421875 C 220.820312 341.671875 220.050781 340.886719 219.320312 340.066406 C 218.585938 339.246094 217.890625 338.394531 217.230469 337.511719 C 216.574219 336.628906 215.957031 335.71875 215.378906 334.78125 C 214.800781 333.84375 214.269531 332.882812 213.777344 331.898438 C 213.285156 330.914062 212.839844 329.910156 212.4375 328.882812 C 212.035156 327.859375 211.679688 326.816406 211.371094 325.761719 C 210.265625 322.066406 208.523438 318.703125 206.136719 315.675781 L 177.386719 277.355469 C 178.1875 277.121094 179.003906 276.945312 179.828125 276.832031 C 180.65625 276.71875 181.488281 276.667969 182.324219 276.675781 C 183.15625 276.6875 183.988281 276.761719 184.8125 276.894531 C 185.636719 277.027344 186.445312 277.222656 187.238281 277.480469 C 188.035156 277.734375 188.808594 278.046875 189.554688 278.417969 C 190.304688 278.789062 191.019531 279.214844 191.707031 279.691406 C 192.390625 280.167969 193.039062 280.695312 193.644531 281.269531 C 194.25 281.84375 194.8125 282.460938 195.328125 283.121094 L 199.640625 288.882812 C 200.003906 289.367188 200.429688 289.78125 200.921875 290.128906 C 201.414062 290.480469 201.949219 290.746094 202.527344 290.925781 C 203.101562 291.105469 203.691406 291.191406 204.292969 291.1875 C 204.898438 291.179688 205.484375 291.082031 206.058594 290.890625 C 206.628906 290.699219 207.160156 290.425781 207.644531 290.066406 C 208.132812 289.707031 208.550781 289.285156 208.90625 288.792969 C 209.257812 288.304688 209.527344 287.769531 209.710938 287.195312 C 209.898438 286.621094 209.988281 286.027344 209.988281 285.425781 L 209.988281 198.242188 C 209.972656 197.574219 210.070312 196.925781 210.277344 196.292969 C 210.488281 195.660156 210.796875 195.082031 211.203125 194.554688 C 211.613281 194.03125 212.097656 193.589844 212.660156 193.234375 C 213.222656 192.875 213.828125 192.625 214.476562 192.476562 C 215.207031 192.429688 215.917969 192.53125 216.609375 192.78125 C 217.300781 193.03125 217.910156 193.410156 218.441406 193.917969 C 218.90625 194.386719 219.261719 194.925781 219.511719 195.53125 C 219.757812 196.140625 219.882812 196.777344 219.878906 197.433594 L 219.878906 240.246094 L 219.074219 285.710938 L 230.574219 285.710938 L 231.378906 239.613281 C 231.394531 239.304688 231.4375 239.003906 231.511719 238.703125 C 231.582031 238.402344 231.683594 238.113281 231.8125 237.832031 C 231.941406 237.550781 232.09375 237.285156 232.269531 237.035156 C 232.449219 236.785156 232.652344 236.550781 232.875 236.339844 C 233.097656 236.125 233.335938 235.9375 233.597656 235.769531 C 233.855469 235.605469 234.128906 235.464844 234.414062 235.347656 C 234.699219 235.234375 234.992188 235.148438 235.296875 235.089844 C 235.597656 235.03125 235.902344 235.003906 236.210938 235.003906 C 236.535156 235 236.859375 235.027344 237.179688 235.089844 C 237.5 235.152344 237.808594 235.242188 238.113281 235.367188 C 238.414062 235.488281 238.699219 235.640625 238.972656 235.820312 C 239.242188 236 239.492188 236.207031 239.722656 236.4375 C 239.953125 236.667969 240.160156 236.921875 240.339844 237.191406 C 240.519531 237.464844 240.671875 237.75 240.792969 238.054688 C 240.917969 238.355469 241.007812 238.667969 241.070312 238.988281 C 241.128906 239.308594 241.160156 239.632812 241.15625 239.960938 L 241.15625 244.167969 L 240.523438 285.710938 L 252.023438 285.710938 L 252.65625 244.109375 C 252.660156 243.785156 252.695312 243.464844 252.757812 243.144531 C 252.824219 242.828125 252.921875 242.519531 253.046875 242.222656 C 253.171875 241.921875 253.324219 241.636719 253.503906 241.367188 C 253.6875 241.101562 253.890625 240.851562 254.121094 240.621094 C 254.347656 240.390625 254.597656 240.1875 254.867188 240.003906 C 255.132812 239.824219 255.417969 239.671875 255.714844 239.546875 C 256.015625 239.417969 256.324219 239.324219 256.640625 239.257812 C 256.957031 239.191406 257.277344 239.15625 257.601562 239.152344 C 257.925781 239.148438 258.25 239.175781 258.570312 239.238281 C 258.890625 239.300781 259.199219 239.390625 259.5 239.515625 C 259.804688 239.636719 260.089844 239.789062 260.359375 239.96875 C 260.632812 240.152344 260.882812 240.355469 261.113281 240.585938 C 261.34375 240.816406 261.550781 241.070312 261.730469 241.339844 C 261.910156 241.613281 262.0625 241.902344 262.183594 242.203125 C 262.308594 242.503906 262.398438 242.816406 262.460938 243.136719 C 262.519531 243.457031 262.550781 243.78125 262.546875 244.109375 L 262.546875 252.695312 C 262.546875 252.695312 262.546875 252.695312 262.546875 252.984375 L 261.738281 285.597656 L 273.238281 285.597656 L 274.046875 252.0625 C 274.058594 251.738281 274.101562 251.421875 274.179688 251.109375 C 274.253906 250.796875 274.359375 250.496094 274.496094 250.203125 C 274.628906 249.910156 274.792969 249.636719 274.980469 249.375 C 275.171875 249.117188 275.382812 248.875 275.621094 248.660156 C 275.855469 248.441406 276.113281 248.25 276.386719 248.082031 C 276.660156 247.914062 276.949219 247.773438 277.25 247.664062 C 277.550781 247.550781 277.859375 247.472656 278.175781 247.421875 C 278.492188 247.375 278.8125 247.355469 279.132812 247.367188 C 279.453125 247.382812 279.769531 247.425781 280.082031 247.5 C 280.394531 247.578125 280.695312 247.683594 280.988281 247.816406 C 281.277344 247.953125 281.554688 248.117188 281.8125 248.304688 C 282.074219 248.496094 282.3125 248.707031 282.53125 248.945312 C 282.746094 249.179688 282.9375 249.4375 283.105469 249.710938 C 283.273438 249.984375 283.414062 250.273438 283.523438 250.574219 C 283.632812 250.878906 283.714844 251.1875 283.765625 251.503906 C 283.816406 251.824219 283.832031 252.140625 283.820312 252.464844 Z M 283.820312 315.503906 " fill-opacity="1" fill-rule="nonzero"/></g><path fill="#dbceff" d="M 111.089844 88.125 L 177.328125 88.125 L 177.328125 99.648438 L 111.089844 99.648438 Z M 111.089844 88.125 " fill-opacity="1" fill-rule="nonzero"/><path fill="#dbceff" d="M 252.078125 116.070312 C 252.078125 115.691406 252.042969 115.316406 251.96875 114.945312 C 251.894531 114.574219 251.785156 114.214844 251.640625 113.863281 C 251.496094 113.515625 251.320312 113.183594 251.109375 112.867188 C 250.902344 112.554688 250.664062 112.261719 250.394531 111.996094 C 250.128906 111.726562 249.839844 111.488281 249.523438 111.277344 C 249.210938 111.070312 248.878906 110.890625 248.53125 110.746094 C 248.179688 110.601562 247.820312 110.492188 247.453125 110.417969 C 247.082031 110.34375 246.707031 110.308594 246.328125 110.308594 L 116.496094 110.308594 C 116.117188 110.308594 115.742188 110.34375 115.375 110.417969 C 115.003906 110.492188 114.644531 110.601562 114.292969 110.746094 C 113.945312 110.890625 113.613281 111.070312 113.300781 111.277344 C 112.988281 111.488281 112.695312 111.726562 112.429688 111.996094 C 112.164062 112.261719 111.921875 112.554688 111.714844 112.867188 C 111.503906 113.183594 111.328125 113.515625 111.183594 113.863281 C 111.039062 114.214844 110.929688 114.574219 110.855469 114.945312 C 110.78125 115.316406 110.746094 115.691406 110.746094 116.070312 L 110.746094 181.703125 C 110.746094 182.082031 110.78125 182.457031 110.855469 182.828125 C 110.929688 183.199219 111.039062 183.558594 111.183594 183.90625 C 111.328125 184.257812 111.503906 184.589844 111.714844 184.902344 C 111.921875 185.21875 112.164062 185.511719 112.429688 185.777344 C 112.695312 186.046875 112.988281 186.285156 113.300781 186.492188 C 113.613281 186.703125 113.945312 186.882812 114.292969 187.027344 C 114.644531 187.171875 115.003906 187.28125 115.375 187.355469 C 115.742188 187.429688 116.117188 187.464844 116.496094 187.464844 L 171.753906 187.464844 C 171.753906 188.503906 171.753906 189.480469 171.753906 190.519531 C 171.746094 193.175781 171.992188 195.8125 172.492188 198.421875 C 172.992188 201.035156 173.730469 203.574219 174.71875 206.042969 C 175.703125 208.507812 176.914062 210.859375 178.347656 213.097656 C 179.785156 215.332031 181.417969 217.410156 183.253906 219.332031 L 191.648438 211.4375 C 190.972656 210.722656 190.335938 209.980469 189.734375 209.203125 C 189.132812 208.429688 188.570312 207.625 188.046875 206.796875 C 187.523438 205.964844 187.042969 205.113281 186.601562 204.234375 C 186.160156 203.355469 185.765625 202.460938 185.410156 201.542969 C 185.058594 200.628906 184.75 199.695312 184.488281 198.75 C 184.226562 197.804688 184.011719 196.847656 183.839844 195.878906 C 183.671875 194.914062 183.550781 193.941406 183.476562 192.960938 C 183.402344 191.980469 183.375 191 183.394531 190.019531 C 183.417969 189.039062 183.484375 188.058594 183.601562 187.085938 C 183.71875 186.109375 183.882812 185.140625 184.09375 184.183594 C 184.300781 183.222656 184.558594 182.277344 184.863281 181.34375 C 185.164062 180.410156 185.511719 179.492188 185.902344 178.59375 C 186.296875 177.691406 186.730469 176.8125 187.207031 175.957031 C 187.683594 175.097656 188.203125 174.265625 188.761719 173.457031 C 189.320312 172.652344 189.917969 171.875 190.550781 171.125 C 191.1875 170.375 191.855469 169.660156 192.558594 168.976562 C 193.261719 168.292969 194 167.648438 194.765625 167.035156 C 195.53125 166.425781 196.328125 165.851562 197.148438 165.320312 C 197.972656 164.785156 198.820312 164.292969 199.691406 163.84375 C 200.558594 163.390625 201.449219 162.984375 202.359375 162.621094 C 203.269531 162.257812 204.195312 161.9375 205.136719 161.664062 C 206.078125 161.390625 207.03125 161.164062 207.996094 160.984375 C 208.957031 160.804688 209.929688 160.671875 210.90625 160.589844 C 211.882812 160.503906 212.859375 160.464844 213.839844 160.476562 C 214.820312 160.488281 215.796875 160.542969 216.769531 160.652344 C 217.746094 160.757812 218.710938 160.910156 219.671875 161.109375 C 220.628906 161.3125 221.578125 161.558594 222.511719 161.851562 C 223.449219 162.144531 224.367188 162.480469 225.269531 162.863281 C 226.171875 163.246094 227.050781 163.675781 227.914062 164.144531 C 228.773438 164.613281 229.609375 165.121094 230.421875 165.671875 C 231.234375 166.222656 232.015625 166.8125 232.769531 167.441406 C 233.523438 168.066406 234.246094 168.730469 234.933594 169.429688 C 235.625 170.125 236.277344 170.855469 236.894531 171.617188 C 237.515625 172.378906 238.09375 173.171875 238.636719 173.988281 C 239.175781 174.808594 239.675781 175.652344 240.136719 176.519531 C 240.59375 177.386719 241.011719 178.273438 241.382812 179.183594 C 241.757812 180.089844 242.085938 181.015625 242.367188 181.957031 C 242.648438 182.894531 242.886719 183.847656 243.078125 184.8125 C 243.265625 185.773438 243.410156 186.746094 243.503906 187.722656 C 243.601562 188.699219 243.648438 189.679688 243.648438 190.660156 C 243.648438 191.644531 243.601562 192.621094 243.507812 193.601562 C 243.410156 194.578125 243.269531 195.546875 243.078125 196.511719 C 242.890625 197.476562 242.652344 198.425781 242.371094 199.367188 C 242.089844 200.308594 241.761719 201.230469 241.390625 202.140625 C 241.015625 203.050781 240.601562 203.9375 240.144531 204.804688 C 239.683594 205.671875 239.183594 206.515625 238.644531 207.335938 C 238.101562 208.152344 237.523438 208.945312 236.90625 209.707031 C 236.289062 210.46875 235.632812 211.199219 234.945312 211.898438 L 243.109375 220.023438 C 244.5 218.605469 245.78125 217.097656 246.957031 215.5 C 248.128906 213.898438 249.183594 212.222656 250.113281 210.46875 C 251.046875 208.714844 251.847656 206.90625 252.519531 205.035156 C 253.1875 203.167969 253.722656 201.261719 254.117188 199.3125 C 254.515625 197.367188 254.769531 195.402344 254.882812 193.421875 C 254.996094 191.4375 254.964844 189.457031 254.792969 187.480469 C 254.621094 185.5 254.304688 183.546875 253.851562 181.613281 C 253.398438 179.679688 252.808594 177.789062 252.078125 175.941406 Z M 213.152344 148.859375 C 211.0625 148.878906 208.984375 149.054688 206.921875 149.390625 C 204.859375 149.722656 202.832031 150.210938 200.839844 150.847656 C 198.851562 151.488281 196.917969 152.273438 195.046875 153.207031 C 193.175781 154.136719 191.382812 155.203125 189.671875 156.40625 C 187.960938 157.605469 186.347656 158.929688 184.832031 160.375 C 183.320312 161.820312 181.925781 163.371094 180.644531 165.027344 C 179.363281 166.683594 178.214844 168.425781 177.195312 170.253906 C 176.179688 172.082031 175.304688 173.980469 174.570312 175.941406 L 122.820312 175.941406 L 122.820312 121.832031 L 240.578125 121.832031 L 240.578125 159.289062 C 238.703125 157.621094 236.695312 156.140625 234.550781 154.839844 C 232.40625 153.542969 230.160156 152.449219 227.820312 151.554688 C 225.476562 150.664062 223.074219 149.992188 220.609375 149.539062 C 218.144531 149.085938 215.660156 148.859375 213.152344 148.859375 Z M 213.152344 148.859375 " fill-opacity="1" fill-rule="nonzero"/><path fill="#dbceff" d="M 110.746094 209.996094 L 165.542969 209.996094 L 165.542969 221.519531 L 110.746094 221.519531 Z M 110.746094 209.996094 " fill-opacity="1" fill-rule="nonzero"/><path fill="#dbceff" d="M 165.140625 42.253906 L 196.421875 42.253906 L 196.421875 53.78125 L 165.140625 53.78125 Z M 165.140625 42.253906 " fill-opacity="1" fill-rule="nonzero"/></svg>