<svg xmlns="http://www.w3.org/2000/svg" xmlns:xlink="http://www.w3.org/1999/xlink" width="512" zoomAndPan="magnify" viewBox="0 0 384 383.999986" height="512" preserveAspectRatio="xMidYMid meet" version="1.0"><defs><clipPath id="id1"><path d="M 15.878906 17 L 368.378906 17 L 368.378906 368 L 15.878906 368 Z M 15.878906 17 " clip-rule="nonzero"/></clipPath></defs><path fill="#dbceff" d="M 242.902344 333.355469 C 211.742188 333.355469 186.410156 308.023438 186.410156 276.867188 C 186.410156 245.707031 211.742188 220.375 242.902344 220.375 C 274.035156 220.375 299.390625 245.707031 299.390625 276.867188 C 299.390625 308.023438 274.035156 333.355469 242.902344 333.355469 Z M 242.902344 209.078125 C 205.519531 209.078125 175.113281 239.484375 175.113281 276.867188 C 175.113281 314.246094 205.519531 344.652344 242.902344 344.652344 C 280.28125 344.652344 310.6875 314.246094 310.6875 276.867188 C 310.6875 239.484375 280.28125 209.078125 242.902344 209.078125 " fill-opacity="1" fill-rule="nonzero"/><path fill="#dbceff" d="M 242.902344 310.757812 L 242.902344 322.058594 C 247.335938 322.058594 251.726562 321.417969 255.941406 320.136719 L 252.675781 309.324219 C 249.519531 310.273438 246.234375 310.757812 242.902344 310.757812 " fill-opacity="1" fill-rule="nonzero"/><path fill="#dbceff" d="M 242.902344 231.671875 L 242.902344 242.972656 C 261.589844 242.972656 276.792969 258.175781 276.792969 276.867188 C 276.792969 288.273438 271.101562 298.84375 261.589844 305.15625 L 267.8125 314.578125 C 280.5 306.167969 288.09375 292.070312 288.09375 276.867188 C 288.09375 251.953125 267.8125 231.671875 242.902344 231.671875 " fill-opacity="1" fill-rule="nonzero"/><path fill="#dbceff" d="M 135.570312 129.992188 C 135.570312 111.300781 150.773438 96.097656 169.464844 96.097656 C 188.152344 96.097656 203.355469 111.300781 203.355469 129.992188 Z M 152.515625 67.851562 C 152.515625 58.496094 160.105469 50.902344 169.464844 50.902344 C 178.796875 50.902344 186.410156 58.496094 186.410156 67.851562 C 186.410156 77.207031 178.796875 84.796875 169.464844 84.796875 C 160.105469 84.796875 152.515625 77.207031 152.515625 67.851562 Z M 214.65625 129.992188 C 214.65625 111.742188 203.753906 96.007812 188.132812 88.878906 C 193.957031 83.695312 197.707031 76.234375 197.707031 67.851562 C 197.707031 52.273438 185.042969 39.605469 169.464844 39.605469 C 153.882812 39.605469 141.21875 52.273438 141.21875 67.851562 C 141.21875 76.234375 144.96875 83.695312 150.792969 88.878906 C 135.171875 96.007812 124.269531 111.742188 124.269531 129.992188 L 124.269531 141.289062 L 214.65625 141.289062 L 214.65625 129.992188 " fill-opacity="1" fill-rule="nonzero"/><path fill="#dbceff" d="M 259.847656 39.605469 L 225.953125 39.605469 L 225.953125 50.902344 L 259.847656 50.902344 L 259.847656 39.605469 " fill-opacity="1" fill-rule="nonzero"/><path fill="#dbceff" d="M 259.847656 62.203125 L 225.953125 62.203125 L 225.953125 73.5 L 259.847656 73.5 L 259.847656 62.203125 " fill-opacity="1" fill-rule="nonzero"/><path fill="#dbceff" d="M 259.847656 84.796875 L 225.953125 84.796875 L 225.953125 96.097656 L 259.847656 96.097656 L 259.847656 84.796875 " fill-opacity="1" fill-rule="nonzero"/><path fill="#dbceff" d="M 259.847656 107.394531 L 225.953125 107.394531 L 225.953125 118.691406 L 259.847656 118.691406 L 259.847656 107.394531 " fill-opacity="1" fill-rule="nonzero"/><path fill="#dbceff" d="M 259.847656 129.992188 L 225.953125 129.992188 L 225.953125 141.289062 L 259.847656 141.289062 L 259.847656 129.992188 " fill-opacity="1" fill-rule="nonzero"/><path fill="#dbceff" d="M 341.425781 87.886719 L 308.285156 80.847656 L 305.921875 91.902344 L 339.089844 98.941406 L 341.425781 87.886719 " fill-opacity="1" fill-rule="nonzero"/><path fill="#dbceff" d="M 336.726562 110 L 303.5625 102.957031 L 301.222656 113.992188 L 334.386719 121.054688 L 336.726562 110 " fill-opacity="1" fill-rule="nonzero"/><path fill="#dbceff" d="M 332.027344 132.109375 L 298.882812 125.046875 L 296.523438 136.101562 L 329.667969 143.140625 L 332.027344 132.109375 " fill-opacity="1" fill-rule="nonzero"/><path fill="#dbceff" d="M 327.328125 154.199219 L 294.183594 147.15625 L 291.820312 158.214844 L 324.988281 165.253906 L 327.328125 154.199219 " fill-opacity="1" fill-rule="nonzero"/><path fill="#dbceff" d="M 320.289062 187.363281 L 322.625 176.308594 L 289.484375 169.269531 L 287.121094 180.300781 L 320.289062 187.363281 " fill-opacity="1" fill-rule="nonzero"/><g clip-path="url(#id1)"><path fill="#dbceff" d="M 242.902344 355.953125 C 199.296875 355.953125 163.8125 320.46875 163.8125 276.867188 C 163.8125 233.261719 199.296875 197.777344 242.902344 197.777344 C 286.503906 197.777344 321.988281 233.261719 321.988281 276.867188 C 321.988281 320.46875 286.503906 355.953125 242.902344 355.953125 Z M 129.917969 282.515625 L 129.917969 271.214844 L 152.800781 271.214844 C 152.691406 273.09375 152.515625 274.96875 152.515625 276.867188 C 152.515625 278.761719 152.691406 280.640625 152.800781 282.515625 Z M 118.621094 293.8125 L 45.183594 293.8125 C 35.828125 293.8125 28.238281 286.222656 28.238281 276.867188 C 28.238281 267.507812 35.828125 259.917969 45.183594 259.917969 L 118.621094 259.917969 Z M 29.296875 79.191406 L 101.675781 63.8125 L 101.675781 79.390625 C 96.953125 77.804688 91.875 77.429688 86.890625 78.507812 C 79.519531 80.074219 73.1875 84.421875 69.082031 90.734375 C 64.957031 97.066406 63.566406 104.613281 65.132812 112.007812 C 66.699219 119.375 71.046875 125.710938 77.378906 129.8125 C 77.84375 130.121094 78.328125 130.320312 78.8125 130.609375 C 74.53125 133.785156 70.78125 137.691406 67.78125 142.28125 C 61.203125 152.410156 58.953125 164.503906 61.46875 176.308594 L 63.808594 187.363281 L 101.675781 179.308594 L 101.675781 190.871094 L 66.167969 198.398438 L 76.847656 248.621094 L 65.308594 248.621094 Z M 83.535156 120.347656 C 79.742188 117.875 77.136719 114.082031 76.1875 109.644531 C 75.238281 105.210938 76.078125 100.6875 78.546875 96.890625 C 81.019531 93.09375 84.816406 90.492188 89.230469 89.542969 C 93.53125 88.636719 97.921875 89.566406 101.675781 91.925781 L 101.675781 120.304688 C 99.976562 121.40625 98.1875 122.289062 96.289062 122.707031 C 91.855469 123.636719 87.332031 122.796875 83.535156 120.347656 Z M 77.246094 148.4375 C 82.191406 140.847656 89.78125 135.640625 98.628906 133.742188 C 99.621094 133.542969 100.636719 133.433594 101.675781 133.324219 L 101.675781 167.769531 L 72.523438 173.945312 C 70.648438 165.097656 72.324219 156.027344 77.246094 148.4375 Z M 88.414062 248.621094 L 79.585938 207.113281 L 101.675781 202.414062 L 101.675781 248.621094 Z M 168.226562 226.023438 L 135.570312 226.023438 L 135.570312 163.882812 L 248.550781 163.882812 L 248.550781 186.769531 C 246.671875 186.65625 244.796875 186.480469 242.902344 186.480469 C 211.898438 186.480469 184.511719 202.171875 168.226562 226.023438 Z M 271.144531 28.308594 L 271.144531 191.070312 C 267.460938 189.855469 263.710938 188.863281 259.847656 188.136719 L 259.847656 152.585938 L 124.269531 152.585938 L 124.269531 237.320312 L 161.738281 237.320312 C 158.273438 244.40625 155.671875 251.953125 154.148438 259.917969 L 129.917969 259.917969 L 129.917969 248.621094 L 112.972656 248.621094 L 112.972656 28.308594 Z M 354.820312 79.191406 L 322.054688 233.328125 C 313.070312 217.066406 299.191406 203.914062 282.445312 195.726562 L 282.445312 63.8125 Z M 368.214844 70.5 L 282.445312 52.25 L 282.445312 17.007812 L 101.675781 17.007812 L 101.675781 52.25 L 15.878906 70.5 L 53.746094 248.621094 L 45.183594 248.621094 C 29.605469 248.621094 16.9375 261.285156 16.9375 276.867188 C 16.9375 292.445312 29.605469 305.109375 45.183594 305.109375 L 129.917969 305.109375 L 129.917969 293.8125 L 154.148438 293.8125 C 162.113281 335.5625 198.855469 367.25 242.902344 367.25 C 292.726562 367.25 333.285156 326.714844 333.285156 276.867188 C 333.285156 268.128906 331.960938 259.699219 329.644531 251.710938 L 368.214844 70.5 " fill-opacity="1" fill-rule="nonzero"/></g></svg>