<svg xmlns="http://www.w3.org/2000/svg" xmlns:xlink="http://www.w3.org/1999/xlink" width="512" zoomAndPan="magnify" viewBox="0 0 384 383.999986" height="512" preserveAspectRatio="xMidYMid meet" version="1.0"><defs><clipPath id="id1"><path d="M 0.585938 13.199219 L 383.414062 13.199219 L 383.414062 370.949219 L 0.585938 370.949219 Z M 0.585938 13.199219 " clip-rule="nonzero"/></clipPath></defs><path fill="#dbceff" d="M 318.941406 276.949219 L 305.71875 276.507812 C 303.546875 276.441406 301.472656 277.492188 300.179688 279.261719 C 297.121094 283.445312 293.417969 287.148438 289.203125 290.242188 C 287.46875 291.503906 286.449219 293.578125 286.519531 295.785156 L 286.890625 308.980469 C 283.695312 310.542969 280.367188 311.800781 276.96875 312.820312 C 273.433594 313.671875 269.863281 314.25 266.261719 314.519531 L 259.972656 302.894531 C 258.953125 300.988281 257.050781 299.730469 254.910156 299.457031 C 249.710938 298.914062 244.613281 297.519531 239.855469 295.378906 C 239.003906 295.039062 238.050781 294.867188 237.167969 294.835938 C 235.910156 294.867188 234.722656 295.207031 233.703125 295.855469 L 222.484375 302.449219 C 216.640625 298.269531 211.542969 293.132812 207.394531 287.253906 L 214.5 275.757812 C 215.6875 273.71875 215.6875 271.203125 214.5 269.164062 C 211.949219 265.082031 210.726562 260.355469 210.863281 255.5625 C 210.792969 253.183594 209.46875 251.074219 207.394531 249.953125 L 195.5 243.355469 C 196.179688 236.183594 198.050781 229.210938 201.039062 222.683594 L 214.226562 223.058594 C 216.402344 223.125 218.511719 222.140625 219.800781 220.371094 C 222.828125 216.15625 226.53125 212.449219 230.746094 209.386719 C 232.511719 208.128906 233.53125 206.023438 233.464844 203.847656 L 233.054688 190.652344 C 236.285156 189.125 239.648438 187.832031 243.082031 186.8125 C 246.550781 185.925781 250.082031 185.316406 253.652344 184.976562 L 259.769531 196.46875 C 260.824219 198.371094 262.761719 199.664062 264.9375 199.902344 C 270.273438 200.414062 275.507812 201.804688 280.367188 204.050781 C 282.40625 204.96875 284.714844 204.832031 286.585938 203.675781 L 297.597656 197.046875 C 303.511719 201.195312 308.675781 206.292969 312.925781 212.109375 L 306.332031 223.191406 C 305.175781 225.0625 305.007812 227.410156 305.925781 229.414062 C 308.203125 233.9375 309.390625 238.9375 309.355469 244.003906 C 309.425781 246.382812 310.785156 248.523438 312.859375 249.613281 L 324.753906 256.207031 C 323.972656 263.417969 322 270.421875 318.941406 276.949219 Z M 334.441406 246.585938 L 322.035156 239.988281 C 321.726562 235.671875 320.742188 231.457031 319.042969 227.511719 L 326.382812 215.679688 C 327.710938 213.535156 327.710938 210.816406 326.382812 208.675781 C 320.027344 198.644531 311.5 190.144531 301.4375 183.851562 C 299.398438 182.664062 296.882812 182.664062 294.84375 183.851562 L 283.015625 191.199219 C 278.90625 189.601562 274.691406 188.445312 270.339844 187.730469 L 263.746094 175.523438 C 262.558594 173.347656 260.246094 172.019531 257.730469 172.089844 C 251.816406 172.226562 245.9375 173.074219 240.160156 174.605469 C 234.449219 176.136719 228.945312 178.34375 223.742188 181.203125 C 221.601562 182.390625 220.242188 184.703125 220.3125 187.152344 L 220.785156 201.226562 L 220.753906 201.226562 C 217.457031 203.914062 214.464844 206.972656 211.8125 210.339844 L 197.8125 209.863281 C 195.296875 209.761719 192.917969 211.121094 191.726562 213.367188 C 186.152344 223.875 183.027344 235.535156 182.621094 247.4375 C 182.519531 249.953125 183.84375 252.296875 186.050781 253.523438 L 198.457031 260.117188 C 198.628906 264.335938 199.714844 268.484375 201.6875 272.1875 L 193.972656 284.292969 C 192.816406 286.332031 192.816406 288.851562 193.972656 290.890625 C 200.328125 301.023438 208.859375 309.589844 218.984375 315.914062 C 221.058594 317.105469 223.574219 317.105469 225.578125 315.914062 L 238.1875 308.84375 C 242.128906 310.339844 246.210938 311.425781 250.355469 312.074219 L 256.949219 324.449219 L 256.949219 324.414062 C 258.070312 326.589844 260.3125 327.917969 262.761719 327.917969 C 268.8125 327.851562 274.792969 327.066406 280.636719 325.570312 C 286.347656 323.972656 291.855469 321.761719 297.085938 318.941406 C 299.261719 317.75 300.589844 315.4375 300.519531 312.957031 L 300.042969 298.949219 C 303.273438 296.261719 306.296875 293.269531 308.949219 290.039062 L 322.953125 290.480469 C 325.5 290.585938 327.847656 289.222656 329 286.980469 C 334.609375 276.441406 337.703125 264.777344 338.144531 252.84375 C 338.28125 250.222656 336.820312 247.742188 334.441406 246.585938 " fill-opacity="1" fill-rule="nonzero"/><path fill="#dbceff" d="M 274.859375 258.316406 C 272.582031 262.226562 268.878906 265.082031 264.527344 266.238281 C 260.210938 267.394531 255.554688 266.78125 251.648438 264.539062 C 247.773438 262.292969 244.917969 258.589844 243.761719 254.238281 C 242.605469 249.882812 243.21875 245.261719 245.460938 241.351562 C 247.703125 237.472656 251.410156 234.617188 255.757812 233.460938 C 260.109375 232.273438 264.730469 232.882812 268.640625 235.160156 C 272.550781 237.40625 275.371094 241.113281 276.527344 245.464844 C 277.679688 249.816406 277.101562 254.441406 274.859375 258.316406 Z M 233.972656 234.957031 C 228.976562 243.695312 228.636719 254.339844 233.089844 263.347656 C 237.578125 272.394531 246.242188 278.582031 256.234375 279.90625 C 266.195312 281.199219 276.152344 277.460938 282.8125 269.878906 C 289.441406 262.328125 291.886719 251.957031 289.269531 242.199219 C 287.230469 234.480469 282.167969 227.851562 275.234375 223.839844 C 268.300781 219.828125 260.042969 218.738281 252.292969 220.847656 C 244.542969 222.921875 237.949219 227.988281 233.972656 234.957031 " fill-opacity="1" fill-rule="nonzero"/><path fill="#dbceff" d="M 173.207031 282.117188 L 164.199219 281.777344 C 162.125 281.914062 160.1875 283.035156 159 284.734375 C 156.753906 287.863281 154.035156 290.585938 150.945312 292.863281 C 149.175781 294.121094 148.15625 296.160156 148.191406 298.335938 L 148.496094 307.449219 C 146.390625 308.433594 144.179688 309.21875 141.902344 309.828125 C 139.625 310.40625 137.316406 310.847656 134.96875 311.085938 L 130.6875 303.027344 C 129.632812 301.089844 127.730469 299.832031 125.519531 299.59375 C 121.714844 299.21875 118.011719 298.199219 114.507812 296.636719 C 113.660156 296.261719 112.742188 296.09375 111.789062 296.09375 C 110.601562 296.125 109.410156 296.464844 108.390625 297.078125 L 100.710938 301.769531 C 96.972656 299.015625 93.675781 295.71875 90.886719 292.011719 L 95.78125 284.089844 C 96.9375 282.050781 96.9375 279.535156 95.78125 277.492188 C 93.84375 274.535156 92.859375 271.035156 92.996094 267.496094 C 92.929688 265.152344 91.636719 263.007812 89.5625 261.886719 L 81.304688 257.535156 C 81.917969 252.976562 83.140625 248.558594 84.941406 244.34375 L 93.914062 244.34375 C 96.089844 244.410156 98.160156 243.390625 99.453125 241.621094 C 101.695312 238.527344 104.414062 235.808594 107.507812 233.5625 C 109.277344 232.273438 110.296875 230.199219 110.226562 228.019531 L 110.226562 218.910156 C 112.367188 217.992188 114.578125 217.207031 116.820312 216.527344 C 118.996094 215.949219 121.203125 215.542969 123.414062 215.269531 L 127.664062 223.125 C 128.683594 225.0625 130.621094 226.355469 132.792969 226.558594 C 136.738281 226.96875 140.542969 227.988281 144.144531 229.621094 C 146.152344 230.503906 148.460938 230.367188 150.367188 229.210938 L 157.878906 224.519531 C 161.582031 227.273438 164.878906 230.539062 167.664062 234.242188 L 162.976562 241.824219 C 161.820312 243.695312 161.648438 246.007812 162.566406 248.015625 C 164.265625 251.277344 165.117188 254.917969 165.082031 258.589844 C 165.148438 260.933594 166.441406 263.078125 168.515625 264.199219 L 176.707031 268.621094 L 176.671875 268.621094 C 176.195312 273.277344 175.007812 277.800781 173.207031 282.117188 Z M 186.800781 259.066406 L 177.996094 254.371094 C 177.757812 251.480469 177.113281 248.625 176.027344 245.90625 L 181.261719 237.542969 C 182.550781 235.398438 182.550781 232.714844 181.261719 230.605469 C 176.230469 222.683594 169.433594 216.019531 161.445312 211.121094 C 159.304688 209.761719 156.585938 209.761719 154.445312 211.121094 L 146.117188 216.324219 C 143.363281 215.339844 140.507812 214.558594 137.621094 214.011719 L 133.132812 205.511719 C 131.945312 203.300781 129.632812 201.941406 127.117188 202.011719 C 122.460938 202.179688 117.839844 202.859375 113.320312 204.050781 C 108.867188 205.34375 104.550781 207.144531 100.4375 209.386719 C 98.265625 210.578125 96.9375 212.925781 97.039062 215.40625 L 97.210938 225.300781 C 95.070312 227.101562 93.0625 229.109375 91.261719 231.25 L 81.304688 230.910156 C 78.789062 230.84375 76.445312 232.203125 75.253906 234.414062 C 70.9375 242.609375 68.492188 251.617188 68.117188 260.832031 C 68.015625 263.347656 69.339844 265.695312 71.550781 266.917969 L 80.320312 271.609375 C 80.488281 274.46875 81.238281 277.253906 82.492188 279.804688 L 77.292969 288.238281 C 75.96875 290.378906 75.96875 293.101562 77.292969 295.242188 C 82.289062 303.265625 89.085938 310.03125 97.074219 315.066406 C 99.214844 316.390625 101.933594 316.390625 104.074219 315.066406 L 112.539062 309.761719 C 115.15625 310.746094 117.875 311.496094 120.660156 311.9375 L 125.417969 320.742188 L 125.386719 320.742188 C 126.542969 322.886719 128.785156 324.210938 131.230469 324.246094 C 135.988281 324.144531 140.714844 323.496094 145.335938 322.308594 C 149.820312 321.050781 154.136719 319.28125 158.21875 316.96875 C 160.359375 315.777344 161.683594 313.5 161.648438 311.019531 L 161.308594 301.054688 C 163.449219 299.21875 165.421875 297.25 167.257812 295.105469 L 177.214844 295.105469 C 179.730469 295.175781 182.042969 293.8125 183.230469 291.605469 C 187.546875 283.375 189.996094 274.261719 190.300781 264.945312 C 190.300781 262.464844 188.976562 260.222656 186.800781 259.066406 " fill-opacity="1" fill-rule="nonzero"/><path fill="#dbceff" d="M 132.113281 274.160156 C 129.191406 274.945312 126.097656 274.535156 123.480469 273.003906 C 120.898438 271.476562 118.960938 268.992188 118.214844 266.070312 C 117.433594 263.144531 117.839844 260.050781 119.335938 257.433594 C 120.863281 254.816406 123.347656 252.875 126.269531 252.09375 C 129.191406 251.3125 132.285156 251.71875 134.902344 253.214844 C 137.519531 254.710938 139.457031 257.195312 140.238281 260.117188 C 141.054688 263.042969 140.644531 266.203125 139.117188 268.824219 C 137.585938 271.476562 135.070312 273.414062 132.113281 274.160156 Z M 122.835938 239.308594 C 116.515625 241.011719 111.144531 245.125 107.882812 250.800781 C 104.621094 256.445312 103.734375 263.179688 105.433594 269.46875 C 107.101562 275.792969 111.246094 281.164062 116.890625 284.429688 C 122.53125 287.695312 129.261719 288.578125 135.582031 286.910156 C 141.871094 285.210938 147.238281 281.097656 150.5 275.417969 C 153.796875 269.773438 154.683594 263.042969 152.984375 256.753906 C 151.316406 250.429688 147.171875 245.054688 141.527344 241.757812 C 135.851562 238.492188 129.125 237.609375 122.835938 239.308594 " fill-opacity="1" fill-rule="nonzero"/><path fill="#dbceff" d="M 124.738281 132.136719 L 133.78125 132.136719 C 135.957031 132.207031 138.027344 131.183594 139.320312 129.449219 C 141.5625 126.324219 144.28125 123.601562 147.375 121.394531 C 149.140625 120.101562 150.160156 118.027344 150.09375 115.816406 L 150.09375 106.738281 C 152.203125 105.753906 154.410156 104.9375 156.6875 104.289062 C 158.863281 103.746094 161.070312 103.304688 163.28125 103.03125 L 167.496094 110.953125 C 168.550781 112.890625 170.484375 114.152344 172.660156 114.386719 C 176.570312 114.761719 180.410156 115.78125 184.011719 117.414062 C 186.019531 118.296875 188.363281 118.128906 190.199219 116.972656 L 197.742188 112.28125 C 201.414062 115.035156 204.710938 118.296875 207.5 121.972656 L 202.808594 129.621094 C 201.652344 131.523438 201.515625 133.835938 202.433594 135.84375 C 204.066406 139.109375 204.914062 142.746094 204.847656 146.417969 C 204.949219 148.765625 206.273438 150.90625 208.382812 152.027344 L 216.574219 156.449219 C 215.996094 161.003906 214.769531 165.425781 212.96875 169.640625 L 203.929688 169.640625 C 201.753906 169.574219 199.679688 170.59375 198.390625 172.359375 C 196.144531 175.457031 193.425781 178.175781 190.335938 180.417969 C 188.566406 181.710938 187.582031 183.785156 187.648438 185.960938 L 187.648438 195.074219 C 185.507812 196.058594 183.300781 196.84375 181.054688 197.453125 C 178.746094 198.03125 176.398438 198.441406 174.054688 198.644531 L 169.773438 190.652344 C 168.71875 188.75 166.816406 187.457031 164.675781 187.21875 C 160.867188 186.8125 157.164062 185.792969 153.664062 184.261719 C 152.8125 183.851562 151.894531 183.648438 150.945312 183.648438 C 149.71875 183.648438 148.496094 183.988281 147.441406 184.636719 L 139.796875 189.394531 C 136.089844 186.609375 132.792969 183.308594 130.007812 179.601562 L 134.902344 171.714844 C 136.089844 169.640625 136.089844 167.125 134.902344 165.085938 C 133.238281 162.195312 132.421875 158.863281 132.589844 155.53125 C 132.523438 153.148438 131.195312 151.007812 129.089844 149.921875 L 120.898438 145.5 C 121.546875 140.875 122.835938 136.386719 124.738281 132.136719 Z M 111.144531 155.121094 L 119.914062 159.8125 C 120.050781 162.671875 120.796875 165.457031 122.089844 168.007812 L 116.890625 176.441406 C 115.5625 178.582031 115.5625 181.304688 116.890625 183.445312 C 121.851562 191.503906 128.648438 198.269531 136.703125 203.269531 C 138.808594 204.558594 141.496094 204.558594 143.601562 203.269531 L 152.132812 198.03125 C 154.785156 198.984375 157.503906 199.699219 160.257812 200.207031 L 164.945312 209.015625 C 166.066406 211.15625 168.3125 212.484375 170.757812 212.515625 C 175.480469 212.378906 180.207031 211.734375 184.792969 210.578125 C 189.382812 209.320312 193.835938 207.519531 198.015625 205.242188 C 200.121094 204.050781 201.449219 201.738281 201.378906 199.289062 L 201.378906 189.257812 C 203.488281 187.457031 205.492188 185.484375 207.328125 183.378906 L 217.285156 183.378906 C 219.800781 183.445312 222.113281 182.085938 223.269531 179.875 C 227.652344 171.648438 230.132812 162.5 230.472656 153.148438 C 230.574219 150.601562 229.214844 148.253906 226.972656 147.0625 L 218.203125 142.371094 C 217.933594 139.480469 217.285156 136.625 216.234375 133.9375 L 221.363281 125.539062 C 222.722656 123.398438 222.722656 120.679688 221.363281 118.535156 C 216.335938 110.613281 209.570312 103.949219 201.550781 99.054688 C 199.511719 97.898438 197.03125 97.898438 194.957031 99.054688 L 186.597656 104.289062 C 183.808594 103.234375 180.988281 102.488281 178.066406 101.976562 L 172.730469 93.238281 C 171.539062 91.03125 169.230469 89.667969 166.714844 89.738281 C 162.058594 89.875 157.433594 90.554688 152.914062 91.742188 C 148.328125 93 143.910156 94.804688 139.726562 97.082031 C 137.554688 98.304688 136.261719 100.617188 136.363281 103.101562 L 136.804688 113.0625 C 134.664062 114.832031 132.660156 116.800781 130.890625 118.945312 L 120.898438 118.945312 C 118.382812 118.84375 116.039062 120.203125 114.847656 122.445312 C 110.464844 130.710938 107.984375 139.820312 107.644531 149.171875 C 107.609375 151.652344 108.96875 153.964844 111.144531 155.121094 " fill-opacity="1" fill-rule="nonzero"/><path fill="#dbceff" d="M 165.59375 139.992188 C 168.550781 139.175781 171.675781 139.582031 174.328125 141.113281 C 176.976562 142.609375 178.914062 145.125 179.730469 148.050781 C 180.511719 151.007812 180.105469 154.136719 178.609375 156.789062 C 177.078125 159.441406 174.566406 161.378906 171.640625 162.160156 C 168.683594 162.976562 165.558594 162.570312 162.90625 161.039062 C 160.257812 159.507812 158.351562 157.027344 157.539062 154.066406 C 156.789062 151.144531 157.199219 148.015625 158.691406 145.398438 C 160.1875 142.746094 162.667969 140.808594 165.59375 139.992188 Z M 175.175781 174.945312 C 181.496094 173.246094 186.867188 169.097656 190.164062 163.417969 C 193.425781 157.742188 194.3125 151.007812 192.613281 144.683594 C 190.914062 138.359375 186.765625 132.953125 181.089844 129.6875 C 175.414062 126.425781 168.683594 125.539062 162.363281 127.242188 C 156.042969 128.941406 150.636719 133.089844 147.375 138.765625 C 144.113281 144.445312 143.230469 151.179688 144.929688 157.503906 C 146.660156 163.828125 150.808594 169.199219 156.449219 172.464844 C 162.125 175.726562 168.855469 176.609375 175.175781 174.945312 " fill-opacity="1" fill-rule="nonzero"/><g clip-path="url(#id1)"><path fill="#dbceff" d="M 13.773438 358.179688 L 13.773438 73.449219 L 370.195312 73.449219 L 370.195312 358.179688 Z M 370.195312 26.425781 L 370.195312 60.222656 L 13.773438 60.222656 L 13.773438 26.425781 Z M 376.820312 13.234375 L 7.179688 13.234375 C 3.542969 13.234375 0.585938 16.191406 0.585938 19.832031 L 0.585938 364.773438 C 0.585938 366.542969 1.265625 368.210938 2.523438 369.433594 C 3.746094 370.691406 5.445312 371.371094 7.179688 371.371094 L 376.820312 371.371094 C 378.554688 371.371094 380.253906 370.691406 381.476562 369.433594 C 382.699219 368.210938 383.414062 366.542969 383.414062 364.773438 L 383.414062 19.832031 C 383.414062 18.0625 382.699219 16.394531 381.476562 15.136719 C 380.253906 13.914062 378.554688 13.234375 376.820312 13.234375 " fill-opacity="1" fill-rule="nonzero"/></g><path fill="#dbceff" d="M 328.695312 43.460938 C 328.695312 47.097656 325.738281 50.058594 322.101562 50.058594 C 318.429688 50.058594 315.507812 47.097656 315.507812 43.460938 C 315.507812 39.824219 318.429688 36.863281 322.101562 36.863281 C 325.738281 36.863281 328.695312 39.824219 328.695312 43.460938 " fill-opacity="1" fill-rule="nonzero"/><path fill="#dbceff" d="M 349.222656 43.460938 C 349.222656 47.097656 346.265625 50.058594 342.628906 50.058594 C 338.992188 50.058594 336.035156 47.097656 336.035156 43.460938 C 336.035156 39.824219 338.992188 36.863281 342.628906 36.863281 C 346.265625 36.863281 349.222656 39.824219 349.222656 43.460938 " fill-opacity="1" fill-rule="nonzero"/><path fill="#dbceff" d="M 308.097656 43.460938 C 308.097656 47.097656 305.144531 50.058594 301.507812 50.058594 C 297.835938 50.058594 294.914062 47.097656 294.914062 43.460938 C 294.914062 39.824219 297.835938 36.863281 301.507812 36.863281 C 305.144531 36.863281 308.097656 39.824219 308.097656 43.460938 " fill-opacity="1" fill-rule="nonzero"/><path fill="#dbceff" d="M 56.425781 50.058594 L 222.484375 50.058594 C 226.121094 50.058594 229.113281 47.097656 229.113281 43.460938 C 229.113281 39.824219 226.121094 36.863281 222.484375 36.863281 L 56.425781 36.863281 C 52.789062 36.863281 49.832031 39.824219 49.832031 43.460938 C 49.832031 47.097656 52.789062 50.058594 56.425781 50.058594 " fill-opacity="1" fill-rule="nonzero"/></svg>