<svg xmlns="http://www.w3.org/2000/svg" xmlns:xlink="http://www.w3.org/1999/xlink" width="512" zoomAndPan="magnify" viewBox="0 0 384 383.999986" height="512" preserveAspectRatio="xMidYMid meet" version="1.0"><path fill="#dbceff" d="M 175.363281 362.9375 C 175.363281 362.9375 175.628906 362.9375 175.363281 362.9375 L 220.285156 362.9375 C 237.933594 362.9375 258.523438 361.871094 278.3125 353.855469 C 285.265625 350.917969 289.542969 349.316406 294.089844 347.980469 C 293.019531 344.777344 292.484375 341.570312 292.484375 338.097656 L 292.484375 337.296875 C 286.601562 338.898438 282.054688 340.769531 274.035156 343.976562 C 256.117188 351.453125 236.863281 351.988281 220.285156 352.253906 L 175.628906 352.253906 C 169.480469 352.253906 164.132812 347.179688 164.132812 340.769531 C 164.132812 334.359375 169.746094 329.019531 176.433594 329.019531 C 176.433594 329.019531 196.21875 328.75 196.21875 328.75 C 199.160156 328.75 201.566406 326.347656 201.566406 323.410156 C 201.566406 320.472656 199.160156 318.066406 196.21875 318.066406 C 196.21875 318.066406 162.527344 318.335938 162.527344 318.335938 C 156.375 318.335938 150.492188 313.261719 150.492188 306.851562 C 150.492188 300.441406 156.109375 295.097656 162.792969 295.097656 L 195.417969 294.832031 C 198.359375 294.832031 200.765625 292.425781 200.765625 289.488281 C 200.765625 286.550781 198.359375 284.148438 195.417969 284.148438 C 195.417969 284.148438 153.703125 284.414062 153.433594 284.414062 C 147.285156 284.414062 141.402344 279.339844 141.402344 272.929688 C 141.402344 266.519531 147.019531 261.179688 153.703125 261.179688 L 195.683594 260.910156 C 198.625 260.910156 201.03125 258.507812 201.03125 255.570312 C 201.03125 252.632812 198.625 250.230469 195.683594 250.230469 L 145.949219 250.496094 C 139.261719 250.496094 133.914062 246.488281 133.378906 240.878906 C 132.84375 233.9375 138.996094 228.59375 145.949219 228.328125 C 145.949219 228.328125 210.660156 228.328125 210.925781 228.328125 C 214.136719 228.328125 216.808594 225.121094 216.273438 221.917969 L 211.730469 200.285156 C 208.519531 184.527344 216.007812 168.234375 230.179688 159.953125 C 231.25 159.421875 232.585938 159.6875 232.855469 161.023438 L 244.085938 206.160156 C 247.292969 219.246094 256.117188 229.929688 268.417969 236.074219 C 276.171875 239.8125 284.460938 242.75 293.019531 245.152344 C 293.019531 241.414062 293.285156 237.941406 294.355469 234.472656 C 286.867188 232.335938 279.917969 229.929688 272.964844 226.457031 C 263.605469 221.917969 256.652344 213.636719 254.246094 203.757812 C 254.246094 203.757812 243.015625 158.621094 243.015625 158.621094 C 241.144531 150.605469 231.515625 146.867188 224.5625 150.875 C 206.113281 161.558594 196.753906 182.390625 201.03125 202.6875 L 204.242188 217.910156 C 204.242188 217.910156 145.679688 217.910156 145.679688 217.910156 C 132.84375 217.910156 121.347656 228.863281 122.683594 241.949219 C 123.488281 249.695312 128.566406 256.105469 135.785156 259.308594 C 132.578125 263.046875 130.707031 267.855469 130.707031 273.199219 C 130.707031 282.011719 136.320312 290.289062 144.609375 293.761719 C 141.667969 297.503906 140.066406 302.042969 140.066406 307.117188 C 140.066406 317.265625 147.820312 326.613281 157.714844 328.75 C 155.308594 332.222656 153.96875 336.496094 153.96875 340.769531 C 153.167969 352.789062 163.597656 362.9375 175.363281 362.9375 Z M 175.363281 362.9375 " fill-opacity="1" fill-rule="nonzero"/><path fill="#dbceff" d="M 341.417969 222.71875 L 324.839844 222.71875 C 313.074219 222.71875 303.449219 232.335938 303.449219 244.085938 L 303.449219 338.097656 C 303.449219 349.851562 313.074219 359.464844 324.839844 359.464844 L 341.417969 359.464844 C 353.183594 359.464844 362.8125 349.851562 362.8125 338.097656 L 362.8125 244.085938 C 362.8125 232.335938 353.183594 222.71875 341.417969 222.71875 Z M 341.417969 222.71875 " fill-opacity="1" fill-rule="nonzero"/><path fill="#dbceff" d="M 128.835938 308.1875 C 128.835938 307.652344 128.835938 307.382812 128.835938 306.851562 C 128.835938 303.644531 129.371094 300.171875 130.4375 297.234375 C 123.753906 291.09375 119.742188 282.277344 119.742188 273.199219 C 119.742188 269.726562 120.277344 266.253906 121.613281 263.046875 C 116 257.707031 112.523438 250.761719 111.722656 243.285156 C 110.917969 234.203125 113.859375 225.65625 120.277344 218.710938 C 126.695312 211.5 136.054688 207.496094 145.679688 207.496094 L 191.140625 207.496094 L 190.605469 205.359375 C 185.523438 180.519531 197.023438 155.148438 219.484375 142.058594 C 222.960938 139.921875 226.972656 138.855469 230.980469 138.855469 C 241.945312 138.855469 251.035156 146.066406 253.710938 156.214844 C 253.710938 156.214844 255.851562 164.496094 264.941406 201.351562 C 266.546875 207.761719 270.824219 213.105469 276.976562 216.578125 C 276.976562 216.042969 277.242188 215.242188 277.507812 214.707031 C 284.996094 202.152344 291.683594 188.800781 297.566406 175.710938 C 298.632812 173.042969 301.84375 171.707031 304.515625 173.042969 C 307.191406 174.109375 308.527344 177.316406 307.191406 179.984375 C 301.308594 193.605469 294.355469 206.960938 286.601562 220.046875 C 286.601562 220.316406 286.332031 220.316406 286.066406 220.582031 C 289.542969 221.917969 293.285156 223.253906 297.296875 224.320312 C 298.101562 224.589844 298.632812 224.855469 299.4375 225.121094 C 305.050781 217.644531 313.875 212.570312 323.769531 212.304688 C 340.347656 179.453125 355.859375 136.71875 362.8125 94.519531 C 364.949219 81.164062 355.324219 67.8125 341.6875 67.011719 C 318.957031 65.675781 297.03125 62.203125 276.171875 57.128906 C 244.085938 49.382812 217.613281 37.898438 195.148438 22.140625 C 193.277344 20.804688 190.871094 20.804688 189 22.140625 C 166.539062 37.898438 140.066406 49.382812 107.976562 57.128906 C 87.121094 62.203125 65.191406 65.40625 42.464844 67.011719 C 28.828125 67.8125 19.199219 81.164062 21.339844 94.519531 C 36.582031 191.203125 85.515625 260.910156 128.835938 308.1875 Z M 306.121094 152.476562 C 308.261719 146.601562 310.132812 140.992188 312.003906 135.117188 C 312.808594 132.445312 315.75 130.574219 318.691406 131.644531 C 321.363281 132.445312 322.96875 135.648438 322.164062 138.320312 C 320.292969 144.195312 318.15625 150.339844 316.015625 156.214844 C 314.945312 158.886719 312.003906 160.488281 309.0625 159.421875 C 306.65625 158.351562 305.320312 155.414062 306.121094 152.476562 Z M 263.871094 91.316406 C 264.140625 88.375 267.082031 86.238281 269.753906 86.773438 C 273.230469 87.308594 276.707031 87.574219 280.183594 87.84375 C 283.125 88.109375 285.265625 90.511719 284.996094 93.449219 C 284.730469 96.390625 282.324219 98.257812 279.648438 98.257812 C 279.648438 98.257812 271.894531 97.457031 268.417969 97.191406 C 265.742188 96.921875 263.605469 94.253906 263.871094 91.316406 Z M 131.242188 83.570312 C 134.71875 82.769531 137.925781 81.964844 141.402344 80.898438 C 160.121094 75.554688 175.363281 67.8125 188.464844 56.859375 C 190.335938 55.257812 193.277344 55.257812 195.417969 56.859375 C 208.519531 67.8125 223.761719 75.554688 242.480469 80.898438 C 244.886719 81.699219 247.292969 82.234375 249.96875 82.769531 C 252.910156 83.570312 254.511719 86.238281 253.976562 89.179688 C 253.175781 92.117188 250.234375 93.71875 247.5625 93.183594 C 244.886719 92.648438 242.480469 91.847656 239.804688 91.046875 C 221.355469 85.707031 205.578125 77.960938 192.207031 67.542969 C 178.839844 77.960938 163.0625 85.707031 144.609375 91.046875 C 141.136719 92.117188 137.660156 92.917969 133.914062 93.71875 C 131.242188 94.253906 128.03125 92.382812 127.496094 89.710938 C 126.429688 87.042969 128.300781 84.371094 131.242188 83.570312 Z M 102.898438 87.84375 C 105.304688 87.574219 107.976562 87.308594 110.382812 87.042969 C 113.324219 86.773438 116 88.910156 116.265625 91.847656 C 116.535156 94.785156 114.394531 97.457031 111.453125 97.722656 C 108.78125 97.992188 106.105469 98.257812 103.429688 98.527344 C 100.488281 98.792969 97.816406 96.390625 97.546875 93.71875 C 97.816406 90.511719 99.957031 88.109375 102.898438 87.84375 Z M 102.898438 87.84375 " fill-opacity="1" fill-rule="nonzero"/></svg>