<svg xmlns="http://www.w3.org/2000/svg" xmlns:xlink="http://www.w3.org/1999/xlink" width="512" zoomAndPan="magnify" viewBox="0 0 384 383.999986" height="512" preserveAspectRatio="xMidYMid meet" version="1.0"><defs><clipPath id="id1"><path d="M 31 307 L 353 307 L 353 373.167969 L 31 373.167969 Z M 31 307 " clip-rule="nonzero"/></clipPath></defs><path fill="#dbceff" d="M 108.480469 252.78125 L 97.742188 279.957031 L 286.105469 279.957031 L 275.371094 252.78125 L 108.480469 252.78125 " fill-opacity="1" fill-rule="nonzero"/><g clip-path="url(#id1)"><path fill="#dbceff" d="M 323.703125 307.285156 L 350.972656 356.53125 C 355.070312 363.925781 349.730469 373.015625 341.265625 373.015625 L 42.585938 373.015625 C 34.121094 373.015625 28.78125 363.925781 32.878906 356.53125 L 60.144531 307.285156 L 323.703125 307.285156 " fill-opacity="1" fill-rule="nonzero"/></g><path fill="#dbceff" d="M 309.703125 185.554688 L 291.136719 185.554688 C 289.316406 185.554688 287.691406 184.4375 287.011719 182.738281 L 279.496094 163.625 L 265.578125 213.746094 C 265.070312 215.582031 263.445312 216.898438 261.550781 216.996094 C 261.464844 216.996094 261.394531 216.996094 261.3125 216.996094 C 259.503906 216.996094 257.863281 215.894531 257.1875 214.183594 L 245.910156 185.554688 L 220.605469 185.554688 C 219.335938 185.554688 218.121094 185.003906 217.273438 184.039062 L 195.144531 158.773438 L 179.886719 213.746094 C 179.378906 215.582031 177.753906 216.898438 175.859375 216.996094 C 173.953125 217.097656 172.203125 215.964844 171.496094 214.183594 L 160.234375 185.554688 L 144.679688 185.554688 C 142.855469 185.554688 141.21875 184.4375 140.554688 182.738281 L 133.023438 163.625 L 119.121094 213.746094 C 118.609375 215.582031 116.984375 216.898438 115.078125 216.996094 C 113.171875 217.097656 111.417969 215.964844 110.726562 214.183594 L 99.453125 185.554688 L 74.148438 185.554688 C 71.6875 185.554688 69.710938 183.574219 69.710938 181.113281 C 69.710938 178.667969 71.6875 176.6875 74.148438 176.6875 L 102.476562 176.6875 C 104.285156 176.6875 105.921875 177.804688 106.585938 179.503906 L 114.117188 198.617188 L 128.019531 148.496094 C 128.527344 146.660156 130.152344 145.34375 132.0625 145.246094 C 133.96875 145.144531 135.722656 146.277344 136.414062 148.058594 L 147.6875 176.6875 L 163.242188 176.6875 C 165.066406 176.6875 166.707031 177.804688 167.371094 179.503906 L 174.898438 198.617188 L 188.800781 148.496094 C 189.242188 146.925781 190.496094 145.726562 192.082031 145.359375 C 193.664062 144.988281 195.328125 145.527344 196.402344 146.757812 L 222.613281 176.6875 L 248.933594 176.6875 C 250.757812 176.6875 252.394531 177.804688 253.058594 179.503906 L 260.589844 198.617188 L 274.492188 148.496094 C 275.003906 146.660156 276.625 145.34375 278.535156 145.246094 C 280.457031 145.144531 282.179688 146.277344 282.886719 148.042969 L 294.160156 176.6875 L 309.703125 176.6875 C 312.160156 176.6875 314.140625 178.667969 314.140625 181.113281 C 314.140625 183.574219 312.160156 185.554688 309.703125 185.554688 Z M 89.109375 73.675781 L 126.679688 73.675781 C 129.121094 73.675781 131.101562 75.65625 131.101562 78.113281 C 131.101562 80.5625 129.121094 82.539062 126.679688 82.539062 L 112.324219 82.539062 L 112.324219 125.167969 C 112.324219 127.613281 110.34375 129.59375 107.886719 129.59375 C 105.441406 129.59375 103.464844 127.613281 103.464844 125.167969 L 103.464844 82.539062 L 89.109375 82.539062 C 86.664062 82.539062 84.6875 80.5625 84.6875 78.113281 C 84.6875 75.65625 86.664062 73.675781 89.109375 73.675781 Z M 147.546875 78.113281 C 147.546875 75.65625 149.523438 73.675781 151.96875 73.675781 L 179.773438 73.675781 C 182.21875 73.675781 184.195312 75.65625 184.195312 78.113281 C 184.195312 80.5625 182.21875 82.539062 179.773438 82.539062 L 156.40625 82.539062 L 156.40625 97.203125 L 179.773438 97.203125 C 182.21875 97.203125 184.195312 99.179688 184.195312 101.640625 C 184.195312 104.085938 182.21875 106.066406 179.773438 106.066406 L 156.40625 106.066406 L 156.40625 120.730469 L 179.773438 120.730469 C 182.21875 120.730469 184.195312 122.722656 184.195312 125.167969 C 184.195312 127.613281 182.21875 129.59375 179.773438 129.59375 L 151.96875 129.59375 C 149.523438 129.59375 147.546875 127.613281 147.546875 125.167969 Z M 220.054688 105.925781 C 214.433594 104.355469 204.992188 99.238281 204.992188 89.878906 C 204.992188 80.941406 212.257812 73.675781 221.1875 73.675781 C 230.113281 73.675781 237.378906 80.941406 237.378906 89.878906 C 237.378906 92.324219 235.386719 94.304688 232.941406 94.304688 C 230.496094 94.304688 228.503906 92.324219 228.503906 89.878906 C 228.503906 85.835938 225.226562 82.539062 221.1875 82.539062 C 217.144531 82.539062 213.867188 85.835938 213.867188 89.878906 C 213.867188 94.714844 222.300781 97.34375 222.386719 97.371094 C 227.910156 98.828125 237.378906 103.875 237.378906 113.40625 C 237.378906 122.328125 230.113281 129.59375 221.1875 129.59375 C 212.257812 129.59375 204.992188 122.328125 204.992188 113.40625 C 204.992188 110.945312 206.984375 108.964844 209.429688 108.964844 C 211.875 108.964844 213.867188 110.945312 213.867188 113.40625 C 213.867188 117.449219 217.144531 120.730469 221.1875 120.730469 C 225.226562 120.730469 228.503906 117.449219 228.503906 113.40625 C 228.503906 108.386719 220.140625 105.953125 220.054688 105.925781 Z M 257.171875 73.675781 L 294.738281 73.675781 C 297.183594 73.675781 299.164062 75.65625 299.164062 78.113281 C 299.164062 80.5625 297.183594 82.539062 294.738281 82.539062 L 280.386719 82.539062 L 280.386719 125.167969 C 280.386719 127.613281 278.40625 129.59375 275.960938 129.59375 C 273.503906 129.59375 271.527344 127.613281 271.527344 125.167969 L 271.527344 82.539062 L 257.171875 82.539062 C 254.726562 82.539062 252.75 80.5625 252.75 78.113281 C 252.75 75.65625 254.726562 73.675781 257.171875 73.675781 Z M 325.285156 11.070312 L 58.5625 11.070312 C 45.664062 11.070312 35.222656 21.53125 35.222656 34.441406 L 35.222656 220.558594 C 35.222656 233.453125 45.664062 243.917969 58.5625 243.917969 L 325.285156 243.917969 C 338.1875 243.917969 348.640625 233.453125 348.640625 220.558594 L 348.640625 34.441406 C 348.640625 21.53125 338.1875 11.070312 325.285156 11.070312 " fill-opacity="1" fill-rule="nonzero"/></svg>