<svg xmlns="http://www.w3.org/2000/svg" xmlns:xlink="http://www.w3.org/1999/xlink" width="512" zoomAndPan="magnify" viewBox="0 0 384 383.999986" height="512" preserveAspectRatio="xMidYMid meet" version="1.0"><defs><clipPath id="id1"><path d="M 0 287 L 384 287 L 384 337.558594 L 0 337.558594 Z M 0 287 " clip-rule="nonzero"/></clipPath><clipPath id="id2"><path d="M 0 46.558594 L 145 46.558594 L 145 192 L 0 192 Z M 0 46.558594 " clip-rule="nonzero"/></clipPath></defs><path fill="#dbceff" d="M 270.171875 264.414062 L 113.152344 264.414062 C 110.003906 264.414062 107.527344 261.941406 107.527344 258.789062 L 107.527344 235.609375 C 107.527344 232.457031 110.003906 229.980469 113.152344 229.980469 C 116.300781 229.980469 118.777344 232.457031 118.777344 235.609375 L 118.777344 253.386719 L 265.222656 253.386719 L 265.222656 235.609375 C 265.222656 232.457031 267.699219 229.980469 270.847656 229.980469 C 273.996094 229.980469 276.472656 232.457031 276.472656 235.609375 L 276.472656 258.789062 C 275.796875 261.941406 273.320312 264.414062 270.171875 264.414062 Z M 270.171875 264.414062 " fill-opacity="1" fill-rule="evenodd"/><path fill="#dbceff" d="M 191.664062 242.585938 C 189.863281 242.585938 187.839844 241.683594 186.9375 239.882812 L 152.746094 181.371094 C 151.84375 179.792969 151.84375 177.542969 152.746094 175.742188 C 153.644531 174.167969 155.445312 172.816406 157.46875 172.816406 L 168.941406 172.816406 L 168.941406 119.929688 C 168.941406 116.777344 171.417969 114.304688 174.566406 114.304688 L 208.757812 114.304688 C 211.910156 114.304688 214.382812 116.777344 214.382812 119.929688 L 214.382812 173.269531 L 226.304688 173.269531 C 228.105469 173.269531 229.90625 174.167969 231.03125 175.96875 C 231.929688 177.542969 231.929688 179.792969 231.03125 181.59375 L 196.386719 239.882812 C 195.488281 241.683594 193.914062 242.585938 191.664062 242.585938 Z M 167.140625 184.070312 L 191.886719 226.382812 L 216.859375 184.070312 L 208.757812 184.070312 C 205.609375 184.070312 203.136719 181.59375 203.136719 178.667969 L 203.136719 125.105469 L 179.738281 125.105469 L 179.738281 178.445312 C 179.738281 181.59375 177.265625 183.84375 174.117188 183.84375 L 167.140625 183.84375 Z M 167.140625 184.070312 " fill-opacity="1" fill-rule="evenodd"/><path fill="#dbceff" d="M 349.582031 298.171875 L 33.742188 298.171875 C 30.59375 298.171875 28.121094 295.699219 28.121094 292.546875 L 28.121094 174.167969 C 28.121094 171.015625 30.59375 168.542969 33.742188 168.542969 C 36.667969 168.542969 39.367188 171.015625 39.367188 174.167969 L 39.367188 287.371094 L 344.40625 287.371094 L 344.40625 94.5 C 344.40625 92.699219 342.832031 91.121094 341.257812 91.121094 L 123.5 91.121094 C 120.351562 91.121094 117.878906 88.648438 117.878906 85.496094 C 117.878906 82.34375 120.351562 79.871094 123.5 79.871094 L 341.257812 79.871094 C 349.132812 79.871094 355.207031 86.171875 355.207031 94.273438 L 355.207031 292.546875 C 355.207031 295.921875 352.730469 298.171875 349.582031 298.171875 Z M 349.582031 298.171875 " fill-opacity="1" fill-rule="evenodd"/><g clip-path="url(#id1)"><path fill="#dbceff" d="M 358.355469 337.558594 L 24.96875 337.558594 C 11.246094 337.558594 0.226562 326.304688 0.226562 312.800781 L 0.226562 292.773438 C 0.226562 289.847656 2.699219 287.371094 5.847656 287.371094 L 378.375 287.371094 C 381.527344 287.371094 384 289.847656 384 292.773438 L 384 312.800781 C 383.324219 326.53125 372.078125 337.558594 358.355469 337.558594 Z M 10.796875 298.171875 L 10.796875 312.800781 C 10.796875 320.230469 17.097656 326.53125 24.519531 326.53125 L 358.355469 326.53125 C 366.226562 326.53125 372.300781 320.230469 372.300781 312.800781 L 372.300781 298.171875 Z M 10.796875 298.171875 " fill-opacity="1" fill-rule="evenodd"/></g><path fill="#dbceff" d="M 237.105469 319.105469 L 146.222656 319.105469 C 140.824219 319.105469 136.546875 314.601562 136.546875 309.425781 L 136.546875 292.773438 C 136.546875 289.847656 139.023438 287.371094 142.171875 287.371094 L 241.828125 287.371094 C 244.976562 287.371094 247.453125 289.847656 247.453125 292.773438 L 247.453125 309.425781 C 247.226562 314.601562 242.726562 319.105469 237.105469 319.105469 Z M 147.121094 308.078125 L 235.980469 308.078125 L 235.980469 298.398438 L 147.121094 298.398438 Z M 147.121094 308.078125 " fill-opacity="1" fill-rule="evenodd"/><g clip-path="url(#id2)"><path fill="#dbceff" d="M 83.457031 191.949219 L 61.1875 191.949219 C 58.261719 191.949219 56.015625 189.921875 55.789062 187.222656 L 53.089844 168.089844 C 52.640625 168.089844 52.414062 167.867188 51.738281 167.867188 L 36.441406 179.34375 C 34.191406 180.917969 31.269531 180.917969 29.246094 178.667969 L 13.046875 162.914062 C 11.246094 160.890625 10.796875 157.964844 12.371094 155.714844 L 24.296875 140.183594 C 24.070312 139.734375 24.070312 139.507812 23.621094 138.835938 L 4.722656 136.132812 C 1.800781 135.683594 0 133.207031 0 130.730469 L 0 108 C 0 105.300781 1.800781 103.050781 4.722656 102.601562 L 23.621094 99.898438 C 24.070312 99.675781 24.070312 99.222656 24.296875 98.550781 L 12.824219 83.019531 C 11.246094 80.769531 11.246094 77.84375 13.496094 75.820312 L 29.695312 60.066406 C 31.492188 58.039062 34.644531 57.8125 36.667969 59.390625 L 51.964844 70.867188 C 52.414062 70.640625 52.640625 70.640625 53.316406 70.640625 L 56.015625 51.289062 C 56.464844 48.363281 58.9375 46.5625 61.414062 46.5625 L 83.910156 46.5625 C 86.609375 46.5625 88.859375 48.363281 89.082031 51.289062 L 92.007812 70.640625 C 92.230469 70.640625 92.457031 70.867188 93.132812 70.867188 L 108.429688 59.390625 C 110.679688 57.8125 113.828125 57.8125 115.628906 60.066406 L 131.597656 75.820312 C 133.398438 77.84375 133.625 80.769531 132.050781 83.019531 L 120.578125 98.550781 C 121.027344 99 121.027344 99.675781 121.25 99.898438 L 140.148438 102.601562 C 143.070312 103.050781 144.871094 105.527344 144.871094 108 L 144.871094 130.730469 C 144.871094 133.65625 143.070312 135.683594 140.148438 136.132812 L 121.25 138.835938 C 120.800781 139.285156 120.800781 139.507812 120.578125 140.183594 L 132.050781 155.714844 C 133.625 157.964844 133.398438 160.890625 131.597656 162.914062 L 115.628906 178.667969 C 113.828125 180.695312 110.679688 180.917969 108.429688 179.34375 L 93.132812 167.867188 C 92.90625 168.089844 92.457031 168.089844 92.007812 168.089844 L 89.082031 187.222656 C 88.40625 189.921875 86.382812 191.949219 83.457031 191.949219 Z M 65.6875 180.917969 L 78.734375 180.917969 L 81.660156 163.140625 C 81.882812 160.890625 83.457031 159.539062 85.484375 158.863281 C 87.28125 158.1875 89.53125 157.515625 91.332031 156.386719 C 93.132812 155.488281 95.382812 155.714844 96.957031 156.839844 L 110.902344 167.640625 L 120.351562 158.1875 L 109.777344 143.785156 C 108.429688 141.984375 108.203125 139.734375 109.328125 137.933594 C 110.003906 136.582031 110.902344 134.785156 111.578125 133.207031 L 112.253906 132.082031 C 112.703125 130.058594 114.726562 128.933594 116.527344 128.480469 L 134.074219 126.007812 L 134.074219 112.953125 L 116.527344 110.476562 C 114.726562 110.253906 112.703125 108.902344 112.253906 107.101562 C 111.578125 105.300781 110.679688 103.050781 109.777344 101.25 C 108.652344 99.222656 108.652344 97.199219 110.003906 95.171875 L 120.578125 80.769531 L 111.351562 71.542969 L 97.179688 82.121094 C 95.605469 83.46875 93.582031 83.695312 91.558594 82.796875 C 89.757812 81.894531 87.507812 80.769531 85.707031 80.320312 C 83.910156 79.644531 82.332031 78.070312 81.882812 75.820312 L 79.183594 58.039062 L 65.6875 58.039062 L 62.988281 75.820312 C 62.539062 78.070312 61.1875 79.644531 59.164062 80.320312 C 57.363281 80.769531 55.113281 81.445312 53.316406 82.796875 C 51.515625 83.695312 49.265625 83.46875 47.691406 82.121094 L 33.292969 71.542969 L 24.070312 80.769531 L 34.867188 95.171875 C 36.21875 97.199219 36.441406 99.222656 35.316406 101.25 C 34.191406 103.050781 33.292969 105.300781 32.617188 107.101562 C 32.167969 108.902344 30.144531 110.253906 28.34375 110.476562 L 10.796875 112.953125 L 10.796875 126.007812 L 28.34375 128.480469 C 30.144531 128.933594 31.71875 130.058594 32.617188 132.082031 L 33.292969 133.207031 C 33.96875 135.234375 34.644531 136.582031 35.542969 138.160156 C 36.441406 140.183594 36.441406 142.660156 35.316406 144.234375 L 24.296875 158.414062 L 33.742188 167.867188 L 47.914062 157.289062 C 49.492188 155.9375 51.738281 155.714844 53.539062 156.613281 C 55.5625 157.515625 57.589844 158.414062 59.613281 159.089844 C 61.414062 159.765625 62.988281 161.339844 63.210938 163.589844 Z M 65.6875 180.917969 " fill-opacity="1" fill-rule="evenodd"/></g><path fill="#dbceff" d="M 72.210938 148.738281 C 56.015625 148.738281 42.964844 135.683594 42.964844 119.253906 C 42.964844 103.050781 56.015625 89.996094 72.210938 89.996094 C 88.40625 89.996094 101.679688 103.050781 101.679688 119.253906 C 101.679688 135.683594 88.40625 148.738281 72.210938 148.738281 Z M 72.210938 101.25 C 62.3125 101.25 53.988281 109.351562 53.988281 119.480469 C 53.988281 129.832031 62.085938 138.160156 72.210938 138.160156 C 82.558594 138.160156 90.65625 129.832031 90.65625 119.480469 C 90.65625 109.578125 82.332031 101.25 72.210938 101.25 Z M 72.210938 101.25 " fill-opacity="1" fill-rule="evenodd"/></svg>