<svg xmlns="http://www.w3.org/2000/svg" xmlns:xlink="http://www.w3.org/1999/xlink" width="512" zoomAndPan="magnify" viewBox="0 0 384 383.999986" height="512" preserveAspectRatio="xMidYMid meet" version="1.0"><defs><clipPath id="id1"><path d="M 9.863281 9.863281 L 374.363281 9.863281 L 374.363281 374.363281 L 9.863281 374.363281 Z M 9.863281 9.863281 " clip-rule="nonzero"/></clipPath></defs><path fill="#dbceff" d="M 125.242188 116.363281 L 88.398438 140.925781 C 86.320312 142.320312 83.945312 142.992188 81.585938 142.992188 C 78.417969 142.992188 75.273438 141.769531 72.902344 139.394531 L 60.621094 127.109375 C 55.824219 122.3125 55.824219 114.542969 60.621094 109.75 C 65.417969 104.945312 73.191406 104.945312 77.984375 109.75 L 83.144531 114.90625 L 111.617188 95.933594 C 117.265625 92.179688 124.882812 93.6875 128.644531 99.339844 C 132.410156 104.984375 130.890625 112.601562 125.242188 116.363281 Z M 142.988281 81.585938 L 44.742188 81.585938 L 44.742188 155.269531 L 142.988281 155.269531 L 142.988281 81.585938 " fill-opacity="1" fill-rule="nonzero"/><path fill="#dbceff" d="M 60.621094 293.960938 C 65.417969 289.164062 73.191406 289.164062 77.984375 293.960938 L 83.144531 299.117188 L 111.617188 280.144531 C 117.265625 276.378906 124.882812 277.898438 128.644531 283.554688 C 132.410156 289.199219 130.890625 296.816406 125.242188 300.582031 L 88.398438 325.144531 C 86.320312 326.535156 83.945312 327.207031 81.585938 327.207031 C 78.417969 327.207031 75.273438 325.984375 72.902344 323.609375 L 60.621094 311.324219 C 55.824219 306.53125 55.824219 298.757812 60.621094 293.960938 Z M 44.742188 339.488281 L 142.988281 339.488281 L 142.988281 265.800781 L 44.742188 265.800781 L 44.742188 339.488281 " fill-opacity="1" fill-rule="nonzero"/><path fill="#dbceff" d="M 44.742188 241.238281 L 142.988281 241.238281 L 142.988281 228.953125 L 44.742188 228.953125 L 44.742188 241.238281 " fill-opacity="1" fill-rule="nonzero"/><path fill="#dbceff" d="M 339.488281 44.742188 L 241.238281 44.742188 L 241.238281 57.023438 L 339.488281 57.023438 L 339.488281 44.742188 " fill-opacity="1" fill-rule="nonzero"/><path fill="#dbceff" d="M 142.988281 44.742188 L 44.742188 44.742188 L 44.742188 57.023438 L 142.988281 57.023438 L 142.988281 44.742188 " fill-opacity="1" fill-rule="nonzero"/><g clip-path="url(#id1)"><path fill="#dbceff" d="M 351.765625 204.398438 C 358.554688 204.398438 364.046875 209.890625 364.046875 216.675781 L 364.046875 351.769531 C 364.046875 358.554688 358.554688 364.046875 351.765625 364.046875 L 228.960938 364.046875 C 222.167969 364.046875 216.675781 358.554688 216.675781 351.769531 L 216.675781 302.644531 L 167.554688 302.644531 L 167.554688 351.769531 C 167.554688 358.554688 162.058594 364.046875 155.273438 364.046875 L 32.460938 364.046875 C 25.675781 364.046875 20.183594 358.554688 20.183594 351.769531 L 20.183594 216.675781 C 20.183594 209.890625 25.675781 204.398438 32.460938 204.398438 L 81.585938 204.398438 L 81.585938 179.828125 L 32.460938 179.828125 C 25.675781 179.828125 20.183594 174.34375 20.183594 167.554688 L 20.183594 32.464844 C 20.183594 25.675781 25.675781 20.183594 32.460938 20.183594 L 155.273438 20.183594 C 162.058594 20.183594 167.554688 25.675781 167.554688 32.464844 L 167.554688 93.863281 L 216.675781 93.863281 L 216.675781 32.464844 C 216.675781 25.675781 222.167969 20.183594 228.960938 20.183594 L 351.765625 20.183594 C 358.554688 20.183594 364.046875 25.675781 364.046875 32.464844 L 364.046875 167.554688 C 364.046875 174.34375 358.554688 179.828125 351.765625 179.828125 L 302.644531 179.828125 L 302.644531 204.398438 Z M 351.765625 190.148438 C 364.222656 190.148438 374.363281 180.011719 374.363281 167.554688 L 374.363281 32.457031 C 374.363281 20.003906 364.222656 9.863281 351.765625 9.863281 L 228.960938 9.863281 C 216.503906 9.863281 206.359375 20.003906 206.359375 32.457031 L 206.359375 83.554688 L 177.871094 83.554688 L 177.871094 32.457031 C 177.871094 20.003906 167.734375 9.863281 155.273438 9.863281 L 32.460938 9.863281 C 20.003906 9.863281 9.863281 20.003906 9.863281 32.457031 L 9.863281 167.554688 C 9.863281 180.011719 20.003906 190.148438 32.460938 190.148438 L 71.273438 190.148438 L 71.273438 194.082031 L 32.460938 194.082031 C 20.003906 194.082031 9.863281 204.21875 9.863281 216.675781 L 9.863281 351.765625 C 9.863281 364.222656 20.003906 374.363281 32.460938 374.363281 L 155.273438 374.363281 C 167.734375 374.363281 177.871094 364.222656 177.871094 351.765625 L 177.871094 312.957031 L 206.359375 312.957031 L 206.359375 351.765625 C 206.359375 364.222656 216.503906 374.363281 228.960938 374.363281 L 351.765625 374.363281 C 364.222656 374.363281 374.363281 364.222656 374.363281 351.765625 L 374.363281 216.675781 C 374.363281 204.21875 364.222656 194.082031 351.765625 194.082031 L 312.957031 194.082031 L 312.957031 190.148438 L 351.765625 190.148438 " fill-opacity="1" fill-rule="nonzero"/></g><path fill="#dbceff" d="M 269.398438 299.046875 C 264.601562 294.25 264.601562 286.476562 269.398438 281.683594 C 274.191406 276.882812 281.96875 276.882812 286.765625 281.683594 L 290.363281 285.277344 L 293.957031 281.683594 C 298.757812 276.882812 306.53125 276.882812 311.324219 281.683594 C 316.121094 286.476562 316.121094 294.25 311.324219 299.046875 L 307.726562 302.644531 L 311.324219 306.242188 C 316.121094 311.039062 316.121094 318.8125 311.324219 323.609375 C 308.929688 326.003906 305.789062 327.207031 302.644531 327.207031 C 299.5 327.207031 296.355469 326.003906 293.957031 323.609375 L 290.363281 320.011719 L 286.765625 323.609375 C 284.367188 326.003906 281.222656 327.207031 278.082031 327.207031 C 274.9375 327.207031 271.792969 326.003906 269.398438 323.609375 C 264.601562 318.8125 264.601562 311.039062 269.398438 306.242188 L 272.996094 302.644531 Z M 241.238281 339.488281 L 339.488281 339.488281 L 339.488281 265.800781 L 241.238281 265.800781 L 241.238281 339.488281 " fill-opacity="1" fill-rule="nonzero"/><path fill="#dbceff" d="M 241.238281 241.238281 L 339.488281 241.238281 L 339.488281 228.953125 L 241.238281 228.953125 L 241.238281 241.238281 " fill-opacity="1" fill-rule="nonzero"/><path fill="#dbceff" d="M 278.082031 179.828125 L 228.960938 179.828125 C 222.167969 179.828125 216.675781 174.34375 216.675781 167.554688 L 216.675781 118.429688 L 167.554688 118.429688 L 167.554688 167.554688 C 167.554688 174.34375 162.058594 179.828125 155.273438 179.828125 L 106.148438 179.828125 L 106.148438 204.398438 L 155.273438 204.398438 C 162.058594 204.398438 167.554688 209.890625 167.554688 216.675781 L 167.554688 278.082031 L 216.675781 278.082031 L 216.675781 216.675781 C 216.675781 209.890625 222.167969 204.398438 228.960938 204.398438 L 278.082031 204.398438 L 278.082031 179.828125 " fill-opacity="1" fill-rule="nonzero"/><path fill="#dbceff" d="M 321.738281 116.363281 L 284.890625 140.925781 C 282.816406 142.320312 280.445312 142.992188 278.082031 142.992188 C 274.910156 142.992188 271.773438 141.769531 269.398438 139.394531 L 257.121094 127.109375 C 252.320312 122.3125 252.320312 114.542969 257.121094 109.75 C 261.917969 104.945312 269.683594 104.945312 274.480469 109.75 L 279.640625 114.90625 L 308.109375 95.933594 C 313.773438 92.179688 321.386719 93.6875 325.144531 99.339844 C 328.910156 104.984375 327.382812 112.601562 321.738281 116.363281 Z M 339.488281 81.585938 L 241.238281 81.585938 L 241.238281 155.269531 L 339.488281 155.269531 L 339.488281 81.585938 " fill-opacity="1" fill-rule="nonzero"/></svg>