<svg xmlns="http://www.w3.org/2000/svg" xmlns:xlink="http://www.w3.org/1999/xlink" width="512" zoomAndPan="magnify" viewBox="0 0 384 383.999986" height="512" preserveAspectRatio="xMidYMid meet" version="1.0"><defs><clipPath id="id1"><path d="M 10.613281 7.253906 L 373.441406 7.253906 L 373.441406 376.867188 L 10.613281 376.867188 Z M 10.613281 7.253906 " clip-rule="nonzero"/></clipPath></defs><g clip-path="url(#id1)"><path fill="#dbceff" d="M 212.574219 174.964844 L 226 174.964844 L 226 182.546875 L 212.574219 182.546875 Z M 210.503906 186.679688 L 228.066406 186.679688 C 229.183594 186.679688 230.132812 185.726562 230.132812 184.613281 L 230.132812 172.898438 C 230.132812 171.78125 229.183594 170.832031 228.066406 170.832031 L 210.503906 170.832031 C 209.355469 170.832031 208.4375 171.78125 208.4375 172.898438 L 208.4375 184.613281 C 208.4375 185.726562 209.355469 186.679688 210.503906 186.679688 Z M 153.589844 170.832031 L 167.015625 170.832031 L 167.015625 182.546875 L 153.589844 182.546875 Z M 151.523438 186.679688 L 169.082031 186.679688 C 170.199219 186.679688 171.152344 185.726562 171.152344 184.613281 L 171.152344 168.765625 C 171.152344 167.648438 170.199219 166.730469 169.082031 166.730469 L 151.523438 166.730469 C 150.40625 166.730469 149.453125 167.648438 149.453125 168.765625 L 149.453125 184.613281 C 149.453125 185.726562 150.40625 186.679688 151.523438 186.679688 Z M 242.050781 158.460938 L 255.472656 158.460938 L 255.472656 182.546875 L 242.050781 182.546875 Z M 239.980469 186.679688 L 257.542969 186.679688 C 258.691406 186.679688 259.609375 185.726562 259.609375 184.613281 L 259.609375 156.394531 C 259.609375 155.246094 258.691406 154.324219 257.542969 154.324219 L 239.980469 154.324219 C 238.863281 154.324219 237.945312 155.246094 237.945312 156.394531 L 237.945312 184.613281 C 237.945312 185.726562 238.863281 186.679688 239.980469 186.679688 Z M 183.097656 154.324219 L 196.488281 154.324219 L 196.488281 182.546875 L 183.097656 182.546875 Z M 181.03125 186.679688 L 198.558594 186.679688 C 199.707031 186.679688 200.625 185.726562 200.625 184.613281 L 200.625 152.257812 C 200.625 151.144531 199.707031 150.222656 198.558594 150.222656 L 181.03125 150.222656 C 179.882812 150.222656 178.960938 151.144531 178.960938 152.257812 L 178.960938 184.613281 C 178.960938 185.726562 179.882812 186.679688 181.03125 186.679688 Z M 344.882812 271.832031 C 338.253906 271.832031 332.839844 266.417969 332.839844 259.789062 C 332.839844 253.160156 338.253906 247.777344 344.882812 247.777344 C 351.515625 247.777344 356.898438 253.160156 356.898438 259.789062 C 356.898438 266.417969 351.515625 271.832031 344.882812 271.832031 Z M 301.953125 189.566406 L 292.992188 183.660156 L 301.953125 177.753906 Z M 136.0625 215.390625 L 143.054688 203.316406 L 266.011719 203.316406 L 273 215.390625 Z M 264.925781 135.359375 L 264.925781 195.046875 L 144.167969 195.046875 L 144.167969 135.359375 Z M 209.160156 250.929688 L 197.375 250.929688 L 203.285156 241.972656 Z M 215.296875 348.320312 C 215.296875 354.949219 209.914062 360.328125 203.285156 360.328125 C 196.652344 360.328125 191.238281 354.949219 191.238281 348.320312 C 191.238281 341.691406 196.652344 336.277344 203.285156 336.277344 C 209.914062 336.277344 215.296875 341.691406 215.296875 348.320312 Z M 105.832031 245.089844 L 97.855469 237.113281 L 107.539062 235.40625 Z M 79.703125 314.652344 C 79.703125 321.28125 74.289062 326.664062 67.660156 326.664062 C 61.027344 326.664062 55.613281 321.28125 55.613281 314.652344 C 55.613281 307.992188 61.027344 302.609375 67.660156 302.609375 C 74.289062 302.609375 79.703125 307.992188 79.703125 314.652344 Z M 104.027344 186.515625 L 104.027344 173.359375 L 116.007812 179.921875 Z M 39.167969 191.734375 C 32.539062 191.734375 27.121094 186.320312 27.121094 179.691406 C 27.121094 173.0625 32.539062 167.679688 39.167969 167.679688 C 45.796875 167.679688 51.179688 173.0625 51.179688 179.691406 C 51.179688 186.320312 45.796875 191.734375 39.167969 191.734375 Z M 197.375 99.558594 L 209.160156 99.558594 L 203.25 108.484375 Z M 191.238281 35.804688 C 191.238281 29.140625 196.652344 23.761719 203.285156 23.761719 C 209.914062 23.761719 215.296875 29.140625 215.296875 35.804688 C 215.296875 42.429688 209.914062 47.8125 203.285156 47.8125 C 196.652344 47.8125 191.238281 42.429688 191.238281 35.804688 Z M 348.988281 231.601562 L 348.824219 183.660156 C 348.824219 181.363281 346.984375 179.527344 344.71875 179.527344 L 310.191406 179.527344 L 310.191406 170.109375 C 310.191406 168.601562 309.371094 167.1875 308.023438 166.46875 C 306.679688 165.746094 305.070312 165.84375 303.789062 166.664062 L 283.210938 180.214844 C 282.226562 180.871094 281.601562 181.921875 281.4375 183.070312 L 281.4375 127.125 C 281.4375 122.5625 277.726562 118.855469 273.164062 118.855469 L 206.207031 118.855469 C 206.402344 118.691406 206.566406 118.492188 206.730469 118.265625 L 220.285156 97.691406 C 221.109375 96.410156 221.171875 94.800781 220.453125 93.457031 C 219.761719 92.109375 218.351562 91.289062 216.839844 91.289062 L 207.386719 91.289062 L 207.386719 63.988281 C 221.171875 61.988281 231.808594 50.109375 231.808594 35.804688 C 231.808594 20.054688 219.007812 7.253906 203.285156 7.253906 C 187.53125 7.253906 174.726562 20.054688 174.726562 35.804688 C 174.726562 50.109375 185.363281 61.988281 199.148438 63.988281 L 199.148438 91.289062 L 189.730469 91.289062 C 188.1875 91.289062 186.808594 92.109375 186.085938 93.457031 C 185.363281 94.800781 185.429688 96.410156 186.28125 97.691406 L 199.839844 118.265625 C 199.96875 118.492188 200.132812 118.65625 200.332031 118.855469 L 135.898438 118.855469 C 131.335938 118.855469 127.625 122.5625 127.625 127.125 L 127.625 177.195312 C 127.332031 176.867188 127.003906 176.539062 126.578125 176.3125 L 101.894531 162.757812 C 100.613281 162.070312 99.070312 162.070312 97.789062 162.824219 C 96.542969 163.578125 95.789062 164.925781 95.789062 166.367188 L 95.789062 175.589844 L 67.363281 175.589844 C 65.359375 161.808594 53.480469 151.175781 39.167969 151.175781 C 23.414062 151.175781 10.613281 163.972656 10.613281 179.722656 C 10.613281 195.441406 23.414062 208.238281 39.167969 208.238281 C 53.480469 208.238281 65.359375 197.605469 67.363281 183.824219 L 95.789062 183.824219 L 95.789062 193.472656 C 95.789062 194.949219 96.542969 196.328125 97.789062 197.050781 C 99.5625 198.066406 101.269531 197.441406 101.894531 197.113281 L 126.578125 183.5625 C 127.003906 183.332031 127.332031 183.003906 127.625 182.675781 L 127.625 196.949219 L 114.5625 219.492188 C 113.316406 221.625 113.183594 224.1875 114.039062 226.449219 C 113.347656 226.21875 112.625 226.121094 111.90625 226.253906 L 88.632812 230.386719 C 87.121094 230.648438 85.875 231.734375 85.414062 233.210938 C 84.957031 234.6875 85.351562 236.292969 86.433594 237.375 L 93.0625 243.972656 L 64.902344 269.402344 C 64.015625 270.191406 63.554688 271.304688 63.554688 272.488281 L 63.554688 286.433594 C 49.738281 288.433594 39.136719 300.3125 39.136719 314.652344 C 39.136719 330.402344 51.9375 343.167969 67.660156 343.167969 C 83.414062 343.167969 96.214844 330.402344 96.214844 314.652344 C 96.214844 300.3125 85.578125 288.433594 71.792969 286.433594 L 71.792969 274.292969 L 98.90625 249.8125 L 105.601562 256.507812 C 106.390625 257.328125 107.441406 257.753906 108.523438 257.753906 C 108.949219 257.753906 109.34375 257.65625 109.769531 257.558594 C 111.214844 257.066406 112.332031 255.851562 112.59375 254.308594 L 116.695312 231.042969 C 116.761719 230.75 116.761719 230.453125 116.761719 230.125 C 118.171875 231.207031 119.878906 231.898438 121.71875 231.898438 L 200.199219 231.898438 C 200.101562 232.027344 199.9375 232.0625 199.839844 232.226562 L 186.28125 252.765625 C 185.429688 254.046875 185.363281 255.6875 186.085938 257 C 186.808594 258.34375 188.1875 259.164062 189.730469 259.164062 L 199.148438 259.164062 L 199.148438 320.132812 C 185.363281 322.132812 174.726562 333.980469 174.726562 348.320312 C 174.726562 364.070312 187.53125 376.867188 203.285156 376.867188 C 219.007812 376.867188 231.808594 364.070312 231.808594 348.320312 C 231.808594 333.980469 221.171875 322.132812 207.386719 320.132812 L 207.386719 259.164062 L 216.839844 259.164062 C 218.351562 259.164062 219.761719 258.34375 220.484375 257 C 221.171875 255.652344 221.109375 254.046875 220.285156 252.765625 L 206.730469 232.191406 C 206.632812 232.0625 206.46875 231.996094 206.335938 231.863281 L 287.34375 231.863281 C 287.378906 231.863281 287.410156 231.863281 287.445312 231.863281 C 292.007812 231.863281 295.683594 228.1875 295.683594 223.628906 C 295.683594 221.726562 295.058594 219.984375 293.976562 218.574219 L 281.4375 196.949219 L 281.4375 184.25 C 281.601562 185.398438 282.226562 186.449219 283.242188 187.105469 L 303.824219 200.660156 C 304.480469 201.117188 306.679688 201.707031 308.023438 200.855469 C 309.304688 200.066406 310.191406 198.722656 310.191406 197.214844 L 310.191406 187.796875 L 340.585938 187.796875 L 340.714844 231.601562 C 326.964844 233.601562 316.328125 245.449219 316.328125 259.789062 C 316.328125 275.507812 329.128906 288.335938 344.882812 288.335938 C 360.605469 288.335938 373.40625 275.507812 373.40625 259.789062 C 373.40625 245.449219 362.773438 233.601562 348.988281 231.601562 " fill-opacity="1" fill-rule="nonzero"/></g></svg>