<svg xmlns="http://www.w3.org/2000/svg" xmlns:xlink="http://www.w3.org/1999/xlink" width="512" zoomAndPan="magnify" viewBox="0 0 384 383.999986" height="512" preserveAspectRatio="xMidYMid meet" version="1.0"><defs><clipPath id="id1"><path d="M 87 19.132812 L 199 19.132812 L 199 69 L 87 69 Z M 87 19.132812 " clip-rule="nonzero"/></clipPath><clipPath id="id2"><path d="M 19.132812 50 L 224 50 L 224 341 L 19.132812 341 Z M 19.132812 50 " clip-rule="nonzero"/></clipPath><clipPath id="id3"><path d="M 179 148 L 364.882812 148 L 364.882812 364.882812 L 179 364.882812 Z M 179 148 " clip-rule="nonzero"/></clipPath></defs><g clip-path="url(#id1)"><path fill="#dbceff" d="M 198.183594 43.804688 L 167.3125 43.832031 C 163.910156 43.832031 161.136719 41.058594 161.136719 37.65625 C 161.136719 27.429688 152.84375 19.132812 142.617188 19.132812 C 132.390625 19.132812 124.09375 27.429688 124.09375 37.65625 C 124.09375 41.058594 121.320312 43.832031 117.917969 43.832031 L 87.050781 43.832031 L 87.050781 68.527344 L 198.183594 68.527344 L 198.183594 43.804688 " fill-opacity="1" fill-rule="nonzero"/></g><path fill="#dbceff" d="M 130.269531 130.269531 C 126.867188 130.269531 124.09375 127.496094 124.09375 124.09375 C 124.09375 120.695312 126.867188 117.917969 130.269531 117.917969 L 216.707031 117.917969 C 220.105469 117.917969 222.878906 120.695312 222.878906 124.09375 C 222.878906 127.496094 220.105469 130.269531 216.707031 130.269531 Z M 173.488281 272.273438 C 173.488281 275.671875 170.714844 278.445312 167.3125 278.445312 L 130.269531 278.445312 C 126.867188 278.445312 124.09375 275.671875 124.09375 272.273438 C 124.09375 268.871094 126.867188 266.097656 130.269531 266.097656 L 167.3125 266.097656 C 170.714844 266.097656 173.488281 268.871094 173.488281 272.273438 Z M 103.761719 116.109375 L 79.066406 140.808594 C 77.859375 142.011719 76.292969 142.617188 74.699219 142.617188 C 73.109375 142.617188 71.542969 142.011719 70.335938 140.808594 L 64.160156 134.632812 C 61.75 132.222656 61.75 128.316406 64.160156 125.902344 C 66.574219 123.492188 70.480469 123.492188 72.890625 125.902344 L 74.699219 127.710938 L 95.03125 107.378906 C 97.445312 104.96875 101.351562 104.96875 103.761719 107.378906 C 106.175781 109.792969 106.175781 113.699219 103.761719 116.109375 Z M 103.761719 165.503906 L 79.066406 190.199219 C 77.859375 191.40625 76.292969 192.007812 74.699219 192.007812 C 73.109375 192.007812 71.542969 191.40625 70.335938 190.199219 L 64.160156 184.027344 C 61.75 181.613281 61.75 177.707031 64.160156 175.296875 C 66.574219 172.882812 70.480469 172.882812 72.890625 175.296875 L 74.699219 177.105469 L 95.03125 156.773438 C 97.445312 154.363281 101.351562 154.363281 103.761719 156.773438 C 106.175781 159.183594 106.175781 163.09375 103.761719 165.503906 Z M 103.761719 214.898438 L 79.066406 239.59375 C 77.859375 240.800781 76.292969 241.402344 74.699219 241.402344 C 73.109375 241.402344 71.542969 240.800781 70.335938 239.59375 L 64.160156 233.417969 C 61.75 231.007812 61.75 227.101562 64.160156 224.6875 C 66.574219 222.277344 70.480469 222.277344 72.890625 224.6875 L 74.699219 226.496094 L 95.03125 206.167969 C 97.445312 203.753906 101.351562 203.753906 103.761719 206.167969 C 106.175781 208.578125 106.175781 212.484375 103.761719 214.898438 Z M 103.761719 264.289062 L 79.066406 288.984375 C 77.859375 290.191406 76.292969 290.792969 74.699219 290.792969 C 73.109375 290.792969 71.542969 290.191406 70.335938 288.984375 L 64.160156 282.8125 C 61.75 280.398438 61.75 276.492188 64.160156 274.082031 C 66.574219 271.667969 70.480469 271.667969 72.890625 274.082031 L 74.699219 275.890625 L 95.03125 255.558594 C 97.445312 253.148438 101.351562 253.148438 103.761719 255.558594 C 106.175781 257.972656 106.175781 261.878906 103.761719 264.289062 Z M 124.09375 173.488281 C 124.09375 170.085938 126.867188 167.3125 130.269531 167.3125 L 148.789062 167.3125 C 152.191406 167.3125 154.964844 170.085938 154.964844 173.488281 C 154.964844 176.886719 152.191406 179.660156 148.789062 179.660156 L 130.269531 179.660156 C 126.867188 179.660156 124.09375 176.886719 124.09375 173.488281 Z M 130.269531 216.707031 L 154.964844 216.707031 C 158.363281 216.707031 161.136719 219.480469 161.136719 222.878906 C 161.136719 226.28125 158.363281 229.054688 154.964844 229.054688 L 130.269531 229.054688 C 126.867188 229.054688 124.09375 226.28125 124.09375 222.878906 C 124.09375 219.480469 126.867188 216.707031 130.269531 216.707031 Z M 174.234375 162.441406 C 184.53125 156.386719 208.625 144.183594 241.402344 138.949219 L 241.402344 74.699219 L 208.820312 74.699219 C 206.671875 78.367188 202.71875 80.875 198.183594 80.875 L 87.050781 80.875 C 82.515625 80.875 78.558594 78.367188 76.414062 74.699219 L 43.832031 74.699219 L 43.832031 315.492188 L 206.746094 315.492188 C 174.765625 260.503906 168.46875 193.023438 167.335938 175.441406 C 167 170.132812 169.628906 165.140625 174.234375 162.441406 " fill-opacity="1" fill-rule="nonzero"/><g clip-path="url(#id2)"><path fill="#dbceff" d="M 31.480469 340.1875 L 223.773438 340.1875 C 220.515625 336.207031 217.40625 332.085938 214.511719 327.839844 L 43.832031 327.839844 C 37.027344 327.839844 31.480469 322.292969 31.480469 315.492188 L 31.480469 74.699219 C 31.480469 67.898438 37.027344 62.351562 43.832031 62.351562 L 74.699219 62.351562 L 74.699219 50.003906 L 31.480469 50.003906 C 24.679688 50.003906 19.132812 55.550781 19.132812 62.351562 L 19.132812 327.839844 C 19.132812 334.640625 24.679688 340.1875 31.480469 340.1875 " fill-opacity="1" fill-rule="nonzero"/></g><path fill="#dbceff" d="M 266.097656 136.585938 L 266.097656 62.351562 C 266.097656 55.550781 260.550781 50.003906 253.75 50.003906 L 210.53125 50.003906 L 210.53125 62.351562 L 241.402344 62.351562 C 248.203125 62.351562 253.75 67.898438 253.75 74.699219 L 253.75 137.359375 C 257.753906 136.972656 261.878906 136.707031 266.097656 136.585938 " fill-opacity="1" fill-rule="nonzero"/><g clip-path="url(#id3)"><path fill="#dbceff" d="M 279.871094 345.300781 C 277.625 347.0625 274.949219 347.929688 272.273438 347.929688 C 269.59375 347.929688 266.917969 347.0625 264.675781 345.300781 C 242.125 327.648438 202.910156 283.875 193.261719 189.285156 C 192.707031 183.953125 195.652344 178.914062 200.523438 176.71875 C 216.367188 169.605469 241.667969 161.136719 272.273438 161.136719 C 302.902344 161.136719 328.199219 169.605469 344.023438 176.71875 C 348.894531 178.914062 351.835938 183.953125 351.28125 189.285156 C 341.632812 283.898438 302.417969 327.648438 279.871094 345.300781 Z M 364.882812 174.644531 C 364.882812 174.644531 364.882812 174.644531 364.882812 174.621094 C 364.933594 173.992188 364.617188 173.414062 364.0625 173.078125 C 351.59375 165.792969 317.710938 148.789062 272.273438 148.789062 C 226.835938 148.789062 192.949219 165.792969 180.480469 173.078125 C 179.925781 173.414062 179.613281 173.992188 179.660156 174.621094 C 181.203125 198.859375 192.878906 321.785156 271.5 364.691406 C 271.957031 364.957031 272.585938 364.957031 273.042969 364.691406 C 351.667969 321.785156 363.339844 198.859375 364.882812 174.644531 " fill-opacity="1" fill-rule="nonzero"/></g><path fill="#dbceff" d="M 300.660156 211.761719 C 303.40625 213.8125 303.960938 217.671875 301.914062 220.394531 L 264.867188 269.789062 C 263.78125 271.234375 262.144531 272.128906 260.359375 272.25 C 260.214844 272.273438 260.070312 272.273438 259.925781 272.273438 C 258.285156 272.273438 256.714844 271.621094 255.558594 270.464844 L 243.210938 258.117188 C 240.796875 255.703125 240.796875 251.796875 243.210938 249.386719 C 245.621094 246.972656 249.53125 246.972656 251.941406 249.386719 L 259.25 256.691406 L 292.023438 213.015625 C 294.074219 210.265625 297.933594 209.710938 300.660156 211.761719 Z M 205.585938 187.980469 C 214.726562 278.085938 251.289062 319.132812 272.273438 335.582031 C 272.296875 335.582031 272.296875 335.605469 272.296875 335.605469 C 293.253906 319.132812 329.816406 278.085938 338.980469 188.03125 C 324.246094 181.375 300.707031 173.488281 272.273438 173.488281 C 243.835938 173.488281 220.324219 181.375 205.585938 187.980469 " fill-opacity="1" fill-rule="nonzero"/></svg>