<svg xmlns="http://www.w3.org/2000/svg" xmlns:xlink="http://www.w3.org/1999/xlink" width="512" zoomAndPan="magnify" viewBox="0 0 384 383.999986" height="512" preserveAspectRatio="xMidYMid meet" version="1.0"><defs><clipPath id="id1"><path d="M 2.257812 65 L 229 65 L 229 353.21875 L 2.257812 353.21875 Z M 2.257812 65 " clip-rule="nonzero"/></clipPath></defs><g clip-path="url(#id1)"><path fill="#dbceff" d="M 209.214844 286.835938 C 209.214844 286.835938 209.214844 286.835938 209.214844 287.171875 C 209.25 287.273438 209.25 287.375 209.214844 287.511719 C 209.148438 287.914062 208.945312 288.320312 208.609375 288.589844 L 158.410156 336.082031 C 157.972656 336.453125 157.402344 336.6875 156.828125 336.722656 L 36.925781 336.722656 C 28.503906 336.925781 21.496094 330.253906 21.292969 321.832031 L 21.292969 97.839844 C 21.496094 89.417969 28.503906 82.746094 36.925781 82.949219 L 49.796875 82.949219 L 49.796875 65.433594 L 19.878906 65.433594 C 10.144531 65.433594 2.257812 73.316406 2.257812 83.015625 L 2.257812 335.542969 C 2.191406 345.277344 10.007812 353.226562 19.746094 353.292969 C 19.777344 353.292969 19.84375 353.292969 19.878906 353.292969 L 210.597656 353.292969 C 220.332031 353.292969 228.214844 345.445312 228.25 335.746094 L 228.25 296.839844 C 221.578125 294.042969 215.246094 290.609375 209.214844 286.601562 L 209.214844 286.835938 " fill-opacity="1" fill-rule="nonzero"/></g><path fill="#dbceff" d="M 193.617188 82.949219 C 201.769531 82.78125 208.644531 89.046875 209.183594 97.164062 C 215.179688 93.15625 221.546875 89.71875 228.183594 86.890625 L 228.183594 82.984375 C 228.183594 73.25 220.300781 65.367188 210.5625 65.367188 L 180.746094 65.367188 L 180.746094 82.882812 L 193.617188 82.949219 " fill-opacity="1" fill-rule="nonzero"/><path fill="#dbceff" d="M 133.785156 50.78125 C 133.246094 39.667969 123.777344 31.078125 112.660156 31.617188 C 102.285156 32.121094 93.996094 40.40625 93.492188 50.78125 L 93.492188 52.363281 L 133.785156 52.363281 L 133.785156 50.78125 " fill-opacity="1" fill-rule="nonzero"/><path fill="#dbceff" d="M 115.1875 121.382812 L 96.859375 137.382812 L 96.859375 164.632812 C 96.859375 165.945312 95.78125 167.023438 94.46875 167.023438 L 54.308594 167.023438 C 52.996094 167.023438 51.917969 165.945312 51.917969 164.632812 L 51.917969 124.414062 C 51.917969 123.101562 52.996094 122.054688 54.308594 122.054688 L 94.46875 122.054688 C 95.78125 122.054688 96.859375 123.101562 96.859375 124.414062 L 96.859375 125.425781 L 92.109375 127.074219 L 92.109375 126.671875 L 56.5 126.671875 L 56.5 162.105469 L 92.109375 162.105469 L 92.109375 141.527344 L 79.847656 152.238281 C 79.410156 152.609375 78.871094 152.808594 78.261719 152.808594 C 77.625 152.808594 77.015625 152.574219 76.578125 152.101562 L 63.273438 138.492188 C 62.363281 137.550781 62.363281 136.035156 63.339844 135.125 C 64.25 134.183594 65.765625 134.214844 66.707031 135.160156 L 78.433594 147.183594 L 112.054688 117.847656 C 113.03125 116.96875 114.546875 117.070312 115.421875 118.082031 C 116.265625 119.023438 116.164062 120.507812 115.222656 121.347656 C 115.1875 121.347656 115.1875 121.382812 115.1875 121.382812 Z M 115.1875 185.753906 L 96.859375 201.75 L 96.859375 228.96875 C 96.859375 230.28125 95.78125 231.324219 94.46875 231.324219 L 54.308594 231.324219 C 52.996094 231.324219 51.917969 230.28125 51.917969 228.96875 L 51.917969 188.816406 C 51.917969 187.503906 52.996094 186.425781 54.308594 186.425781 L 94.46875 186.425781 C 95.78125 186.425781 96.859375 187.503906 96.859375 188.816406 L 96.859375 189.894531 L 92.109375 191.613281 L 92.109375 191.175781 L 56.5 191.175781 L 56.5 226.578125 L 92.109375 226.578125 L 92.109375 206.128906 L 79.847656 216.574219 C 79.410156 216.941406 78.871094 217.144531 78.261719 217.144531 C 77.625 217.144531 77.015625 216.875 76.578125 216.4375 L 63.273438 202.863281 C 62.363281 201.921875 62.363281 200.4375 63.273438 199.496094 C 64.179688 198.550781 65.699219 198.550781 66.640625 199.460938 C 66.640625 199.460938 66.640625 199.496094 66.640625 199.496094 L 78.363281 211.488281 L 112.054688 182.382812 C 113.03125 181.542969 114.546875 181.644531 115.421875 182.652344 C 116.265625 183.628906 116.164062 185.144531 115.1875 185.988281 Z M 115.1875 250.085938 L 96.859375 266.085938 L 96.859375 293.335938 C 96.859375 294.652344 95.78125 295.730469 94.46875 295.730469 L 54.308594 295.730469 C 52.996094 295.730469 51.917969 294.652344 51.917969 293.335938 L 51.917969 253.1875 C 51.917969 251.871094 52.996094 250.796875 54.308594 250.796875 L 94.46875 250.796875 C 95.78125 250.796875 96.859375 251.871094 96.859375 253.1875 L 96.859375 254.265625 L 92.109375 255.914062 L 92.109375 255.542969 L 56.5 255.542969 L 56.5 290.980469 L 92.109375 290.980469 L 92.109375 270.230469 L 79.847656 280.941406 C 79.410156 281.3125 78.871094 281.515625 78.261719 281.515625 C 77.625 281.515625 77.015625 281.246094 76.578125 280.808594 L 63.273438 267.199219 C 62.363281 266.222656 62.394531 264.738281 63.339844 263.796875 C 64.28125 262.886719 65.765625 262.921875 66.707031 263.863281 L 78.433594 275.855469 L 112.054688 246.515625 C 113.03125 245.675781 114.546875 245.777344 115.421875 246.753906 C 116.265625 247.730469 116.164062 249.210938 115.222656 250.054688 C 115.1875 250.054688 115.1875 250.085938 115.1875 250.085938 Z M 158.578125 191.882812 C 158.578125 155.910156 175.625 122.023438 204.5 100.53125 L 204.5 97.839844 C 204.261719 92.042969 199.410156 87.496094 193.617188 87.699219 L 180.746094 87.699219 L 180.746094 89.820312 C 180.714844 95.515625 176.132812 100.128906 170.4375 100.230469 L 60.207031 100.230469 C 54.445312 100.230469 49.796875 95.546875 49.796875 89.820312 L 49.796875 87.699219 L 36.925781 87.699219 C 31.132812 87.496094 26.246094 92.042969 26.042969 97.839844 L 26.042969 321.597656 C 26.246094 327.390625 31.132812 331.9375 36.925781 331.738281 L 154.300781 331.738281 L 154.300781 300.410156 C 154.300781 291.789062 161.273438 284.78125 169.933594 284.75 L 204.5 284.410156 L 204.5 283.230469 C 175.625 261.742188 158.578125 227.890625 158.578125 191.882812 " fill-opacity="1" fill-rule="nonzero"/><path fill="#dbceff" d="M 159.050781 300.410156 L 159.050781 328.605469 L 200.828125 289.195312 L 169.933594 289.496094 C 163.902344 289.53125 159.050781 294.414062 159.050781 300.410156 " fill-opacity="1" fill-rule="nonzero"/><path fill="#dbceff" d="M 60.207031 57.113281 L 170.335938 57.113281 C 173.46875 57.113281 175.996094 59.640625 175.996094 62.773438 L 175.996094 89.820312 C 175.996094 92.953125 173.46875 95.480469 170.335938 95.480469 L 60.207031 95.480469 C 57.074219 95.480469 54.546875 92.953125 54.546875 89.820312 L 54.546875 62.773438 C 54.546875 59.640625 57.074219 57.113281 60.207031 57.113281 " fill-opacity="1" fill-rule="nonzero"/><path fill="#dbceff" d="M 365.5 177.027344 C 365.5 177.667969 365.265625 178.273438 364.792969 178.746094 C 364.324219 179.25 363.714844 179.554688 363.042969 179.554688 C 362.808594 179.589844 362.570312 179.589844 362.300781 179.554688 L 324.671875 179.554688 C 323.691406 179.554688 322.816406 178.949219 322.480469 178.039062 C 314.023438 155.03125 292.328125 139.605469 267.835938 139.203125 C 235.15625 139.203125 208.507812 167.664062 208.507812 202.898438 C 208.203125 227.890625 222.421875 250.796875 244.992188 261.574219 L 258.941406 190.667969 C 259.042969 189.792969 259.210938 188.917969 259.480469 188.078125 L 259.480469 187.839844 C 259.515625 187.773438 259.515625 187.671875 259.480469 187.570312 C 261.839844 180.699219 269.351562 177.027344 276.257812 179.417969 C 283.128906 181.8125 286.769531 189.289062 284.410156 196.160156 L 284.410156 196.632812 C 284.074219 197.441406 283.703125 198.179688 283.230469 198.921875 L 249.980469 263.292969 C 255.875 265.378906 262.039062 266.457031 268.308594 266.457031 C 269.621094 266.457031 270.664062 267.535156 270.664062 268.847656 L 270.664062 283.097656 C 270.734375 283.402344 270.734375 283.738281 270.664062 284.039062 C 270.292969 284.917969 269.417969 285.488281 268.441406 285.523438 C 268.140625 285.589844 267.800781 285.589844 267.5 285.523438 C 215.648438 282.792969 175.828125 238.566406 178.558594 186.695312 C 181.253906 134.855469 225.519531 95.042969 277.371094 97.769531 C 321.300781 100.0625 357.753906 132.566406 365.132812 175.949219 C 365.332031 176.253906 365.46875 176.625 365.5 177.027344 Z M 272.550781 82.714844 C 212.214844 82.714844 163.328125 131.589844 163.328125 191.882812 C 163.328125 252.175781 212.214844 301.085938 272.550781 301.085938 C 332.855469 301.085938 381.742188 252.175781 381.742188 191.882812 C 381.742188 131.589844 332.855469 82.714844 272.550781 82.714844 " fill-opacity="1" fill-rule="nonzero"/><path fill="#dbceff" d="M 272.550781 102.585938 C 223.230469 102.585938 183.273438 142.535156 183.273438 191.847656 C 183.273438 238.367188 219.019531 277.101562 265.410156 280.808594 L 265.410156 271.308594 C 231.214844 269.996094 203.691406 239.78125 203.691406 202.863281 C 203.691406 165.105469 232.15625 134.382812 267.734375 134.382812 C 293.609375 134.789062 316.652344 150.722656 326.1875 174.738281 L 360.382812 174.738281 C 352.363281 132.667969 315.371094 102.285156 272.550781 102.585938 " fill-opacity="1" fill-rule="nonzero"/><path fill="#dbceff" d="M 271.980469 204.953125 C 270.496094 204.953125 269.015625 204.683594 267.632812 204.175781 C 265.375 203.402344 263.386719 201.988281 261.871094 200.136719 L 252.707031 246.820312 L 274.574219 204.613281 C 273.699219 204.816406 272.820312 204.917969 271.980469 204.953125 " fill-opacity="1" fill-rule="nonzero"/><path fill="#dbceff" d="M 269.214844 199.730469 C 273.496094 201.078125 278.109375 198.820312 279.660156 194.609375 C 280.503906 192.554688 280.503906 190.230469 279.660156 188.175781 C 278.683594 186.191406 276.964844 184.675781 274.910156 183.96875 C 274.035156 183.628906 273.089844 183.496094 272.148438 183.496094 C 270.902344 183.496094 269.65625 183.796875 268.476562 184.335938 C 264.367188 186.359375 262.648438 191.308594 264.601562 195.453125 C 265.542969 197.40625 267.195312 198.921875 269.214844 199.730469 " fill-opacity="1" fill-rule="nonzero"/></svg>