<svg xmlns="http://www.w3.org/2000/svg" xmlns:xlink="http://www.w3.org/1999/xlink" width="512" zoomAndPan="magnify" viewBox="0 0 384 383.999986" height="512" preserveAspectRatio="xMidYMid meet" version="1.0"><defs><clipPath id="id1"><path d="M 2 33.601562 L 306 33.601562 L 306 324 L 2 324 Z M 2 33.601562 " clip-rule="nonzero"/></clipPath></defs><g clip-path="url(#id1)"><path fill="#dbceff" d="M 305.742188 58.011719 L 293.105469 58.011719 L 293.105469 51.828125 C 293.105469 48.277344 290.207031 45.382812 286.652344 45.382812 L 21.519531 45.382812 C 17.898438 45.382812 15.066406 48.277344 15.066406 51.828125 L 15.066406 215.707031 C 15.066406 219.257812 17.964844 222.152344 21.519531 222.152344 L 166.722656 222.152344 L 166.722656 272.660156 L 138.816406 272.660156 L 129.335938 310.539062 L 166.722656 310.539062 L 166.722656 323.164062 L 97.214844 323.164062 C 93.660156 323.164062 90.894531 320.335938 90.894531 316.851562 C 90.894531 313.496094 93.726562 310.539062 97.28125 310.539062 L 113.671875 310.539062 C 115.117188 310.539062 116.433594 309.417969 116.765625 308.105469 L 125.652344 272.660156 L 21.519531 272.660156 C 10.988281 272.660156 2.429688 264.109375 2.429688 253.785156 L 2.429688 51.632812 C 2.429688 41.175781 10.855469 32.757812 21.519531 32.757812 L 286.652344 32.757812 C 297.183594 32.757812 305.742188 41.308594 305.742188 51.632812 Z M 154.085938 260.03125 C 161.0625 260.03125 166.722656 254.375 166.722656 247.40625 C 166.722656 240.433594 161.0625 234.78125 154.085938 234.78125 C 147.109375 234.78125 141.449219 240.433594 141.449219 247.40625 C 141.449219 254.375 147.109375 260.03125 154.085938 260.03125 Z M 154.085938 260.03125 " fill-opacity="1" fill-rule="evenodd"/></g><path fill="#dbceff" d="M 356.292969 121.140625 L 343.65625 121.140625 L 343.65625 95.890625 L 192 95.890625 L 192 297.910156 L 242.550781 297.910156 L 242.550781 335.789062 L 198.386719 335.789062 C 187.851562 335.789062 179.363281 327.371094 179.363281 316.785156 L 179.363281 89.640625 C 179.363281 79.121094 187.789062 70.636719 198.386719 70.636719 L 337.269531 70.636719 C 347.804688 70.636719 356.292969 79.054688 356.292969 89.640625 Z M 356.292969 121.140625 " fill-opacity="1" fill-rule="evenodd"/><path fill="#dbceff" d="M 274.214844 133.769531 L 362.546875 133.769531 C 373.078125 133.769531 381.570312 142.1875 381.570312 152.773438 L 381.570312 329.410156 C 381.570312 339.933594 373.144531 348.417969 362.546875 348.417969 L 274.214844 348.417969 C 263.679688 348.417969 255.191406 340 255.191406 329.410156 L 255.191406 152.773438 C 255.191406 142.253906 263.617188 133.769531 274.214844 133.769531 Z M 267.828125 297.910156 L 368.933594 297.910156 L 368.933594 159.023438 L 267.828125 159.023438 Z M 318.378906 335.789062 C 325.355469 335.789062 331.019531 330.132812 331.019531 323.164062 C 331.019531 316.191406 325.355469 310.539062 318.378906 310.539062 C 311.402344 310.539062 305.742188 316.191406 305.742188 323.164062 C 305.742188 330.132812 311.402344 335.789062 318.378906 335.789062 Z M 318.378906 335.789062 " fill-opacity="1" fill-rule="evenodd"/></svg>