<svg xmlns="http://www.w3.org/2000/svg" xmlns:xlink="http://www.w3.org/1999/xlink" width="512" zoomAndPan="magnify" viewBox="0 0 384 383.999986" height="512" preserveAspectRatio="xMidYMid meet" version="1.0"><path fill="#dbceff" d="M 71.347656 314.296875 C 73.832031 316.773438 76.390625 319.175781 79.023438 321.496094 C 81.660156 323.816406 84.359375 326.054688 87.128906 328.210938 C 89.902344 330.363281 92.734375 332.433594 95.632812 334.414062 C 98.53125 336.394531 101.484375 338.285156 104.5 340.085938 C 107.511719 341.882812 110.578125 343.589844 113.699219 345.199219 C 116.816406 346.8125 119.980469 348.324219 123.191406 349.742188 C 126.402344 351.160156 129.65625 352.476562 132.949219 353.691406 C 136.242188 354.910156 139.566406 356.023438 142.929688 357.039062 C 146.289062 358.050781 149.679688 358.957031 153.097656 359.761719 C 156.511719 360.566406 159.949219 361.265625 163.410156 361.859375 C 166.871094 362.453125 170.34375 362.941406 173.835938 363.320312 C 177.324219 363.699219 180.824219 363.972656 184.328125 364.136719 C 187.835938 364.300781 191.34375 364.359375 194.855469 364.308594 C 198.363281 364.257812 201.867188 364.101562 205.371094 363.835938 C 208.871094 363.570312 212.359375 363.195312 215.835938 362.714844 C 219.3125 362.238281 222.773438 361.652344 226.214844 360.957031 C 229.65625 360.265625 233.070312 359.46875 236.464844 358.566406 C 239.855469 357.664062 243.21875 356.660156 246.546875 355.550781 C 249.878906 354.441406 253.171875 353.230469 256.429688 351.921875 C 259.683594 350.609375 262.898438 349.199219 266.066406 347.691406 C 269.238281 346.183594 272.355469 344.578125 275.425781 342.878906 C 278.5 341.179688 281.515625 339.386719 284.476562 337.5 C 287.4375 335.617188 290.335938 333.640625 293.175781 331.578125 C 296.015625 329.515625 298.789062 327.367188 301.496094 325.132812 C 304.203125 322.898438 306.839844 320.582031 309.40625 318.1875 C 311.96875 315.792969 314.460938 313.320312 316.871094 310.773438 C 319.285156 308.222656 321.617188 305.601562 323.871094 302.910156 C 326.121094 300.21875 328.289062 297.460938 330.371094 294.636719 C 332.457031 291.8125 334.449219 288.925781 336.355469 285.976562 C 338.261719 283.03125 340.074219 280.027344 341.792969 276.96875 C 343.515625 273.910156 345.140625 270.800781 346.667969 267.644531 C 348.199219 264.484375 349.628906 261.28125 350.964844 258.035156 C 352.296875 254.789062 353.527344 251.503906 354.660156 248.183594 C 355.789062 244.859375 356.816406 241.507812 357.742188 238.121094 C 358.667969 234.738281 359.488281 231.328125 360.203125 227.890625 C 360.917969 224.457031 361.527344 221 362.03125 217.527344 C 362.535156 214.054688 362.929688 210.570312 363.21875 207.070312 C 363.507812 203.574219 363.6875 200.070312 363.761719 196.5625 C 363.835938 193.054688 363.800781 189.546875 363.660156 186.042969 C 363.519531 182.535156 363.269531 179.035156 362.910156 175.546875 C 362.554688 172.054688 362.089844 168.578125 361.519531 165.113281 C 360.949219 161.652344 360.273438 158.210938 359.492188 154.789062 C 358.707031 151.367188 357.820312 147.972656 356.832031 144.609375 C 355.839844 141.242188 354.746094 137.90625 353.550781 134.609375 C 352.355469 131.308594 351.058594 128.050781 349.664062 124.828125 C 348.269531 121.609375 346.773438 118.4375 345.183594 115.308594 C 343.59375 112.179688 341.90625 109.101562 340.128906 106.078125 C 338.347656 103.054688 336.476562 100.085938 334.515625 97.175781 C 332.550781 94.269531 330.5 91.421875 328.363281 88.636719 C 326.226562 85.851562 324.007812 83.136719 321.703125 80.492188 C 319.398438 77.84375 317.015625 75.269531 314.550781 72.769531 C 312.089844 70.265625 309.550781 67.84375 306.941406 65.5 C 304.328125 63.152344 301.648438 60.890625 298.898438 58.710938 C 296.148438 56.53125 293.332031 54.4375 290.453125 52.429688 C 287.574219 50.421875 284.636719 48.503906 281.640625 46.675781 C 278.640625 44.847656 275.59375 43.117188 272.488281 41.476562 C 269.386719 39.835938 266.234375 38.292969 263.035156 36.847656 C 259.835938 35.398438 256.597656 34.054688 253.316406 32.804688 C 250.035156 31.558594 246.71875 30.414062 243.367188 29.371094 C 240.015625 28.324219 236.636719 27.386719 233.226562 26.550781 C 229.816406 25.714844 226.386719 24.984375 222.929688 24.359375 C 219.476562 23.734375 216.007812 23.214844 212.519531 22.800781 C 209.035156 22.390625 205.539062 22.085938 202.035156 21.886719 C 198.53125 21.691406 195.023438 21.601562 191.511719 21.617188 C 188.003906 21.636719 184.496094 21.761719 180.992188 21.996094 C 177.492188 22.230469 174 22.570312 170.515625 23.019531 C 167.035156 23.464844 163.570312 24.019531 160.125 24.679688 C 156.675781 25.339844 153.25 26.105469 149.851562 26.976562 C 146.449219 27.847656 143.078125 28.824219 139.738281 29.902344 C 136.398438 30.980469 133.09375 32.160156 129.824219 33.441406 C 126.558594 34.71875 123.332031 36.101562 120.148438 37.578125 C 116.964844 39.058594 113.832031 40.632812 110.746094 42.304688 C 107.65625 43.976562 104.625 45.742188 101.648438 47.601562 C 98.667969 49.457031 95.75 51.40625 92.894531 53.441406 C 90.035156 55.480469 87.242188 57.601562 84.511719 59.8125 C 81.785156 62.019531 79.128906 64.308594 76.539062 66.679688 C 73.953125 69.054688 71.441406 71.503906 69.003906 74.027344 C 66.570312 76.554688 64.210938 79.152344 61.933594 81.824219 C 59.65625 84.496094 57.464844 87.234375 55.355469 90.039062 C 53.246094 92.84375 51.226562 95.710938 49.292969 98.640625 C 47.363281 101.570312 45.523438 104.558594 43.773438 107.601562 C 42.023438 110.640625 40.371094 113.734375 38.8125 116.878906 C 37.253906 120.023438 35.792969 123.214844 34.429688 126.449219 C 33.066406 129.683594 31.804688 132.953125 30.640625 136.265625 C 29.480469 139.578125 28.421875 142.921875 27.464844 146.296875 C 26.507812 149.675781 25.65625 153.078125 24.910156 156.507812 C 24.164062 159.933594 23.523438 163.382812 22.988281 166.851562 C 22.453125 170.320312 22.023438 173.800781 21.703125 177.296875 C 21.382812 180.789062 21.167969 184.292969 21.0625 187.800781 C 20.957031 191.308594 20.957031 194.816406 21.066406 198.324219 C 21.175781 201.828125 21.394531 205.332031 21.71875 208.824219 C 22.042969 212.320312 22.476562 215.800781 23.015625 219.269531 C 23.554688 222.734375 24.199219 226.183594 24.949219 229.613281 C 25.699219 233.039062 26.554688 236.441406 27.515625 239.816406 C 28.472656 243.191406 29.535156 246.535156 30.703125 249.847656 C 31.867188 253.15625 33.132812 256.425781 34.5 259.660156 C 38.8125 269.871094 44.070312 279.574219 50.269531 288.765625 C 56.46875 297.957031 63.496094 306.46875 71.347656 314.296875 Z M 192.929688 27.285156 C 284.195312 27.285156 358.449219 101.511719 358.449219 192.75 C 358.449219 283.988281 284.195312 358.21875 192.929688 358.21875 C 101.664062 358.21875 27.414062 283.992188 27.414062 192.75 C 27.414062 101.507812 101.664062 27.285156 192.929688 27.285156 Z M 192.929688 27.285156 " fill-opacity="1" fill-rule="nonzero"/><path fill="#dbceff" d="M 81.269531 261.652344 C 81.277344 261.648438 81.289062 261.640625 81.296875 261.636719 C 82.035156 261.230469 82.722656 260.761719 83.367188 260.226562 C 84.015625 259.691406 84.601562 259.097656 85.136719 258.449219 C 85.667969 257.800781 86.132812 257.109375 86.535156 256.375 C 86.933594 255.636719 87.261719 254.867188 87.515625 254.070312 C 87.769531 253.269531 87.945312 252.453125 88.042969 251.621094 C 88.140625 250.789062 88.160156 249.953125 88.101562 249.117188 C 88.039062 248.28125 87.898438 247.457031 87.679688 246.648438 C 87.464844 245.839844 87.171875 245.058594 86.804688 244.304688 C 78.335938 226.875 74.066406 206.925781 74.777344 188.128906 C 75.085938 179.902344 76.253906 171.804688 78.292969 163.832031 C 80.328125 155.855469 83.179688 148.1875 86.855469 140.820312 C 87.339844 139.851562 87.835938 138.882812 88.347656 137.917969 C 88.375 137.867188 88.398438 137.816406 88.425781 137.765625 C 88.425781 137.757812 88.429688 137.75 88.433594 137.742188 C 108.59375 99.785156 147.121094 75.675781 189.789062 74.574219 C 190.457031 74.558594 191.125 74.566406 191.832031 74.570312 C 192.195312 74.570312 192.566406 74.574219 192.929688 74.574219 C 222.605469 74.578125 250.261719 85.382812 271.453125 104.234375 L 197.0625 173.097656 C 196.28125 172.933594 195.488281 172.816406 194.695312 172.746094 C 193.898438 172.675781 193.097656 172.65625 192.300781 172.679688 C 191.5 172.703125 190.707031 172.777344 189.917969 172.898438 C 189.125 173.019531 188.34375 173.183594 187.574219 173.398438 C 186.804688 173.609375 186.050781 173.867188 185.308594 174.171875 C 184.570312 174.476562 183.851562 174.820312 183.152344 175.210938 C 182.453125 175.601562 181.78125 176.027344 181.136719 176.5 C 180.488281 176.96875 179.871094 177.472656 179.285156 178.015625 C 178.699219 178.558594 178.144531 179.136719 177.628906 179.746094 C 177.109375 180.355469 176.628906 180.992188 176.1875 181.65625 C 175.746094 182.324219 175.347656 183.011719 174.988281 183.726562 C 174.628906 184.441406 174.3125 185.171875 174.039062 185.925781 C 173.769531 186.675781 173.542969 187.441406 173.363281 188.21875 C 173.179688 189 173.046875 189.785156 172.960938 190.578125 C 172.875 191.375 172.835938 192.171875 172.84375 192.96875 C 172.851562 193.769531 172.910156 194.566406 173.011719 195.359375 L 150.378906 216.308594 L 150.269531 216.40625 C 150.113281 216.554688 149.972656 216.714844 149.84375 216.890625 C 149.8125 216.933594 149.785156 216.980469 149.753906 217.027344 C 149.722656 217.070312 149.695312 217.117188 149.667969 217.164062 C 149.640625 217.210938 149.617188 217.253906 149.59375 217.304688 C 149.570312 217.347656 149.546875 217.390625 149.53125 217.4375 C 149.488281 217.527344 149.453125 217.613281 149.421875 217.703125 C 149.40625 217.757812 149.386719 217.808594 149.371094 217.863281 C 149.359375 217.917969 149.339844 217.976562 149.328125 218.03125 C 149.324219 218.039062 149.320312 218.046875 149.320312 218.058594 C 149.28125 218.214844 149.257812 218.375 149.25 218.539062 C 149.246094 218.578125 149.246094 218.617188 149.246094 218.65625 C 149.242188 218.671875 149.242188 218.6875 149.242188 218.703125 L 149.242188 218.765625 C 149.242188 219.652344 149.554688 220.410156 150.183594 221.039062 L 164.636719 235.484375 C 164.710938 235.558594 164.792969 235.628906 164.875 235.695312 C 164.875 235.699219 164.878906 235.699219 164.882812 235.703125 C 165 235.800781 165.128906 235.890625 165.261719 235.972656 C 165.402344 236.054688 165.546875 236.128906 165.699219 236.191406 C 165.746094 236.210938 165.792969 236.226562 165.84375 236.246094 C 165.941406 236.28125 166.042969 236.308594 166.144531 236.332031 C 166.242188 236.359375 166.34375 236.378906 166.449219 236.394531 C 166.464844 236.398438 166.484375 236.398438 166.5 236.402344 C 166.578125 236.410156 166.652344 236.417969 166.726562 236.421875 C 166.789062 236.425781 166.847656 236.429688 166.90625 236.425781 C 166.929688 236.429688 166.949219 236.425781 166.972656 236.425781 C 167.03125 236.425781 167.085938 236.421875 167.144531 236.417969 C 167.195312 236.410156 167.246094 236.40625 167.296875 236.402344 C 167.398438 236.386719 167.503906 236.371094 167.601562 236.351562 C 167.613281 236.347656 167.621094 236.347656 167.632812 236.34375 C 167.730469 236.320312 167.828125 236.292969 167.925781 236.257812 C 168.023438 236.226562 168.113281 236.191406 168.207031 236.148438 C 168.3125 236.105469 168.414062 236.054688 168.511719 236 C 168.546875 235.980469 168.574219 235.960938 168.609375 235.941406 C 168.765625 235.84375 168.910156 235.734375 169.046875 235.613281 C 169.125 235.542969 169.195312 235.46875 169.265625 235.394531 L 190.324219 212.664062 C 191.1875 212.777344 192.058594 212.832031 192.929688 212.832031 C 193.542969 212.832031 194.148438 212.804688 194.742188 212.75 C 195.808594 212.652344 196.855469 212.472656 197.890625 212.207031 C 198.925781 211.941406 199.933594 211.597656 200.914062 211.171875 C 201.894531 210.746094 202.832031 210.246094 203.734375 209.671875 C 204.632812 209.09375 205.480469 208.453125 206.28125 207.742188 C 207.078125 207.03125 207.816406 206.265625 208.488281 205.4375 C 209.164062 204.609375 209.769531 203.734375 210.308594 202.808594 C 210.84375 201.886719 211.304688 200.925781 211.6875 199.929688 C 212.070312 198.933594 212.371094 197.910156 212.589844 196.867188 C 213.164062 194.117188 213.164062 191.371094 212.589844 188.625 L 214.472656 186.589844 L 247.695312 150.722656 L 272.648438 123.785156 L 281.457031 114.277344 C 281.957031 114.84375 282.453125 115.417969 282.945312 115.996094 C 284.324219 117.625 285.664062 119.296875 286.964844 121.007812 C 287.128906 121.222656 287.292969 121.4375 287.453125 121.652344 C 288.742188 123.371094 289.988281 125.132812 291.191406 126.9375 C 293.453125 130.328125 295.535156 133.820312 297.4375 137.421875 C 297.488281 137.570312 297.550781 137.710938 297.625 137.847656 C 302.0625 146.3125 305.421875 155.183594 307.710938 164.460938 C 309.996094 173.742188 311.144531 183.15625 311.152344 192.710938 C 311.152344 209.558594 306.957031 227.292969 299.023438 243.996094 C 298.648438 244.761719 298.351562 245.550781 298.125 246.371094 C 297.902344 247.191406 297.761719 248.027344 297.695312 248.875 C 297.632812 249.722656 297.648438 250.566406 297.742188 251.410156 C 297.839844 252.253906 298.015625 253.082031 298.269531 253.894531 C 298.523438 254.707031 298.851562 255.484375 299.253906 256.234375 C 299.65625 256.984375 300.125 257.6875 300.660156 258.347656 C 301.195312 259.003906 301.789062 259.609375 302.441406 260.15625 C 303.089844 260.703125 303.789062 261.183594 304.53125 261.597656 L 304.695312 261.6875 C 306.753906 262.855469 308.960938 263.441406 311.328125 263.445312 C 312.738281 263.445312 314.117188 263.230469 315.460938 262.800781 C 317.273438 262.222656 318.894531 261.308594 320.328125 260.058594 C 321.761719 258.808594 322.890625 257.324219 323.707031 255.609375 C 328.363281 245.777344 331.882812 235.554688 334.273438 224.945312 C 336.664062 214.332031 337.867188 203.589844 337.878906 192.710938 C 337.871094 181.6875 336.625 170.808594 334.136719 160.070312 C 331.648438 149.328125 327.984375 139.007812 323.148438 129.101562 C 323.109375 128.996094 323.066406 128.890625 323.015625 128.792969 C 321.53125 125.773438 319.945312 122.808594 318.253906 119.898438 C 316.5625 116.992188 314.773438 114.144531 312.882812 111.359375 C 310.996094 108.578125 309.011719 105.863281 306.933594 103.214844 C 304.855469 100.570312 302.6875 98 300.429688 95.507812 C 298.171875 93.011719 295.832031 90.597656 293.40625 88.269531 C 290.980469 85.9375 288.476562 83.691406 285.894531 81.535156 C 283.308594 79.378906 280.65625 77.3125 277.929688 75.34375 C 275.203125 73.371094 272.414062 71.496094 269.554688 69.71875 C 266.699219 67.941406 263.78125 66.265625 260.808594 64.691406 C 257.835938 63.117188 254.8125 61.648438 251.734375 60.285156 C 248.660156 58.921875 245.539062 57.667969 242.375 56.519531 C 239.210938 55.375 236.011719 54.339844 232.777344 53.417969 C 229.539062 52.496094 226.277344 51.6875 222.984375 50.988281 C 219.691406 50.292969 216.378906 49.714844 213.046875 49.25 C 209.714844 48.785156 206.367188 48.4375 203.011719 48.207031 C 199.65625 47.972656 196.292969 47.859375 192.929688 47.863281 C 189.019531 47.863281 185.765625 47.960938 182.691406 48.171875 C 133.054688 51.578125 88.273438 80.914062 64.796875 125.09375 C 64.71875 125.203125 64.652344 125.316406 64.585938 125.4375 C 60.039062 134.007812 56.40625 142.953125 53.691406 152.269531 C 50.972656 161.585938 49.226562 171.078125 48.453125 180.753906 C 46.359375 206.683594 51.222656 233.324219 62.148438 255.773438 C 62.972656 257.449219 64.089844 258.898438 65.507812 260.117188 C 66.925781 261.335938 68.527344 262.226562 70.308594 262.789062 C 71.675781 263.226562 73.078125 263.445312 74.511719 263.445312 C 76.855469 263.445312 79.050781 262.875 81.101562 261.742188 Z M 166.820312 228.578125 L 157.335938 219.097656 L 157.089844 218.851562 L 175.167969 202.117188 C 176.113281 203.90625 177.304688 205.511719 178.734375 206.941406 C 180.164062 208.371094 181.773438 209.558594 183.5625 210.507812 Z M 196.578125 205.910156 C 195.382812 206.238281 194.167969 206.402344 192.929688 206.402344 C 192.695312 206.402344 192.457031 206.398438 192.222656 206.386719 C 190.894531 206.316406 189.601562 206.054688 188.347656 205.609375 C 187.09375 205.160156 185.929688 204.542969 184.855469 203.753906 C 183.785156 202.96875 182.84375 202.042969 182.042969 200.980469 C 181.238281 199.921875 180.601562 198.765625 180.132812 197.519531 C 179.5625 195.980469 179.273438 194.390625 179.269531 192.75 C 179.269531 192.1875 179.304688 191.632812 179.375 191.074219 C 179.441406 190.519531 179.542969 189.972656 179.679688 189.429688 C 179.816406 188.886719 179.984375 188.355469 180.1875 187.832031 C 180.386719 187.308594 180.621094 186.800781 180.886719 186.308594 C 181.148438 185.816406 181.441406 185.339844 181.765625 184.882812 C 182.085938 184.425781 182.4375 183.988281 182.8125 183.574219 C 183.1875 183.160156 183.589844 182.769531 184.011719 182.40625 C 184.4375 182.039062 184.878906 181.703125 185.347656 181.390625 C 185.8125 181.082031 186.292969 180.800781 186.792969 180.546875 C 187.292969 180.296875 187.808594 180.078125 188.335938 179.890625 C 188.863281 179.699219 189.398438 179.546875 189.945312 179.421875 C 190.492188 179.300781 191.042969 179.210938 191.601562 179.160156 C 192.15625 179.105469 192.714844 179.082031 193.273438 179.097656 C 193.835938 179.113281 194.390625 179.160156 194.945312 179.242188 C 195.5 179.324219 196.042969 179.441406 196.585938 179.59375 C 197.125 179.742188 197.652344 179.925781 198.167969 180.136719 C 198.335938 180.210938 198.507812 180.28125 198.671875 180.363281 C 199.855469 180.910156 200.9375 181.609375 201.917969 182.46875 C 202.898438 183.324219 203.738281 184.300781 204.441406 185.398438 C 205.144531 186.496094 205.675781 187.667969 206.042969 188.917969 C 206.40625 190.167969 206.589844 191.445312 206.589844 192.75 C 206.589844 193.042969 206.578125 193.335938 206.558594 193.628906 C 206.523438 194.214844 206.449219 194.796875 206.335938 195.375 C 206.089844 196.617188 205.679688 197.804688 205.105469 198.933594 C 204.527344 200.0625 203.808594 201.09375 202.949219 202.023438 C 202.085938 202.953125 201.117188 203.746094 200.03125 204.40625 C 198.949219 205.070312 197.800781 205.570312 196.578125 205.910156 Z M 243.363281 145.941406 L 218.40625 172.882812 L 209.917969 182.046875 C 208.332031 179.542969 206.296875 177.484375 203.808594 175.875 C 203.75 175.835938 203.695312 175.800781 203.640625 175.765625 L 276.152344 108.648438 C 276.457031 108.953125 276.761719 109.257812 277.0625 109.5625 Z M 281.367188 104.914062 C 281.179688 104.714844 280.988281 104.527344 280.800781 104.34375 L 282.472656 102.796875 L 282.914062 103.242188 Z M 317.902344 252.847656 C 317.472656 253.765625 316.875 254.554688 316.113281 255.222656 C 315.351562 255.886719 314.484375 256.371094 313.519531 256.671875 C 312.574219 256.976562 311.605469 257.078125 310.617188 256.976562 C 309.628906 256.871094 308.703125 256.574219 307.839844 256.082031 L 307.675781 255.988281 C 307.285156 255.769531 306.921875 255.515625 306.582031 255.226562 C 306.242188 254.9375 305.933594 254.621094 305.65625 254.273438 C 305.375 253.925781 305.132812 253.558594 304.921875 253.164062 C 304.714844 252.769531 304.542969 252.363281 304.414062 251.9375 C 304.28125 251.511719 304.191406 251.078125 304.144531 250.632812 C 304.09375 250.191406 304.089844 249.746094 304.125 249.304688 C 304.160156 248.859375 304.238281 248.425781 304.359375 247.996094 C 304.476562 247.566406 304.636719 247.152344 304.832031 246.753906 C 313.171875 229.191406 317.582031 210.503906 317.582031 192.710938 C 317.574219 183.726562 316.609375 174.84375 314.683594 166.066406 C 312.761719 157.289062 309.921875 148.820312 306.167969 140.65625 C 305.71875 139.671875 305.253906 138.695312 304.773438 137.722656 L 317.0625 131.277344 C 317.597656 132.359375 318.121094 133.441406 318.628906 134.53125 C 322.878906 143.636719 326.085938 153.097656 328.25 162.914062 C 330.414062 172.726562 331.480469 182.660156 331.449219 192.710938 C 331.441406 203.109375 330.292969 213.382812 328.007812 223.527344 C 325.71875 233.675781 322.351562 243.449219 317.902344 252.847656 Z M 314.082031 125.582031 C 314.664062 126.632812 315.234375 127.691406 315.792969 128.757812 L 303.359375 134.871094 C 302.855469 133.914062 302.339844 132.964844 301.816406 132.019531 C 300.019531 128.804688 298.085938 125.675781 296.015625 122.640625 C 293.558594 119.03125 290.917969 115.5625 288.09375 112.234375 C 287.339844 111.34375 286.574219 110.464844 285.789062 109.59375 L 289.730469 105.339844 C 290.015625 105.035156 290.230469 104.6875 290.378906 104.300781 C 290.523438 103.910156 290.59375 103.511719 290.585938 103.09375 C 290.578125 102.679688 290.496094 102.28125 290.332031 101.898438 C 290.167969 101.515625 289.941406 101.179688 289.648438 100.882812 L 284.828125 96.066406 C 284.535156 95.773438 284.199219 95.546875 283.816406 95.382812 C 283.433594 95.21875 283.035156 95.132812 282.621094 95.125 C 282.203125 95.117188 281.800781 95.1875 281.414062 95.335938 C 281.023438 95.484375 280.679688 95.699219 280.375 95.980469 L 276.113281 99.921875 C 273.386719 97.480469 270.554688 95.160156 267.625 92.964844 C 264.691406 90.769531 261.667969 88.710938 258.554688 86.78125 C 255.441406 84.855469 252.246094 83.066406 248.976562 81.421875 C 245.703125 79.773438 242.363281 78.277344 238.960938 76.925781 C 235.554688 75.574219 232.097656 74.375 228.589844 73.332031 C 225.078125 72.285156 221.527344 71.394531 217.9375 70.664062 C 214.351562 69.929688 210.734375 69.359375 207.097656 68.945312 C 203.457031 68.53125 199.804688 68.28125 196.144531 68.191406 L 196.144531 54.324219 C 245.746094 55.453125 290.15625 82.371094 314.082031 125.582031 Z M 117.03125 76.992188 C 121.945312 73.75 127.046875 70.832031 132.335938 68.242188 C 137.625 65.652344 143.058594 63.414062 148.632812 61.523438 C 154.210938 59.628906 159.886719 58.105469 165.660156 56.941406 C 171.433594 55.78125 177.257812 54.996094 183.132812 54.582031 C 185.183594 54.441406 187.324219 54.351562 189.714844 54.3125 L 189.714844 68.148438 L 189.628906 68.148438 C 183.910156 68.300781 178.230469 68.851562 172.589844 69.792969 C 166.949219 70.734375 161.402344 72.0625 155.945312 73.773438 C 150.488281 75.488281 145.175781 77.566406 140.007812 80.019531 C 134.839844 82.46875 129.867188 85.261719 125.089844 88.402344 C 116.621094 93.945312 108.933594 100.414062 102.019531 107.800781 C 95.109375 115.1875 89.167969 123.289062 84.199219 132.101562 C 83.636719 133.101562 83.085938 134.105469 82.550781 135.121094 L 70.011719 128.984375 C 70.601562 127.851562 71.210938 126.726562 71.832031 125.613281 C 77.300781 115.8125 83.859375 106.804688 91.5 98.582031 C 99.144531 90.359375 107.652344 83.164062 117.03125 76.992188 Z M 78.214844 255.996094 L 78.046875 256.089844 C 78.035156 256.09375 78.023438 256.097656 78.011719 256.105469 C 77.132812 256.59375 76.191406 256.886719 75.191406 256.984375 C 74.191406 257.078125 73.210938 256.972656 72.253906 256.664062 C 71.308594 256.371094 70.457031 255.90625 69.707031 255.261719 C 68.953125 254.617188 68.359375 253.851562 67.925781 252.960938 C 57.5 231.527344 52.859375 206.070312 54.859375 181.269531 C 55.503906 173.207031 56.859375 165.269531 58.921875 157.453125 C 60.988281 149.636719 63.730469 142.0625 67.148438 134.734375 C 67.683594 133.578125 68.238281 132.429688 68.808594 131.285156 L 81.191406 137.78125 C 80.675781 138.808594 80.179688 139.84375 79.699219 140.882812 C 76.257812 148.257812 73.582031 155.902344 71.671875 163.816406 C 69.761719 171.726562 68.65625 179.75 68.355469 187.882812 C 67.597656 207.714844 72.097656 228.746094 81.019531 247.113281 C 81.214844 247.496094 81.371094 247.898438 81.484375 248.3125 C 81.601562 248.726562 81.675781 249.148438 81.710938 249.578125 C 81.746094 250.007812 81.738281 250.4375 81.6875 250.863281 C 81.640625 251.292969 81.550781 251.714844 81.421875 252.125 C 81.289062 252.535156 81.121094 252.929688 80.917969 253.308594 C 80.710938 253.6875 80.46875 254.042969 80.195312 254.375 C 79.921875 254.707031 79.617188 255.007812 79.28125 255.28125 C 78.949219 255.554688 78.59375 255.792969 78.214844 255.996094 Z M 78.214844 255.996094 " fill-opacity="1" fill-rule="nonzero"/><path fill="#dbceff" d="M 248.472656 276.417969 C 248.023438 276.417969 247.59375 276.503906 247.179688 276.675781 C 246.761719 276.847656 246.398438 277.09375 246.082031 277.410156 C 245.761719 277.726562 245.519531 278.09375 245.347656 278.507812 C 245.175781 278.921875 245.089844 279.351562 245.089844 279.800781 L 245.089844 296.84375 L 224.128906 296.84375 L 224.128906 279.800781 C 224.128906 279.351562 224.042969 278.921875 223.871094 278.507812 C 223.699219 278.09375 223.453125 277.726562 223.136719 277.410156 C 222.820312 277.09375 222.453125 276.847656 222.039062 276.675781 C 221.625 276.503906 221.191406 276.417969 220.742188 276.417969 C 220.296875 276.417969 219.863281 276.503906 219.449219 276.675781 C 219.035156 276.847656 218.667969 277.09375 218.351562 277.410156 C 218.035156 277.726562 217.789062 278.09375 217.617188 278.507812 C 217.445312 278.921875 217.359375 279.351562 217.359375 279.800781 L 217.359375 296.84375 L 196.398438 296.84375 L 196.398438 279.800781 C 196.398438 279.351562 196.3125 278.921875 196.140625 278.507812 C 195.96875 278.09375 195.726562 277.726562 195.40625 277.410156 C 195.089844 277.09375 194.722656 276.847656 194.308594 276.675781 C 193.894531 276.503906 193.464844 276.417969 193.015625 276.417969 C 192.566406 276.417969 192.132812 276.503906 191.71875 276.675781 C 191.304688 276.847656 190.941406 277.09375 190.621094 277.410156 C 190.304688 277.726562 190.0625 278.09375 189.890625 278.507812 C 189.71875 278.921875 189.632812 279.351562 189.632812 279.800781 L 189.632812 296.84375 L 168.667969 296.84375 L 168.667969 279.800781 C 168.667969 279.351562 168.582031 278.921875 168.414062 278.507812 C 168.242188 278.09375 167.996094 277.726562 167.679688 277.410156 C 167.363281 277.09375 166.996094 276.847656 166.582031 276.675781 C 166.167969 276.503906 165.734375 276.417969 165.285156 276.417969 C 164.835938 276.417969 164.40625 276.503906 163.992188 276.675781 C 163.578125 276.847656 163.210938 277.09375 162.894531 277.410156 C 162.578125 277.726562 162.332031 278.09375 162.160156 278.507812 C 161.988281 278.921875 161.902344 279.351562 161.902344 279.800781 L 161.902344 296.84375 L 140.941406 296.84375 L 140.941406 279.800781 C 140.941406 279.351562 140.855469 278.921875 140.683594 278.507812 C 140.511719 278.09375 140.265625 277.726562 139.949219 277.410156 C 139.632812 277.09375 139.265625 276.847656 138.851562 276.675781 C 138.4375 276.503906 138.003906 276.417969 137.558594 276.417969 C 137.109375 276.417969 136.675781 276.503906 136.261719 276.675781 C 135.847656 276.847656 135.480469 277.09375 135.164062 277.410156 C 134.847656 277.726562 134.601562 278.09375 134.429688 278.507812 C 134.257812 278.921875 134.171875 279.351562 134.171875 279.800781 L 134.171875 300.199219 C 134.335938 300.679688 134.570312 301.128906 134.867188 301.542969 C 135.167969 301.957031 135.523438 302.316406 135.933594 302.621094 C 136.34375 302.925781 136.789062 303.164062 137.273438 303.332031 C 137.753906 303.5 138.25 303.59375 138.761719 303.609375 L 246.3125 303.609375 C 247.027344 303.355469 247.75 303.34375 248.472656 303.582031 C 248.921875 303.578125 249.351562 303.496094 249.769531 303.324219 C 250.183594 303.152344 250.546875 302.90625 250.867188 302.589844 C 251.183594 302.273438 251.425781 301.90625 251.597656 301.492188 C 251.769531 301.078125 251.855469 300.644531 251.855469 300.199219 L 251.855469 279.800781 C 251.855469 279.351562 251.769531 278.921875 251.597656 278.507812 C 251.425781 278.09375 251.183594 277.726562 250.867188 277.410156 C 250.546875 277.09375 250.183594 276.847656 249.769531 276.675781 C 249.351562 276.503906 248.921875 276.417969 248.472656 276.417969 Z M 248.472656 276.417969 " fill-opacity="1" fill-rule="nonzero"/></svg>