<svg xmlns="http://www.w3.org/2000/svg" xmlns:xlink="http://www.w3.org/1999/xlink" width="512" zoomAndPan="magnify" viewBox="0 0 384 383.999986" height="512" preserveAspectRatio="xMidYMid meet" version="1.0"><defs><clipPath id="id1"><path d="M 17 25.949219 L 367 25.949219 L 367 358.199219 L 17 358.199219 Z M 17 25.949219 " clip-rule="nonzero"/></clipPath></defs><g clip-path="url(#id1)"><path fill="#dbceff" d="M 183.496094 25.941406 C 210.097656 25.941406 235.234375 32.199219 257.527344 43.308594 C 258.582031 43.835938 259.257812 44.753906 259.449219 45.917969 C 259.640625 47.085938 259.289062 48.167969 258.453125 49.003906 L 232.828125 74.625 C 230.832031 76.621094 228.039062 77.242188 225.382812 76.28125 C 212.308594 71.550781 198.203125 68.96875 183.496094 68.96875 C 115.492188 68.96875 60.367188 124.085938 60.367188 192.074219 C 60.367188 260.066406 115.492188 315.183594 183.496094 315.183594 C 251.496094 315.183594 306.625 260.066406 306.625 192.074219 L 290.175781 192.074219 C 288.8125 192.074219 287.644531 191.363281 287.019531 190.152344 C 286.390625 188.945312 286.488281 187.578125 287.273438 186.46875 L 323.738281 134.984375 C 324.425781 134.015625 325.449219 133.484375 326.636719 133.484375 C 327.828125 133.484375 328.851562 134.015625 329.539062 134.984375 L 366 186.46875 C 366.789062 187.578125 366.882812 188.945312 366.257812 190.152344 C 365.632812 191.363281 364.464844 192.074219 363.101562 192.074219 L 349.660156 192.074219 C 349.660156 283.828125 275.265625 358.210938 183.496094 358.210938 C 91.722656 358.210938 17.332031 283.828125 17.332031 192.074219 C 17.332031 100.320312 91.726562 25.941406 183.496094 25.941406 Z M 112.207031 194.3125 L 158.574219 240.667969 C 165.332031 247.425781 176.292969 247.425781 183.050781 240.667969 C 216.261719 207.464844 221.777344 201.222656 254.828125 167.847656 C 261.550781 161.085938 261.523438 150.160156 254.761719 143.4375 C 248.003906 136.714844 237.070312 136.746094 230.351562 143.503906 L 170.785156 203.925781 L 136.6875 169.835938 C 129.929688 163.078125 118.96875 163.078125 112.210938 169.835938 C 105.449219 176.59375 105.449219 187.550781 112.207031 194.3125 Z M 112.207031 194.3125 " fill-opacity="1" fill-rule="evenodd"/></g></svg>